<svg width="1280" height="720" xmlns="http://www.w3.org/2000/svg" xmlns:xlink="http://www.w3.org/1999/xlink" overflow="hidden"><defs><clipPath id="clip0"><rect x="0" y="0" width="1280" height="720"/></clipPath><clipPath id="clip1"><rect x="905" y="13" width="96" height="96"/></clipPath><clipPath id="clip2"><rect x="905" y="13" width="96" height="96"/></clipPath><clipPath id="clip3"><rect x="905" y="13" width="96" height="96"/></clipPath></defs><g clip-path="url(#clip0)"><rect x="0" y="0" width="1280" height="720" fill="#FFFFFF"/><path d="M41.5001 234.199C41.5001 227.738 46.7379 222.5 53.1992 222.5L1247.8 222.5C1254.26 222.5 1259.5 227.738 1259.5 234.199L1259.5 589.801C1259.5 596.262 1254.26 601.5 1247.8 601.5L53.1992 601.5C46.7379 601.5 41.5001 596.262 41.5001 589.801Z" stroke="#000000" stroke-width="1.33333" stroke-miterlimit="8" fill="none" fill-rule="evenodd"/><path d="M289.5 385.198C289.5 384.26 290.26 383.5 291.198 383.5L482.802 383.5C483.74 383.5 484.5 384.26 484.5 385.198L484.5 436.802C484.5 437.74 483.74 438.5 482.802 438.5L291.198 438.5C290.26 438.5 289.5 437.74 289.5 436.802Z" stroke="#000000" stroke-width="1.33333" stroke-miterlimit="8" fill="none" fill-rule="evenodd"/><text font-family="Calibri,Calibri_MSFontService,sans-serif" font-weight="400" font-size="24" transform="translate(339.141 418)">operation</text><path d="M71.5001 385.198C71.5001 384.26 72.2602 383.5 73.1979 383.5L230.802 383.5C231.74 383.5 232.5 384.26 232.5 385.198L232.5 436.802C232.5 437.74 231.74 438.5 230.802 438.5L73.1979 438.5C72.2602 438.5 71.5001 437.74 71.5001 436.802Z" stroke="#000000" stroke-width="1.33333" stroke-miterlimit="8" fill="none" fill-rule="evenodd"/><text font-family="Calibri,Calibri_MSFontService,sans-serif" font-weight="400" font-size="24" transform="translate(113.379 418)">settings</text><path d="M72.5001 473.784C72.5001 472.523 73.5228 471.5 74.7844 471.5L482.216 471.5C483.477 471.5 484.5 472.523 484.5 473.784L484.5 543.216C484.5 544.477 483.477 545.5 482.216 545.5L74.7844 545.5C73.5228 545.5 72.5001 544.477 72.5001 543.216Z" stroke="#000000" stroke-width="1.33333" stroke-miterlimit="8" fill="none" fill-rule="evenodd"/><text font-family="Calibri,Calibri_MSFontService,sans-serif" font-weight="400" font-size="24" transform="translate(199.321 515)">ReviewManager</text><path d="M109.5 179.889C109.5 179.122 110.122 178.5 110.889 178.5L1221.11 178.5C1221.88 178.5 1222.5 179.122 1222.5 179.889L1222.5 222.111C1222.5 222.878 1221.88 223.5 1221.11 223.5L110.889 223.5C110.122 223.5 109.5 222.878 109.5 222.111Z" stroke="#000000" stroke-width="1.33333" stroke-miterlimit="8" fill="#FFFFFF" fill-rule="evenodd"/><text font-family="Calibri,Calibri_MSFontService,sans-serif" font-weight="700" font-size="24" transform="translate(418.845 208)">colrev</text><text font-family="Calibri,Calibri_MSFontService,sans-serif" font-weight="400" font-size="24" transform="translate(484.338 208)">(cli)</text><text font-family="Calibri,Calibri_MSFontService,sans-serif" font-weight="400" font-size="24" transform="translate(525.672 208)">or</text><text font-family="Calibri,Calibri_MSFontService,sans-serif" font-weight="700" font-size="24" transform="translate(552.172 208)">colrev</text><text font-family="Calibri,Calibri_MSFontService,sans-serif" font-weight="700" font-size="24" transform="translate(612.165 208)">_hooks</text><text font-family="Calibri,Calibri_MSFontService,sans-serif" font-weight="400" font-size="24" transform="translate(688.965 208)">(git pre</text><text font-family="Calibri,Calibri_MSFontService,sans-serif" font-weight="400" font-size="24" transform="translate(759.438 208)">-</text><text font-family="Calibri,Calibri_MSFontService,sans-serif" font-weight="400" font-size="24" transform="translate(766.772 208)">commit hooks</text><text font-family="Calibri,Calibri_MSFontService,sans-serif" font-weight="400" font-size="24" transform="translate(904.685 208)">)</text><path d="M71.5001 579.92C71.5001 579.136 72.1358 578.5 72.9201 578.5L248.08 578.5C248.864 578.5 249.5 579.136 249.5 579.92L249.5 623.08C249.5 623.864 248.864 624.5 248.08 624.5L72.9201 624.5C72.1358 624.5 71.5001 623.864 71.5001 623.08Z" stroke="#000000" stroke-width="1.33333" stroke-miterlimit="8" fill="#FFFFFF" fill-rule="evenodd"/><text font-family="Calibri,Calibri_MSFontService,sans-serif" font-weight="400" font-size="24" transform="translate(122.538 609)">Dataset</text><path d="M258.5 579.92C258.5 579.136 259.136 578.5 259.92 578.5L483.08 578.5C483.864 578.5 484.5 579.136 484.5 579.92L484.5 623.08C484.5 623.864 483.864 624.5 483.08 624.5L259.92 624.5C259.136 624.5 258.5 623.864 258.5 623.08Z" stroke="#000000" stroke-width="1.33333" stroke-miterlimit="8" fill="#FFFFFF" fill-rule="evenodd"/><text font-family="Calibri,Calibri_MSFontService,sans-serif" font-weight="400" font-size="24" transform="translate(269.11 609)">EnvironmentServices</text><g clip-path="url(#clip1)"><g clip-path="url(#clip2)"><g clip-path="url(#clip3)"><path d="M969 43C969 51.8366 961.837 59 953 59 944.163 59 937 51.8366 937 43 937 34.1634 944.163 27 953 27 961.837 27 969 34.1634 969 43Z"/><path d="M982 70.91C981.727 68.8269 980.695 66.918 979.1 65.55 974.828 62.6245 970.045 60.525 965 59.36 964.43 59.23 963.83 59.12 963.23 59.01 957.029 62.9836 949.081 62.9836 942.88 59.01L941.08 59.34C936.03 60.5754 931.232 62.6764 926.9 65.55 925.12 66.69 924.38 68.81 924 70.91L921 88.1C920.82 89.5508 921.422 90.9884 922.58 91.88L929.43 96.4 929.43 74.75C929.43 72.2426 931.463 70.21 933.97 70.2099 933.98 70.2099 933.99 70.2099 934 70.21L972 70.21C974.507 70.21 976.54 72.2426 976.54 74.75L976.54 95.85 983.76 91.32C984.615 90.7428 985.089 89.7475 985 88.72Z"/><path d="M974.57 99.67 974.57 74.75C974.57 73.3472 973.433 72.2099 972.03 72.2098 972.02 72.2098 972.01 72.2099 972 72.21L934 72.21C932.597 72.21 931.46 73.3472 931.46 74.75L931.46 99.67 923.81 99.67 923.81 100.94C923.815 102.34 924.95 103.475 926.35 103.48L979.65 103.48C981.05 103.475 982.185 102.34 982.19 100.94L982.19 99.67ZM947.82 91.32 946.41 92.73 940.8 87.12 946.41 81.51 947.82 82.92 943.63 87.12ZM951.55 93.43 949.7 92.66 954.39 81.34 956.23 82.11ZM959.55 92.73 958.14 91.32 962.33 87.12 958.14 82.92 959.55 81.51 965.16 87.12Z"/></g></g></g><text font-family="Calibri,Calibri_MSFontService,sans-serif" font-weight="400" font-size="24" transform="translate(912.596 695)">extensible</text><path d="M953.5 114.5 953.5 175.829" stroke="#000000" stroke-width="0.666667" stroke-miterlimit="8" fill="none" fill-rule="evenodd"/><path d="M0 0 203.571 131.587" stroke="#000000" stroke-width="0.666667" stroke-miterlimit="8" fill="none" fill-rule="evenodd" transform="matrix(-1 0 0 1 688.071 279.5)"/><path d="M0 0 203.571 80.0311" stroke="#000000" stroke-width="0.666667" stroke-miterlimit="8" fill="none" fill-rule="evenodd" transform="matrix(-1 0 0 1 688.071 330.5)"/><path d="M0 0 203.571 28.4755" stroke="#000000" stroke-width="0.666667" stroke-miterlimit="8" fill="none" fill-rule="evenodd" transform="matrix(-1 0 0 1 688.071 382.5)"/><path d="M688.071 433.58 484.5 410.5" stroke="#000000" stroke-width="0.666667" stroke-miterlimit="8" fill="none" fill-rule="evenodd"/><path d="M0 0 57.4258 0.000104987" stroke="#000000" stroke-width="0.666667" stroke-miterlimit="8" fill="none" fill-rule="evenodd" transform="matrix(-1 0 0 1 289.926 410.5)"/><path d="M0 0 0.000104987 34.238" stroke="#000000" stroke-width="0.666667" stroke-miterlimit="8" fill="none" fill-rule="evenodd" transform="matrix(-1 0 0 1 386.5 438.5)"/><path d="M145.5 544.5 145.5 580.017" stroke="#000000" stroke-width="0.666667" stroke-miterlimit="8" fill="none" fill-rule="evenodd"/><path d="M388.5 546.5 388.5 580.246" stroke="#000000" stroke-width="0.666667" stroke-miterlimit="8" fill="none" fill-rule="evenodd"/><path d="M1045.44 94.6854C1063.57 98.5298 1075.59 115.808 1072.39 133.42L1075.67 134.811 1069.25 139.436 1066.63 130.982 1069.91 132.372C1072.49 116.333 1061.43 100.777 1044.95 97.2536Z" stroke="#000000" stroke-width="1.33333" stroke-miterlimit="8" fill-rule="evenodd"/><path d="M1004.75 126.219C1004.8 110.487 1016.55 97.0974 1032.66 94.4059L1032.72 90.8309 1039.17 95.2408 1032.55 100.641 1032.61 97.068C1017.98 99.7383 1007.41 111.952 1007.37 126.24Z" stroke="#000000" stroke-width="1.33333" stroke-miterlimit="8" fill-rule="evenodd"/><path d="M1069.48 144.354C1061.02 160.432 1040.64 166.935 1023.96 158.878 1015.91 154.988 1009.81 148.158 1007.04 139.907L1003.49 140.275 1006.88 133.123 1013.26 139.263 1009.71 139.63C1015.32 155.247 1033.09 163.49 1049.42 158.042 1057.09 155.481 1063.44 150.164 1067.12 143.216Z" stroke="#000000" stroke-width="1.33333" stroke-miterlimit="8" fill-rule="evenodd"/><text font-family="Calibri,Calibri_MSFontService,sans-serif" font-weight="400" font-size="24" transform="translate(1112.96 139)">workflow</text><path d="M0 0 343.527 134.369" stroke="#000000" stroke-width="0.666667" stroke-miterlimit="8" fill="none" fill-rule="evenodd" transform="matrix(-1 0 0 1 828.027 276.5)"/><path d="M0 0 343.527 82.8135" stroke="#000000" stroke-width="0.666667" stroke-miterlimit="8" fill="none" fill-rule="evenodd" transform="matrix(-1 0 0 1 828.027 328.5)"/><path d="M0 0 343.527 31.258" stroke="#000000" stroke-width="0.666667" stroke-miterlimit="8" fill="none" fill-rule="evenodd" transform="matrix(-1 0 0 1 828.027 379.5)"/><path d="M945.916 430.798 484.5 410.5" stroke="#000000" stroke-width="0.666667" stroke-miterlimit="8" fill="none" fill-rule="evenodd"/><path d="M0 0 483.088 135.306" stroke="#000000" stroke-width="0.666667" stroke-miterlimit="8" fill="none" fill-rule="evenodd" transform="matrix(-1 0 0 1 967.588 275.5)"/><path d="M0 0 483.088 83.7505" stroke="#000000" stroke-width="0.666667" stroke-miterlimit="8" fill="none" fill-rule="evenodd" transform="matrix(-1 0 0 1 967.588 327.5)"/><path d="M0 0 483.088 32.195" stroke="#000000" stroke-width="0.666667" stroke-miterlimit="8" fill="none" fill-rule="evenodd" transform="matrix(-1 0 0 1 967.588 378.5)"/><path d="M967.588 429.861 484.5 410.5" stroke="#000000" stroke-width="0.666667" stroke-miterlimit="8" fill="none" fill-rule="evenodd"/><path d="M1110.59 429.861 484.5 410.5" stroke="#000000" stroke-width="0.666667" stroke-miterlimit="8" fill="none" fill-rule="evenodd"/><path d="M688.071 540.666 484.5 410.5" stroke="#000000" stroke-width="0.666667" stroke-miterlimit="8" fill="none" fill-rule="evenodd"/><path d="M828.027 486.328 484.5 410.5" stroke="#000000" stroke-width="0.666667" stroke-miterlimit="8" fill="none" fill-rule="evenodd"/><path d="M828.027 537.884 484.5 410.5" stroke="#000000" stroke-width="0.666667" stroke-miterlimit="8" fill="none" fill-rule="evenodd"/><path d="M967.588 485.391 484.5 410.5" stroke="#000000" stroke-width="0.666667" stroke-miterlimit="8" fill="none" fill-rule="evenodd"/><path d="M967.588 536.947 484.5 410.5" stroke="#000000" stroke-width="0.666667" stroke-miterlimit="8" fill="none" fill-rule="evenodd"/><path d="M1254.5 632.5C1254.5 641.337 1253.31 648.5 1251.83 648.5L964.167 648.5C962.694 648.5 961.5 655.663 961.5 664.5 961.5 655.663 960.306 648.5 958.833 648.5L671.167 648.5C669.694 648.5 668.5 641.336 668.5 632.499" stroke="#000000" stroke-width="0.666667" stroke-miterlimit="8" fill="none" fill-rule="evenodd"/><path d="M0 0 626.088 135.306" stroke="#000000" stroke-width="0.666667" stroke-miterlimit="8" fill="none" fill-rule="evenodd" transform="matrix(-1 0 0 1 1110.59 275.5)"/><path d="M0 0 626.088 83.7505" stroke="#000000" stroke-width="0.666667" stroke-miterlimit="8" fill="none" fill-rule="evenodd" transform="matrix(-1 0 0 1 1110.59 327.5)"/><path d="M0 0 626.088 32.195" stroke="#000000" stroke-width="0.666667" stroke-miterlimit="8" fill="none" fill-rule="evenodd" transform="matrix(-1 0 0 1 1110.59 378.5)"/><path d="M1110.59 485.391 484.5 410.5" stroke="#000000" stroke-width="0.666667" stroke-miterlimit="8" fill="none" fill-rule="evenodd"/><path d="M1110.59 536.947 484.5 410.5" stroke="#000000" stroke-width="0.666667" stroke-miterlimit="8" fill="none" fill-rule="evenodd"/><path d="M386.5 348.5 387.088 383.137" stroke="#000000" stroke-width="0.666667" stroke-miterlimit="8" fill="none" fill-rule="evenodd"/><path d="M688.071 489.111 484.5 410.5" stroke="#000000" stroke-width="0.666667" stroke-miterlimit="8" fill="none" fill-rule="evenodd"/><path d="M828.5 256.797C828.5 256.081 829.081 255.5 829.797 255.5L945.203 255.5C945.92 255.5 946.5 256.081 946.5 256.797L946.5 296.204C946.5 296.92 945.92 297.5 945.203 297.5L829.797 297.5C829.081 297.5 828.5 296.92 828.5 296.204Z" stroke="#000000" stroke-width="1.33333" stroke-miterlimit="8" fill="#FFFFFF" fill-rule="evenodd"/><text font-family="Calibri,Calibri_MSFontService,sans-serif" font-weight="400" font-size="24" transform="translate(837.815 284)">prescreen</text><path d="M828.5 308.766C828.5 308.067 829.067 307.5 829.766 307.5L945.234 307.5C945.933 307.5 946.5 308.067 946.5 308.766L946.5 347.234C946.5 347.933 945.933 348.5 945.234 348.5L829.766 348.5C829.067 348.5 828.5 347.933 828.5 347.234Z" stroke="#000000" stroke-width="1.33333" stroke-miterlimit="8" fill="#FFFFFF" fill-rule="evenodd"/><text font-family="Calibri,Calibri_MSFontService,sans-serif" font-weight="400" font-size="24" transform="translate(837.815 335)">pdf</text><text font-family="Calibri,Calibri_MSFontService,sans-serif" font-weight="400" font-size="24" transform="translate(870.481 335)">-</text><text font-family="Calibri,Calibri_MSFontService,sans-serif" font-weight="400" font-size="24" transform="translate(877.815 335)">get</text><path d="M828.5 359.797C828.5 359.081 829.081 358.5 829.797 358.5L945.203 358.5C945.92 358.5 946.5 359.081 946.5 359.797L946.5 399.204C946.5 399.92 945.92 400.5 945.203 400.5L829.797 400.5C829.081 400.5 828.5 399.92 828.5 399.204Z" stroke="#000000" stroke-width="1.33333" stroke-miterlimit="8" fill="#FFFFFF" fill-rule="evenodd"/><text font-family="Calibri,Calibri_MSFontService,sans-serif" font-weight="400" font-size="24" transform="translate(837.815 387)">pdf</text><text font-family="Calibri,Calibri_MSFontService,sans-serif" font-weight="400" font-size="24" transform="translate(870.481 387)">-</text><text font-family="Calibri,Calibri_MSFontService,sans-serif" font-weight="400" font-size="24" transform="translate(877.815 387)">prep</text><path d="M967.5 255.797C967.5 255.081 968.081 254.5 968.797 254.5L1084.2 254.5C1084.92 254.5 1085.5 255.081 1085.5 255.797L1085.5 295.204C1085.5 295.92 1084.92 296.5 1084.2 296.5L968.797 296.5C968.081 296.5 967.5 295.92 967.5 295.204Z" stroke="#000000" stroke-width="1.33333" stroke-miterlimit="8" fill="#FFFFFF" fill-rule="evenodd"/><text font-family="Calibri,Calibri_MSFontService,sans-serif" font-weight="400" font-size="24" transform="translate(977.375 283)">pull</text><path d="M967.5 307.766C967.5 307.067 968.067 306.5 968.766 306.5L1084.23 306.5C1084.93 306.5 1085.5 307.067 1085.5 307.766L1085.5 346.234C1085.5 346.933 1084.93 347.5 1084.23 347.5L968.766 347.5C968.067 347.5 967.5 346.933 967.5 346.234Z" stroke="#000000" stroke-width="1.33333" stroke-miterlimit="8" fill="#FFFFFF" fill-rule="evenodd"/><text font-family="Calibri,Calibri_MSFontService,sans-serif" font-weight="400" font-size="24" transform="translate(977.375 334)">push</text><path d="M967.5 359.766C967.5 359.067 968.067 358.5 968.766 358.5L1084.23 358.5C1084.93 358.5 1085.5 359.067 1085.5 359.766L1085.5 398.234C1085.5 398.933 1084.93 399.5 1084.23 399.5L968.766 399.5C968.067 399.5 967.5 398.933 967.5 398.234Z" stroke="#000000" stroke-width="1.33333" stroke-miterlimit="8" fill="#FFFFFF" fill-rule="evenodd"/><text font-family="Calibri,Calibri_MSFontService,sans-serif" font-weight="400" font-size="24" transform="translate(977.375 386)">clone</text><path d="M828.5 467.766C828.5 467.067 829.067 466.5 829.766 466.5L945.234 466.5C945.933 466.5 946.5 467.067 946.5 467.766L946.5 506.234C946.5 506.933 945.933 507.5 945.234 507.5L829.766 507.5C829.067 507.5 828.5 506.933 828.5 506.234Z" stroke="#000000" stroke-width="1.33333" stroke-miterlimit="8" fill="#FFFFFF" fill-rule="evenodd"/><text font-family="Calibri,Calibri_MSFontService,sans-serif" font-weight="400" font-size="24" transform="translate(837.815 494)">data</text><path d="M828.5 518.797C828.5 518.081 829.081 517.5 829.797 517.5L945.203 517.5C945.92 517.5 946.5 518.081 946.5 518.797L946.5 558.204C946.5 558.92 945.92 559.5 945.203 559.5L829.797 559.5C829.081 559.5 828.5 558.92 828.5 558.204Z" stroke="#000000" stroke-width="1.33333" stroke-miterlimit="8" fill="#FFFFFF" fill-rule="evenodd"/><text font-family="Calibri,Calibri_MSFontService,sans-serif" font-weight="400" font-size="24" transform="translate(837.815 545)">settings</text><path d="M967.5 466.766C967.5 466.067 968.067 465.5 968.766 465.5L1084.23 465.5C1084.93 465.5 1085.5 466.067 1085.5 466.766L1085.5 505.234C1085.5 505.933 1084.93 506.5 1084.23 506.5L968.766 506.5C968.067 506.5 967.5 505.933 967.5 505.234Z" stroke="#000000" stroke-width="1.33333" stroke-miterlimit="8" fill="#FFFFFF" fill-rule="evenodd"/><text font-family="Calibri,Calibri_MSFontService,sans-serif" font-weight="400" font-size="24" transform="translate(977.375 493)">validate</text><path d="M967.5 517.797C967.5 517.081 968.081 516.5 968.797 516.5L1084.2 516.5C1084.92 516.5 1085.5 517.081 1085.5 517.797L1085.5 557.204C1085.5 557.92 1084.92 558.5 1084.2 558.5L968.797 558.5C968.081 558.5 967.5 557.92 967.5 557.204Z" stroke="#000000" stroke-width="1.33333" stroke-miterlimit="8" fill="#FFFFFF" fill-rule="evenodd"/><text font-family="Calibri,Calibri_MSFontService,sans-serif" font-weight="400" font-size="24" transform="translate(977.375 544)">sync</text><path d="M828.5 411.766C828.5 411.067 829.067 410.5 829.766 410.5L945.234 410.5C945.933 410.5 946.5 411.067 946.5 411.766L946.5 450.234C946.5 450.933 945.933 451.5 945.234 451.5L829.766 451.5C829.067 451.5 828.5 450.933 828.5 450.234Z" stroke="#000000" stroke-width="1.33333" stroke-miterlimit="8" fill="#FFFFFF" fill-rule="evenodd"/><text font-family="Calibri,Calibri_MSFontService,sans-serif" font-weight="400" font-size="24" transform="translate(837.815 438)">screen</text><path d="M967.5 410.797C967.5 410.081 968.081 409.5 968.797 409.5L1084.2 409.5C1084.92 409.5 1085.5 410.081 1085.5 410.797L1085.5 450.204C1085.5 450.92 1084.92 451.5 1084.2 451.5L968.797 451.5C968.081 451.5 967.5 450.92 967.5 450.204Z" stroke="#000000" stroke-width="1.33333" stroke-miterlimit="8" fill="#FFFFFF" fill-rule="evenodd"/><text font-family="Calibri,Calibri_MSFontService,sans-serif" font-weight="400" font-size="24" transform="translate(977.375 437)">trace</text><path d="M1110.5 255.797C1110.5 255.081 1111.08 254.5 1111.8 254.5L1227.2 254.5C1227.92 254.5 1228.5 255.081 1228.5 255.797L1228.5 295.204C1228.5 295.92 1227.92 296.5 1227.2 296.5L1111.8 296.5C1111.08 296.5 1110.5 295.92 1110.5 295.204Z" stroke="#000000" stroke-width="1.33333" stroke-miterlimit="8" fill="#FFFFFF" fill-rule="evenodd"/><text font-family="Calibri,Calibri_MSFontService,sans-serif" font-weight="400" font-size="24" transform="translate(1120.38 283)">distribute</text><path d="M1110.5 307.766C1110.5 307.067 1111.07 306.5 1111.77 306.5L1227.23 306.5C1227.93 306.5 1228.5 307.067 1228.5 307.766L1228.5 346.234C1228.5 346.933 1227.93 347.5 1227.23 347.5L1111.77 347.5C1111.07 347.5 1110.5 346.933 1110.5 346.234Z" stroke="#000000" stroke-width="1.33333" stroke-miterlimit="8" fill="#FFFFFF" fill-rule="evenodd"/><text font-family="Calibri,Calibri_MSFontService,sans-serif" font-weight="400" font-size="24" transform="translate(1120.38 334)">env</text><path d="M1110.5 359.766C1110.5 359.067 1111.07 358.5 1111.77 358.5L1227.23 358.5C1227.93 358.5 1228.5 359.067 1228.5 359.766L1228.5 398.234C1228.5 398.933 1227.93 399.5 1227.23 399.5L1111.77 399.5C1111.07 399.5 1110.5 398.933 1110.5 398.234Z" stroke="#000000" stroke-width="1.33333" stroke-miterlimit="8" fill="#FFFFFF" fill-rule="evenodd"/><text font-family="Calibri,Calibri_MSFontService,sans-serif" font-weight="400" font-size="24" transform="translate(1120.38 386)">…</text><path d="M1110.5 466.766C1110.5 466.067 1111.07 465.5 1111.77 465.5L1227.23 465.5C1227.93 465.5 1228.5 466.067 1228.5 466.766L1228.5 505.234C1228.5 505.933 1227.93 506.5 1227.23 506.5L1111.77 506.5C1111.07 506.5 1110.5 505.933 1110.5 505.234Z" stroke="#000000" stroke-width="1.33333" stroke-miterlimit="8" fill="#FFFFFF" fill-rule="evenodd"/><text font-family="Calibri,Calibri_MSFontService,sans-serif" font-weight="400" font-size="24" transform="translate(1120.38 493)">…</text><path d="M1110.5 517.797C1110.5 517.081 1111.08 516.5 1111.8 516.5L1227.2 516.5C1227.92 516.5 1228.5 517.081 1228.5 517.797L1228.5 557.204C1228.5 557.92 1227.92 558.5 1227.2 558.5L1111.8 558.5C1111.08 558.5 1110.5 557.92 1110.5 557.204Z" stroke="#000000" stroke-width="1.33333" stroke-miterlimit="8" fill="#FFFFFF" fill-rule="evenodd"/><text font-family="Calibri,Calibri_MSFontService,sans-serif" font-weight="400" font-size="24" transform="translate(1120.38 544)">…</text><path d="M1110.5 410.797C1110.5 410.081 1111.08 409.5 1111.8 409.5L1227.2 409.5C1227.92 409.5 1228.5 410.081 1228.5 410.797L1228.5 450.204C1228.5 450.92 1227.92 451.5 1227.2 451.5L1111.8 451.5C1111.08 451.5 1110.5 450.92 1110.5 450.204Z" stroke="#000000" stroke-width="1.33333" stroke-miterlimit="8" fill="#FFFFFF" fill-rule="evenodd"/><text font-family="Calibri,Calibri_MSFontService,sans-serif" font-weight="400" font-size="24" transform="translate(1120.38 437)">…</text><path d="M688.5 259.797C688.5 259.081 689.081 258.5 689.797 258.5L805.203 258.5C805.92 258.5 806.5 259.081 806.5 259.797L806.5 299.204C806.5 299.92 805.92 300.5 805.203 300.5L689.797 300.5C689.081 300.5 688.5 299.92 688.5 299.204Z" stroke="#000000" stroke-width="1.33333" stroke-miterlimit="8" fill="#FFFFFF" fill-rule="evenodd"/><text font-family="Calibri,Calibri_MSFontService,sans-serif" font-weight="400" font-size="24" transform="translate(697.858 286)">status</text><path d="M688.5 311.766C688.5 311.067 689.067 310.5 689.766 310.5L805.234 310.5C805.933 310.5 806.5 311.067 806.5 311.766L806.5 350.234C806.5 350.933 805.933 351.5 805.234 351.5L689.766 351.5C689.067 351.5 688.5 350.933 688.5 350.234Z" stroke="#000000" stroke-width="1.33333" stroke-miterlimit="8" fill="#FFFFFF" fill-rule="evenodd"/><text font-family="Calibri,Calibri_MSFontService,sans-serif" font-weight="400" font-size="24" transform="translate(697.858 338)">init</text><path d="M688.5 362.797C688.5 362.081 689.081 361.5 689.797 361.5L805.203 361.5C805.92 361.5 806.5 362.081 806.5 362.797L806.5 402.204C806.5 402.92 805.92 403.5 805.203 403.5L689.797 403.5C689.081 403.5 688.5 402.92 688.5 402.204Z" stroke="#000000" stroke-width="1.33333" stroke-miterlimit="8" fill="#FFFFFF" fill-rule="evenodd"/><text font-family="Calibri,Calibri_MSFontService,sans-serif" font-weight="400" font-size="24" transform="translate(697.858 390)">search</text><path d="M688.5 414.766C688.5 414.067 689.067 413.5 689.766 413.5L805.234 413.5C805.933 413.5 806.5 414.067 806.5 414.766L806.5 453.234C806.5 453.933 805.933 454.5 805.234 454.5L689.766 454.5C689.067 454.5 688.5 453.933 688.5 453.234Z" stroke="#000000" stroke-width="1.33333" stroke-miterlimit="8" fill="#FFFFFF" fill-rule="evenodd"/><text font-family="Calibri,Calibri_MSFontService,sans-serif" font-weight="400" font-size="24" transform="translate(697.858 441)">load</text><path d="M688.5 469.797C688.5 469.081 689.081 468.5 689.797 468.5L805.203 468.5C805.92 468.5 806.5 469.081 806.5 469.797L806.5 509.204C806.5 509.92 805.92 510.5 805.203 510.5L689.797 510.5C689.081 510.5 688.5 509.92 688.5 509.204Z" stroke="#000000" stroke-width="1.33333" stroke-miterlimit="8" fill="#FFFFFF" fill-rule="evenodd"/><text font-family="Calibri,Calibri_MSFontService,sans-serif" font-weight="400" font-size="24" transform="translate(697.858 497)">prep</text><path d="M688.5 521.766C688.5 521.067 689.067 520.5 689.766 520.5L805.234 520.5C805.933 520.5 806.5 521.067 806.5 521.766L806.5 560.234C806.5 560.933 805.933 561.5 805.234 561.5L689.766 561.5C689.067 561.5 688.5 560.933 688.5 560.234Z" stroke="#000000" stroke-width="1.33333" stroke-miterlimit="8" fill="#FFFFFF" fill-rule="evenodd"/><text font-family="Calibri,Calibri_MSFontService,sans-serif" font-weight="400" font-size="24" transform="translate(697.858 548)">dedupe</text><path d="M72.5001 295.198C72.5001 294.26 73.2602 293.5 74.1978 293.5L482.802 293.5C483.74 293.5 484.5 294.26 484.5 295.198L484.5 346.802C484.5 347.74 483.74 348.5 482.802 348.5L74.1978 348.5C73.2602 348.5 72.5001 347.74 72.5001 346.802Z" stroke="#000000" stroke-width="1.33333" stroke-miterlimit="8" fill="none" fill-rule="evenodd"/><text font-family="Calibri,Calibri_MSFontService,sans-serif" font-weight="400" font-size="24" transform="translate(83.3345 328)">Record,</text><text font-family="Calibri,Calibri_MSFontService,sans-serif" font-weight="400" font-size="24" transform="translate(162.721 328)">RecordState</text><text font-family="Calibri,Calibri_MSFontService,sans-serif" font-weight="400" font-size="24" transform="translate(280.335 328)">,</text><text font-family="Calibri,Calibri_MSFontService,sans-serif" font-weight="400" font-size="24" transform="translate(291.835 328)">ProcessModel</text><path d="M684.5 580.92C684.5 580.136 685.136 579.5 685.92 579.5L1249.08 579.5C1249.86 579.5 1250.5 580.136 1250.5 580.92L1250.5 624.08C1250.5 624.864 1249.86 625.5 1249.08 625.5L685.92 625.5C685.136 625.5 684.5 624.864 684.5 624.08Z" stroke="#000000" stroke-width="1.33333" stroke-miterlimit="8" fill="#FFFFFF" fill-rule="evenodd"/><text font-family="Calibri,Calibri_MSFontService,sans-serif" font-weight="400" font-size="24" transform="translate(781.519 610)">PackageManager (EndpointInterfaces)</text></g></svg>
