<svg width="1280" height="720" xmlns="http://www.w3.org/2000/svg" xmlns:xlink="http://www.w3.org/1999/xlink" overflow="hidden"><defs><clipPath id="clip0"><rect x="0" y="0" width="1280" height="720"/></clipPath><clipPath id="clip1"><rect x="454" y="6" width="96" height="96"/></clipPath><clipPath id="clip2"><rect x="454" y="6" width="96" height="96"/></clipPath><clipPath id="clip3"><rect x="454" y="6" width="96" height="96"/></clipPath></defs><g clip-path="url(#clip0)"><rect x="0" y="0" width="1280" height="720" fill="#FFFFFF"/><path d="M26.5001 225.2C26.5001 218.738 31.7384 213.5 38.2003 213.5L1247.8 213.5C1254.26 213.5 1259.5 218.738 1259.5 225.2L1259.5 580.8C1259.5 587.262 1254.26 592.5 1247.8 592.5L38.2003 592.5C31.7384 592.5 26.5001 587.262 26.5001 580.8Z" stroke="#000000" stroke-width="1.33333" stroke-miterlimit="8" fill="none" fill-rule="evenodd"/><path d="M777.5 374.198C777.5 373.26 778.26 372.5 779.198 372.5L937.802 372.5C938.74 372.5 939.5 373.26 939.5 374.198L939.5 425.802C939.5 426.74 938.74 427.5 937.802 427.5L779.198 427.5C778.26 427.5 777.5 426.74 777.5 425.802Z" stroke="#000000" stroke-width="1.33333" stroke-miterlimit="8" fill="none" fill-rule="evenodd"/><text font-family="Calibri,Calibri_MSFontService,sans-serif" font-weight="400" font-size="24" transform="translate(820.959 407)">process</text><path d="M988.5 374.198C988.5 373.26 989.26 372.5 990.198 372.5L1148.8 372.5C1149.74 372.5 1150.5 373.26 1150.5 374.198L1150.5 425.802C1150.5 426.74 1149.74 427.5 1148.8 427.5L990.198 427.5C989.26 427.5 988.5 426.74 988.5 425.802Z" stroke="#000000" stroke-width="1.33333" stroke-miterlimit="8" fill="none" fill-rule="evenodd"/><text font-family="Calibri,Calibri_MSFontService,sans-serif" font-weight="400" font-size="24" transform="translate(1031.21 407)">settings</text><path d="M780.5 464.754C780.5 463.509 781.509 462.5 782.754 462.5L1238.25 462.5C1239.49 462.5 1240.5 463.509 1240.5 464.754L1240.5 533.246C1240.5 534.491 1239.49 535.5 1238.25 535.5L782.754 535.5C781.509 535.5 780.5 534.491 780.5 533.246Z" stroke="#000000" stroke-width="1.33333" stroke-miterlimit="8" fill="none" fill-rule="evenodd"/><text font-family="Calibri,Calibri_MSFontService,sans-serif" font-weight="400" font-size="24" transform="translate(930.937 506)">ReviewManager</text><path d="M58.5001 258.797C58.5001 258.081 59.0805 257.5 59.7965 257.5L189.204 257.5C189.92 257.5 190.5 258.081 190.5 258.797L190.5 298.204C190.5 298.92 189.92 299.5 189.204 299.5L59.7965 299.5C59.0805 299.5 58.5001 298.92 58.5001 298.204Z" stroke="#000000" stroke-width="1.33333" stroke-miterlimit="8" fill="none" fill-rule="evenodd"/><text font-family="Calibri,Calibri_MSFontService,sans-serif" font-weight="400" font-size="24" transform="translate(67.9936 285)">status</text><path d="M58.5001 310.766C58.5001 310.067 59.0667 309.5 59.7658 309.5L189.234 309.5C189.933 309.5 190.5 310.067 190.5 310.766L190.5 349.234C190.5 349.933 189.933 350.5 189.234 350.5L59.7658 350.5C59.0667 350.5 58.5001 349.933 58.5001 349.234Z" stroke="#000000" stroke-width="1.33333" stroke-miterlimit="8" fill="none" fill-rule="evenodd"/><text font-family="Calibri,Calibri_MSFontService,sans-serif" font-weight="400" font-size="24" transform="translate(67.9936 337)">init</text><path d="M58.5001 361.797C58.5001 361.081 59.0805 360.5 59.7965 360.5L189.204 360.5C189.92 360.5 190.5 361.081 190.5 361.797L190.5 401.204C190.5 401.92 189.92 402.5 189.204 402.5L59.7965 402.5C59.0805 402.5 58.5001 401.92 58.5001 401.204Z" stroke="#000000" stroke-width="1.33333" stroke-miterlimit="8" fill="none" fill-rule="evenodd"/><text font-family="Calibri,Calibri_MSFontService,sans-serif" font-weight="400" font-size="24" transform="translate(67.9936 389)">search</text><path d="M58.5001 413.766C58.5001 413.067 59.0667 412.5 59.7658 412.5L189.234 412.5C189.933 412.5 190.5 413.067 190.5 413.766L190.5 452.234C190.5 452.933 189.933 453.5 189.234 453.5L59.7658 453.5C59.0667 453.5 58.5001 452.933 58.5001 452.234Z" stroke="#000000" stroke-width="1.33333" stroke-miterlimit="8" fill="none" fill-rule="evenodd"/><text font-family="Calibri,Calibri_MSFontService,sans-serif" font-weight="400" font-size="24" transform="translate(67.9936 440)">load</text><path d="M58.5001 188.92C58.5001 188.136 59.136 187.5 59.9205 187.5L946.08 187.5C946.864 187.5 947.5 188.136 947.5 188.92L947.5 232.08C947.5 232.864 946.864 233.5 946.08 233.5L59.9205 233.5C59.136 233.5 58.5001 232.864 58.5001 232.08Z" stroke="#000000" stroke-width="1.33333" stroke-miterlimit="8" fill="#FFFFFF" fill-rule="evenodd"/><text font-family="Calibri,Calibri_MSFontService,sans-serif" font-weight="400" font-size="24" transform="translate(459.582 218)">colrev cli</text><path d="M1048.5 191.92C1048.5 191.136 1049.14 190.5 1049.92 190.5L1225.08 190.5C1225.86 190.5 1226.5 191.136 1226.5 191.92L1226.5 235.08C1226.5 235.864 1225.86 236.5 1225.08 236.5L1049.92 236.5C1049.14 236.5 1048.5 235.864 1048.5 235.08Z" stroke="#000000" stroke-width="1.33333" stroke-miterlimit="8" fill="#FFFFFF" fill-rule="evenodd"/><text font-family="Calibri,Calibri_MSFontService,sans-serif" font-weight="400" font-size="24" transform="translate(1085.59 221)">git (hooks)</text><path d="M779.5 573.889C779.5 573.122 780.122 572.5 780.889 572.5L973.111 572.5C973.878 572.5 974.5 573.122 974.5 573.889L974.5 616.111C974.5 616.878 973.878 617.5 973.111 617.5L780.889 617.5C780.122 617.5 779.5 616.878 779.5 616.111Z" stroke="#000000" stroke-width="1.33333" stroke-miterlimit="8" fill="#FFFFFF" fill-rule="evenodd"/><text font-family="Calibri,Calibri_MSFontService,sans-serif" font-weight="400" font-size="24" transform="translate(804.041 602)">ReviewDataset</text><path d="M1004.5 572.92C1004.5 572.136 1005.14 571.5 1005.92 571.5L1238.08 571.5C1238.86 571.5 1239.5 572.136 1239.5 572.92L1239.5 616.08C1239.5 616.864 1238.86 617.5 1238.08 617.5L1005.92 617.5C1005.14 617.5 1004.5 616.864 1004.5 616.08Z" stroke="#000000" stroke-width="1.33333" stroke-miterlimit="8" fill="#FFFFFF" fill-rule="evenodd"/><text font-family="Calibri,Calibri_MSFontService,sans-serif" font-weight="400" font-size="24" transform="translate(1018.85 602)">EnvironmentServices</text><g clip-path="url(#clip1)"><g clip-path="url(#clip2)"><g clip-path="url(#clip3)"><path d="M518 36C518 44.8366 510.837 52 502 52 493.163 52 486 44.8366 486 36 486 27.1634 493.163 20 502 20 510.837 20 518 27.1634 518 36Z"/><path d="M531 63.91C530.727 61.8269 529.695 59.918 528.1 58.55 523.828 55.6245 519.045 53.525 514 52.36 513.43 52.23 512.83 52.12 512.23 52.01 506.029 55.9836 498.081 55.9836 491.88 52.01L490.08 52.34C485.03 53.5754 480.233 55.6764 475.9 58.55 474.12 59.69 473.38 61.81 473 63.91L470 81.1C469.82 82.5508 470.422 83.9884 471.58 84.88L478.43 89.4 478.43 67.75C478.43 65.2426 480.462 63.21 482.97 63.2099 482.98 63.2099 482.99 63.2099 483 63.21L521 63.21C523.507 63.21 525.54 65.2426 525.54 67.75L525.54 88.85 532.76 84.32C533.615 83.7428 534.089 82.7475 534 81.72Z"/><path d="M523.57 92.67 523.57 67.75C523.57 66.3472 522.433 65.2099 521.03 65.2098 521.02 65.2098 521.01 65.2099 521 65.21L483 65.21C481.597 65.21 480.46 66.3472 480.46 67.75L480.46 92.67 472.81 92.67 472.81 93.94C472.815 95.3405 473.949 96.4745 475.35 96.48L528.65 96.48C530.05 96.4745 531.185 95.3405 531.19 93.94L531.19 92.67ZM496.82 84.32 495.41 85.73 489.8 80.12 495.41 74.51 496.82 75.92 492.63 80.12ZM500.55 86.43 498.7 85.66 503.39 74.34 505.23 75.11ZM508.55 85.73 507.14 84.32 511.33 80.12 507.14 75.92 508.55 74.51 514.16 80.12Z"/></g></g></g><path d="M666.5 622.481C666.5 632.151 665.193 639.991 663.582 639.991L365.418 639.99C363.807 639.99 362.5 647.83 362.5 657.5 362.5 647.83 361.193 639.99 359.582 639.99L61.4183 639.99C59.8066 639.99 58.5 632.151 58.5 622.48" stroke="#000000" stroke-width="0.666667" stroke-miterlimit="8" fill="none" fill-rule="evenodd"/><text font-family="Calibri,Calibri_MSFontService,sans-serif" font-weight="400" font-size="24" transform="translate(312.154 691)">extensible<tspan font-size="24" x="619.88" y="0">standardized</tspan></text><path d="M502.5 102.5 502.5 187.623" stroke="#000000" stroke-width="0.666667" stroke-miterlimit="8" fill="none" fill-rule="evenodd"/><path d="M190.5 278.5 777.612 400.406" stroke="#000000" stroke-width="0.666667" stroke-miterlimit="8" fill="none" fill-rule="evenodd"/><path d="M190.5 329.5 777.612 399.85" stroke="#000000" stroke-width="0.666667" stroke-miterlimit="8" fill="none" fill-rule="evenodd"/><path d="M190.5 381.5 777.612 400.294" stroke="#000000" stroke-width="0.666667" stroke-miterlimit="8" fill="none" fill-rule="evenodd"/><path d="M0 0 587.112 32.7612" stroke="#000000" stroke-width="0.666667" stroke-miterlimit="8" fill="none" fill-rule="evenodd" transform="matrix(1 0 0 -1 190.5 433.261)"/><path d="M939.5 400.5 989.344 400.5" stroke="#000000" stroke-width="0.666667" stroke-miterlimit="8" fill="none" fill-rule="evenodd"/><path d="M858.5 427.5 858.5 463.791" stroke="#000000" stroke-width="0.666667" stroke-miterlimit="8" fill="none" fill-rule="evenodd"/><path d="M1069.5 427.5 1069.5 461.738" stroke="#000000" stroke-width="0.666667" stroke-miterlimit="8" fill="none" fill-rule="evenodd"/><path d="M812.5 535.5 812.5 571.372" stroke="#000000" stroke-width="0.666667" stroke-miterlimit="8" fill="none" fill-rule="evenodd"/><path d="M1186.5 535.5 1186.5 569.246" stroke="#000000" stroke-width="0.666667" stroke-miterlimit="8" fill="none" fill-rule="evenodd"/><path d="M1186.5 236.5 1186.5 462.15" stroke="#000000" stroke-width="0.666667" stroke-miterlimit="8" fill="none" fill-rule="evenodd"/><path d="M427.146 98.2885C445.272 102.133 457.292 119.411 454.091 137.023L457.374 138.414 450.953 143.039 448.338 134.586 451.618 135.975C454.198 119.936 443.138 104.38 426.652 100.857Z" stroke="#000000" stroke-width="1.33333" stroke-miterlimit="8" fill-rule="evenodd"/><path d="M386.455 129.822C386.506 114.09 398.252 100.7 414.362 98.0089L414.425 94.4339 420.874 98.8438 414.253 104.244 414.316 100.671C399.681 103.341 389.11 115.556 389.07 129.843Z" stroke="#000000" stroke-width="1.33333" stroke-miterlimit="8" fill-rule="evenodd"/><path d="M451.181 147.957C442.726 164.035 422.348 170.538 405.665 162.481 397.61 158.591 391.519 151.761 388.745 143.51L385.199 143.878 388.588 136.726 394.96 142.866 391.417 143.233C397.022 158.85 414.799 167.093 431.122 161.645 438.797 159.084 445.145 153.767 448.825 146.819Z" stroke="#000000" stroke-width="1.33333" stroke-miterlimit="8" fill-rule="evenodd"/><text font-family="Calibri,Calibri_MSFontService,sans-serif" font-weight="400" font-size="24" transform="translate(270.629 136)">workflow</text><path d="M212.5 255.797C212.5 255.08 213.08 254.5 213.797 254.5L343.204 254.5C343.92 254.5 344.5 255.08 344.5 255.797L344.5 295.204C344.5 295.92 343.92 296.5 343.204 296.5L213.797 296.5C213.08 296.5 212.5 295.92 212.5 295.204Z" stroke="#000000" stroke-width="1.33333" stroke-miterlimit="8" fill="#FFFFFF" fill-rule="evenodd"/><text font-family="Calibri,Calibri_MSFontService,sans-serif" font-weight="400" font-size="24" transform="translate(221.515 283)">prescreen</text><path d="M212.5 307.766C212.5 307.067 213.067 306.5 213.766 306.5L343.234 306.5C343.933 306.5 344.5 307.067 344.5 307.766L344.5 346.234C344.5 346.933 343.933 347.5 343.234 347.5L213.766 347.5C213.067 347.5 212.5 346.933 212.5 346.234Z" stroke="#000000" stroke-width="1.33333" stroke-miterlimit="8" fill="#FFFFFF" fill-rule="evenodd"/><text font-family="Calibri,Calibri_MSFontService,sans-serif" font-weight="400" font-size="24" transform="translate(221.515 334)">pdf<tspan font-size="24" x="32.6667" y="0">-</tspan><tspan font-size="24" x="40" y="0">get</tspan></text><path d="M212.5 358.797C212.5 358.081 213.08 357.5 213.797 357.5L343.204 357.5C343.92 357.5 344.5 358.081 344.5 358.797L344.5 398.204C344.5 398.92 343.92 399.5 343.204 399.5L213.797 399.5C213.08 399.5 212.5 398.92 212.5 398.204Z" stroke="#000000" stroke-width="1.33333" stroke-miterlimit="8" fill="#FFFFFF" fill-rule="evenodd"/><text font-family="Calibri,Calibri_MSFontService,sans-serif" font-weight="400" font-size="24" transform="translate(221.515 386)">pdf<tspan font-size="24" x="32.6667" y="0">-</tspan><tspan font-size="24" x="40" y="0">prep</tspan></text><path d="M344.5 275.5 778.09 400.188" stroke="#000000" stroke-width="0.666667" stroke-miterlimit="8" fill="none" fill-rule="evenodd"/><path d="M344.5 327.5 778.09 400.633" stroke="#000000" stroke-width="0.666667" stroke-miterlimit="8" fill="none" fill-rule="evenodd"/><path d="M344.5 378.5 778.09 400.077" stroke="#000000" stroke-width="0.666667" stroke-miterlimit="8" fill="none" fill-rule="evenodd"/><path d="M0 0 433.59 29.9787" stroke="#000000" stroke-width="0.666667" stroke-miterlimit="8" fill="none" fill-rule="evenodd" transform="matrix(1 0 0 -1 344.5 430.479)"/><path d="M368.5 254.797C368.5 254.08 369.081 253.5 369.797 253.5L499.204 253.5C499.92 253.5 500.5 254.08 500.5 254.797L500.5 294.204C500.5 294.92 499.92 295.5 499.204 295.5L369.797 295.5C369.081 295.5 368.5 294.92 368.5 294.204Z" stroke="#000000" stroke-width="1.33333" stroke-miterlimit="8" fill="#FFFFFF" fill-rule="evenodd"/><text font-family="Calibri,Calibri_MSFontService,sans-serif" font-weight="400" font-size="24" transform="translate(377.772 282)">pull</text><path d="M368.5 306.766C368.5 306.067 369.067 305.5 369.766 305.5L499.234 305.5C499.933 305.5 500.5 306.067 500.5 306.766L500.5 345.234C500.5 345.933 499.933 346.5 499.234 346.5L369.766 346.5C369.067 346.5 368.5 345.933 368.5 345.234Z" stroke="#000000" stroke-width="1.33333" stroke-miterlimit="8" fill="#FFFFFF" fill-rule="evenodd"/><text font-family="Calibri,Calibri_MSFontService,sans-serif" font-weight="400" font-size="24" transform="translate(377.772 333)">push</text><path d="M368.5 357.797C368.5 357.081 369.081 356.5 369.797 356.5L499.204 356.5C499.92 356.5 500.5 357.081 500.5 357.797L500.5 397.204C500.5 397.92 499.92 398.5 499.204 398.5L369.797 398.5C369.081 398.5 368.5 397.92 368.5 397.204Z" stroke="#000000" stroke-width="1.33333" stroke-miterlimit="8" fill="#FFFFFF" fill-rule="evenodd"/><text font-family="Calibri,Calibri_MSFontService,sans-serif" font-weight="400" font-size="24" transform="translate(377.772 385)">clone</text><path d="M500.5 274.5 777.834 400.125" stroke="#000000" stroke-width="0.666667" stroke-miterlimit="8" fill="none" fill-rule="evenodd"/><path d="M500.5 326.5 777.834 400.57" stroke="#000000" stroke-width="0.666667" stroke-miterlimit="8" fill="none" fill-rule="evenodd"/><path d="M500.5 377.5 777.834 400.014" stroke="#000000" stroke-width="0.666667" stroke-miterlimit="8" fill="none" fill-rule="evenodd"/><path d="M0 0 277.334 29.0417" stroke="#000000" stroke-width="0.666667" stroke-miterlimit="8" fill="none" fill-rule="evenodd" transform="matrix(1 0 0 -1 500.5 429.542)"/><path d="M58.5001 468.797C58.5001 468.081 59.0805 467.5 59.7965 467.5L189.204 467.5C189.92 467.5 190.5 468.081 190.5 468.797L190.5 508.204C190.5 508.92 189.92 509.5 189.204 509.5L59.7965 509.5C59.0805 509.5 58.5001 508.92 58.5001 508.204Z" stroke="#000000" stroke-width="1.33333" stroke-miterlimit="8" fill="none" fill-rule="evenodd"/><text font-family="Calibri,Calibri_MSFontService,sans-serif" font-weight="400" font-size="24" transform="translate(67.9936 496)">prep</text><path d="M58.5001 520.766C58.5001 520.067 59.0667 519.5 59.7658 519.5L189.234 519.5C189.933 519.5 190.5 520.067 190.5 520.766L190.5 559.234C190.5 559.933 189.933 560.5 189.234 560.5L59.7658 560.5C59.0667 560.5 58.5001 559.933 58.5001 559.234Z" stroke="#000000" stroke-width="1.33333" stroke-miterlimit="8" fill="none" fill-rule="evenodd"/><text font-family="Calibri,Calibri_MSFontService,sans-serif" font-weight="400" font-size="24" transform="translate(67.9936 547)">dedupe</text><path d="M0 0 587.112 88.2919" stroke="#000000" stroke-width="0.666667" stroke-miterlimit="8" fill="none" fill-rule="evenodd" transform="matrix(1 0 0 -1 190.5 488.792)"/><path d="M0 0 587.112 139.847" stroke="#000000" stroke-width="0.666667" stroke-miterlimit="8" fill="none" fill-rule="evenodd" transform="matrix(1 0 0 -1 190.5 540.348)"/><path d="M212.5 466.766C212.5 466.067 213.067 465.5 213.766 465.5L343.234 465.5C343.933 465.5 344.5 466.067 344.5 466.766L344.5 505.234C344.5 505.933 343.933 506.5 343.234 506.5L213.766 506.5C213.067 506.5 212.5 505.933 212.5 505.234Z" stroke="#000000" stroke-width="1.33333" stroke-miterlimit="8" fill="#FFFFFF" fill-rule="evenodd"/><text font-family="Calibri,Calibri_MSFontService,sans-serif" font-weight="400" font-size="24" transform="translate(221.515 493)">data</text><path d="M212.5 517.766C212.5 517.067 213.067 516.5 213.766 516.5L343.234 516.5C343.933 516.5 344.5 517.067 344.5 517.766L344.5 556.234C344.5 556.933 343.933 557.5 343.234 557.5L213.766 557.5C213.067 557.5 212.5 556.933 212.5 556.234Z" stroke="#000000" stroke-width="1.33333" stroke-miterlimit="8" fill="#FFFFFF" fill-rule="evenodd"/><text font-family="Calibri,Calibri_MSFontService,sans-serif" font-weight="400" font-size="24" transform="translate(221.515 544)">paper</text><path d="M0 0 433.59 85.5094" stroke="#000000" stroke-width="0.666667" stroke-miterlimit="8" fill="none" fill-rule="evenodd" transform="matrix(1 0 0 -1 344.5 486.009)"/><path d="M0 0 433.59 137.065" stroke="#000000" stroke-width="0.666667" stroke-miterlimit="8" fill="none" fill-rule="evenodd" transform="matrix(1 0 0 -1 344.5 537.565)"/><path d="M368.5 465.766C368.5 465.067 369.067 464.5 369.766 464.5L499.234 464.5C499.933 464.5 500.5 465.067 500.5 465.766L500.5 504.234C500.5 504.933 499.933 505.5 499.234 505.5L369.766 505.5C369.067 505.5 368.5 504.933 368.5 504.234Z" stroke="#000000" stroke-width="1.33333" stroke-miterlimit="8" fill="#FFFFFF" fill-rule="evenodd"/><text font-family="Calibri,Calibri_MSFontService,sans-serif" font-weight="400" font-size="24" transform="translate(377.772 492)">validate</text><path d="M368.5 516.797C368.5 516.081 369.081 515.5 369.797 515.5L499.204 515.5C499.92 515.5 500.5 516.081 500.5 516.797L500.5 556.204C500.5 556.92 499.92 557.5 499.204 557.5L369.797 557.5C369.081 557.5 368.5 556.92 368.5 556.204Z" stroke="#000000" stroke-width="1.33333" stroke-miterlimit="8" fill="#FFFFFF" fill-rule="evenodd"/><text font-family="Calibri,Calibri_MSFontService,sans-serif" font-weight="400" font-size="24" transform="translate(377.772 543)">sync</text><path d="M0 0 277.334 84.5724" stroke="#000000" stroke-width="0.666667" stroke-miterlimit="8" fill="none" fill-rule="evenodd" transform="matrix(1 0 0 -1 500.5 485.072)"/><path d="M0 0 277.334 136.128" stroke="#000000" stroke-width="0.666667" stroke-miterlimit="8" fill="none" fill-rule="evenodd" transform="matrix(1 0 0 -1 500.5 536.628)"/><path d="M212.5 410.766C212.5 410.067 213.067 409.5 213.766 409.5L343.234 409.5C343.933 409.5 344.5 410.067 344.5 410.766L344.5 449.234C344.5 449.933 343.933 450.5 343.234 450.5L213.766 450.5C213.067 450.5 212.5 449.933 212.5 449.234Z" stroke="#000000" stroke-width="1.33333" stroke-miterlimit="8" fill="#FFFFFF" fill-rule="evenodd"/><text font-family="Calibri,Calibri_MSFontService,sans-serif" font-weight="400" font-size="24" transform="translate(221.515 437)">screen</text><path d="M368.5 409.766C368.5 409.067 369.067 408.5 369.766 408.5L499.234 408.5C499.933 408.5 500.5 409.067 500.5 409.766L500.5 448.234C500.5 448.933 499.933 449.5 499.234 449.5L369.766 449.5C369.067 449.5 368.5 448.933 368.5 448.234Z" stroke="#000000" stroke-width="1.33333" stroke-miterlimit="8" fill="#FFFFFF" fill-rule="evenodd"/><text font-family="Calibri,Calibri_MSFontService,sans-serif" font-weight="400" font-size="24" transform="translate(377.772 436)">trace</text><path d="M1246.5 622.5C1246.5 631.337 1245.31 638.5 1243.83 638.5L997.666 638.5C996.194 638.5 995 645.664 995 654.5 995 645.664 993.806 638.5 992.334 638.5L746.166 638.5C744.694 638.5 743.5 631.337 743.5 622.5" stroke="#000000" stroke-width="0.666667" stroke-miterlimit="8" fill="none" fill-rule="evenodd"/><path d="M519.5 254.797C519.5 254.08 520.081 253.5 520.797 253.5L650.204 253.5C650.92 253.5 651.5 254.08 651.5 254.797L651.5 294.204C651.5 294.92 650.92 295.5 650.204 295.5L520.797 295.5C520.081 295.5 519.5 294.92 519.5 294.204Z" stroke="#000000" stroke-width="1.33333" stroke-miterlimit="8" fill="#FFFFFF" fill-rule="evenodd"/><text font-family="Calibri,Calibri_MSFontService,sans-serif" font-weight="400" font-size="24" transform="translate(529.119 282)">distribute</text><path d="M519.5 306.766C519.5 306.067 520.067 305.5 520.766 305.5L650.234 305.5C650.933 305.5 651.5 306.067 651.5 306.766L651.5 345.234C651.5 345.933 650.933 346.5 650.234 346.5L520.766 346.5C520.067 346.5 519.5 345.933 519.5 345.234Z" stroke="#000000" stroke-width="1.33333" stroke-miterlimit="8" fill="#FFFFFF" fill-rule="evenodd"/><text font-family="Calibri,Calibri_MSFontService,sans-serif" font-weight="400" font-size="24" transform="translate(529.119 333)">env</text><path d="M519.5 357.797C519.5 357.081 520.081 356.5 520.797 356.5L650.204 356.5C650.92 356.5 651.5 357.081 651.5 357.797L651.5 397.204C651.5 397.92 650.92 398.5 650.204 398.5L520.797 398.5C520.081 398.5 519.5 397.92 519.5 397.204Z" stroke="#000000" stroke-width="1.33333" stroke-miterlimit="8" fill="#FFFFFF" fill-rule="evenodd"/><text font-family="Calibri,Calibri_MSFontService,sans-serif" font-weight="400" font-size="24" transform="translate(529.119 385)">config</text><path d="M519.5 465.766C519.5 465.067 520.067 464.5 520.766 464.5L650.234 464.5C650.933 464.5 651.5 465.067 651.5 465.766L651.5 504.234C651.5 504.933 650.933 505.5 650.234 505.5L520.766 505.5C520.067 505.5 519.5 504.933 519.5 504.234Z" stroke="#000000" stroke-width="1.33333" stroke-miterlimit="8" fill="#FFFFFF" fill-rule="evenodd"/><text font-family="Calibri,Calibri_MSFontService,sans-serif" font-weight="400" font-size="24" transform="translate(529.119 492)">…</text><path d="M519.5 516.797C519.5 516.081 520.081 515.5 520.797 515.5L650.204 515.5C650.92 515.5 651.5 516.081 651.5 516.797L651.5 556.204C651.5 556.92 650.92 557.5 650.204 557.5L520.797 557.5C520.081 557.5 519.5 556.92 519.5 556.204Z" stroke="#000000" stroke-width="1.33333" stroke-miterlimit="8" fill="#FFFFFF" fill-rule="evenodd"/><text font-family="Calibri,Calibri_MSFontService,sans-serif" font-weight="400" font-size="24" transform="translate(529.119 543)">…</text><path d="M519.5 409.766C519.5 409.067 520.067 408.5 520.766 408.5L650.234 408.5C650.933 408.5 651.5 409.067 651.5 409.766L651.5 448.234C651.5 448.933 650.933 449.5 650.234 449.5L520.766 449.5C520.067 449.5 519.5 448.933 519.5 448.234Z" stroke="#000000" stroke-width="1.33333" stroke-miterlimit="8" fill="#FFFFFF" fill-rule="evenodd"/><text font-family="Calibri,Calibri_MSFontService,sans-serif" font-weight="400" font-size="24" transform="translate(529.119 436)">debug</text><path d="M651.5 274.5 777.486 400.125" stroke="#000000" stroke-width="0.666667" stroke-miterlimit="8" fill="none" fill-rule="evenodd"/><path d="M651.5 326.5 777.486 400.57" stroke="#000000" stroke-width="0.666667" stroke-miterlimit="8" fill="none" fill-rule="evenodd"/><path d="M651.5 377.5 777.486 400.014" stroke="#000000" stroke-width="0.666667" stroke-miterlimit="8" fill="none" fill-rule="evenodd"/><path d="M0 0 125.986 84.5724" stroke="#000000" stroke-width="0.666667" stroke-miterlimit="8" fill="none" fill-rule="evenodd" transform="matrix(1 0 0 -1 651.5 485.072)"/><path d="M0 0 125.986 136.128" stroke="#000000" stroke-width="0.666667" stroke-miterlimit="8" fill="none" fill-rule="evenodd" transform="matrix(1 0 0 -1 651.5 536.628)"/><path d="M858.5 236.5 858.5 372.775" stroke="#000000" stroke-width="0.666667" stroke-miterlimit="8" fill="none" fill-rule="evenodd"/><path d="M0 0 43.9836 0 43.9836 634.713 87.9671 634.713" stroke="#000000" stroke-width="0.666667" stroke-miterlimit="8" fill="none" fill-rule="evenodd" transform="matrix(1.83697e-16 1 1 -1.83697e-16 502.5 102.5)"/></g></svg>
