<svg width="869" height="605" xmlns="http://www.w3.org/2000/svg" xmlns:xlink="http://www.w3.org/1999/xlink" overflow="hidden"><defs><clipPath id="clip0"><rect x="0" y="0" width="869" height="605"/></clipPath></defs><g clip-path="url(#clip0)"><rect x="0" y="0" width="869" height="604.565" fill="#FFFFFF"/><path d="M287.5 172.161C287.5 90.6227 353.538 24.5229 435 24.5229 516.462 24.5229 582.5 90.6227 582.5 172.161 582.5 253.699 516.462 319.799 435 319.799 353.538 319.799 287.5 253.699 287.5 172.161Z" stroke="#000000" stroke-width="1.33282" stroke-miterlimit="8" fill="#FFFFFF" fill-rule="evenodd" fill-opacity="0.501961"/><text font-family="Calibri,Calibri_MSFontService,sans-serif" font-weight="400" font-size="21" transform="matrix(1 0 0 1.00094 395.565 117)">Methods</text><path d="M417.5 302.783C417.5 220.968 483.762 154.644 565.5 154.644 647.238 154.644 713.5 220.968 713.5 302.783 713.5 384.597 647.238 450.921 565.5 450.921 483.762 450.921 417.5 384.597 417.5 302.783Z" stroke="#000000" stroke-width="1.33282" stroke-miterlimit="8" fill="#FFFFFF" fill-rule="evenodd" fill-opacity="0.501961"/><text font-family="Calibri,Calibri_MSFontService,sans-serif" font-weight="400" font-size="21" transform="matrix(1 0 0 1.00094 591.917 309)">Cognition</text><path d="M287.5 433.905C287.5 352.091 353.538 285.767 435 285.767 516.462 285.767 582.5 352.091 582.5 433.905 582.5 515.72 516.462 582.044 435 582.044 353.538 582.044 287.5 515.72 287.5 433.905Z" stroke="#000000" stroke-width="1.33282" stroke-miterlimit="8" fill="#FFFFFF" fill-rule="evenodd" fill-opacity="0.501961"/><text font-family="Calibri,Calibri_MSFontService,sans-serif" font-weight="400" font-size="21" transform="matrix(1 0 0 1.00094 382.173 501)">Institutional</text><path d="M156.5 302.783C156.5 220.968 222.762 154.644 304.5 154.644 386.238 154.644 452.5 220.968 452.5 302.783 452.5 384.597 386.238 450.921 304.5 450.921 222.762 450.921 156.5 384.597 156.5 302.783Z" stroke="#000000" stroke-width="1.33282" stroke-miterlimit="8" fill="#FFFFFF" fill-rule="evenodd" fill-opacity="0.501961"/><text font-family="Calibri,Calibri_MSFontService,sans-serif" font-weight="400" font-size="21" transform="matrix(1 0 0 1.00094 184.198 309)">Engineering</text></g></svg>
