<svg width="869" height="378" xmlns="http://www.w3.org/2000/svg" xmlns:xlink="http://www.w3.org/1999/xlink" overflow="hidden"><defs><clipPath id="clip0"><rect x="0" y="0" width="869" height="378"/></clipPath></defs><g clip-path="url(#clip0)"><rect x="0" y="0" width="869" height="378.145" fill="#FFFFFF"/><path d="M670.312 172.516C668.532 164.131 677.699 156.409 690.788 155.268 696.091 154.806 701.483 155.497 706.102 157.23 710.995 151.321 722.43 149.075 731.642 152.214 733.253 152.763 734.732 153.458 736.032 154.279 739.843 149.381 749.126 147.39 756.766 149.834 758.881 150.51 760.725 151.489 762.158 152.693 768.301 148.061 779.156 147.489 786.403 151.415 789.449 153.066 791.502 155.342 792.21 157.854 802.275 159.613 808.212 166.278 805.472 172.74 805.241 173.283 804.952 173.816 804.607 174.333 812.679 181.066 810.703 190.717 800.193 195.888 796.922 197.498 793.057 198.541 788.974 198.915 788.883 206.159 779.637 211.984 768.321 211.926 764.541 211.906 760.843 211.218 757.636 209.936 753.809 218.057 740.459 222.648 727.819 220.189 722.521 219.158 717.944 216.979 714.868 214.022 701.926 219.024 685.128 216.334 677.348 208.013 677.25 207.908 677.154 207.802 677.059 207.696 668.589 208.332 660.917 204.459 659.923 199.047 659.393 196.162 660.879 193.274 663.985 191.154 656.652 188.387 654.188 182.315 658.483 177.591 660.961 174.866 665.306 173.064 670.184 172.74Z" stroke="#000000" stroke-width="1.33282" stroke-miterlimit="8" fill="#FFFFFF" fill-rule="evenodd"/><path d="M673.121 192.202C669.99 192.359 666.859 191.895 664.15 190.873M681.037 206.744C679.778 207.065 678.458 207.279 677.111 207.38M714.86 213.732C713.913 212.822 713.12 211.849 712.495 210.831M758.596 206.497C758.456 207.577 758.14 208.644 757.651 209.681M777.374 186.828C784.472 189.042 788.952 193.671 788.889 198.726M804.535 174.157C803.385 175.878 801.63 177.405 799.407 178.618M792.231 157.604C792.427 158.299 792.517 159.004 792.502 159.711M759.485 155.146C760.153 154.174 761.037 153.269 762.111 152.459M734.916 156.427C735.189 155.623 735.616 154.845 736.188 154.109M706.083 157.214C707.754 157.841 709.3 158.596 710.687 159.462M671.116 174.882C670.752 174.108 670.483 173.318 670.313 172.517" stroke="#000000" stroke-width="1.33282" stroke-miterlimit="8" fill="none" fill-rule="evenodd"/><text font-family="Calibri,Calibri_MSFontService,sans-serif" font-weight="400" font-size="16" transform="matrix(1 0 0 1.00038 693.701 188)">LR Quality</text><path d="M163.5 184.571C163.5 156.393 199.541 133.551 244 133.551 288.459 133.551 324.5 156.393 324.5 184.571 324.5 212.748 288.459 235.59 244 235.59 199.541 235.59 163.5 212.748 163.5 184.571Z" stroke="#000000" stroke-width="1.33282" stroke-miterlimit="8" fill="#FFFFFF" fill-rule="evenodd"/><text font-family="Calibri,Calibri_MSFontService,sans-serif" font-weight="400" font-size="16" transform="matrix(1 0 0 1.00038 213.191 180)">Technical</text><text font-family="Calibri,Calibri_MSFontService,sans-serif" font-weight="400" font-size="16" transform="matrix(1 0 0 1.00038 201.002 200)">Environment</text><path d="M328.462 171.922 331.969 170.009 335.859 168.188 344.688 164.618 354.83 161.361 366.154 158.419 378.537 155.729 391.919 153.352 406.173 151.351 421.176 149.6 436.804 148.224 452.93 147.223 469.494 146.536 486.308 146.223 503.372 146.348 520.435 146.848 537.5 147.724 554.377 149.099 570.63 150.788 585.885 152.914 600.14 155.291 613.211 158.044 625.098 161.048 635.548 164.366 640.311 166.121 644.638 167.94 646.125 168.673 645.83 169.271 644.352 168.543 644.37 168.551 640.059 166.739 640.073 166.744 635.325 164.994 635.339 164.999 624.906 161.686 624.925 161.692 613.055 158.692 613.068 158.695 600.01 155.945 600.024 155.948 585.779 153.573 585.788 153.574 570.544 151.449 570.556 151.45 554.312 149.763 554.319 149.763 537.451 148.388 537.461 148.389 520.405 147.514 520.412 147.514 503.356 147.014 503.363 147.015 486.307 146.89 486.316 146.889 469.51 147.202 469.518 147.202 452.961 147.889 452.968 147.889 436.849 148.889 436.858 148.888 421.239 150.263 421.248 150.262 406.254 152.012 406.262 152.011 392.017 154.011 392.029 154.009 378.659 156.384 378.672 156.382 366.302 159.069 366.315 159.066 355.007 162.004 355.025 161.999 344.903 165.249 344.927 165.24 336.117 168.803 336.134 168.796 332.26 170.608 332.279 170.599 328.781 172.507ZM646.575 164.799 651.937 171.956 642.996 171.953Z"/><path d="M646.58 217.241 645.145 217.959 636.312 221.531 626.17 224.787 614.846 227.729 602.463 230.419 589.081 232.796 574.827 234.798 559.824 236.549 544.196 237.924 528.07 238.925 511.506 239.613 494.692 239.925 477.628 239.8 460.565 239.3 443.5 238.425 426.623 237.049 410.37 235.36 395.115 233.234 380.859 230.857 367.789 228.104 355.902 225.1 345.452 221.782 340.689 220.027 336.367 218.21 332.415 216.39 328.904 214.485 329.222 213.899 332.724 215.799 332.704 215.789 336.64 217.602 336.63 217.597 340.941 219.41 340.927 219.404 345.675 221.154 345.661 221.149 356.094 224.462 356.075 224.456 367.945 227.456 367.932 227.453 380.99 230.203 380.976 230.201 395.221 232.576 395.212 232.574 410.456 234.699 410.444 234.698 426.688 236.385 426.681 236.385 443.549 237.76 443.539 237.759 460.595 238.634 460.588 238.634 477.644 239.134 477.637 239.134 494.693 239.259 494.684 239.259 511.49 238.946 511.482 238.946 528.038 238.259 528.032 238.259 544.15 237.259 544.142 237.26 559.761 235.885 559.751 235.886 574.746 234.136 574.738 234.137 588.983 232.137 588.971 232.139 602.341 229.764 602.328 229.766 614.698 227.079 614.685 227.082 625.993 224.144 625.975 224.15 636.096 220.9 636.073 220.908 644.883 217.345 644.859 217.356 646.283 216.645ZM643.437 213.975 652.378 213.934 647.047 221.114Z"/><path d="M341.5 192.241 633.082 192.241 633.082 192.907 341.5 192.907ZM631.75 188.574 639.746 192.574 631.75 196.574Z"/><text font-family="Calibri,Calibri_MSFontService,sans-serif" font-weight="400" font-size="16" transform="matrix(1 0 0 1.00038 385.058 186)">II) Education (author capabilities)</text><text font-family="Calibri,Calibri_MSFontService,sans-serif" font-weight="400" font-size="16" transform="matrix(1 0 0 1.00038 410.688 227)">III) Insights (contribution)</text><rect x="67.5" y="13.5052" width="328" height="87.0334" stroke="#000000" stroke-width="1.33282" stroke-miterlimit="8" fill="#FFFFFF"/><rect x="67.5" y="267.603" width="328" height="87.0334" stroke="#000000" stroke-width="1.33282" stroke-miterlimit="8" fill="#FFFFFF"/><text font-family="Calibri,Calibri_MSFontService,sans-serif" font-weight="700" font-size="16" transform="matrix(1 0 0 1.00038 80.9168 35)">Design</text><text font-family="Calibri,Calibri_MSFontService,sans-serif" font-weight="700" font-size="16" transform="matrix(1 0 0 1.00038 80.0116 346)">Requirements</text><rect x="82.5" y="48.5186" width="89" height="44.0168" stroke="#000000" stroke-width="1.33282" stroke-miterlimit="8" fill="#FFFFFF"/><text font-family="Calibri,Calibri_MSFontService,sans-serif" font-weight="400" font-size="16" transform="matrix(1 0 0 1.00038 111.417 75)">Data</text><rect x="179.5" y="47.5182" width="98" height="44.0169" stroke="#000000" stroke-width="1.33282" stroke-miterlimit="8" fill="#FFFFFF"/><text font-family="Calibri,Calibri_MSFontService,sans-serif" font-weight="400" font-size="16" transform="matrix(1 0 0 1.00038 192.039 74)">Algorithms</text><rect x="286.5" y="48.5186" width="89" height="44.0168" stroke="#000000" stroke-width="1.33282" stroke-miterlimit="8" fill="#FFFFFF"/><text font-family="Calibri,Calibri_MSFontService,sans-serif" font-weight="400" font-size="16" transform="matrix(1 0 0 1.00038 301.483 75)">Platform</text><rect x="175.5" y="277.606" width="115" height="45.0173" stroke="#000000" stroke-width="1.33282" stroke-miterlimit="8" fill="#FFFFFF"/><text font-family="Calibri,Calibri_MSFontService,sans-serif" font-weight="400" font-size="16" transform="matrix(1 0 0 1.00038 187.873 305)">Collaboration</text><rect x="300.5" y="276.606" width="85" height="45.0172" stroke="#000000" stroke-width="1.33282" stroke-miterlimit="8" fill="#FFFFFF"/><text font-family="Calibri,Calibri_MSFontService,sans-serif" font-weight="400" font-size="16" transform="matrix(1 0 0 1.00038 310.878 304)">Cognition</text><rect x="77.5" y="276.606" width="87.9999" height="45.0172" stroke="#000000" stroke-width="1.33282" stroke-miterlimit="8" fill="#FFFFFF"/><text font-family="Calibri,Calibri_MSFontService,sans-serif" font-weight="400" font-size="16" transform="matrix(1 0 0 1.00038 91.2433 304)">Methods</text><path d="M244 101.039 244 125.175 242 125.175 242 101.039ZM246.999 123.842 243 131.842 239.002 123.842Z"/><path d="M0.999617-3.40701e-06 0.999699 24.1272-0.999534 24.1272-0.999617 3.40701e-06ZM3.99854 22.7944 0.000104947 30.7913-3.99839 22.7944Z" transform="matrix(1 0 0 -1.00038 243 265.893)"/><text font-family="Calibri,Calibri_MSFontService,sans-serif" font-weight="400" font-size="16" transform="matrix(1 0 0 1.00038 227.823 222)">(</text><text font-family="Calibri,Calibri_MSFontService,sans-serif" font-weight="700" font-size="16" transform="matrix(1 0 0 1.00038 232.821 222)">Fit</text><text font-family="Calibri,Calibri_MSFontService,sans-serif" font-weight="400" font-size="16" transform="matrix(1 0 0 1.00038 249.981 222)">)</text><text font-family="Calibri,Calibri_MSFontService,sans-serif" font-weight="400" font-size="16" transform="matrix(1 0 0 1.00038 371.093 137)">I) Efficiency and reliability (execution)</text></g></svg>
