<svg width="1280" height="643" xmlns="http://www.w3.org/2000/svg" xmlns:xlink="http://www.w3.org/1999/xlink" overflow="hidden"><defs><clipPath id="clip0"><rect x="0" y="0" width="1280" height="643"/></clipPath></defs><g clip-path="url(#clip0)"><rect x="0" y="0" width="1280" height="643.5" fill="#FFFFFF"/><rect x="319.5" y="136.606" width="753" height="100.078" stroke="#000000" stroke-width="1.33333" stroke-miterlimit="8" fill="none"/><rect x="319.5" y="249.694" width="753" height="100.078" stroke="#000000" stroke-width="1.33333" stroke-miterlimit="8" fill="none"/><rect x="319.5" y="365.784" width="753" height="100.078" stroke="#000000" stroke-width="1.33333" stroke-miterlimit="8" fill="none"/><rect x="545.5" y="400.812" width="24" height="29.0226" stroke="#000000" stroke-width="1.33333" stroke-miterlimit="8" fill="none"/><rect x="404.5" y="400.812" width="25" height="29.0226" stroke="#000000" stroke-width="1.33333" stroke-miterlimit="8" fill="none"/><rect x="685.5" y="400.812" width="24" height="29.0226" stroke="#000000" stroke-width="1.33333" stroke-miterlimit="8" fill="none"/><rect x="825.5" y="400.812" width="25" height="29.0226" stroke="#000000" stroke-width="1.33333" stroke-miterlimit="8" fill="none"/><rect x="966.5" y="400.812" width="24" height="29.0226" stroke="#000000" stroke-width="1.33333" stroke-miterlimit="8" fill="none"/><path d="M429.5 415.49 538.886 415.49 538.886 416.157 429.5 416.157ZM537.552 411.82 545.552 415.823 537.552 419.827Z"/><path d="M569.5 415.49 678.886 415.49 678.886 416.157 569.5 416.157ZM677.552 411.82 685.552 415.823 677.552 419.827Z"/><path d="M850.5 415.49 959.886 415.49 959.886 416.157 850.5 416.157ZM958.552 411.82 966.552 415.823 958.552 419.827Z"/><path d="M709.5 415.49 818.886 415.49 818.886 416.157 709.5 416.157ZM817.552 411.82 825.552 415.823 817.552 419.827Z"/><rect x="537.5" y="286.723" width="25" height="29.0226" stroke="#000000" stroke-width="1.33333" stroke-miterlimit="8" fill="none"/><rect x="397.5" y="286.723" width="24" height="29.0226" stroke="#000000" stroke-width="1.33333" stroke-miterlimit="8" fill="none"/><rect x="678.5" y="286.723" width="24" height="29.0226" stroke="#000000" stroke-width="1.33333" stroke-miterlimit="8" fill="none"/><rect x="818.5" y="286.723" width="24" height="29.0226" stroke="#000000" stroke-width="1.33333" stroke-miterlimit="8" fill="none"/><rect x="958.5" y="286.723" width="25" height="29.0226" stroke="#000000" stroke-width="1.33333" stroke-miterlimit="8" fill="none"/><path d="M421.5 301.401 530.886 301.401 530.886 302.068 421.5 302.068ZM529.552 297.732 537.552 301.735 529.552 305.738Z"/><path d="M562.5 301.401 671.886 301.401 671.886 302.068 562.5 302.068ZM670.552 297.732 678.552 301.735 670.552 305.738Z"/><path d="M842.5 301.401 951.886 301.401 951.886 302.068 842.5 302.068ZM950.552 297.732 958.552 301.735 950.552 305.738Z"/><path d="M702.5 301.401 811.886 301.401 811.886 302.068 702.5 302.068ZM810.552 297.732 818.552 301.735 810.552 305.738Z"/><rect x="534.5" y="173.635" width="24" height="29.0226" stroke="#000000" stroke-width="1.33333" stroke-miterlimit="8" fill="none"/><rect x="394.5" y="173.635" width="24" height="29.0226" stroke="#000000" stroke-width="1.33333" stroke-miterlimit="8" fill="none"/><rect x="674.5" y="173.635" width="25" height="29.0226" stroke="#000000" stroke-width="1.33333" stroke-miterlimit="8" fill="none"/><rect x="815.5" y="173.635" width="24" height="29.0226" stroke="#000000" stroke-width="1.33333" stroke-miterlimit="8" fill="none"/><rect x="955.5" y="173.635" width="24" height="29.0226" stroke="#000000" stroke-width="1.33333" stroke-miterlimit="8" fill="none"/><path d="M418.5 188.313 527.886 188.313 527.886 188.98 418.5 188.98ZM526.552 184.644 534.552 188.647 526.552 192.65Z"/><path d="M558.5 188.313 667.886 188.313 667.886 188.98 558.5 188.98ZM666.552 184.644 674.552 188.647 666.552 192.65Z"/><path d="M839.5 188.313 948.886 188.313 948.886 188.98 839.5 188.98ZM947.552 184.644 955.552 188.647 947.552 192.65Z"/><path d="M698.5 188.313 807.886 188.313 807.886 188.98 698.5 188.98ZM806.552 184.644 814.552 188.647 806.552 192.65Z"/><rect x="757.5" y="149.616" width="24" height="29.0226" stroke="#000000" stroke-width="1.33333" stroke-miterlimit="8" fill="none"/><rect x="897.5" y="149.616" width="24" height="29.0226" stroke="#000000" stroke-width="1.33333" stroke-miterlimit="8" fill="none"/><path d="M781.5 164.294 890.886 164.295 890.886 164.962 781.5 164.962ZM889.552 160.625 897.552 164.628 889.552 168.631Z"/><path d="M0.12715-0.30813 51.9352 21.0705 51.6809 21.6867-0.12715 0.30813ZM52.1013 17.1724 57.9706 23.9216 49.0497 24.5675Z" transform="matrix(1 0 0 -1.00078 699.5 188.568)"/><path d="M508.75 72.5564 508.75 99.0771 517.5 99.0771 500 116.591 482.5 99.0771 491.25 99.0771 491.25 72.5564Z" stroke="#000000" stroke-width="1.33437" stroke-miterlimit="8" fill="#FFFFFF" fill-rule="evenodd"/><text font-family="Calibri,Calibri_MSFontService,sans-serif" font-weight="400" font-size="25" transform="matrix(1 0 0 1.00078 370.82 49)">Metadata (search results)<tspan font-size="25" x="419.263" y="-1.99844">Full</tspan><tspan font-size="25" x="454.93" y="-1.99844">-</tspan><tspan font-size="25" x="462.597" y="-1.99844">text documents (PDF)</tspan></text><path d="M932 72.5565 932 99.5775 940.5 99.5775 923.5 116.591 906.5 99.5775 915 99.5775 915 72.5565Z" stroke="#000000" stroke-width="1.33437" stroke-miterlimit="8" fill="#FFFFFF" fill-rule="evenodd"/><path d="M5.25004 65.5C5.25004 32.2249 21.7036 5.25003 42 5.25003 59.7874 5.25003 75.0215 26.1349 78.1698 54.8362L83.4023 54.8362 73.5001 65.5 62.4023 54.8362 67.6399 54.8362C64.5324 27.9986 50.5339 11.0168 36.3733 16.9063 24.3305 21.915 15.7499 42.1329 15.7499 65.5Z" stroke="#000000" stroke-width="1.33333" stroke-miterlimit="8" fill="#FFFFFF" fill-rule="evenodd" transform="matrix(1 -1.2256e-16 -1.22465e-16 -1.00078 518.5 552.93)"/><path d="M5.25004 65.5C5.25004 32.2249 21.7036 5.25003 42 5.25003 59.7874 5.25003 75.0215 26.1349 78.1698 54.8362L83.4023 54.8362 73.5001 65.5 62.4023 54.8362 67.6399 54.8362C64.5324 27.9986 50.5339 11.0168 36.3733 16.9063 24.3305 21.915 15.7499 42.1329 15.7499 65.5Z" stroke="#000000" stroke-width="1.33333" stroke-miterlimit="8" fill="#FFFFFF" fill-rule="evenodd" transform="matrix(1 -1.2256e-16 -1.22465e-16 -1.00078 663.5 552.93)"/><path d="M5.31249 65.5C5.31249 32.2594 21.9619 5.31249 42.4999 5.31249 60.4678 5.31249 75.8658 26.1049 79.0855 54.715L84.3784 54.715 74.375 65.5 63.1283 54.715 68.426 54.715C65.2338 27.9983 51.0385 11.1687 36.72 17.1251 24.5752 22.1772 15.9376 42.2828 15.9376 65.4999Z" stroke="#000000" stroke-width="1.33333" stroke-miterlimit="8" fill="#FFFFFF" fill-rule="evenodd" transform="matrix(1 -1.2256e-16 -1.22465e-16 -1.00078 790.5 552.93)"/><text font-family="Calibri,Calibri_MSFontService,sans-serif" font-weight="700" font-size="25" transform="matrix(1 0 0 1.00078 596.34 584)">Processing operations<tspan font-weight="400" font-size="25" x="-138.533" y="26.979">Ensembles of researchers, crowds, and algorithms</tspan><tspan font-weight="400" font-size="25" x="-548.392" y="-268.791">Shared CoLRev repository</tspan><tspan font-weight="400" font-size="25" x="-563.805" y="-163.872">Local CoLRev repository n</tspan></text><path d="M1086.5 292.477 1139 292.477 1139 283.721 1156.5 301.234 1139 318.748 1139 309.991 1086.5 309.991Z" stroke="#000000" stroke-width="1.33333" stroke-miterlimit="8" fill="#FFFFFF" fill-rule="evenodd"/><text font-family="Calibri,Calibri_MSFontService,sans-serif" font-weight="700" font-size="25" transform="matrix(1 0 0 1.00078 1179.58 305)">Reuse</text><path d="M1108.01 418.812C1138.4 424.263 1152.79 444.847 1140.14 464.788 1133.02 476.026 1118.33 485.193 1100.4 489.586L1101.07 494.8 1089.18 486.317 1098.37 473.868 1099.04 479.087C1125.03 472.535 1139.86 456.404 1132.17 443.056 1127.76 435.393 1116.53 429.968 1101.91 428.434Z" stroke="#000000" stroke-width="1.33435" stroke-miterlimit="8" fill="#FFFFFF" fill-rule="evenodd"/><text font-family="Calibri,Calibri_MSFontService,sans-serif" font-weight="400" font-size="25" transform="matrix(1 0 0 1.00078 360.48 228)">Version 1<tspan font-size="25" x="138" y="0">Version 2</tspan><tspan font-size="25" x="315.837" y="3.99689">…</tspan></text><rect x="380.5" y="384.799" width="222" height="67.0522" stroke="#000000" stroke-width="1.33333" stroke-miterlimit="8" fill="none"/><path d="M1009.5 194.651 1022.5 181.641 1035.5 194.651 1029 194.651 1029 393.806 1035.5 393.806 1022.5 406.816 1009.5 393.806 1016 393.806 1016 194.651Z" stroke="#000000" stroke-width="1.33333" stroke-miterlimit="8" fill="#FFFFFF" fill-rule="evenodd"/><text font-family="Calibri,Calibri_MSFontService,sans-serif" font-weight="700" font-size="25" transform="matrix(1 0 0 1.00078 1154.27 508)">Reuse<tspan font-weight="400" font-size="25" x="-1121.49" y="-310.758">Local CoLRev repository 1</tspan><tspan font-weight="400" font-size="25" x="-551.365" y="-422.671">Potential data quality </tspan><tspan font-weight="400" font-size="25" x="-491.505" y="-395.692">problems</tspan></text><rect x="11" y="2.00156" width="1254" height="635.494" stroke="#000000" stroke-width="4" stroke-miterlimit="8" fill="none"/></g></svg>
