<svg width="1058" height="756" xmlns="http://www.w3.org/2000/svg" xmlns:xlink="http://www.w3.org/1999/xlink" overflow="hidden"><defs><clipPath id="clip0"><rect x="0" y="0" width="1058" height="756"/></clipPath><clipPath id="clip1"><rect x="545" y="18" width="97" height="96"/></clipPath><clipPath id="clip2"><rect x="545" y="18" width="97" height="96"/></clipPath><clipPath id="clip3"><rect x="545" y="18" width="97" height="96"/></clipPath></defs><g clip-path="url(#clip0)"><rect x="0" y="0" width="1058" height="756.405" fill="#FFFFFF"/><rect x="390.5" y="164.588" width="407" height="180.096" stroke="#000000" stroke-width="2.66583" stroke-miterlimit="8" fill="#FFFFFF"/><text font-family="Calibri,Calibri_MSFontService,sans-serif" font-weight="400" font-size="24" transform="matrix(1 0 0 1.00054 493.058 191)">Local<tspan font-size="24" x="55.2826" y="0">CoLRev </tspan>project</text><path d="M441.5 242.63C441.5 247.603 470.378 251.635 506 251.635 541.622 251.635 570.5 247.603 570.5 242.63L570.5 296.659C570.5 301.632 541.622 305.664 506 305.664 470.378 305.664 441.5 301.632 441.5 296.659Z" fill="#FFFFFF" fill-rule="evenodd"/><path d="M441.5 242.63C441.5 237.657 470.378 233.625 506 233.625 541.622 233.625 570.5 237.657 570.5 242.63 570.5 247.603 541.622 251.635 506 251.635 470.378 251.635 441.5 247.603 441.5 242.63Z" fill="#FFFFFF" fill-rule="evenodd"/><path d="M570.5 242.63C570.5 247.603 541.622 251.635 506 251.635 470.378 251.635 441.5 247.603 441.5 242.63 441.5 237.657 470.378 233.625 506 233.625 541.622 233.625 570.5 237.657 570.5 242.63L570.5 296.659C570.5 301.632 541.622 305.664 506 305.664 470.378 305.664 441.5 301.632 441.5 296.659L441.5 242.63" stroke="#000000" stroke-width="1.33291" stroke-miterlimit="8" fill="none" fill-rule="evenodd"/><text font-family="Calibri,Calibri_MSFontService,sans-serif" font-weight="400" font-size="21" transform="matrix(1 0 0 1.00054 453.408 281)">project data</text><rect x="614.5" y="257.638" width="24" height="38.0204" stroke="#000000" stroke-width="1.33291" stroke-miterlimit="8" fill="#FFFFFF"/><rect x="635.5" y="257.638" width="23" height="38.0204" stroke="#000000" stroke-width="1.33291" stroke-miterlimit="8" fill="#FFFFFF"/><rect x="656.5" y="257.638" width="23" height="38.0204" stroke="#000000" stroke-width="1.33291" stroke-miterlimit="8" fill="#FFFFFF"/><rect x="676.5" y="257.638" width="24" height="38.0204" stroke="#000000" stroke-width="1.33291" stroke-miterlimit="8" fill="#FFFFFF"/><rect x="697.5" y="257.638" width="23" height="38.0204" stroke="#000000" stroke-width="1.33291" stroke-miterlimit="8" fill="#FFFFFF"/><rect x="717.5" y="257.638" width="24" height="38.0204" stroke="#000000" stroke-width="1.33291" stroke-miterlimit="8" fill="#FFFFFF"/><rect x="738.5" y="257.638" width="23" height="38.0204" stroke="#000000" stroke-width="1.33291" stroke-miterlimit="8" fill="#FFFFFF"/><text font-family="Calibri,Calibri_MSFontService,sans-serif" font-weight="400" font-size="21" transform="matrix(1 0 0 1.00054 638.154 248)">record data</text><rect x="119.5" y="473.754" width="407" height="180.097" stroke="#000000" stroke-width="2.66583" stroke-miterlimit="8" fill="#FFFFFF"/><text font-family="Calibri,Calibri_MSFontService,sans-serif" font-weight="400" font-size="24" transform="matrix(1 0 0 1.00054 213.072 501)">Shared<tspan font-size="24" x="73.3302" y="0">CoLRev </tspan><tspan font-size="24" x="149.766" y="0">project</tspan></text><path d="M170.5 552.671C170.5 557.575 199.601 561.551 235.5 561.551 271.398 561.551 300.5 557.575 300.5 552.671L300.5 605.95C300.5 610.854 271.398 614.829 235.5 614.829 199.601 614.829 170.5 610.854 170.5 605.95Z" fill="#FFFFFF" fill-rule="evenodd"/><path d="M170.5 552.671C170.5 547.767 199.601 543.791 235.5 543.791 271.398 543.791 300.5 547.767 300.5 552.671 300.5 557.575 271.398 561.551 235.5 561.551 199.601 561.551 170.5 557.575 170.5 552.671Z" fill="#FFFFFF" fill-rule="evenodd"/><path d="M300.5 552.671C300.5 557.575 271.398 561.551 235.5 561.551 199.601 561.551 170.5 557.575 170.5 552.671 170.5 547.767 199.601 543.791 235.5 543.791 271.398 543.791 300.5 547.767 300.5 552.671L300.5 605.95C300.5 610.854 271.398 614.829 235.5 614.829 199.601 614.829 170.5 610.854 170.5 605.95L170.5 552.671" stroke="#000000" stroke-width="1.33291" stroke-miterlimit="8" fill="none" fill-rule="evenodd"/><text font-family="Calibri,Calibri_MSFontService,sans-serif" font-weight="400" font-size="21" transform="matrix(1 0 0 1.00054 182.446 591)">project data</text><rect x="343.5" y="567.804" width="24" height="37.0198" stroke="#000000" stroke-width="1.33291" stroke-miterlimit="8" fill="#FFFFFF"/><rect x="364.5" y="567.804" width="23" height="37.0198" stroke="#000000" stroke-width="1.33291" stroke-miterlimit="8" fill="#FFFFFF"/><rect x="385.5" y="567.804" width="23" height="37.0198" stroke="#000000" stroke-width="1.33291" stroke-miterlimit="8" fill="#FFFFFF"/><rect x="405.5" y="567.804" width="24" height="37.0198" stroke="#000000" stroke-width="1.33291" stroke-miterlimit="8" fill="#FFFFFF"/><rect x="426.5" y="567.804" width="23" height="37.0198" stroke="#000000" stroke-width="1.33291" stroke-miterlimit="8" fill="#FFFFFF"/><rect x="446.5" y="567.804" width="24" height="37.0198" stroke="#000000" stroke-width="1.33291" stroke-miterlimit="8" fill="#FFFFFF"/><rect x="467.5" y="567.804" width="23" height="37.0198" stroke="#000000" stroke-width="1.33291" stroke-miterlimit="8" fill="#FFFFFF"/><text font-family="Calibri,Calibri_MSFontService,sans-serif" font-weight="400" font-size="21" transform="matrix(1 0 0 1.00054 367.192 557)">record data</text><path d="M460.999 344.184 460.999 460.211 455.001 460.211 455.001 344.184ZM466.997 457.21 458 475.214 449.003 457.21Z"/><path d="M2.99906-2.43484e-06 2.99915 114.279-2.99896 114.279-2.99906 2.43484e-06ZM8.99726 111.28 0.000104954 129.274-8.99708 111.28Z" transform="matrix(1 0 0 -1.00054 421 473.528)"/><path d="M544.5 489.145C544.5 439.754 584.518 399.714 633.883 399.714L927.117 399.714C976.482 399.714 1016.5 439.754 1016.5 489.145L1016.5 606.441C1016.5 655.833 976.482 695.873 927.117 695.873L633.883 695.873C584.518 695.873 544.5 655.833 544.5 606.441Z" stroke="#000000" stroke-width="1.33291" stroke-miterlimit="8" stroke-dasharray="5.33165 3.99874" fill="none" fill-rule="evenodd"/><rect x="598.5" y="448.74" width="177" height="108.058" stroke="#000000" stroke-width="2.66583" stroke-miterlimit="8" fill="#FFFFFF"/><text font-family="Calibri,Calibri_MSFontService,sans-serif" font-weight="400" font-size="16" transform="matrix(1 0 0 1.00054 619.601 468)">Curated CoLRev data</text><rect x="637.5" y="491.763" width="17" height="28.015" stroke="#000000" stroke-width="1.33291" stroke-miterlimit="8" fill="#FFFFFF"/><rect x="652.5" y="491.763" width="17" height="28.015" stroke="#000000" stroke-width="1.33291" stroke-miterlimit="8" fill="#FFFFFF"/><rect x="667.5" y="491.763" width="18" height="28.015" stroke="#000000" stroke-width="1.33291" stroke-miterlimit="8" fill="#FFFFFF"/><rect x="682.5" y="491.763" width="18" height="28.015" stroke="#000000" stroke-width="1.33291" stroke-miterlimit="8" fill="#FFFFFF"/><rect x="698.5" y="491.763" width="17" height="28.015" stroke="#000000" stroke-width="1.33291" stroke-miterlimit="8" fill="#FFFFFF"/><rect x="713.5" y="491.763" width="18" height="28.015" stroke="#000000" stroke-width="1.33291" stroke-miterlimit="8" fill="#FFFFFF"/><rect x="728.5" y="491.763" width="18" height="28.015" stroke="#000000" stroke-width="1.33291" stroke-miterlimit="8" fill="#FFFFFF"/><text font-family="Calibri,Calibri_MSFontService,sans-serif" font-weight="400" font-size="15" transform="matrix(1 0 0 1.00054 656.724 486)">record data</text><rect x="637.5" y="519.778" width="17" height="28.0151" stroke="#000000" stroke-width="1.33291" stroke-miterlimit="8" fill="#FFFFFF"/><rect x="652.5" y="519.778" width="17" height="28.0151" stroke="#000000" stroke-width="1.33291" stroke-miterlimit="8" fill="#FFFFFF"/><rect x="667.5" y="519.778" width="18" height="28.0151" stroke="#000000" stroke-width="1.33291" stroke-miterlimit="8" fill="#FFFFFF"/><rect x="682.5" y="519.778" width="18" height="28.0151" stroke="#000000" stroke-width="1.33291" stroke-miterlimit="8" fill="#FFFFFF"/><rect x="698.5" y="519.778" width="17" height="28.0151" stroke="#000000" stroke-width="1.33291" stroke-miterlimit="8" fill="#FFFFFF"/><rect x="713.5" y="519.778" width="18" height="28.0151" stroke="#000000" stroke-width="1.33291" stroke-miterlimit="8" fill="#FFFFFF"/><rect x="728.5" y="519.778" width="18" height="28.0151" stroke="#000000" stroke-width="1.33291" stroke-miterlimit="8" fill="#FFFFFF"/><rect x="598.5" y="564.802" width="177" height="108.058" stroke="#000000" stroke-width="2.66583" stroke-miterlimit="8" fill="#FFFFFF"/><text font-family="Calibri,Calibri_MSFontService,sans-serif" font-weight="400" font-size="16" transform="matrix(1 0 0 1.00054 619.601 584)">Curated CoLRev data</text><rect x="637.5" y="608.826" width="17" height="27.0145" stroke="#000000" stroke-width="1.33291" stroke-miterlimit="8" fill="#FFFFFF"/><rect x="652.5" y="608.826" width="17" height="27.0145" stroke="#000000" stroke-width="1.33291" stroke-miterlimit="8" fill="#FFFFFF"/><rect x="667.5" y="608.826" width="18" height="27.0145" stroke="#000000" stroke-width="1.33291" stroke-miterlimit="8" fill="#FFFFFF"/><rect x="682.5" y="608.826" width="18" height="27.0145" stroke="#000000" stroke-width="1.33291" stroke-miterlimit="8" fill="#FFFFFF"/><rect x="698.5" y="608.826" width="17" height="27.0145" stroke="#000000" stroke-width="1.33291" stroke-miterlimit="8" fill="#FFFFFF"/><rect x="713.5" y="608.826" width="18" height="27.0145" stroke="#000000" stroke-width="1.33291" stroke-miterlimit="8" fill="#FFFFFF"/><rect x="728.5" y="608.826" width="18" height="27.0145" stroke="#000000" stroke-width="1.33291" stroke-miterlimit="8" fill="#FFFFFF"/><text font-family="Calibri,Calibri_MSFontService,sans-serif" font-weight="400" font-size="15" transform="matrix(1 0 0 1.00054 656.724 602)">record data</text><rect x="637.5" y="636.841" width="17" height="27.0145" stroke="#000000" stroke-width="1.33291" stroke-miterlimit="8" fill="#FFFFFF"/><rect x="652.5" y="636.841" width="17" height="27.0145" stroke="#000000" stroke-width="1.33291" stroke-miterlimit="8" fill="#FFFFFF"/><rect x="667.5" y="636.841" width="18" height="27.0145" stroke="#000000" stroke-width="1.33291" stroke-miterlimit="8" fill="#FFFFFF"/><rect x="682.5" y="636.841" width="18" height="27.0145" stroke="#000000" stroke-width="1.33291" stroke-miterlimit="8" fill="#FFFFFF"/><rect x="698.5" y="636.841" width="17" height="27.0145" stroke="#000000" stroke-width="1.33291" stroke-miterlimit="8" fill="#FFFFFF"/><rect x="713.5" y="636.841" width="18" height="27.0145" stroke="#000000" stroke-width="1.33291" stroke-miterlimit="8" fill="#FFFFFF"/><rect x="728.5" y="636.841" width="18" height="27.0145" stroke="#000000" stroke-width="1.33291" stroke-miterlimit="8" fill="#FFFFFF"/><rect x="784.5" y="448.74" width="177" height="108.058" stroke="#000000" stroke-width="2.66583" stroke-miterlimit="8" fill="#FFFFFF"/><text font-family="Calibri,Calibri_MSFontService,sans-serif" font-weight="400" font-size="16" transform="matrix(1 0 0 1.00054 805.678 468)">Curated CoLRev data</text><rect x="823.5" y="491.763" width="17" height="28.015" stroke="#000000" stroke-width="1.33291" stroke-miterlimit="8" fill="#FFFFFF"/><rect x="838.5" y="491.763" width="17" height="28.015" stroke="#000000" stroke-width="1.33291" stroke-miterlimit="8" fill="#FFFFFF"/><rect x="853.5" y="491.763" width="18" height="28.015" stroke="#000000" stroke-width="1.33291" stroke-miterlimit="8" fill="#FFFFFF"/><rect x="869.5" y="491.763" width="17" height="28.015" stroke="#000000" stroke-width="1.33291" stroke-miterlimit="8" fill="#FFFFFF"/><rect x="884.5" y="491.763" width="17" height="28.015" stroke="#000000" stroke-width="1.33291" stroke-miterlimit="8" fill="#FFFFFF"/><rect x="899.5" y="491.763" width="18" height="28.015" stroke="#000000" stroke-width="1.33291" stroke-miterlimit="8" fill="#FFFFFF"/><rect x="915.5" y="491.763" width="17" height="28.015" stroke="#000000" stroke-width="1.33291" stroke-miterlimit="8" fill="#FFFFFF"/><text font-family="Calibri,Calibri_MSFontService,sans-serif" font-weight="400" font-size="15" transform="matrix(1 0 0 1.00054 842.8 486)">record data</text><rect x="823.5" y="519.778" width="17" height="28.0151" stroke="#000000" stroke-width="1.33291" stroke-miterlimit="8" fill="#FFFFFF"/><rect x="838.5" y="519.778" width="17" height="28.0151" stroke="#000000" stroke-width="1.33291" stroke-miterlimit="8" fill="#FFFFFF"/><rect x="853.5" y="519.778" width="18" height="28.0151" stroke="#000000" stroke-width="1.33291" stroke-miterlimit="8" fill="#FFFFFF"/><rect x="869.5" y="519.778" width="17" height="28.0151" stroke="#000000" stroke-width="1.33291" stroke-miterlimit="8" fill="#FFFFFF"/><rect x="884.5" y="519.778" width="17" height="28.0151" stroke="#000000" stroke-width="1.33291" stroke-miterlimit="8" fill="#FFFFFF"/><rect x="899.5" y="519.778" width="18" height="28.0151" stroke="#000000" stroke-width="1.33291" stroke-miterlimit="8" fill="#FFFFFF"/><rect x="915.5" y="519.778" width="17" height="28.0151" stroke="#000000" stroke-width="1.33291" stroke-miterlimit="8" fill="#FFFFFF"/><rect x="784.5" y="564.802" width="177" height="108.058" stroke="#000000" stroke-width="2.66583" stroke-miterlimit="8" fill="#FFFFFF"/><text font-family="Calibri,Calibri_MSFontService,sans-serif" font-weight="400" font-size="16" transform="matrix(1 0 0 1.00054 805.678 584)">Curated CoLRev data</text><rect x="823.5" y="608.826" width="17" height="27.0145" stroke="#000000" stroke-width="1.33291" stroke-miterlimit="8" fill="#FFFFFF"/><rect x="838.5" y="608.826" width="17" height="27.0145" stroke="#000000" stroke-width="1.33291" stroke-miterlimit="8" fill="#FFFFFF"/><rect x="853.5" y="608.826" width="18" height="27.0145" stroke="#000000" stroke-width="1.33291" stroke-miterlimit="8" fill="#FFFFFF"/><rect x="869.5" y="608.826" width="17" height="27.0145" stroke="#000000" stroke-width="1.33291" stroke-miterlimit="8" fill="#FFFFFF"/><rect x="884.5" y="608.826" width="17" height="27.0145" stroke="#000000" stroke-width="1.33291" stroke-miterlimit="8" fill="#FFFFFF"/><rect x="899.5" y="608.826" width="18" height="27.0145" stroke="#000000" stroke-width="1.33291" stroke-miterlimit="8" fill="#FFFFFF"/><rect x="915.5" y="608.826" width="17" height="27.0145" stroke="#000000" stroke-width="1.33291" stroke-miterlimit="8" fill="#FFFFFF"/><text font-family="Calibri,Calibri_MSFontService,sans-serif" font-weight="400" font-size="15" transform="matrix(1 0 0 1.00054 842.8 602)">record data</text><rect x="823.5" y="636.841" width="17" height="27.0145" stroke="#000000" stroke-width="1.33291" stroke-miterlimit="8" fill="#FFFFFF"/><rect x="838.5" y="636.841" width="17" height="27.0145" stroke="#000000" stroke-width="1.33291" stroke-miterlimit="8" fill="#FFFFFF"/><rect x="853.5" y="636.841" width="18" height="27.0145" stroke="#000000" stroke-width="1.33291" stroke-miterlimit="8" fill="#FFFFFF"/><rect x="869.5" y="636.841" width="17" height="27.0145" stroke="#000000" stroke-width="1.33291" stroke-miterlimit="8" fill="#FFFFFF"/><rect x="884.5" y="636.841" width="17" height="27.0145" stroke="#000000" stroke-width="1.33291" stroke-miterlimit="8" fill="#FFFFFF"/><rect x="899.5" y="636.841" width="18" height="27.0145" stroke="#000000" stroke-width="1.33291" stroke-miterlimit="8" fill="#FFFFFF"/><rect x="915.5" y="636.841" width="17" height="27.0145" stroke="#000000" stroke-width="1.33291" stroke-miterlimit="8" fill="#FFFFFF"/><g clip-path="url(#clip1)"><g clip-path="url(#clip2)"><g clip-path="url(#clip3)"><path d="M63.3673 29.7034C63.3673 38.4526 56.2746 45.5452 47.5254 45.5452 38.7762 45.5452 31.6836 38.4526 31.6836 29.7034 31.6836 20.9542 38.7762 13.8616 47.5254 13.8616 56.2746 13.8616 63.3673 20.9542 63.3673 29.7034Z" transform="matrix(1.00999 0 0 1 545 18.0096)"/><path d="M76.2387 57.3375C75.9686 55.275 74.9461 53.3849 73.3674 52.0305 69.1373 49.1339 64.4021 47.0551 59.4068 45.9017 58.8424 45.7729 58.2484 45.664 57.6543 45.5551 51.5142 49.4894 43.6456 49.4894 37.5055 45.5551L35.7233 45.8819C30.7233 47.105 25.9731 49.1853 21.6835 52.0305 19.9211 53.1592 19.1884 55.2582 18.8122 57.3375L15.8418 74.3575C15.6641 75.794 16.2591 77.2174 17.4062 78.1001L24.1885 82.5755 24.1885 61.1395C24.1884 58.6569 26.2009 56.6444 28.6835 56.6443 28.6934 56.6443 28.7034 56.6443 28.7133 56.6444L66.3376 56.6444C68.8202 56.6444 70.8327 58.6569 70.8327 61.1395L70.8327 82.0309 77.9813 77.5457C78.8277 76.9742 79.2977 75.9887 79.2091 74.9714Z" transform="matrix(1.00999 0 0 1 545 18.0096)"/><path d="M68.8822 85.8131 68.8822 61.1395C68.8823 59.7506 67.7564 58.6245 66.3675 58.6244 66.3575 58.6244 66.3476 58.6245 66.3376 58.6246L28.7133 58.6246C27.3244 58.6246 26.1984 59.7506 26.1984 61.1395L26.1984 85.8131 18.624 85.8131 18.624 87.0706C18.6295 88.4572 19.7523 89.58 21.1389 89.5855L73.912 89.5855C75.2986 89.58 76.4214 88.4572 76.4268 87.0706L76.4268 85.8131ZM42.3967 77.5457 41.0006 78.9417 35.4461 73.3872 41.0006 67.8327 42.3967 69.2287 38.2481 73.3872ZM46.0898 79.6348 44.2581 78.8724 48.9017 67.6643 50.7235 68.4267ZM54.0107 78.9417 52.6146 77.5457 56.7632 73.3872 52.6146 69.2287 54.0107 67.8327 59.5652 73.3872Z" transform="matrix(1.00999 0 0 1 545 18.0096)"/></g></g></g><path d="M593.5 113.561 593.5 164.075" stroke="#000000" stroke-width="0.666457" stroke-miterlimit="8" fill="none" fill-rule="evenodd"/><path d="M502.342 63.4861C520.462 67.3313 532.478 84.6137 529.279 102.229L532.561 103.62 526.141 108.247 523.528 99.7911 526.806 101.181C529.385 85.1388 518.329 69.5787 501.848 66.0548Z" stroke="#000000" stroke-width="1.33305" stroke-miterlimit="8" fill-rule="evenodd"/><path d="M461.664 95.0267C461.715 79.2913 473.457 65.8986 489.562 63.2065L489.625 59.6307 496.072 64.0416 489.453 69.4431 489.516 65.8692C474.885 68.54 464.318 80.757 464.278 95.0472Z" stroke="#000000" stroke-width="1.33362" stroke-miterlimit="8" fill-rule="evenodd"/><path d="M526.369 113.166C517.917 129.247 497.546 135.751 480.868 127.693 472.815 123.802 466.726 116.971 463.953 108.718L460.408 109.086 463.796 101.932 470.166 108.073 466.624 108.441C472.228 124.061 489.999 132.306 506.317 126.857 513.989 124.295 520.336 118.977 524.014 112.028Z" stroke="#000000" stroke-width="1.33292" stroke-miterlimit="8" fill-rule="evenodd"/><text font-family="Calibri,Calibri_MSFontService,sans-serif" font-weight="700" font-size="32" transform="matrix(1 0 0 1.00054 40.6565 95)">Part 1. Workflow<tspan font-size="32" x="0" y="137.926">Part 2. Operations</tspan><tspan font-size="32" x="0.427162" y="295.842">Part 3. Collaboration </tspan><tspan font-size="32" x="0.427162" y="333.821">and curation</tspan></text><path d="M2.99906-2.06177e-06 2.99915 137.67-2.99896 137.67-2.99906 2.06177e-06ZM8.99726 134.671 0.000104954 152.666-8.99707 134.671Z" transform="matrix(-1 0 0 1.00054 750 295.158)"/><path d="M2.99906-2.06063e-06 2.99915 137.755-2.99896 137.755-2.99906 2.06063e-06ZM8.99726 134.756 0.000104954 152.751-8.99707 134.756Z" transform="matrix(1 0 0 -1.00054 712 447.991)"/></g></svg>
