<svg width="1058" height="907" xmlns="http://www.w3.org/2000/svg" xmlns:xlink="http://www.w3.org/1999/xlink" overflow="hidden"><defs><clipPath id="clip0"><rect x="0" y="0" width="1058" height="907"/></clipPath><clipPath id="clip1"><rect x="564" y="28" width="97" height="97"/></clipPath><clipPath id="clip2"><rect x="564" y="28" width="97" height="97"/></clipPath><clipPath id="clip3"><rect x="564" y="28" width="97" height="97"/></clipPath></defs><g clip-path="url(#clip0)"><rect x="0" y="0" width="1058" height="907.119" fill="#FFFFFF"/><rect x="494.5" y="175.523" width="406" height="137.018" stroke="#000000" stroke-width="2.66583" stroke-miterlimit="8" fill="#FFFFFF"/><text font-family="Calibri,Calibri_MSFontService,sans-serif" font-weight="400" font-size="24" transform="matrix(1 0 0 1.00013 596.915 201)">Local<tspan font-size="24" x="55.2826" y="0">CoLRev </tspan>project</text><path d="M545.5 234.531C545.5 239.502 574.378 243.532 610 243.532 645.622 243.532 674.5 239.502 674.5 234.531L674.5 288.538C674.5 293.509 645.622 297.539 610 297.539 574.378 297.539 545.5 293.509 545.5 288.538Z" fill="#FFFFFF" fill-rule="evenodd"/><path d="M545.5 234.531C545.5 229.56 574.378 225.53 610 225.53 645.622 225.53 674.5 229.56 674.5 234.531 674.5 239.502 645.622 243.532 610 243.532 574.378 243.532 545.5 239.502 545.5 234.531Z" fill="#FFFFFF" fill-rule="evenodd"/><path d="M674.5 234.531C674.5 239.502 645.622 243.532 610 243.532 574.378 243.532 545.5 239.502 545.5 234.531 545.5 229.56 574.378 225.53 610 225.53 645.622 225.53 674.5 229.56 674.5 234.531L674.5 288.538C674.5 293.509 645.622 297.539 610 297.539 574.378 297.539 545.5 293.509 545.5 288.538L545.5 234.531" stroke="#000000" stroke-width="1.33291" stroke-miterlimit="8" fill="none" fill-rule="evenodd"/><text font-family="Calibri,Calibri_MSFontService,sans-serif" font-weight="400" font-size="21" transform="matrix(1 0 0 1.00013 557.266 273)">project data</text><rect x="718.5" y="249.533" width="24" height="38.005" stroke="#000000" stroke-width="1.33291" stroke-miterlimit="8" fill="#FFFFFF"/><rect x="739.5" y="249.533" width="23" height="38.005" stroke="#000000" stroke-width="1.33291" stroke-miterlimit="8" fill="#FFFFFF"/><rect x="759.5" y="249.533" width="24" height="38.005" stroke="#000000" stroke-width="1.33291" stroke-miterlimit="8" fill="#FFFFFF"/><rect x="780.5" y="249.533" width="23" height="38.005" stroke="#000000" stroke-width="1.33291" stroke-miterlimit="8" fill="#FFFFFF"/><rect x="801.5" y="249.533" width="23" height="38.005" stroke="#000000" stroke-width="1.33291" stroke-miterlimit="8" fill="#FFFFFF"/><rect x="821.5" y="249.533" width="24" height="38.005" stroke="#000000" stroke-width="1.33291" stroke-miterlimit="8" fill="#FFFFFF"/><rect x="842.5" y="249.533" width="23" height="38.005" stroke="#000000" stroke-width="1.33291" stroke-miterlimit="8" fill="#FFFFFF"/><text font-family="Calibri,Calibri_MSFontService,sans-serif" font-weight="400" font-size="21" transform="matrix(1 0 0 1.00013 742.012 240)">record data</text><path d="M2.99897-0.0223681 3.31052 41.7474-2.68743 41.7921-2.99897 0.0223681ZM9.28609 38.7036 0.423384 56.7646-8.70774 38.8379Z" transform="matrix(-1 0 0 1.00013 628.423 311.041)"/><path d="M2.99906-5.54508e-06 2.99913 41.769-2.99898 41.769-2.99906 5.54508e-06ZM8.99724 38.7699 0.000104954 56.7643-8.99709 38.77Z" transform="matrix(1 0 0 -1.00013 590 367.813)"/><path d="M501.5 644.968C501.5 595.596 541.518 555.573 590.883 555.573L884.117 555.573C933.482 555.573 973.5 595.596 973.5 644.968L973.5 762.217C973.5 811.588 933.482 851.612 884.117 851.612L590.883 851.612C541.518 851.612 501.5 811.588 501.5 762.217Z" stroke="#000000" stroke-width="1.33291" stroke-miterlimit="8" stroke-dasharray="5.33165 3.99874" fill="none" fill-rule="evenodd"/><rect x="555.5" y="604.579" width="177" height="108.014" stroke="#000000" stroke-width="2.66583" stroke-miterlimit="8" fill="#FFFFFF"/><text font-family="Calibri,Calibri_MSFontService,sans-serif" font-weight="400" font-size="16" transform="matrix(1 0 0 1.00013 576.634 624)">Curated CoLRev data</text><rect x="594.5" y="648.585" width="17" height="27.0035" stroke="#000000" stroke-width="1.33291" stroke-miterlimit="8" fill="#FFFFFF"/><rect x="609.5" y="648.585" width="17" height="27.0035" stroke="#000000" stroke-width="1.33291" stroke-miterlimit="8" fill="#FFFFFF"/><rect x="624.5" y="648.585" width="18" height="27.0035" stroke="#000000" stroke-width="1.33291" stroke-miterlimit="8" fill="#FFFFFF"/><rect x="640.5" y="648.585" width="17" height="27.0035" stroke="#000000" stroke-width="1.33291" stroke-miterlimit="8" fill="#FFFFFF"/><rect x="655.5" y="648.585" width="17" height="27.0035" stroke="#000000" stroke-width="1.33291" stroke-miterlimit="8" fill="#FFFFFF"/><rect x="670.5" y="648.585" width="18" height="27.0035" stroke="#000000" stroke-width="1.33291" stroke-miterlimit="8" fill="#FFFFFF"/><rect x="685.5" y="648.585" width="18" height="27.0035" stroke="#000000" stroke-width="1.33291" stroke-miterlimit="8" fill="#FFFFFF"/><text font-family="Calibri,Calibri_MSFontService,sans-serif" font-weight="400" font-size="15" transform="matrix(1 0 0 1.00013 613.756 642)">record data</text><rect x="594.5" y="676.589" width="17" height="27.0035" stroke="#000000" stroke-width="1.33291" stroke-miterlimit="8" fill="#FFFFFF"/><rect x="609.5" y="676.589" width="17" height="27.0035" stroke="#000000" stroke-width="1.33291" stroke-miterlimit="8" fill="#FFFFFF"/><rect x="624.5" y="676.589" width="18" height="27.0035" stroke="#000000" stroke-width="1.33291" stroke-miterlimit="8" fill="#FFFFFF"/><rect x="640.5" y="676.589" width="17" height="27.0035" stroke="#000000" stroke-width="1.33291" stroke-miterlimit="8" fill="#FFFFFF"/><rect x="655.5" y="676.589" width="17" height="27.0035" stroke="#000000" stroke-width="1.33291" stroke-miterlimit="8" fill="#FFFFFF"/><rect x="670.5" y="676.589" width="18" height="27.0035" stroke="#000000" stroke-width="1.33291" stroke-miterlimit="8" fill="#FFFFFF"/><rect x="685.5" y="676.589" width="18" height="27.0035" stroke="#000000" stroke-width="1.33291" stroke-miterlimit="8" fill="#FFFFFF"/><rect x="555.5" y="720.595" width="177" height="109.014" stroke="#000000" stroke-width="2.66583" stroke-miterlimit="8" fill="#FFFFFF"/><text font-family="Calibri,Calibri_MSFontService,sans-serif" font-weight="400" font-size="16" transform="matrix(1 0 0 1.00013 576.634 740)">Curated CoLRev data</text><rect x="594.5" y="764.6" width="17" height="28.0037" stroke="#000000" stroke-width="1.33291" stroke-miterlimit="8" fill="#FFFFFF"/><rect x="609.5" y="764.6" width="17" height="28.0037" stroke="#000000" stroke-width="1.33291" stroke-miterlimit="8" fill="#FFFFFF"/><rect x="624.5" y="764.6" width="18" height="28.0037" stroke="#000000" stroke-width="1.33291" stroke-miterlimit="8" fill="#FFFFFF"/><rect x="640.5" y="764.6" width="17" height="28.0037" stroke="#000000" stroke-width="1.33291" stroke-miterlimit="8" fill="#FFFFFF"/><rect x="655.5" y="764.6" width="17" height="28.0037" stroke="#000000" stroke-width="1.33291" stroke-miterlimit="8" fill="#FFFFFF"/><rect x="670.5" y="764.6" width="18" height="28.0037" stroke="#000000" stroke-width="1.33291" stroke-miterlimit="8" fill="#FFFFFF"/><rect x="685.5" y="764.6" width="18" height="28.0037" stroke="#000000" stroke-width="1.33291" stroke-miterlimit="8" fill="#FFFFFF"/><text font-family="Calibri,Calibri_MSFontService,sans-serif" font-weight="400" font-size="15" transform="matrix(1 0 0 1.00013 613.756 758)">record data</text><rect x="594.5" y="792.604" width="17" height="27.0035" stroke="#000000" stroke-width="1.33291" stroke-miterlimit="8" fill="#FFFFFF"/><rect x="609.5" y="792.604" width="17" height="27.0035" stroke="#000000" stroke-width="1.33291" stroke-miterlimit="8" fill="#FFFFFF"/><rect x="624.5" y="792.604" width="18" height="27.0035" stroke="#000000" stroke-width="1.33291" stroke-miterlimit="8" fill="#FFFFFF"/><rect x="640.5" y="792.604" width="17" height="27.0035" stroke="#000000" stroke-width="1.33291" stroke-miterlimit="8" fill="#FFFFFF"/><rect x="655.5" y="792.604" width="17" height="27.0035" stroke="#000000" stroke-width="1.33291" stroke-miterlimit="8" fill="#FFFFFF"/><rect x="670.5" y="792.604" width="18" height="27.0035" stroke="#000000" stroke-width="1.33291" stroke-miterlimit="8" fill="#FFFFFF"/><rect x="685.5" y="792.604" width="18" height="27.0035" stroke="#000000" stroke-width="1.33291" stroke-miterlimit="8" fill="#FFFFFF"/><rect x="741.5" y="604.579" width="177" height="108.014" stroke="#000000" stroke-width="2.66583" stroke-miterlimit="8" fill="#FFFFFF"/><text font-family="Calibri,Calibri_MSFontService,sans-serif" font-weight="400" font-size="16" transform="matrix(1 0 0 1.00013 762.71 624)">Curated CoLRev data</text><rect x="780.5" y="648.585" width="17" height="27.0035" stroke="#000000" stroke-width="1.33291" stroke-miterlimit="8" fill="#FFFFFF"/><rect x="795.5" y="648.585" width="17" height="27.0035" stroke="#000000" stroke-width="1.33291" stroke-miterlimit="8" fill="#FFFFFF"/><rect x="810.5" y="648.585" width="18" height="27.0035" stroke="#000000" stroke-width="1.33291" stroke-miterlimit="8" fill="#FFFFFF"/><rect x="826.5" y="648.585" width="17" height="27.0035" stroke="#000000" stroke-width="1.33291" stroke-miterlimit="8" fill="#FFFFFF"/><rect x="841.5" y="648.585" width="17" height="27.0035" stroke="#000000" stroke-width="1.33291" stroke-miterlimit="8" fill="#FFFFFF"/><rect x="856.5" y="648.585" width="18" height="27.0035" stroke="#000000" stroke-width="1.33291" stroke-miterlimit="8" fill="#FFFFFF"/><rect x="872.5" y="648.585" width="17" height="27.0035" stroke="#000000" stroke-width="1.33291" stroke-miterlimit="8" fill="#FFFFFF"/><text font-family="Calibri,Calibri_MSFontService,sans-serif" font-weight="400" font-size="15" transform="matrix(1 0 0 1.00013 799.833 642)">record data</text><rect x="780.5" y="676.589" width="17" height="27.0035" stroke="#000000" stroke-width="1.33291" stroke-miterlimit="8" fill="#FFFFFF"/><rect x="795.5" y="676.589" width="17" height="27.0035" stroke="#000000" stroke-width="1.33291" stroke-miterlimit="8" fill="#FFFFFF"/><rect x="810.5" y="676.589" width="18" height="27.0035" stroke="#000000" stroke-width="1.33291" stroke-miterlimit="8" fill="#FFFFFF"/><rect x="826.5" y="676.589" width="17" height="27.0035" stroke="#000000" stroke-width="1.33291" stroke-miterlimit="8" fill="#FFFFFF"/><rect x="841.5" y="676.589" width="17" height="27.0035" stroke="#000000" stroke-width="1.33291" stroke-miterlimit="8" fill="#FFFFFF"/><rect x="856.5" y="676.589" width="18" height="27.0035" stroke="#000000" stroke-width="1.33291" stroke-miterlimit="8" fill="#FFFFFF"/><rect x="872.5" y="676.589" width="17" height="27.0035" stroke="#000000" stroke-width="1.33291" stroke-miterlimit="8" fill="#FFFFFF"/><rect x="741.5" y="720.595" width="177" height="109.014" stroke="#000000" stroke-width="2.66583" stroke-miterlimit="8" fill="#FFFFFF"/><text font-family="Calibri,Calibri_MSFontService,sans-serif" font-weight="400" font-size="16" transform="matrix(1 0 0 1.00013 762.71 740)">Curated CoLRev data</text><rect x="780.5" y="764.6" width="17" height="28.0037" stroke="#000000" stroke-width="1.33291" stroke-miterlimit="8" fill="#FFFFFF"/><rect x="795.5" y="764.6" width="17" height="28.0037" stroke="#000000" stroke-width="1.33291" stroke-miterlimit="8" fill="#FFFFFF"/><rect x="810.5" y="764.6" width="18" height="28.0037" stroke="#000000" stroke-width="1.33291" stroke-miterlimit="8" fill="#FFFFFF"/><rect x="826.5" y="764.6" width="17" height="28.0037" stroke="#000000" stroke-width="1.33291" stroke-miterlimit="8" fill="#FFFFFF"/><rect x="841.5" y="764.6" width="17" height="28.0037" stroke="#000000" stroke-width="1.33291" stroke-miterlimit="8" fill="#FFFFFF"/><rect x="856.5" y="764.6" width="18" height="28.0037" stroke="#000000" stroke-width="1.33291" stroke-miterlimit="8" fill="#FFFFFF"/><rect x="872.5" y="764.6" width="17" height="28.0037" stroke="#000000" stroke-width="1.33291" stroke-miterlimit="8" fill="#FFFFFF"/><text font-family="Calibri,Calibri_MSFontService,sans-serif" font-weight="400" font-size="15" transform="matrix(1 0 0 1.00013 799.833 758)">record data</text><rect x="780.5" y="792.604" width="17" height="27.0035" stroke="#000000" stroke-width="1.33291" stroke-miterlimit="8" fill="#FFFFFF"/><rect x="795.5" y="792.604" width="17" height="27.0035" stroke="#000000" stroke-width="1.33291" stroke-miterlimit="8" fill="#FFFFFF"/><rect x="810.5" y="792.604" width="18" height="27.0035" stroke="#000000" stroke-width="1.33291" stroke-miterlimit="8" fill="#FFFFFF"/><rect x="826.5" y="792.604" width="17" height="27.0035" stroke="#000000" stroke-width="1.33291" stroke-miterlimit="8" fill="#FFFFFF"/><rect x="841.5" y="792.604" width="17" height="27.0035" stroke="#000000" stroke-width="1.33291" stroke-miterlimit="8" fill="#FFFFFF"/><rect x="856.5" y="792.604" width="18" height="27.0035" stroke="#000000" stroke-width="1.33291" stroke-miterlimit="8" fill="#FFFFFF"/><rect x="872.5" y="792.604" width="17" height="27.0035" stroke="#000000" stroke-width="1.33291" stroke-miterlimit="8" fill="#FFFFFF"/><g clip-path="url(#clip1)"><g clip-path="url(#clip2)"><g clip-path="url(#clip3)"><path d="M64 30C64 38.8366 56.8365 46 48 46 39.1634 46 32 38.8366 32 30 32 21.1634 39.1634 14 48 14 56.8365 14 64 21.1634 64 30Z" transform="matrix(1 0 0 1.00013 564 28.0037)"/><path d="M77 57.91C76.7272 55.8269 75.6945 53.918 74.1 52.55 69.8277 49.6245 65.0452 47.525 60 46.36 59.43 46.23 58.83 46.12 58.23 46.01 52.0286 49.9836 44.0814 49.9836 37.88 46.01L36.08 46.34C31.0301 47.5754 26.2325 49.6764 21.9 52.55 20.12 53.69 19.38 55.81 19 57.91L16 75.1C15.8205 76.5508 16.4215 77.9884 17.58 78.88L24.43 83.4 24.43 61.75C24.4299 59.2426 26.4625 57.21 28.9699 57.2099 28.9799 57.2099 28.99 57.2099 29 57.21L67 57.21C69.5074 57.21 71.54 59.2426 71.54 61.75L71.54 82.85 78.76 78.32C79.6148 77.7428 80.0895 76.7475 80 75.72Z" transform="matrix(1 0 0 1.00013 564 28.0037)"/><path d="M69.57 86.67 69.57 61.75C69.5701 60.3472 68.433 59.2099 67.0302 59.2098 67.0201 59.2098 67.0101 59.2099 67 59.21L29 59.21C27.5972 59.21 26.46 60.3472 26.46 61.75L26.46 86.67 18.81 86.67 18.81 87.94C18.8155 89.3405 19.9495 90.4745 21.35 90.48L74.65 90.48C76.0505 90.4745 77.1845 89.3405 77.19 87.94L77.19 86.67ZM42.82 78.32 41.41 79.73 35.8 74.12 41.41 68.51 42.82 69.92 38.63 74.12ZM46.55 80.43 44.7 79.66 49.39 68.34 51.23 69.11ZM54.55 79.73 53.14 78.32 57.33 74.12 53.14 69.92 54.55 68.51 60.16 74.12Z" transform="matrix(1 0 0 1.00013 564 28.0037)"/></g></g></g><path d="M612.5 124.516 612.5 175.01" stroke="#000000" stroke-width="0.666457" stroke-miterlimit="8" fill="none" fill-rule="evenodd"/><path d="M718.619 63.9623C736.739 67.8059 748.755 85.0814 745.555 102.69L748.837 104.08 742.417 108.705 739.804 100.253 743.083 101.642C745.661 85.6062 734.605 70.0525 718.124 66.5299Z" stroke="#000000" stroke-width="1.33295" stroke-miterlimit="8" fill-rule="evenodd"/><path d="M677.94 95.4901C677.991 79.7611 689.734 66.3738 705.839 63.6828L705.901 60.1085 712.349 64.5175 705.729 69.9169 705.792 66.3444C691.162 69.0142 680.595 81.2262 680.554 95.5106Z" stroke="#000000" stroke-width="1.33309" stroke-miterlimit="8" fill-rule="evenodd"/><path d="M742.646 113.622C734.194 129.697 713.822 136.198 697.144 128.143 689.092 124.253 683.003 117.425 680.23 109.176L676.685 109.543 680.072 102.393 686.443 108.532 682.901 108.899C688.504 124.513 706.275 132.755 722.594 127.307 730.266 124.746 736.612 119.431 740.291 112.484Z" stroke="#000000" stroke-width="1.33291" stroke-miterlimit="8" fill-rule="evenodd"/><text font-family="Calibri,Calibri_MSFontService,sans-serif" font-weight="700" font-size="32" transform="matrix(1 0 0 1.00013 56.4324 74)">Part 1. Workflow<tspan font-size="32" x="0" y="130.983">Part 2. Operations</tspan><tspan font-size="32" x="0" y="317.958">Part 3. Collaboration</tspan></text><path d="M855.999 286.038 855.999 536.399 850.001 536.399 850.001 286.038ZM861.997 533.399 853 551.396 844.003 533.399Z"/><path d="M2.99906-1.18633e-06 2.99915 250.328-2.99896 250.328-2.99906 1.18633e-06ZM8.99726 247.329 0.000104954 265.324-8.99707 247.329Z" transform="matrix(1 0 0 -1.00013 816 551.396)"/><text font-family="Calibri,Calibri_MSFontService,sans-serif" font-weight="700" font-size="32" transform="matrix(1 0 0 1.00013 56.4324 589)">Part 4. Curation</text><rect x="385.5" y="368.548" width="406" height="137.018" stroke="#000000" stroke-width="2.66583" stroke-miterlimit="8" fill="#FFFFFF"/><text font-family="Calibri,Calibri_MSFontService,sans-serif" font-weight="400" font-size="24" transform="matrix(1 0 0 1.00013 478.963 395)">Shared<tspan font-size="24" x="73.3302" y="0">CoLRev </tspan>project</text><path d="M436.5 427.556C436.5 432.527 465.378 436.557 501 436.557 536.622 436.557 565.5 432.527 565.5 427.556L565.5 481.563C565.5 486.534 536.622 490.564 501 490.564 465.378 490.564 436.5 486.534 436.5 481.563Z" fill="#FFFFFF" fill-rule="evenodd"/><path d="M436.5 427.556C436.5 422.585 465.378 418.555 501 418.555 536.622 418.555 565.5 422.585 565.5 427.556 565.5 432.527 536.622 436.557 501 436.557 465.378 436.557 436.5 432.527 436.5 427.556Z" fill="#FFFFFF" fill-rule="evenodd"/><path d="M565.5 427.556C565.5 432.527 536.622 436.557 501 436.557 465.378 436.557 436.5 432.527 436.5 427.556 436.5 422.585 465.378 418.555 501 418.555 536.622 418.555 565.5 422.585 565.5 427.556L565.5 481.563C565.5 486.534 536.622 490.564 501 490.564 465.378 490.564 436.5 486.534 436.5 481.563L436.5 427.556" stroke="#000000" stroke-width="1.33291" stroke-miterlimit="8" fill="none" fill-rule="evenodd"/><text font-family="Calibri,Calibri_MSFontService,sans-serif" font-weight="400" font-size="21" transform="matrix(1 0 0 1.00013 448.337 466)">project data</text><rect x="609.5" y="442.558" width="24" height="38.005" stroke="#000000" stroke-width="1.33291" stroke-miterlimit="8" fill="#FFFFFF"/><rect x="630.5" y="442.558" width="23" height="38.005" stroke="#000000" stroke-width="1.33291" stroke-miterlimit="8" fill="#FFFFFF"/><rect x="650.5" y="442.558" width="24" height="38.005" stroke="#000000" stroke-width="1.33291" stroke-miterlimit="8" fill="#FFFFFF"/><rect x="671.5" y="442.558" width="24" height="38.005" stroke="#000000" stroke-width="1.33291" stroke-miterlimit="8" fill="#FFFFFF"/><rect x="692.5" y="442.558" width="23" height="38.005" stroke="#000000" stroke-width="1.33291" stroke-miterlimit="8" fill="#FFFFFF"/><rect x="712.5" y="442.558" width="24" height="38.005" stroke="#000000" stroke-width="1.33291" stroke-miterlimit="8" fill="#FFFFFF"/><rect x="733.5" y="442.558" width="23" height="38.005" stroke="#000000" stroke-width="1.33291" stroke-miterlimit="8" fill="#FFFFFF"/><text font-family="Calibri,Calibri_MSFontService,sans-serif" font-weight="400" font-size="21" transform="matrix(1 0 0 1.00013 633.083 433)">record data<tspan font-size="21" x="142.382" y="-356.953">colrev status</tspan><tspan font-size="21" x="142.382" y="-330.957">c</tspan><tspan font-size="21" x="151.2" y="-330.957">olrev [operation]</tspan><tspan font-size="21" x="142.382" y="-305.96">g</tspan><tspan font-size="21" x="152.379" y="-305.96">it [validation]</tspan></text></g></svg>
