<svg width="1058" height="794" xmlns="http://www.w3.org/2000/svg" xmlns:xlink="http://www.w3.org/1999/xlink" overflow="hidden"><defs><clipPath id="clip0"><rect x="0" y="0" width="1058" height="794"/></clipPath><clipPath id="clip1"><rect x="564" y="33" width="97" height="97"/></clipPath><clipPath id="clip2"><rect x="564" y="33" width="97" height="97"/></clipPath><clipPath id="clip3"><rect x="564" y="33" width="97" height="97"/></clipPath></defs><g clip-path="url(#clip0)"><rect x="0" y="0" width="1058" height="793.583" fill="#FFFFFF"/><rect x="494.5" y="213.657" width="406" height="137.101" stroke="#000000" stroke-width="2.66583" stroke-miterlimit="8" fill="#FFFFFF"/><text font-family="Calibri,Calibri_MSFontService,sans-serif" font-weight="400" font-size="24" transform="matrix(1 0 0 1.00074 581.524 240)">Local<tspan font-size="24" x="55.2826" y="0">CoLRev </tspan>repository</text><path d="M545.5 273.576C545.5 278.481 574.378 282.457 610 282.457 645.622 282.457 674.5 278.481 674.5 273.576L674.5 326.865C674.5 331.77 645.622 335.747 610 335.747 574.378 335.747 545.5 331.77 545.5 326.865Z" fill="#FFFFFF" fill-rule="evenodd"/><path d="M545.5 273.576C545.5 268.671 574.378 264.694 610 264.694 645.622 264.694 674.5 268.671 674.5 273.576 674.5 278.481 645.622 282.457 610 282.457 574.378 282.457 545.5 278.481 545.5 273.576Z" fill="#FFFFFF" fill-rule="evenodd"/><path d="M674.5 273.576C674.5 278.481 645.622 282.457 610 282.457 574.378 282.457 545.5 278.481 545.5 273.576 545.5 268.671 574.378 264.694 610 264.694 645.622 264.694 674.5 268.671 674.5 273.576L674.5 326.865C674.5 331.77 645.622 335.747 610 335.747 574.378 335.747 545.5 331.77 545.5 326.865L545.5 273.576" stroke="#000000" stroke-width="1.33291" stroke-miterlimit="8" fill="none" fill-rule="evenodd"/><text font-family="Calibri,Calibri_MSFontService,sans-serif" font-weight="400" font-size="21" transform="matrix(1 0 0 1.00074 557.266 311)">project data</text><rect x="718.5" y="288.712" width="24" height="37.0272" stroke="#000000" stroke-width="1.33291" stroke-miterlimit="8" fill="#FFFFFF"/><rect x="739.5" y="288.712" width="23" height="37.0272" stroke="#000000" stroke-width="1.33291" stroke-miterlimit="8" fill="#FFFFFF"/><rect x="759.5" y="288.712" width="24" height="37.0272" stroke="#000000" stroke-width="1.33291" stroke-miterlimit="8" fill="#FFFFFF"/><rect x="780.5" y="288.712" width="23" height="37.0272" stroke="#000000" stroke-width="1.33291" stroke-miterlimit="8" fill="#FFFFFF"/><rect x="801.5" y="288.712" width="23" height="37.0272" stroke="#000000" stroke-width="1.33291" stroke-miterlimit="8" fill="#FFFFFF"/><rect x="821.5" y="288.712" width="24" height="37.0272" stroke="#000000" stroke-width="1.33291" stroke-miterlimit="8" fill="#FFFFFF"/><rect x="842.5" y="288.712" width="23" height="37.0272" stroke="#000000" stroke-width="1.33291" stroke-miterlimit="8" fill="#FFFFFF"/><text font-family="Calibri,Calibri_MSFontService,sans-serif" font-weight="400" font-size="21" transform="matrix(1 0 0 1.00074 742.012 278)">record data</text><path d="M2.99897-0.0223681 3.31052 41.7474-2.68743 41.7921-2.99897 0.0223681ZM9.28609 38.7036 0.423384 56.7646-8.70774 38.8379Z" transform="matrix(-1 0 0 1.00074 628.423 349.257)"/><path d="M2.99906-5.54508e-06 2.99913 41.769-2.99898 41.769-2.99906 5.54508e-06ZM8.99724 38.7699 0.000104954 56.7643-8.99709 38.77Z" transform="matrix(1 0 0 -1.00074 590 406.063)"/><path d="M341.5 645.423C341.5 615.882 365.43 591.935 394.948 591.935L920.052 591.935C949.57 591.935 973.5 615.882 973.5 645.423L973.5 715.577C973.5 745.118 949.57 769.065 920.052 769.065L394.948 769.065C365.43 769.065 341.5 745.118 341.5 715.577Z" stroke="#000000" stroke-width="1.33291" stroke-miterlimit="8" stroke-dasharray="5.33165 3.99874" fill="none" fill-rule="evenodd"/><rect x="564.5" y="653.98" width="168" height="95.0698" stroke="#000000" stroke-width="2.66583" stroke-miterlimit="8" fill="#FFFFFF"/><rect x="594.5" y="685.003" width="17" height="27.0198" stroke="#000000" stroke-width="1.33291" stroke-miterlimit="8" fill="#FFFFFF"/><rect x="609.5" y="685.003" width="17" height="27.0198" stroke="#000000" stroke-width="1.33291" stroke-miterlimit="8" fill="#FFFFFF"/><rect x="624.5" y="685.003" width="18" height="27.0198" stroke="#000000" stroke-width="1.33291" stroke-miterlimit="8" fill="#FFFFFF"/><rect x="640.5" y="685.003" width="17" height="27.0198" stroke="#000000" stroke-width="1.33291" stroke-miterlimit="8" fill="#FFFFFF"/><rect x="655.5" y="685.003" width="17" height="27.0198" stroke="#000000" stroke-width="1.33291" stroke-miterlimit="8" fill="#FFFFFF"/><rect x="670.5" y="685.003" width="18" height="27.0198" stroke="#000000" stroke-width="1.33291" stroke-miterlimit="8" fill="#FFFFFF"/><rect x="685.5" y="685.003" width="18" height="27.0198" stroke="#000000" stroke-width="1.33291" stroke-miterlimit="8" fill="#FFFFFF"/><text font-family="Calibri,Calibri_MSFontService,sans-serif" font-weight="400" font-size="15" transform="matrix(1 0 0 1.00074 613.756 678)">record data</text><rect x="594.5" y="712.023" width="17" height="28.0206" stroke="#000000" stroke-width="1.33291" stroke-miterlimit="8" fill="#FFFFFF"/><rect x="609.5" y="712.023" width="17" height="28.0206" stroke="#000000" stroke-width="1.33291" stroke-miterlimit="8" fill="#FFFFFF"/><rect x="624.5" y="712.023" width="18" height="28.0206" stroke="#000000" stroke-width="1.33291" stroke-miterlimit="8" fill="#FFFFFF"/><rect x="640.5" y="712.023" width="17" height="28.0206" stroke="#000000" stroke-width="1.33291" stroke-miterlimit="8" fill="#FFFFFF"/><rect x="655.5" y="712.023" width="17" height="28.0206" stroke="#000000" stroke-width="1.33291" stroke-miterlimit="8" fill="#FFFFFF"/><rect x="670.5" y="712.023" width="18" height="28.0206" stroke="#000000" stroke-width="1.33291" stroke-miterlimit="8" fill="#FFFFFF"/><rect x="685.5" y="712.023" width="18" height="28.0206" stroke="#000000" stroke-width="1.33291" stroke-miterlimit="8" fill="#FFFFFF"/><g clip-path="url(#clip1)"><g clip-path="url(#clip2)"><g clip-path="url(#clip3)"><path d="M64 30C64 38.8366 56.8365 46 48 46 39.1634 46 32 38.8366 32 30 32 21.1634 39.1634 14 48 14 56.8365 14 64 21.1634 64 30Z" transform="matrix(1 0 0 1.00074 564 33.0243)"/><path d="M77 57.91C76.7272 55.8269 75.6945 53.918 74.1 52.55 69.8277 49.6245 65.0452 47.525 60 46.36 59.43 46.23 58.83 46.12 58.23 46.01 52.0286 49.9836 44.0814 49.9836 37.88 46.01L36.08 46.34C31.0301 47.5754 26.2325 49.6764 21.9 52.55 20.12 53.69 19.38 55.81 19 57.91L16 75.1C15.8205 76.5508 16.4215 77.9884 17.58 78.88L24.43 83.4 24.43 61.75C24.4299 59.2426 26.4625 57.21 28.9699 57.2099 28.9799 57.2099 28.99 57.2099 29 57.21L67 57.21C69.5074 57.21 71.54 59.2426 71.54 61.75L71.54 82.85 78.76 78.32C79.6148 77.7428 80.0895 76.7475 80 75.72Z" transform="matrix(1 0 0 1.00074 564 33.0243)"/><path d="M69.57 86.67 69.57 61.75C69.5701 60.3472 68.433 59.2099 67.0302 59.2098 67.0201 59.2098 67.0101 59.2099 67 59.21L29 59.21C27.5972 59.21 26.46 60.3472 26.46 61.75L26.46 86.67 18.81 86.67 18.81 87.94C18.8155 89.3405 19.9495 90.4745 21.35 90.48L74.65 90.48C76.0505 90.4745 77.1845 89.3405 77.19 87.94L77.19 86.67ZM42.82 78.32 41.41 79.73 35.8 74.12 41.41 68.51 42.82 69.92 38.63 74.12ZM46.55 80.43 44.7 79.66 49.39 68.34 51.23 69.11ZM54.55 79.73 53.14 78.32 57.33 74.12 53.14 69.92 54.55 68.51 60.16 74.12Z" transform="matrix(1 0 0 1.00074 564 33.0243)"/></g></g></g><path d="M612.5 139.603 612.5 213.322" stroke="#000000" stroke-width="0.666457" stroke-miterlimit="8" fill="none" fill-rule="evenodd"/><path d="M718.619 69.1044C736.739 72.9503 748.755 90.2362 745.555 107.855L748.837 109.246 742.417 113.874 739.804 105.417 743.083 106.807C745.661 90.7614 734.605 75.1982 718.124 71.6736Z" stroke="#000000" stroke-width="1.3331" stroke-miterlimit="8" fill-rule="evenodd"/><path d="M677.94 100.651C677.991 84.9127 689.734 71.5174 705.839 68.8247L705.901 65.2482 712.349 69.6599 705.729 75.0626 705.792 71.4879C691.162 74.1593 680.595 86.3787 680.554 100.672Z" stroke="#000000" stroke-width="1.33389" stroke-miterlimit="8" fill-rule="evenodd"/><path d="M742.646 118.794C734.194 134.879 713.822 141.384 697.144 133.324 689.092 129.432 683.003 122.6 680.23 114.345L676.685 114.713 680.072 107.558 686.443 113.701 682.901 114.068C688.504 129.691 706.275 137.938 722.594 132.488 730.266 129.925 736.612 124.606 740.291 117.655Z" stroke="#000000" stroke-width="1.33292" stroke-miterlimit="8" fill-rule="evenodd"/><text font-family="Calibri,Calibri_MSFontService,sans-serif" font-weight="700" font-size="32" transform="matrix(1 0 0 1.00074 56.4325 79)">Part 1. Workflow<tspan font-size="32" x="0" y="99.9265">Part 2. </tspan>Steps and Operations<tspan font-size="32" x="0" y="358.736">Part 3. Collaboration</tspan></text><path d="M855.999 325.239 855.999 575.751 850.001 575.751 850.001 325.239ZM861.997 572.75 853 590.758 844.003 572.75Z"/><path d="M2.99906-1.18633e-06 2.99915 250.328-2.99896 250.328-2.99906 1.18633e-06ZM8.99726 247.329 0.000104954 265.324-8.99707 247.329Z" transform="matrix(1 0 0 -1.00074 816 590.758)"/><text font-family="Calibri,Calibri_MSFontService,sans-serif" font-weight="700" font-size="32" transform="matrix(1 0 0 1.00074 56.4325 626)">Part 4. Curation</text><rect x="385.5" y="408.8" width="406" height="137.101" stroke="#000000" stroke-width="2.66583" stroke-miterlimit="8" fill="#FFFFFF"/><text font-family="Calibri,Calibri_MSFontService,sans-serif" font-weight="400" font-size="24" transform="matrix(1 0 0 1.00074 463.571 436)">Shared<tspan font-size="24" x="73.3303" y="0">CoLRev </tspan>repository</text><path d="M436.5 468.844C436.5 473.819 465.378 477.851 501 477.851 536.622 477.851 565.5 473.819 565.5 468.844L565.5 522.884C565.5 527.858 536.622 531.891 501 531.891 465.378 531.891 436.5 527.858 436.5 522.884Z" fill="#FFFFFF" fill-rule="evenodd"/><path d="M436.5 468.844C436.5 463.87 465.378 459.838 501 459.838 536.622 459.838 565.5 463.87 565.5 468.844 565.5 473.819 536.622 477.851 501 477.851 465.378 477.851 436.5 473.819 436.5 468.844Z" fill="#FFFFFF" fill-rule="evenodd"/><path d="M565.5 468.844C565.5 473.819 536.622 477.851 501 477.851 465.378 477.851 436.5 473.819 436.5 468.844 436.5 463.87 465.378 459.838 501 459.838 536.622 459.838 565.5 463.87 565.5 468.844L565.5 522.884C565.5 527.858 536.622 531.891 501 531.891 465.378 531.891 436.5 527.858 436.5 522.884L436.5 468.844" stroke="#000000" stroke-width="1.33291" stroke-miterlimit="8" fill="none" fill-rule="evenodd"/><text font-family="Calibri,Calibri_MSFontService,sans-serif" font-weight="400" font-size="21" transform="matrix(1 0 0 1.00074 448.337 507)">project data</text><rect x="609.5" y="483.855" width="24" height="38.028" stroke="#000000" stroke-width="1.33291" stroke-miterlimit="8" fill="#FFFFFF"/><rect x="630.5" y="483.855" width="23" height="38.028" stroke="#000000" stroke-width="1.33291" stroke-miterlimit="8" fill="#FFFFFF"/><rect x="650.5" y="483.855" width="24" height="38.028" stroke="#000000" stroke-width="1.33291" stroke-miterlimit="8" fill="#FFFFFF"/><rect x="671.5" y="483.855" width="24" height="38.028" stroke="#000000" stroke-width="1.33291" stroke-miterlimit="8" fill="#FFFFFF"/><rect x="692.5" y="483.855" width="23" height="38.028" stroke="#000000" stroke-width="1.33291" stroke-miterlimit="8" fill="#FFFFFF"/><rect x="712.5" y="483.855" width="24" height="38.028" stroke="#000000" stroke-width="1.33291" stroke-miterlimit="8" fill="#FFFFFF"/><rect x="733.5" y="483.855" width="23" height="38.028" stroke="#000000" stroke-width="1.33291" stroke-miterlimit="8" fill="#FFFFFF"/><text font-family="Calibri,Calibri_MSFontService,sans-serif" font-weight="400" font-size="21" transform="matrix(1 0 0 1.00074 633.083 474)">record data<tspan font-size="21" x="142.382" y="-392.711">colrev status</tspan><tspan font-size="21" x="142.382" y="-366.73">colrev [operation]</tspan><tspan font-size="21" x="142.382" y="-341.749">colrev validate</tspan><tspan font-size="24" x="-33.3585" y="149.89">Curated CoLRev repositories</tspan></text><rect x="751.5" y="653.98" width="168" height="95.0698" stroke="#000000" stroke-width="2.66583" stroke-miterlimit="8" fill="#FFFFFF"/><rect x="780.5" y="685.003" width="18" height="27.0198" stroke="#000000" stroke-width="1.33291" stroke-miterlimit="8" fill="#FFFFFF"/><rect x="796.5" y="685.003" width="17" height="27.0198" stroke="#000000" stroke-width="1.33291" stroke-miterlimit="8" fill="#FFFFFF"/><rect x="811.5" y="685.003" width="17" height="27.0198" stroke="#000000" stroke-width="1.33291" stroke-miterlimit="8" fill="#FFFFFF"/><rect x="826.5" y="685.003" width="18" height="27.0198" stroke="#000000" stroke-width="1.33291" stroke-miterlimit="8" fill="#FFFFFF"/><rect x="842.5" y="685.003" width="17" height="27.0198" stroke="#000000" stroke-width="1.33291" stroke-miterlimit="8" fill="#FFFFFF"/><rect x="857.5" y="685.003" width="17" height="27.0198" stroke="#000000" stroke-width="1.33291" stroke-miterlimit="8" fill="#FFFFFF"/><rect x="872.5" y="685.003" width="18" height="27.0198" stroke="#000000" stroke-width="1.33291" stroke-miterlimit="8" fill="#FFFFFF"/><text font-family="Calibri,Calibri_MSFontService,sans-serif" font-weight="400" font-size="15" transform="matrix(1 0 0 1.00074 800.437 678)">record data</text><rect x="780.5" y="712.023" width="18" height="28.0206" stroke="#000000" stroke-width="1.33291" stroke-miterlimit="8" fill="#FFFFFF"/><rect x="796.5" y="712.023" width="17" height="28.0206" stroke="#000000" stroke-width="1.33291" stroke-miterlimit="8" fill="#FFFFFF"/><rect x="811.5" y="712.023" width="17" height="28.0206" stroke="#000000" stroke-width="1.33291" stroke-miterlimit="8" fill="#FFFFFF"/><rect x="826.5" y="712.023" width="18" height="28.0206" stroke="#000000" stroke-width="1.33291" stroke-miterlimit="8" fill="#FFFFFF"/><rect x="842.5" y="712.023" width="17" height="28.0206" stroke="#000000" stroke-width="1.33291" stroke-miterlimit="8" fill="#FFFFFF"/><rect x="857.5" y="712.023" width="17" height="28.0206" stroke="#000000" stroke-width="1.33291" stroke-miterlimit="8" fill="#FFFFFF"/><rect x="872.5" y="712.023" width="18" height="28.0206" stroke="#000000" stroke-width="1.33291" stroke-miterlimit="8" fill="#FFFFFF"/><rect x="377.5" y="653.98" width="168" height="95.0698" stroke="#000000" stroke-width="2.66583" stroke-miterlimit="8" fill="#FFFFFF"/><rect x="406.5" y="685.003" width="18" height="27.0198" stroke="#000000" stroke-width="1.33291" stroke-miterlimit="8" fill="#FFFFFF"/><rect x="422.5" y="685.003" width="17" height="27.0198" stroke="#000000" stroke-width="1.33291" stroke-miterlimit="8" fill="#FFFFFF"/><rect x="437.5" y="685.003" width="17" height="27.0198" stroke="#000000" stroke-width="1.33291" stroke-miterlimit="8" fill="#FFFFFF"/><rect x="452.5" y="685.003" width="18" height="27.0198" stroke="#000000" stroke-width="1.33291" stroke-miterlimit="8" fill="#FFFFFF"/><rect x="468.5" y="685.003" width="17" height="27.0198" stroke="#000000" stroke-width="1.33291" stroke-miterlimit="8" fill="#FFFFFF"/><rect x="483.5" y="685.003" width="17" height="27.0198" stroke="#000000" stroke-width="1.33291" stroke-miterlimit="8" fill="#FFFFFF"/><rect x="498.5" y="685.003" width="18" height="27.0198" stroke="#000000" stroke-width="1.33291" stroke-miterlimit="8" fill="#FFFFFF"/><text font-family="Calibri,Calibri_MSFontService,sans-serif" font-weight="400" font-size="15" transform="matrix(1 0 0 1.00074 426.523 678)">record data</text><rect x="406.5" y="712.023" width="18" height="28.0206" stroke="#000000" stroke-width="1.33291" stroke-miterlimit="8" fill="#FFFFFF"/><rect x="422.5" y="712.023" width="17" height="28.0206" stroke="#000000" stroke-width="1.33291" stroke-miterlimit="8" fill="#FFFFFF"/><rect x="437.5" y="712.023" width="17" height="28.0206" stroke="#000000" stroke-width="1.33291" stroke-miterlimit="8" fill="#FFFFFF"/><rect x="452.5" y="712.023" width="18" height="28.0206" stroke="#000000" stroke-width="1.33291" stroke-miterlimit="8" fill="#FFFFFF"/><rect x="468.5" y="712.023" width="17" height="28.0206" stroke="#000000" stroke-width="1.33291" stroke-miterlimit="8" fill="#FFFFFF"/><rect x="483.5" y="712.023" width="17" height="28.0206" stroke="#000000" stroke-width="1.33291" stroke-miterlimit="8" fill="#FFFFFF"/><rect x="498.5" y="712.023" width="18" height="28.0206" stroke="#000000" stroke-width="1.33291" stroke-miterlimit="8" fill="#FFFFFF"/><text font-family="Calibri,Calibri_MSFontService,sans-serif" font-weight="400" font-size="21" transform="matrix(1 0 0 1.00074 267.957 227)">Problem formulation<tspan font-size="21" x="0" y="25.9809">Metadata</tspan><tspan font-size="21" x="88.8054" y="25.9809">retrieval</tspan><tspan font-size="21" x="0" y="50.9625">Metadata prescreen</tspan><tspan font-size="21" x="0" y="76.9434">PDF</tspan><tspan font-size="21" x="38.8211" y="76.9434">retrieval</tspan><tspan font-size="21" x="0" y="101.925">PDF screen</tspan><tspan font-size="21" x="0" y="127.906">Dat</tspan><tspan font-size="21" x="30.0305" y="127.906">a</tspan></text></g></svg>
