<svg width="1058" height="756" xmlns="http://www.w3.org/2000/svg" xmlns:xlink="http://www.w3.org/1999/xlink" overflow="hidden"><defs><clipPath id="clip0"><rect x="0" y="0" width="1058" height="756"/></clipPath><clipPath id="clip1"><rect x="545" y="1" width="97" height="97"/></clipPath><clipPath id="clip2"><rect x="545" y="1" width="97" height="97"/></clipPath><clipPath id="clip3"><rect x="545" y="1" width="97" height="97"/></clipPath></defs><g clip-path="url(#clip0)"><rect x="0" y="0" width="1058" height="756.405" fill="#FFFFFF"/><rect x="390.5" y="148.58" width="407" height="160.086" stroke="#000000" stroke-width="2.66583" stroke-miterlimit="8" fill="#FFFFFF"/><text font-family="Calibri,Calibri_MSFontService,sans-serif" font-weight="400" font-size="24" transform="matrix(1 0 0 1.00054 493.058 175)">Local<tspan font-size="24" x="55.2826" y="0">CoLRev </tspan>project</text><path d="M441.5 226.496C441.5 231.4 470.378 235.376 506 235.376 541.622 235.376 570.5 231.4 570.5 226.496L570.5 279.775C570.5 284.679 541.622 288.655 506 288.655 470.378 288.655 441.5 284.679 441.5 279.775Z" fill="#FFFFFF" fill-rule="evenodd"/><path d="M441.5 226.496C441.5 221.592 470.378 217.616 506 217.616 541.622 217.616 570.5 221.592 570.5 226.496 570.5 231.4 541.622 235.376 506 235.376 470.378 235.376 441.5 231.4 441.5 226.496Z" fill="#FFFFFF" fill-rule="evenodd"/><path d="M570.5 226.496C570.5 231.4 541.622 235.376 506 235.376 470.378 235.376 441.5 231.4 441.5 226.496 441.5 221.592 470.378 217.616 506 217.616 541.622 217.616 570.5 221.592 570.5 226.496L570.5 279.775C570.5 284.679 541.622 288.655 506 288.655 470.378 288.655 441.5 284.679 441.5 279.775L441.5 226.496" stroke="#000000" stroke-width="1.33291" stroke-miterlimit="8" fill="none" fill-rule="evenodd"/><text font-family="Calibri,Calibri_MSFontService,sans-serif" font-weight="400" font-size="21" transform="matrix(1 0 0 1.00054 453.408 265)">project data</text><rect x="614.5" y="241.629" width="24" height="37.0198" stroke="#000000" stroke-width="1.33291" stroke-miterlimit="8" fill="#FFFFFF"/><rect x="635.5" y="241.629" width="23" height="37.0198" stroke="#000000" stroke-width="1.33291" stroke-miterlimit="8" fill="#FFFFFF"/><rect x="656.5" y="241.629" width="23" height="37.0198" stroke="#000000" stroke-width="1.33291" stroke-miterlimit="8" fill="#FFFFFF"/><rect x="676.5" y="241.629" width="24" height="37.0198" stroke="#000000" stroke-width="1.33291" stroke-miterlimit="8" fill="#FFFFFF"/><rect x="697.5" y="241.629" width="23" height="37.0198" stroke="#000000" stroke-width="1.33291" stroke-miterlimit="8" fill="#FFFFFF"/><rect x="717.5" y="241.629" width="24" height="37.0198" stroke="#000000" stroke-width="1.33291" stroke-miterlimit="8" fill="#FFFFFF"/><rect x="738.5" y="241.629" width="23" height="37.0198" stroke="#000000" stroke-width="1.33291" stroke-miterlimit="8" fill="#FFFFFF"/><text font-family="Calibri,Calibri_MSFontService,sans-serif" font-weight="400" font-size="21" transform="matrix(1 0 0 1.00054 638.154 231)">record data</text><rect x="119.5" y="378.703" width="407" height="161.086" stroke="#000000" stroke-width="2.66583" stroke-miterlimit="8" fill="#FFFFFF"/><text font-family="Calibri,Calibri_MSFontService,sans-serif" font-weight="400" font-size="24" transform="matrix(1 0 0 1.00054 213.072 406)">Shared<tspan font-size="24" x="73.3302" y="0">CoLRev </tspan><tspan font-size="24" x="149.766" y="0">project</tspan></text><path d="M170.5 457.62C170.5 462.524 199.601 466.5 235.5 466.5 271.398 466.5 300.5 462.524 300.5 457.62L300.5 510.898C300.5 515.803 271.398 519.778 235.5 519.778 199.601 519.778 170.5 515.803 170.5 510.898Z" fill="#FFFFFF" fill-rule="evenodd"/><path d="M170.5 457.62C170.5 452.716 199.601 448.74 235.5 448.74 271.398 448.74 300.5 452.716 300.5 457.62 300.5 462.524 271.398 466.5 235.5 466.5 199.601 466.5 170.5 462.524 170.5 457.62Z" fill="#FFFFFF" fill-rule="evenodd"/><path d="M300.5 457.62C300.5 462.524 271.398 466.5 235.5 466.5 199.601 466.5 170.5 462.524 170.5 457.62 170.5 452.716 199.601 448.74 235.5 448.74 271.398 448.74 300.5 452.716 300.5 457.62L300.5 510.898C300.5 515.803 271.398 519.778 235.5 519.778 199.601 519.778 170.5 515.803 170.5 510.898L170.5 457.62" stroke="#000000" stroke-width="1.33291" stroke-miterlimit="8" fill="none" fill-rule="evenodd"/><text font-family="Calibri,Calibri_MSFontService,sans-serif" font-weight="400" font-size="21" transform="matrix(1 0 0 1.00054 182.446 496)">project data</text><rect x="343.5" y="472.753" width="24" height="37.0198" stroke="#000000" stroke-width="1.33291" stroke-miterlimit="8" fill="#FFFFFF"/><rect x="364.5" y="472.753" width="23" height="37.0198" stroke="#000000" stroke-width="1.33291" stroke-miterlimit="8" fill="#FFFFFF"/><rect x="385.5" y="472.753" width="23" height="37.0198" stroke="#000000" stroke-width="1.33291" stroke-miterlimit="8" fill="#FFFFFF"/><rect x="405.5" y="472.753" width="24" height="37.0198" stroke="#000000" stroke-width="1.33291" stroke-miterlimit="8" fill="#FFFFFF"/><rect x="426.5" y="472.753" width="23" height="37.0198" stroke="#000000" stroke-width="1.33291" stroke-miterlimit="8" fill="#FFFFFF"/><rect x="446.5" y="472.753" width="24" height="37.0198" stroke="#000000" stroke-width="1.33291" stroke-miterlimit="8" fill="#FFFFFF"/><rect x="467.5" y="472.753" width="23" height="37.0198" stroke="#000000" stroke-width="1.33291" stroke-miterlimit="8" fill="#FFFFFF"/><text font-family="Calibri,Calibri_MSFontService,sans-serif" font-weight="400" font-size="21" transform="matrix(1 0 0 1.00054 367.192 462)">record data</text><path d="M2.999-0.0177649 3.33356 56.4612-2.66444 56.4967-2.999 0.0177649ZM9.3138 53.4267 0.423384 71.474-8.68021 53.5332Z" transform="matrix(-1 0 0 1.00054 458.423 307.164)"/><path d="M2.99906-4.4039e-06 2.99914 56.4783-2.99897 56.4783-2.99906 4.4039e-06ZM8.99724 53.4792 0.000104954 71.4735-8.99709 53.4792Z" transform="matrix(1 0 0 -1.00054 421 378.676)"/><path d="M544.5 539.172C544.5 489.78 584.518 449.741 633.883 449.741L927.117 449.741C976.482 449.741 1016.5 489.78 1016.5 539.172L1016.5 656.468C1016.5 705.86 976.482 745.899 927.117 745.899L633.883 745.899C584.518 745.899 544.5 705.86 544.5 656.468Z" stroke="#000000" stroke-width="1.33291" stroke-miterlimit="8" stroke-dasharray="5.33165 3.99874" fill="none" fill-rule="evenodd"/><rect x="598.5" y="498.767" width="177" height="108.058" stroke="#000000" stroke-width="2.66583" stroke-miterlimit="8" fill="#FFFFFF"/><text font-family="Calibri,Calibri_MSFontService,sans-serif" font-weight="400" font-size="16" transform="matrix(1 0 0 1.00054 619.601 518)">Curated CoLRev data</text><rect x="637.5" y="542.791" width="17" height="27.0145" stroke="#000000" stroke-width="1.33291" stroke-miterlimit="8" fill="#FFFFFF"/><rect x="652.5" y="542.791" width="17" height="27.0145" stroke="#000000" stroke-width="1.33291" stroke-miterlimit="8" fill="#FFFFFF"/><rect x="667.5" y="542.791" width="18" height="27.0145" stroke="#000000" stroke-width="1.33291" stroke-miterlimit="8" fill="#FFFFFF"/><rect x="682.5" y="542.791" width="18" height="27.0145" stroke="#000000" stroke-width="1.33291" stroke-miterlimit="8" fill="#FFFFFF"/><rect x="698.5" y="542.791" width="17" height="27.0145" stroke="#000000" stroke-width="1.33291" stroke-miterlimit="8" fill="#FFFFFF"/><rect x="713.5" y="542.791" width="18" height="27.0145" stroke="#000000" stroke-width="1.33291" stroke-miterlimit="8" fill="#FFFFFF"/><rect x="728.5" y="542.791" width="18" height="27.0145" stroke="#000000" stroke-width="1.33291" stroke-miterlimit="8" fill="#FFFFFF"/><text font-family="Calibri,Calibri_MSFontService,sans-serif" font-weight="400" font-size="15" transform="matrix(1 0 0 1.00054 656.724 536)">record data</text><rect x="637.5" y="569.805" width="17" height="28.015" stroke="#000000" stroke-width="1.33291" stroke-miterlimit="8" fill="#FFFFFF"/><rect x="652.5" y="569.805" width="17" height="28.015" stroke="#000000" stroke-width="1.33291" stroke-miterlimit="8" fill="#FFFFFF"/><rect x="667.5" y="569.805" width="18" height="28.015" stroke="#000000" stroke-width="1.33291" stroke-miterlimit="8" fill="#FFFFFF"/><rect x="682.5" y="569.805" width="18" height="28.015" stroke="#000000" stroke-width="1.33291" stroke-miterlimit="8" fill="#FFFFFF"/><rect x="698.5" y="569.805" width="17" height="28.015" stroke="#000000" stroke-width="1.33291" stroke-miterlimit="8" fill="#FFFFFF"/><rect x="713.5" y="569.805" width="18" height="28.015" stroke="#000000" stroke-width="1.33291" stroke-miterlimit="8" fill="#FFFFFF"/><rect x="728.5" y="569.805" width="18" height="28.015" stroke="#000000" stroke-width="1.33291" stroke-miterlimit="8" fill="#FFFFFF"/><rect x="598.5" y="614.829" width="177" height="108.058" stroke="#000000" stroke-width="2.66583" stroke-miterlimit="8" fill="#FFFFFF"/><text font-family="Calibri,Calibri_MSFontService,sans-serif" font-weight="400" font-size="16" transform="matrix(1 0 0 1.00054 619.601 635)">Curated CoLRev data</text><rect x="637.5" y="658.853" width="17" height="27.0145" stroke="#000000" stroke-width="1.33291" stroke-miterlimit="8" fill="#FFFFFF"/><rect x="652.5" y="658.853" width="17" height="27.0145" stroke="#000000" stroke-width="1.33291" stroke-miterlimit="8" fill="#FFFFFF"/><rect x="667.5" y="658.853" width="18" height="27.0145" stroke="#000000" stroke-width="1.33291" stroke-miterlimit="8" fill="#FFFFFF"/><rect x="682.5" y="658.853" width="18" height="27.0145" stroke="#000000" stroke-width="1.33291" stroke-miterlimit="8" fill="#FFFFFF"/><rect x="698.5" y="658.853" width="17" height="27.0145" stroke="#000000" stroke-width="1.33291" stroke-miterlimit="8" fill="#FFFFFF"/><rect x="713.5" y="658.853" width="18" height="27.0145" stroke="#000000" stroke-width="1.33291" stroke-miterlimit="8" fill="#FFFFFF"/><rect x="728.5" y="658.853" width="18" height="27.0145" stroke="#000000" stroke-width="1.33291" stroke-miterlimit="8" fill="#FFFFFF"/><text font-family="Calibri,Calibri_MSFontService,sans-serif" font-weight="400" font-size="15" transform="matrix(1 0 0 1.00054 656.724 652)">record data</text><rect x="637.5" y="686.868" width="17" height="27.0145" stroke="#000000" stroke-width="1.33291" stroke-miterlimit="8" fill="#FFFFFF"/><rect x="652.5" y="686.868" width="17" height="27.0145" stroke="#000000" stroke-width="1.33291" stroke-miterlimit="8" fill="#FFFFFF"/><rect x="667.5" y="686.868" width="18" height="27.0145" stroke="#000000" stroke-width="1.33291" stroke-miterlimit="8" fill="#FFFFFF"/><rect x="682.5" y="686.868" width="18" height="27.0145" stroke="#000000" stroke-width="1.33291" stroke-miterlimit="8" fill="#FFFFFF"/><rect x="698.5" y="686.868" width="17" height="27.0145" stroke="#000000" stroke-width="1.33291" stroke-miterlimit="8" fill="#FFFFFF"/><rect x="713.5" y="686.868" width="18" height="27.0145" stroke="#000000" stroke-width="1.33291" stroke-miterlimit="8" fill="#FFFFFF"/><rect x="728.5" y="686.868" width="18" height="27.0145" stroke="#000000" stroke-width="1.33291" stroke-miterlimit="8" fill="#FFFFFF"/><rect x="784.5" y="498.767" width="177" height="108.058" stroke="#000000" stroke-width="2.66583" stroke-miterlimit="8" fill="#FFFFFF"/><text font-family="Calibri,Calibri_MSFontService,sans-serif" font-weight="400" font-size="16" transform="matrix(1 0 0 1.00054 805.678 518)">Curated CoLRev data</text><rect x="823.5" y="542.791" width="17" height="27.0145" stroke="#000000" stroke-width="1.33291" stroke-miterlimit="8" fill="#FFFFFF"/><rect x="838.5" y="542.791" width="17" height="27.0145" stroke="#000000" stroke-width="1.33291" stroke-miterlimit="8" fill="#FFFFFF"/><rect x="853.5" y="542.791" width="18" height="27.0145" stroke="#000000" stroke-width="1.33291" stroke-miterlimit="8" fill="#FFFFFF"/><rect x="869.5" y="542.791" width="17" height="27.0145" stroke="#000000" stroke-width="1.33291" stroke-miterlimit="8" fill="#FFFFFF"/><rect x="884.5" y="542.791" width="17" height="27.0145" stroke="#000000" stroke-width="1.33291" stroke-miterlimit="8" fill="#FFFFFF"/><rect x="899.5" y="542.791" width="18" height="27.0145" stroke="#000000" stroke-width="1.33291" stroke-miterlimit="8" fill="#FFFFFF"/><rect x="915.5" y="542.791" width="17" height="27.0145" stroke="#000000" stroke-width="1.33291" stroke-miterlimit="8" fill="#FFFFFF"/><text font-family="Calibri,Calibri_MSFontService,sans-serif" font-weight="400" font-size="15" transform="matrix(1 0 0 1.00054 842.8 536)">record data</text><rect x="823.5" y="569.805" width="17" height="28.015" stroke="#000000" stroke-width="1.33291" stroke-miterlimit="8" fill="#FFFFFF"/><rect x="838.5" y="569.805" width="17" height="28.015" stroke="#000000" stroke-width="1.33291" stroke-miterlimit="8" fill="#FFFFFF"/><rect x="853.5" y="569.805" width="18" height="28.015" stroke="#000000" stroke-width="1.33291" stroke-miterlimit="8" fill="#FFFFFF"/><rect x="869.5" y="569.805" width="17" height="28.015" stroke="#000000" stroke-width="1.33291" stroke-miterlimit="8" fill="#FFFFFF"/><rect x="884.5" y="569.805" width="17" height="28.015" stroke="#000000" stroke-width="1.33291" stroke-miterlimit="8" fill="#FFFFFF"/><rect x="899.5" y="569.805" width="18" height="28.015" stroke="#000000" stroke-width="1.33291" stroke-miterlimit="8" fill="#FFFFFF"/><rect x="915.5" y="569.805" width="17" height="28.015" stroke="#000000" stroke-width="1.33291" stroke-miterlimit="8" fill="#FFFFFF"/><rect x="784.5" y="614.829" width="177" height="108.058" stroke="#000000" stroke-width="2.66583" stroke-miterlimit="8" fill="#FFFFFF"/><text font-family="Calibri,Calibri_MSFontService,sans-serif" font-weight="400" font-size="16" transform="matrix(1 0 0 1.00054 805.678 635)">Curated CoLRev data</text><rect x="823.5" y="658.853" width="17" height="27.0145" stroke="#000000" stroke-width="1.33291" stroke-miterlimit="8" fill="#FFFFFF"/><rect x="838.5" y="658.853" width="17" height="27.0145" stroke="#000000" stroke-width="1.33291" stroke-miterlimit="8" fill="#FFFFFF"/><rect x="853.5" y="658.853" width="18" height="27.0145" stroke="#000000" stroke-width="1.33291" stroke-miterlimit="8" fill="#FFFFFF"/><rect x="869.5" y="658.853" width="17" height="27.0145" stroke="#000000" stroke-width="1.33291" stroke-miterlimit="8" fill="#FFFFFF"/><rect x="884.5" y="658.853" width="17" height="27.0145" stroke="#000000" stroke-width="1.33291" stroke-miterlimit="8" fill="#FFFFFF"/><rect x="899.5" y="658.853" width="18" height="27.0145" stroke="#000000" stroke-width="1.33291" stroke-miterlimit="8" fill="#FFFFFF"/><rect x="915.5" y="658.853" width="17" height="27.0145" stroke="#000000" stroke-width="1.33291" stroke-miterlimit="8" fill="#FFFFFF"/><text font-family="Calibri,Calibri_MSFontService,sans-serif" font-weight="400" font-size="15" transform="matrix(1 0 0 1.00054 842.8 652)">record data</text><rect x="823.5" y="686.868" width="17" height="27.0145" stroke="#000000" stroke-width="1.33291" stroke-miterlimit="8" fill="#FFFFFF"/><rect x="838.5" y="686.868" width="17" height="27.0145" stroke="#000000" stroke-width="1.33291" stroke-miterlimit="8" fill="#FFFFFF"/><rect x="853.5" y="686.868" width="18" height="27.0145" stroke="#000000" stroke-width="1.33291" stroke-miterlimit="8" fill="#FFFFFF"/><rect x="869.5" y="686.868" width="17" height="27.0145" stroke="#000000" stroke-width="1.33291" stroke-miterlimit="8" fill="#FFFFFF"/><rect x="884.5" y="686.868" width="17" height="27.0145" stroke="#000000" stroke-width="1.33291" stroke-miterlimit="8" fill="#FFFFFF"/><rect x="899.5" y="686.868" width="18" height="27.0145" stroke="#000000" stroke-width="1.33291" stroke-miterlimit="8" fill="#FFFFFF"/><rect x="915.5" y="686.868" width="17" height="27.0145" stroke="#000000" stroke-width="1.33291" stroke-miterlimit="8" fill="#FFFFFF"/><g clip-path="url(#clip1)"><g clip-path="url(#clip2)"><g clip-path="url(#clip3)"><path d="M64 30C64 38.8366 56.8365 46 48 46 39.1634 46 32 38.8366 32 30 32 21.1634 39.1634 14 48 14 56.8365 14 64 21.1634 64 30Z" transform="matrix(1 0 0 1.00054 545 1.00054)"/><path d="M77 57.91C76.7272 55.8269 75.6945 53.918 74.1 52.55 69.8277 49.6245 65.0452 47.525 60 46.36 59.43 46.23 58.83 46.12 58.23 46.01 52.0286 49.9836 44.0814 49.9836 37.88 46.01L36.08 46.34C31.0301 47.5754 26.2325 49.6764 21.9 52.55 20.12 53.69 19.38 55.81 19 57.91L16 75.1C15.8205 76.5508 16.4215 77.9884 17.58 78.88L24.43 83.4 24.43 61.75C24.4299 59.2426 26.4625 57.21 28.9699 57.2099 28.9799 57.2099 28.99 57.2099 29 57.21L67 57.21C69.5074 57.21 71.54 59.2426 71.54 61.75L71.54 82.85 78.76 78.32C79.6148 77.7428 80.0895 76.7475 80 75.72Z" transform="matrix(1 0 0 1.00054 545 1.00054)"/><path d="M69.57 86.67 69.57 61.75C69.5701 60.3472 68.433 59.2099 67.0302 59.2098 67.0201 59.2098 67.0101 59.2099 67 59.21L29 59.21C27.5972 59.21 26.46 60.3472 26.46 61.75L26.46 86.67 18.81 86.67 18.81 87.94C18.8155 89.3405 19.9495 90.4745 21.35 90.48L74.65 90.48C76.0505 90.4745 77.1845 89.3405 77.19 87.94L77.19 86.67ZM42.82 78.32 41.41 79.73 35.8 74.12 41.41 68.51 42.82 69.92 38.63 74.12ZM46.55 80.43 44.7 79.66 49.39 68.34 51.23 69.11ZM54.55 79.73 53.14 78.32 57.33 74.12 53.14 69.92 54.55 68.51 60.16 74.12Z" transform="matrix(1 0 0 1.00054 545 1.00054)"/></g></g></g><path d="M593.5 97.5522 593.5 148.066" stroke="#000000" stroke-width="0.666457" stroke-miterlimit="8" fill="none" fill-rule="evenodd"/><path d="M502.342 47.1187C520.462 50.9639 532.478 68.2464 529.279 85.8618L532.561 87.2528 526.141 91.8795 523.528 83.4238 526.806 84.8137C529.385 68.7714 518.329 53.2113 501.848 49.6874Z" stroke="#000000" stroke-width="1.33305" stroke-miterlimit="8" fill-rule="evenodd"/><path d="M461.664 78.6593C461.715 62.9239 473.457 49.5312 489.562 46.8391L489.625 43.2633 496.072 47.6742 489.453 53.0757 489.516 49.5018C474.885 52.1727 464.318 64.3896 464.278 78.6798Z" stroke="#000000" stroke-width="1.33362" stroke-miterlimit="8" fill-rule="evenodd"/><path d="M526.369 96.7981C517.917 112.88 497.546 119.384 480.868 111.325 472.815 107.434 466.726 100.603 463.953 92.3506L460.408 92.7183 463.796 85.5649 470.166 91.7061 466.624 92.0735C472.228 107.694 489.999 115.939 506.317 110.489 513.989 107.927 520.336 102.609 524.014 95.6601Z" stroke="#000000" stroke-width="1.33292" stroke-miterlimit="8" fill-rule="evenodd"/><text font-family="Calibri,Calibri_MSFontService,sans-serif" font-weight="700" font-size="32" transform="matrix(1 0 0 1.00054 40.6565 79)">Part 1. Workflow<tspan font-size="32" x="0" y="111.94">Part 2. Operations</tspan><tspan font-size="32" x="0" y="249.866">Part 3. </tspan>Collaboration</text><path d="M752.999 278.149 752.999 482.539 747.001 482.539 747.001 278.149ZM758.997 479.538 750 497.542 741.003 479.538Z"/><path d="M2.99906-1.43546e-06 2.99915 204.281-2.99896 204.281-2.99906 1.43546e-06ZM8.99726 201.281 0.000104954 219.276-8.99707 201.281Z" transform="matrix(1 0 0 -1.00054 712 497.542)"/><text font-family="Calibri,Calibri_MSFontService,sans-serif" font-weight="700" font-size="32" transform="matrix(1 0 0 1.00054 40.6565 598)">Part <tspan font-size="32" x="61.8538" y="0">4. Curation</tspan></text></g></svg>
