<svg width="1058" height="794" xmlns="http://www.w3.org/2000/svg" xmlns:xlink="http://www.w3.org/1999/xlink" overflow="hidden"><defs><clipPath id="clip0"><rect x="0" y="0" width="1058" height="794"/></clipPath><clipPath id="clip1"><rect x="564" y="37" width="97" height="97"/></clipPath><clipPath id="clip2"><rect x="564" y="37" width="97" height="97"/></clipPath><clipPath id="clip3"><rect x="564" y="37" width="97" height="97"/></clipPath></defs><g clip-path="url(#clip0)"><rect x="0" y="0" width="1058" height="793.583" fill="#FFFFFF"/><rect x="494.5" y="183.635" width="406" height="137.101" stroke="#000000" stroke-width="2.66583" stroke-miterlimit="8" fill="#FFFFFF"/><text font-family="Calibri,Calibri_MSFontService,sans-serif" font-weight="400" font-size="24" transform="matrix(1 0 0 1.00074 581.524 210)">Local<tspan font-size="24" x="55.2826" y="0">CoLRev </tspan>repository</text><path d="M545.5 243.554C545.5 248.459 574.378 252.435 610 252.435 645.622 252.435 674.5 248.459 674.5 243.554L674.5 296.843C674.5 301.748 645.622 305.725 610 305.725 574.378 305.725 545.5 301.748 545.5 296.843Z" fill="#FFFFFF" fill-rule="evenodd"/><path d="M545.5 243.554C545.5 238.649 574.378 234.672 610 234.672 645.622 234.672 674.5 238.649 674.5 243.554 674.5 248.459 645.622 252.435 610 252.435 574.378 252.435 545.5 248.459 545.5 243.554Z" fill="#FFFFFF" fill-rule="evenodd"/><path d="M674.5 243.554C674.5 248.459 645.622 252.435 610 252.435 574.378 252.435 545.5 248.459 545.5 243.554 545.5 238.649 574.378 234.672 610 234.672 645.622 234.672 674.5 238.649 674.5 243.554L674.5 296.843C674.5 301.748 645.622 305.725 610 305.725 574.378 305.725 545.5 301.748 545.5 296.843L545.5 243.554" stroke="#000000" stroke-width="1.33291" stroke-miterlimit="8" fill="none" fill-rule="evenodd"/><text font-family="Calibri,Calibri_MSFontService,sans-serif" font-weight="400" font-size="21" transform="matrix(1 0 0 1.00074 557.266 282)">project data</text><rect x="718.5" y="258.69" width="24" height="37.0272" stroke="#000000" stroke-width="1.33291" stroke-miterlimit="8" fill="#FFFFFF"/><rect x="739.5" y="258.69" width="23" height="37.0272" stroke="#000000" stroke-width="1.33291" stroke-miterlimit="8" fill="#FFFFFF"/><rect x="759.5" y="258.69" width="24" height="37.0272" stroke="#000000" stroke-width="1.33291" stroke-miterlimit="8" fill="#FFFFFF"/><rect x="780.5" y="258.69" width="23" height="37.0272" stroke="#000000" stroke-width="1.33291" stroke-miterlimit="8" fill="#FFFFFF"/><rect x="801.5" y="258.69" width="23" height="37.0272" stroke="#000000" stroke-width="1.33291" stroke-miterlimit="8" fill="#FFFFFF"/><rect x="821.5" y="258.69" width="24" height="37.0272" stroke="#000000" stroke-width="1.33291" stroke-miterlimit="8" fill="#FFFFFF"/><rect x="842.5" y="258.69" width="23" height="37.0272" stroke="#000000" stroke-width="1.33291" stroke-miterlimit="8" fill="#FFFFFF"/><text font-family="Calibri,Calibri_MSFontService,sans-serif" font-weight="400" font-size="21" transform="matrix(1 0 0 1.00074 742.012 248)">record data</text><path d="M2.99897-0.0223681 3.31052 41.7474-2.68743 41.7921-2.99897 0.0223681ZM9.28609 38.7036 0.423384 56.7646-8.70774 38.8379Z" transform="matrix(-1 0 0 1.00074 628.423 320.235)"/><path d="M2.99906-5.54508e-06 2.99913 41.769-2.99898 41.769-2.99906 5.54508e-06ZM8.99724 38.7699 0.000104954 56.7643-8.99709 38.77Z" transform="matrix(1 0 0 -1.00074 590 377.041)"/><path d="M341.5 618.403C341.5 588.862 365.43 564.915 394.948 564.915L920.052 564.915C949.57 564.915 973.5 588.862 973.5 618.403L973.5 688.557C973.5 718.098 949.57 742.045 920.052 742.045L394.948 742.045C365.43 742.045 341.5 718.098 341.5 688.557Z" stroke="#000000" stroke-width="1.33291" stroke-miterlimit="8" stroke-dasharray="5.33165 3.99874" fill="none" fill-rule="evenodd"/><rect x="564.5" y="626.961" width="168" height="95.0698" stroke="#000000" stroke-width="2.66583" stroke-miterlimit="8" fill="#FFFFFF"/><rect x="594.5" y="656.983" width="17" height="28.0206" stroke="#000000" stroke-width="1.33291" stroke-miterlimit="8" fill="#FFFFFF"/><rect x="609.5" y="656.983" width="17" height="28.0206" stroke="#000000" stroke-width="1.33291" stroke-miterlimit="8" fill="#FFFFFF"/><rect x="624.5" y="656.983" width="18" height="28.0206" stroke="#000000" stroke-width="1.33291" stroke-miterlimit="8" fill="#FFFFFF"/><rect x="640.5" y="656.983" width="17" height="28.0206" stroke="#000000" stroke-width="1.33291" stroke-miterlimit="8" fill="#FFFFFF"/><rect x="655.5" y="656.983" width="17" height="28.0206" stroke="#000000" stroke-width="1.33291" stroke-miterlimit="8" fill="#FFFFFF"/><rect x="670.5" y="656.983" width="18" height="28.0206" stroke="#000000" stroke-width="1.33291" stroke-miterlimit="8" fill="#FFFFFF"/><rect x="685.5" y="656.983" width="18" height="28.0206" stroke="#000000" stroke-width="1.33291" stroke-miterlimit="8" fill="#FFFFFF"/><text font-family="Calibri,Calibri_MSFontService,sans-serif" font-weight="400" font-size="15" transform="matrix(1 0 0 1.00074 613.756 651)">record data</text><rect x="594.5" y="685.003" width="17" height="27.0198" stroke="#000000" stroke-width="1.33291" stroke-miterlimit="8" fill="#FFFFFF"/><rect x="609.5" y="685.003" width="17" height="27.0198" stroke="#000000" stroke-width="1.33291" stroke-miterlimit="8" fill="#FFFFFF"/><rect x="624.5" y="685.003" width="18" height="27.0198" stroke="#000000" stroke-width="1.33291" stroke-miterlimit="8" fill="#FFFFFF"/><rect x="640.5" y="685.003" width="17" height="27.0198" stroke="#000000" stroke-width="1.33291" stroke-miterlimit="8" fill="#FFFFFF"/><rect x="655.5" y="685.003" width="17" height="27.0198" stroke="#000000" stroke-width="1.33291" stroke-miterlimit="8" fill="#FFFFFF"/><rect x="670.5" y="685.003" width="18" height="27.0198" stroke="#000000" stroke-width="1.33291" stroke-miterlimit="8" fill="#FFFFFF"/><rect x="685.5" y="685.003" width="18" height="27.0198" stroke="#000000" stroke-width="1.33291" stroke-miterlimit="8" fill="#FFFFFF"/><g clip-path="url(#clip1)"><g clip-path="url(#clip2)"><g clip-path="url(#clip3)"><path d="M64 30C64 38.8366 56.8365 46 48 46 39.1634 46 32 38.8366 32 30 32 21.1634 39.1634 14 48 14 56.8365 14 64 21.1634 64 30Z" transform="matrix(1 0 0 1.00074 564 37.0272)"/><path d="M77 57.91C76.7272 55.8269 75.6945 53.918 74.1 52.55 69.8277 49.6245 65.0452 47.525 60 46.36 59.43 46.23 58.83 46.12 58.23 46.01 52.0286 49.9836 44.0814 49.9836 37.88 46.01L36.08 46.34C31.0301 47.5754 26.2325 49.6764 21.9 52.55 20.12 53.69 19.38 55.81 19 57.91L16 75.1C15.8205 76.5508 16.4215 77.9884 17.58 78.88L24.43 83.4 24.43 61.75C24.4299 59.2426 26.4625 57.21 28.9699 57.2099 28.9799 57.2099 28.99 57.2099 29 57.21L67 57.21C69.5074 57.21 71.54 59.2426 71.54 61.75L71.54 82.85 78.76 78.32C79.6148 77.7428 80.0895 76.7475 80 75.72Z" transform="matrix(1 0 0 1.00074 564 37.0272)"/><path d="M69.57 86.67 69.57 61.75C69.5701 60.3472 68.433 59.2099 67.0302 59.2098 67.0201 59.2098 67.0101 59.2099 67 59.21L29 59.21C27.5972 59.21 26.46 60.3472 26.46 61.75L26.46 86.67 18.81 86.67 18.81 87.94C18.8155 89.3405 19.9495 90.4745 21.35 90.48L74.65 90.48C76.0505 90.4745 77.1845 89.3405 77.19 87.94L77.19 86.67ZM42.82 78.32 41.41 79.73 35.8 74.12 41.41 68.51 42.82 69.92 38.63 74.12ZM46.55 80.43 44.7 79.66 49.39 68.34 51.23 69.11ZM54.55 79.73 53.14 78.32 57.33 74.12 53.14 69.92 54.55 68.51 60.16 74.12Z" transform="matrix(1 0 0 1.00074 564 37.0272)"/></g></g></g><path d="M612.5 133.598 612.5 184.122" stroke="#000000" stroke-width="0.666457" stroke-miterlimit="8" fill="none" fill-rule="evenodd"/><path d="M718.619 72.5345C736.739 76.3804 748.755 93.6663 745.555 111.285L748.837 112.677 742.417 117.304 739.804 108.847 743.083 110.237C745.661 94.1915 734.605 78.6283 718.124 75.1037Z" stroke="#000000" stroke-width="1.3331" stroke-miterlimit="8" fill-rule="evenodd"/><path d="M677.94 104.081C677.991 88.3428 689.734 74.9475 705.839 72.2548L705.901 68.6783 712.349 73.09 705.729 78.4927 705.792 74.918C691.162 77.5894 680.595 89.8088 680.554 104.102Z" stroke="#000000" stroke-width="1.33389" stroke-miterlimit="8" fill-rule="evenodd"/><path d="M742.646 122.224C734.194 138.309 713.822 144.814 697.144 136.754 689.092 132.862 683.003 126.03 680.23 117.775L676.685 118.143 680.072 110.988 686.443 117.131 682.901 117.498C688.504 133.122 706.275 141.368 722.594 135.918 730.266 133.355 736.612 128.036 740.291 121.086Z" stroke="#000000" stroke-width="1.33292" stroke-miterlimit="8" fill-rule="evenodd"/><text font-family="Calibri,Calibri_MSFontService,sans-serif" font-weight="700" font-size="32" transform="matrix(1 0 0 1.00074 56.4325 83)">Part 1. Workflow<tspan font-size="32" x="0" y="129.904">Part 2. Operations</tspan><tspan font-size="32" x="0" y="317.766">Part 3. Collaboration</tspan></text><path d="M855.999 295.217 855.999 545.729 850.001 545.729 850.001 295.217ZM861.997 542.728 853 560.736 844.003 542.728Z"/><path d="M2.99906-1.18633e-06 2.99915 250.328-2.99896 250.328-2.99906 1.18633e-06ZM8.99726 247.329 0.000104954 265.324-8.99707 247.329Z" transform="matrix(1 0 0 -1.00074 816 560.736)"/><text font-family="Calibri,Calibri_MSFontService,sans-serif" font-weight="700" font-size="32" transform="matrix(1 0 0 1.00074 56.4325 598)">Part 4. Curation</text><rect x="385.5" y="376.777" width="406" height="137.101" stroke="#000000" stroke-width="2.66583" stroke-miterlimit="8" fill="#FFFFFF"/><text font-family="Calibri,Calibri_MSFontService,sans-serif" font-weight="400" font-size="24" transform="matrix(1 0 0 1.00074 463.571 404)">Shared<tspan font-size="24" x="73.3303" y="0">CoLRev </tspan>repository</text><path d="M436.5 436.821C436.5 441.795 465.378 445.827 501 445.827 536.622 445.827 565.5 441.795 565.5 436.821L565.5 490.861C565.5 495.835 536.622 499.867 501 499.867 465.378 499.867 436.5 495.835 436.5 490.861Z" fill="#FFFFFF" fill-rule="evenodd"/><path d="M436.5 436.821C436.5 431.847 465.378 427.814 501 427.814 536.622 427.814 565.5 431.847 565.5 436.821 565.5 441.795 536.622 445.827 501 445.827 465.378 445.827 436.5 441.795 436.5 436.821Z" fill="#FFFFFF" fill-rule="evenodd"/><path d="M565.5 436.821C565.5 441.795 536.622 445.827 501 445.827 465.378 445.827 436.5 441.795 436.5 436.821 436.5 431.847 465.378 427.814 501 427.814 536.622 427.814 565.5 431.847 565.5 436.821L565.5 490.861C565.5 495.835 536.622 499.867 501 499.867 465.378 499.867 436.5 495.835 436.5 490.861L436.5 436.821" stroke="#000000" stroke-width="1.33291" stroke-miterlimit="8" fill="none" fill-rule="evenodd"/><text font-family="Calibri,Calibri_MSFontService,sans-serif" font-weight="400" font-size="21" transform="matrix(1 0 0 1.00074 448.337 475)">project data</text><rect x="609.5" y="451.832" width="24" height="38.0279" stroke="#000000" stroke-width="1.33291" stroke-miterlimit="8" fill="#FFFFFF"/><rect x="630.5" y="451.832" width="23" height="38.0279" stroke="#000000" stroke-width="1.33291" stroke-miterlimit="8" fill="#FFFFFF"/><rect x="650.5" y="451.832" width="24" height="38.0279" stroke="#000000" stroke-width="1.33291" stroke-miterlimit="8" fill="#FFFFFF"/><rect x="671.5" y="451.832" width="24" height="38.0279" stroke="#000000" stroke-width="1.33291" stroke-miterlimit="8" fill="#FFFFFF"/><rect x="692.5" y="451.832" width="23" height="38.0279" stroke="#000000" stroke-width="1.33291" stroke-miterlimit="8" fill="#FFFFFF"/><rect x="712.5" y="451.832" width="24" height="38.0279" stroke="#000000" stroke-width="1.33291" stroke-miterlimit="8" fill="#FFFFFF"/><rect x="733.5" y="451.832" width="23" height="38.0279" stroke="#000000" stroke-width="1.33291" stroke-miterlimit="8" fill="#FFFFFF"/><text font-family="Calibri,Calibri_MSFontService,sans-serif" font-weight="400" font-size="21" transform="matrix(1 0 0 1.00074 633.083 442)">record data<tspan font-size="21" x="142.382" y="-357.737">colrev status</tspan><tspan font-size="21" x="142.382" y="-331.756">colrev [operation]</tspan><tspan font-size="21" x="142.382" y="-306.774">c</tspan><tspan font-size="21" x="151.199" y="-306.774">olrev validate</tspan><tspan font-size="24" x="-33.3585" y="153.887">Curated CoLRev repositories</tspan></text><rect x="751.5" y="626.961" width="168" height="95.0698" stroke="#000000" stroke-width="2.66583" stroke-miterlimit="8" fill="#FFFFFF"/><rect x="780.5" y="656.983" width="18" height="28.0206" stroke="#000000" stroke-width="1.33291" stroke-miterlimit="8" fill="#FFFFFF"/><rect x="796.5" y="656.983" width="17" height="28.0206" stroke="#000000" stroke-width="1.33291" stroke-miterlimit="8" fill="#FFFFFF"/><rect x="811.5" y="656.983" width="17" height="28.0206" stroke="#000000" stroke-width="1.33291" stroke-miterlimit="8" fill="#FFFFFF"/><rect x="826.5" y="656.983" width="18" height="28.0206" stroke="#000000" stroke-width="1.33291" stroke-miterlimit="8" fill="#FFFFFF"/><rect x="842.5" y="656.983" width="17" height="28.0206" stroke="#000000" stroke-width="1.33291" stroke-miterlimit="8" fill="#FFFFFF"/><rect x="857.5" y="656.983" width="17" height="28.0206" stroke="#000000" stroke-width="1.33291" stroke-miterlimit="8" fill="#FFFFFF"/><rect x="872.5" y="656.983" width="18" height="28.0206" stroke="#000000" stroke-width="1.33291" stroke-miterlimit="8" fill="#FFFFFF"/><text font-family="Calibri,Calibri_MSFontService,sans-serif" font-weight="400" font-size="15" transform="matrix(1 0 0 1.00074 800.437 651)">record data</text><rect x="780.5" y="685.003" width="18" height="27.0198" stroke="#000000" stroke-width="1.33291" stroke-miterlimit="8" fill="#FFFFFF"/><rect x="796.5" y="685.003" width="17" height="27.0198" stroke="#000000" stroke-width="1.33291" stroke-miterlimit="8" fill="#FFFFFF"/><rect x="811.5" y="685.003" width="17" height="27.0198" stroke="#000000" stroke-width="1.33291" stroke-miterlimit="8" fill="#FFFFFF"/><rect x="826.5" y="685.003" width="18" height="27.0198" stroke="#000000" stroke-width="1.33291" stroke-miterlimit="8" fill="#FFFFFF"/><rect x="842.5" y="685.003" width="17" height="27.0198" stroke="#000000" stroke-width="1.33291" stroke-miterlimit="8" fill="#FFFFFF"/><rect x="857.5" y="685.003" width="17" height="27.0198" stroke="#000000" stroke-width="1.33291" stroke-miterlimit="8" fill="#FFFFFF"/><rect x="872.5" y="685.003" width="18" height="27.0198" stroke="#000000" stroke-width="1.33291" stroke-miterlimit="8" fill="#FFFFFF"/><rect x="377.5" y="626.961" width="168" height="95.0698" stroke="#000000" stroke-width="2.66583" stroke-miterlimit="8" fill="#FFFFFF"/><rect x="406.5" y="656.983" width="18" height="28.0206" stroke="#000000" stroke-width="1.33291" stroke-miterlimit="8" fill="#FFFFFF"/><rect x="422.5" y="656.983" width="17" height="28.0206" stroke="#000000" stroke-width="1.33291" stroke-miterlimit="8" fill="#FFFFFF"/><rect x="437.5" y="656.983" width="17" height="28.0206" stroke="#000000" stroke-width="1.33291" stroke-miterlimit="8" fill="#FFFFFF"/><rect x="452.5" y="656.983" width="18" height="28.0206" stroke="#000000" stroke-width="1.33291" stroke-miterlimit="8" fill="#FFFFFF"/><rect x="468.5" y="656.983" width="17" height="28.0206" stroke="#000000" stroke-width="1.33291" stroke-miterlimit="8" fill="#FFFFFF"/><rect x="483.5" y="656.983" width="17" height="28.0206" stroke="#000000" stroke-width="1.33291" stroke-miterlimit="8" fill="#FFFFFF"/><rect x="498.5" y="656.983" width="18" height="28.0206" stroke="#000000" stroke-width="1.33291" stroke-miterlimit="8" fill="#FFFFFF"/><text font-family="Calibri,Calibri_MSFontService,sans-serif" font-weight="400" font-size="15" transform="matrix(1 0 0 1.00074 426.523 651)">record data</text><rect x="406.5" y="685.003" width="18" height="27.0198" stroke="#000000" stroke-width="1.33291" stroke-miterlimit="8" fill="#FFFFFF"/><rect x="422.5" y="685.003" width="17" height="27.0198" stroke="#000000" stroke-width="1.33291" stroke-miterlimit="8" fill="#FFFFFF"/><rect x="437.5" y="685.003" width="17" height="27.0198" stroke="#000000" stroke-width="1.33291" stroke-miterlimit="8" fill="#FFFFFF"/><rect x="452.5" y="685.003" width="18" height="27.0198" stroke="#000000" stroke-width="1.33291" stroke-miterlimit="8" fill="#FFFFFF"/><rect x="468.5" y="685.003" width="17" height="27.0198" stroke="#000000" stroke-width="1.33291" stroke-miterlimit="8" fill="#FFFFFF"/><rect x="483.5" y="685.003" width="17" height="27.0198" stroke="#000000" stroke-width="1.33291" stroke-miterlimit="8" fill="#FFFFFF"/><rect x="498.5" y="685.003" width="18" height="27.0198" stroke="#000000" stroke-width="1.33291" stroke-miterlimit="8" fill="#FFFFFF"/></g></svg>
