<svg width="1280" height="720" xmlns="http://www.w3.org/2000/svg" xmlns:xlink="http://www.w3.org/1999/xlink" overflow="hidden"><defs><clipPath id="clip0"><rect x="0" y="0" width="1280" height="720"/></clipPath></defs><g clip-path="url(#clip0)"><rect x="0" y="0" width="1280" height="720" fill="#FFFFFF"/><path d="M130.5 99.5001 312 99.5001 344.5 132 312 164.5 130.5 164.5Z" stroke="#000000" stroke-width="1.33333" stroke-miterlimit="8" fill="#FFFFFF" fill-rule="evenodd"/><text font-family="Calibri,Calibri_MSFontService,sans-serif" font-weight="400" font-size="24" transform="translate(208.048 139)">load</text><rect x="83" y="32" width="746" height="200" stroke="#BFBFBF" stroke-width="1.66667" stroke-miterlimit="8" stroke-dasharray="6.66667 5" fill="none"/><rect x="81" y="478" width="746" height="211" stroke="#BFBFBF" stroke-width="1.66667" stroke-miterlimit="8" stroke-dasharray="6.66667 5" fill="none"/><text font-family="Calibri,Calibri_MSFontService,sans-serif" font-weight="700" font-size="25" transform="translate(140.788 66)">Metadata preparation<tspan font-size="25" x="-5.66231" y="592">PDF preparation</tspan></text><rect x="844" y="32" width="399" height="657" stroke="#BFBFBF" stroke-width="1.66667" stroke-miterlimit="8" stroke-dasharray="6.66667 5" fill="none"/><text font-family="Calibri,Calibri_MSFontService,sans-serif" font-weight="700" font-size="25" transform="translate(1038.33 60)">Review Process</text><path d="M353.5 346C353.5 310.93 426.254 282.5 516 282.5 605.746 282.5 678.5 310.93 678.5 346 678.5 381.07 605.746 409.5 516 409.5 426.254 409.5 353.5 381.07 353.5 346Z" stroke="#000000" stroke-width="1.33333" stroke-miterlimit="8" fill="#FFFFFF" fill-rule="evenodd"/><text font-family="Calibri,Calibri_MSFontService,sans-serif" font-weight="400" font-size="24" transform="translate(448.866 324)">Local index of <tspan font-size="24" x="-29.36" y="29">community</tspan><tspan font-size="24" x="81.2733" y="29">-</tspan><tspan font-size="24" x="88.6067" y="29">curated </tspan><tspan font-size="24" x="-15.42" y="58">data repositories</tspan></text><path d="M372.5 99.5001 554 99.5001 586.5 132 554 164.5 372.5 164.5Z" stroke="#000000" stroke-width="1.33333" stroke-miterlimit="8" fill="#FFFFFF" fill-rule="evenodd"/><text font-family="Calibri,Calibri_MSFontService,sans-serif" font-weight="400" font-size="24" transform="translate(432.334 139)">prepare</text><path d="M614.5 99.5001 795 99.5001 827.5 132 795 164.5 614.5 164.5Z" stroke="#000000" stroke-width="1.33333" stroke-miterlimit="8" fill="#FFFFFF" fill-rule="evenodd"/><text font-family="Calibri,Calibri_MSFontService,sans-serif" font-weight="400" font-size="24" transform="translate(674.994 139)">dedupe</text><path d="M248.5 545.5 430.5 545.5 462.5 577.5 430.5 609.5 248.5 609.5Z" stroke="#000000" stroke-width="1.33333" stroke-miterlimit="8" fill="#FFFFFF" fill-rule="evenodd"/><text font-family="Calibri,Calibri_MSFontService,sans-serif" font-weight="400" font-size="24" transform="translate(311.391 585)">pdf<tspan font-size="24" x="32.6667" y="0">-</tspan><tspan font-size="24" x="40" y="0">get</tspan></text><path d="M490.5 546.5 672.5 546.5 704.5 578.5 672.5 610.5 490.5 610.5Z" stroke="#000000" stroke-width="1.33333" stroke-miterlimit="8" fill="#FFFFFF" fill-rule="evenodd"/><text font-family="Calibri,Calibri_MSFontService,sans-serif" font-weight="400" font-size="24" transform="translate(546.586 586)">pdf<tspan font-size="24" x="32.6667" y="0">-</tspan><tspan font-size="24" x="40" y="0">prep</tspan></text><path d="M25.5001 345.167 346.709 345.167 346.709 345.833 25.5001 345.833ZM345.376 341.5 353.376 345.5 345.376 349.5Z"/><text font-family="Calibri,Calibri_MSFontService,sans-serif" font-weight="700" font-size="25" transform="translate(68.0633 338)">Community-<tspan font-size="25" x="127.667" y="0">curated data</tspan></text><path d="M400.797 301.143 226.607 168.798 227.01 168.268 401.201 300.612ZM225.45 172.525 221.5 164.5 230.29 166.155Z"/><path d="M516.194 282.318 465.934 170.715 466.541 170.442 516.802 282.044ZM463.138 173.437 463.5 164.5 470.432 170.152Z"/><path d="M0.293428-0.158148 70.6336 130.351 70.0467 130.667-0.293428 0.158148ZM73.2288 127.438 73.5032 136.378 66.1865 131.233Z" transform="matrix(1 0 0 -1 631.5 300.878)"/><path d="M0.309358-0.124131 59.6463 147.755 59.0275 148.003-0.309358 0.124131ZM62.5527 145.152 61.8195 154.066 55.1281 148.131Z" transform="matrix(-1 0 0 1 401.32 391.5)"/><path d="M516.801 409.356 579.407 539.664 578.806 539.953 516.2 409.644ZM582.135 536.875 581.994 545.818 574.924 540.339Z"/><path d="M0.171763-0.285672 292.448 175.449 292.104 176.02-0.171763 0.285672ZM293.194 171.619 297.989 179.169 289.072 178.475Z" transform="matrix(1 0 0 -1 678.5 345.669)"/><path d="M1115.5 113.5 1115.5 220 1046 289.5 976.5 220 976.5 113.5Z" stroke="#000000" stroke-width="1.33333" stroke-miterlimit="8" fill="#FFFFFF" fill-rule="evenodd"/><text font-family="Calibri,Calibri_MSFontService,sans-serif" font-weight="400" font-size="24" transform="translate(997.384 191)">prescreen</text><path d="M678.693 345.228 971.246 552.957 970.86 553.501 678.307 345.772ZM972.282 549.196 976.489 557.089 967.651 555.719Z"/><path d="M1115.5 503.5 1115.5 611 1046 680.5 976.5 611 976.5 503.5Z" stroke="#000000" stroke-width="1.33333" stroke-miterlimit="8" fill="#FFFFFF" fill-rule="evenodd"/><text font-family="Calibri,Calibri_MSFontService,sans-serif" font-weight="400" font-size="24" transform="translate(995.5 582)">synthesize</text><path d="M678.518 345.167 969.85 361.015 969.814 361.68 678.482 345.833ZM968.718 357.281 976.489 361.71 968.284 365.269Z"/><path d="M1115.5 308.5 1115.5 416 1046 485.5 976.5 416 976.5 308.5Z" stroke="#000000" stroke-width="1.33333" stroke-miterlimit="8" fill="#FFFFFF" fill-rule="evenodd"/><text font-family="Calibri,Calibri_MSFontService,sans-serif" font-weight="400" font-size="24" transform="translate(1013.73 387)">screen</text></g></svg>
