<svg width="1323" height="567" xmlns="http://www.w3.org/2000/svg" xmlns:xlink="http://www.w3.org/1999/xlink" overflow="hidden"><defs><clipPath id="clip0"><rect x="0" y="0" width="1323" height="567"/></clipPath></defs><g clip-path="url(#clip0)"><rect x="0" y="0" width="1323" height="566.929" fill="#FFFFFF"/><rect x="48.5" y="33.4957" width="406" height="179.977" stroke="#000000" stroke-width="2.667" stroke-miterlimit="8" fill="#FFFFFF"/><text font-family="Calibri,Calibri_MSFontService,sans-serif" font-weight="700" font-size="24" transform="matrix(1 0 0 0.999874 149.191 60)">Local<tspan font-size="24" x="56.0337" y="0">CoLRev </tspan>project</text><path d="M99.5 111.486C99.5 116.456 128.378 120.485 164 120.485 199.622 120.485 228.5 116.456 228.5 111.486L228.5 165.479C228.5 170.449 199.622 174.478 164 174.478 128.378 174.478 99.5 170.449 99.5 165.479Z" fill="#FFFFFF" fill-rule="evenodd"/><path d="M99.5 111.486C99.5 106.516 128.378 102.487 164 102.487 199.622 102.487 228.5 106.516 228.5 111.486 228.5 116.456 199.622 120.485 164 120.485 128.378 120.485 99.5 116.456 99.5 111.486Z" fill="#FFFFFF" fill-rule="evenodd"/><path d="M228.5 111.486C228.5 116.456 199.622 120.485 164 120.485 128.378 120.485 99.5 116.456 99.5 111.486 99.5 106.516 128.378 102.487 164 102.487 199.622 102.487 228.5 106.516 228.5 111.486L228.5 165.479C228.5 170.449 199.622 174.478 164 174.478 128.378 174.478 99.5 170.449 99.5 165.479L99.5 111.486" stroke="#000000" stroke-width="1.3335" stroke-miterlimit="8" fill="none" fill-rule="evenodd"/><text font-family="Calibri,Calibri_MSFontService,sans-serif" font-weight="400" font-size="21" transform="matrix(1 0 0 0.999874 111.052 150)">project data</text><rect x="272.5" y="126.484" width="24" height="37.9952" stroke="#000000" stroke-width="1.3335" stroke-miterlimit="8" fill="#FFFFFF"/><rect x="293.5" y="126.484" width="23.0001" height="37.9952" stroke="#000000" stroke-width="1.3335" stroke-miterlimit="8" fill="#FFFFFF"/><rect x="313.5" y="126.484" width="24.0001" height="37.9952" stroke="#000000" stroke-width="1.3335" stroke-miterlimit="8" fill="#FFFFFF"/><rect x="334.5" y="126.484" width="23.0001" height="37.9952" stroke="#000000" stroke-width="1.3335" stroke-miterlimit="8" fill="#FFFFFF"/><rect x="354.5" y="126.484" width="24" height="37.9952" stroke="#000000" stroke-width="1.3335" stroke-miterlimit="8" fill="#FFFFFF"/><rect x="375.5" y="126.484" width="24" height="37.9952" stroke="#000000" stroke-width="1.3335" stroke-miterlimit="8" fill="#FFFFFF"/><rect x="396.5" y="126.484" width="23" height="37.9952" stroke="#000000" stroke-width="1.3335" stroke-miterlimit="8" fill="#FFFFFF"/><text font-family="Calibri,Calibri_MSFontService,sans-serif" font-weight="400" font-size="21" transform="matrix(1 0 0 0.999874 295.879 117)">record data</text><rect x="48.5" y="320.46" width="406" height="179.977" stroke="#000000" stroke-width="2.667" stroke-miterlimit="8" fill="#FFFFFF"/><text font-family="Calibri,Calibri_MSFontService,sans-serif" font-weight="700" font-size="24" transform="matrix(1 0 0 0.999874 139.92 346)">Shared<tspan font-size="24" x="74.5761" y="0">CoLRev </tspan><tspan font-size="24" x="152.112" y="0">project</tspan></text><path d="M99.5 398.45C99.5 403.42 128.378 407.449 164 407.449 199.622 407.449 228.5 403.42 228.5 398.45L228.5 452.443C228.5 457.413 199.622 461.442 164 461.442 128.378 461.442 99.5 457.413 99.5 452.443Z" fill="#FFFFFF" fill-rule="evenodd"/><path d="M99.5 398.45C99.5 393.48 128.378 389.451 164 389.451 199.622 389.451 228.5 393.48 228.5 398.45 228.5 403.42 199.622 407.449 164 407.449 128.378 407.449 99.5 403.42 99.5 398.45Z" fill="#FFFFFF" fill-rule="evenodd"/><path d="M228.5 398.45C228.5 403.42 199.622 407.449 164 407.449 128.378 407.449 99.5 403.42 99.5 398.45 99.5 393.48 128.378 389.451 164 389.451 199.622 389.451 228.5 393.48 228.5 398.45L228.5 452.443C228.5 457.413 199.622 461.442 164 461.442 128.378 461.442 99.5 457.413 99.5 452.443L99.5 398.45" stroke="#000000" stroke-width="1.3335" stroke-miterlimit="8" fill="none" fill-rule="evenodd"/><text font-family="Calibri,Calibri_MSFontService,sans-serif" font-weight="400" font-size="21" transform="matrix(1 0 0 0.999874 111.052 436)">project data</text><rect x="272.5" y="413.448" width="24" height="37.9953" stroke="#000000" stroke-width="1.3335" stroke-miterlimit="8" fill="#FFFFFF"/><rect x="293.5" y="413.448" width="23.0001" height="37.9953" stroke="#000000" stroke-width="1.3335" stroke-miterlimit="8" fill="#FFFFFF"/><rect x="313.5" y="413.448" width="24.0001" height="37.9953" stroke="#000000" stroke-width="1.3335" stroke-miterlimit="8" fill="#FFFFFF"/><rect x="334.5" y="413.448" width="23.0001" height="37.9953" stroke="#000000" stroke-width="1.3335" stroke-miterlimit="8" fill="#FFFFFF"/><rect x="354.5" y="413.448" width="24" height="37.9953" stroke="#000000" stroke-width="1.3335" stroke-miterlimit="8" fill="#FFFFFF"/><rect x="375.5" y="413.448" width="24" height="37.9953" stroke="#000000" stroke-width="1.3335" stroke-miterlimit="8" fill="#FFFFFF"/><rect x="396.5" y="413.448" width="23" height="37.9953" stroke="#000000" stroke-width="1.3335" stroke-miterlimit="8" fill="#FFFFFF"/><text font-family="Calibri,Calibri_MSFontService,sans-serif" font-weight="400" font-size="21" transform="matrix(1 0 0 0.999874 295.879 403)">record data</text><path d="M599.616 248.866 594.041 248.862 582.878 247.739 571.3 245.832 559.401 243.088 547.184 239.602 534.68 235.325 521.905 230.264 508.896 224.549 495.774 218.127 482.458 211.004 469.038 203.18 455.555 194.781 442.042 185.669 428.602 175.936 415.235 165.592 418.907 160.847 432.237 171.162 432.161 171.105 445.521 180.78 445.439 180.722 458.865 189.776 458.774 189.717 472.174 198.064 472.099 198.019 485.433 205.793 485.337 205.739 498.557 212.811 498.461 212.762 511.478 219.133 511.366 219.081 524.269 224.749 524.167 224.706 536.824 229.72 536.69 229.671 549.053 233.9 548.905 233.854 560.974 237.297 560.824 237.259 572.556 239.964 572.37 239.927 583.761 241.804 583.573 241.779 594.493 242.878 594.195 242.863 599.62 242.866ZM596.314 230.93 614.617 245.562 596.923 260.924Z"/><text font-family="Calibri,Calibri_MSFontService,sans-serif" font-weight="400" font-size="21" transform="matrix(1 0 0 0.999874 98.5383 276)">colrev pull<tspan font-size="21" x="177.491" y="0">colrev push</tspan></text><text font-family="Calibri,Calibri_MSFontService,sans-serif" font-weight="400" font-size="21" transform="matrix(0.903183 0.429148 -0.42931 0.903069 499.963 132)">colrev pull</text><text font-family="Calibri,Calibri_MSFontService,sans-serif" font-weight="400" font-size="21" transform="matrix(0.919276 0.393515 -0.393663 0.91916 464.87 230)">colrev push</text><path d="M253 212.973 253 304.431 247 304.431 247 212.973ZM259.001 301.431 250 319.431 240.999 301.431Z"/><path d="M3-2.95854e-06 3.00009 91.4583-2.99991 91.4583-3 2.95854e-06ZM9.00009 88.4583 0.000104987 106.458-8.99991 88.4583Z" transform="matrix(1.00013 0 0 -1 212 319.431)"/><path d="M608.5 292.463C608.5 159.379 750.426 51.4935 925.5 51.4935 1100.57 51.4935 1242.5 159.379 1242.5 292.463 1242.5 425.547 1100.57 533.433 925.5 533.433 750.426 533.433 608.5 425.547 608.5 292.463Z" stroke="#000000" stroke-width="1.3335" stroke-miterlimit="8" stroke-dasharray="5.33401 4.0005" fill="none" fill-rule="evenodd"/><rect x="677.5" y="159.48" width="237" height="126.984" stroke="#000000" stroke-width="2.667" stroke-miterlimit="8" fill="#FFFFFF"/><rect x="728.5" y="197.475" width="23.0001" height="37.9952" stroke="#000000" stroke-width="1.3335" stroke-miterlimit="8" fill="#FFFFFF"/><rect x="749.5" y="197.475" width="23.0001" height="37.9952" stroke="#000000" stroke-width="1.3335" stroke-miterlimit="8" fill="#FFFFFF"/><rect x="769.5" y="197.475" width="24" height="37.9952" stroke="#000000" stroke-width="1.3335" stroke-miterlimit="8" fill="#FFFFFF"/><rect x="790.5" y="197.475" width="22.9999" height="37.9952" stroke="#000000" stroke-width="1.3335" stroke-miterlimit="8" fill="#FFFFFF"/><rect x="810.5" y="197.475" width="24" height="37.9952" stroke="#000000" stroke-width="1.3335" stroke-miterlimit="8" fill="#FFFFFF"/><rect x="831.5" y="197.475" width="22.9999" height="37.9952" stroke="#000000" stroke-width="1.3335" stroke-miterlimit="8" fill="#FFFFFF"/><rect x="852.5" y="197.475" width="22.9999" height="37.9952" stroke="#000000" stroke-width="1.3335" stroke-miterlimit="8" fill="#FFFFFF"/><text font-family="Calibri,Calibri_MSFontService,sans-serif" font-weight="400" font-size="21" transform="matrix(1 0 0 0.999874 751.765 188)">record data</text><rect x="728.5" y="236.47" width="23.0001" height="36.9953" stroke="#000000" stroke-width="1.3335" stroke-miterlimit="8" fill="#FFFFFF"/><rect x="749.5" y="236.47" width="23.0001" height="36.9953" stroke="#000000" stroke-width="1.3335" stroke-miterlimit="8" fill="#FFFFFF"/><rect x="769.5" y="236.47" width="24" height="36.9953" stroke="#000000" stroke-width="1.3335" stroke-miterlimit="8" fill="#FFFFFF"/><rect x="790.5" y="236.47" width="22.9999" height="36.9953" stroke="#000000" stroke-width="1.3335" stroke-miterlimit="8" fill="#FFFFFF"/><rect x="810.5" y="236.47" width="24" height="36.9953" stroke="#000000" stroke-width="1.3335" stroke-miterlimit="8" fill="#FFFFFF"/><rect x="831.5" y="236.47" width="22.9999" height="36.9953" stroke="#000000" stroke-width="1.3335" stroke-miterlimit="8" fill="#FFFFFF"/><rect x="852.5" y="236.47" width="22.9999" height="36.9953" stroke="#000000" stroke-width="1.3335" stroke-miterlimit="8" fill="#FFFFFF"/><path d="M435.704 131.798 441.375 131.963 452.624 133.346 464.198 135.609 476.117 138.66 488.348 142.455 500.91 146.999 513.701 152.376 526.718 158.408 539.885 165.19 553.194 172.629 566.564 180.732 580.037 189.539 593.48 198.923 606.941 209.015 620.237 219.594 616.501 224.289 603.238 213.737 603.306 213.79 589.921 203.754 590.004 203.813 576.639 194.484 576.715 194.536 563.324 185.782 563.41 185.837 550.128 177.787 550.219 177.84 537.001 170.452 537.091 170.5 524.025 163.771 524.138 163.826 511.227 157.843 511.325 157.886 498.655 152.56 498.797 152.615 486.372 148.121 486.503 148.165 474.41 144.413 474.555 144.454 462.794 141.443 462.962 141.481 451.577 139.255 451.787 139.289 440.781 137.935 441.06 137.956 435.529 137.796ZM438.499 149.82 420.615 134.679 438.735 119.821Z"/><text font-family="Calibri,Calibri_MSFontService,sans-serif" font-weight="700" font-size="27" transform="matrix(1 0 0 0.999874 812.377 140)">Curated CoLRev data</text><rect x="929.5" y="159.48" width="238" height="126.984" stroke="#000000" stroke-width="2.667" stroke-miterlimit="8" fill="#FFFFFF"/><rect x="981.5" y="197.475" width="22.9999" height="37.9952" stroke="#000000" stroke-width="1.3335" stroke-miterlimit="8" fill="#FFFFFF"/><rect x="1001.5" y="197.475" width="24" height="37.9952" stroke="#000000" stroke-width="1.3335" stroke-miterlimit="8" fill="#FFFFFF"/><rect x="1022.5" y="197.475" width="22.9999" height="37.9952" stroke="#000000" stroke-width="1.3335" stroke-miterlimit="8" fill="#FFFFFF"/><rect x="1042.5" y="197.475" width="24" height="37.9952" stroke="#000000" stroke-width="1.3335" stroke-miterlimit="8" fill="#FFFFFF"/><rect x="1063.5" y="197.475" width="23.0001" height="37.9952" stroke="#000000" stroke-width="1.3335" stroke-miterlimit="8" fill="#FFFFFF"/><rect x="1083.5" y="197.475" width="24.0001" height="37.9952" stroke="#000000" stroke-width="1.3335" stroke-miterlimit="8" fill="#FFFFFF"/><rect x="1104.5" y="197.475" width="24" height="37.9952" stroke="#000000" stroke-width="1.3335" stroke-miterlimit="8" fill="#FFFFFF"/><text font-family="Calibri,Calibri_MSFontService,sans-serif" font-weight="400" font-size="21" transform="matrix(1 0 0 0.999874 1004.27 188)">record data</text><rect x="981.5" y="236.47" width="22.9999" height="36.9953" stroke="#000000" stroke-width="1.3335" stroke-miterlimit="8" fill="#FFFFFF"/><rect x="1001.5" y="236.47" width="24" height="36.9953" stroke="#000000" stroke-width="1.3335" stroke-miterlimit="8" fill="#FFFFFF"/><rect x="1022.5" y="236.47" width="22.9999" height="36.9953" stroke="#000000" stroke-width="1.3335" stroke-miterlimit="8" fill="#FFFFFF"/><rect x="1042.5" y="236.47" width="24" height="36.9953" stroke="#000000" stroke-width="1.3335" stroke-miterlimit="8" fill="#FFFFFF"/><rect x="1063.5" y="236.47" width="23.0001" height="36.9953" stroke="#000000" stroke-width="1.3335" stroke-miterlimit="8" fill="#FFFFFF"/><rect x="1083.5" y="236.47" width="24.0001" height="36.9953" stroke="#000000" stroke-width="1.3335" stroke-miterlimit="8" fill="#FFFFFF"/><rect x="1104.5" y="236.47" width="24" height="36.9953" stroke="#000000" stroke-width="1.3335" stroke-miterlimit="8" fill="#FFFFFF"/><rect x="676.5" y="297.463" width="238" height="126.984" stroke="#000000" stroke-width="2.667" stroke-miterlimit="8" fill="#FFFFFF"/><rect x="727.5" y="336.458" width="24" height="36.9953" stroke="#000000" stroke-width="1.3335" stroke-miterlimit="8" fill="#FFFFFF"/><rect x="748.5" y="336.458" width="24.0001" height="36.9953" stroke="#000000" stroke-width="1.3335" stroke-miterlimit="8" fill="#FFFFFF"/><rect x="769.5" y="336.458" width="23.0001" height="36.9953" stroke="#000000" stroke-width="1.3335" stroke-miterlimit="8" fill="#FFFFFF"/><rect x="789.5" y="336.458" width="24" height="36.9953" stroke="#000000" stroke-width="1.3335" stroke-miterlimit="8" fill="#FFFFFF"/><rect x="810.5" y="336.458" width="22.9999" height="36.9953" stroke="#000000" stroke-width="1.3335" stroke-miterlimit="8" fill="#FFFFFF"/><rect x="830.5" y="336.458" width="24" height="36.9953" stroke="#000000" stroke-width="1.3335" stroke-miterlimit="8" fill="#FFFFFF"/><rect x="851.5" y="336.458" width="22.9999" height="36.9953" stroke="#000000" stroke-width="1.3335" stroke-miterlimit="8" fill="#FFFFFF"/><text font-family="Calibri,Calibri_MSFontService,sans-serif" font-weight="400" font-size="21" transform="matrix(1 0 0 0.999874 751.242 326)">record data</text><rect x="727.5" y="374.453" width="24" height="37.9953" stroke="#000000" stroke-width="1.3335" stroke-miterlimit="8" fill="#FFFFFF"/><rect x="748.5" y="374.453" width="24.0001" height="37.9953" stroke="#000000" stroke-width="1.3335" stroke-miterlimit="8" fill="#FFFFFF"/><rect x="769.5" y="374.453" width="23.0001" height="37.9953" stroke="#000000" stroke-width="1.3335" stroke-miterlimit="8" fill="#FFFFFF"/><rect x="789.5" y="374.453" width="24" height="37.9953" stroke="#000000" stroke-width="1.3335" stroke-miterlimit="8" fill="#FFFFFF"/><rect x="810.5" y="374.453" width="22.9999" height="37.9953" stroke="#000000" stroke-width="1.3335" stroke-miterlimit="8" fill="#FFFFFF"/><rect x="830.5" y="374.453" width="24" height="37.9953" stroke="#000000" stroke-width="1.3335" stroke-miterlimit="8" fill="#FFFFFF"/><rect x="851.5" y="374.453" width="22.9999" height="37.9953" stroke="#000000" stroke-width="1.3335" stroke-miterlimit="8" fill="#FFFFFF"/><rect x="929.5" y="297.463" width="237" height="126.984" stroke="#000000" stroke-width="2.667" stroke-miterlimit="8" fill="#FFFFFF"/><rect x="980.5" y="336.458" width="24" height="36.9953" stroke="#000000" stroke-width="1.3335" stroke-miterlimit="8" fill="#FFFFFF"/><rect x="1001.5" y="336.458" width="23" height="36.9953" stroke="#000000" stroke-width="1.3335" stroke-miterlimit="8" fill="#FFFFFF"/><rect x="1021.5" y="336.458" width="24" height="36.9953" stroke="#000000" stroke-width="1.3335" stroke-miterlimit="8" fill="#FFFFFF"/><rect x="1042.5" y="336.458" width="23" height="36.9953" stroke="#000000" stroke-width="1.3335" stroke-miterlimit="8" fill="#FFFFFF"/><rect x="1062.5" y="336.458" width="24" height="36.9953" stroke="#000000" stroke-width="1.3335" stroke-miterlimit="8" fill="#FFFFFF"/><rect x="1083.5" y="336.458" width="24.0001" height="36.9953" stroke="#000000" stroke-width="1.3335" stroke-miterlimit="8" fill="#FFFFFF"/><rect x="1104.5" y="336.458" width="23.0001" height="36.9953" stroke="#000000" stroke-width="1.3335" stroke-miterlimit="8" fill="#FFFFFF"/><text font-family="Calibri,Calibri_MSFontService,sans-serif" font-weight="400" font-size="21" transform="matrix(1 0 0 0.999874 1003.86 326)">record data</text><rect x="980.5" y="374.453" width="24" height="37.9953" stroke="#000000" stroke-width="1.3335" stroke-miterlimit="8" fill="#FFFFFF"/><rect x="1001.5" y="374.453" width="23" height="37.9953" stroke="#000000" stroke-width="1.3335" stroke-miterlimit="8" fill="#FFFFFF"/><rect x="1021.5" y="374.453" width="24" height="37.9953" stroke="#000000" stroke-width="1.3335" stroke-miterlimit="8" fill="#FFFFFF"/><rect x="1042.5" y="374.453" width="23" height="37.9953" stroke="#000000" stroke-width="1.3335" stroke-miterlimit="8" fill="#FFFFFF"/><rect x="1062.5" y="374.453" width="24" height="37.9953" stroke="#000000" stroke-width="1.3335" stroke-miterlimit="8" fill="#FFFFFF"/><rect x="1083.5" y="374.453" width="24.0001" height="37.9953" stroke="#000000" stroke-width="1.3335" stroke-miterlimit="8" fill="#FFFFFF"/><rect x="1104.5" y="374.453" width="23.0001" height="37.9953" stroke="#000000" stroke-width="1.3335" stroke-miterlimit="8" fill="#FFFFFF"/></g></svg>
