<svg width="1280" height="454" xmlns="http://www.w3.org/2000/svg" xmlns:xlink="http://www.w3.org/1999/xlink" overflow="hidden"><defs><clipPath id="clip0"><rect x="0" y="0" width="1280" height="454"/></clipPath></defs><g clip-path="url(#clip0)"><rect x="0" y="0" width="1280" height="454.501" fill="#FFFFFF"/><rect x="32.5001" y="242.767" width="266" height="68.075" stroke="#000000" stroke-width="2.66667" stroke-miterlimit="8" fill="#FFFFFF"/><text font-family="Calibri,Calibri_MSFontService,sans-serif" font-weight="700" font-size="24" transform="matrix(1 0 0 1.0011 50.7059 284)">Current<tspan font-size="24" x="80.68" y="0">CoLRev </tspan>project</text><path d="M321.77 253.204 333.467 246.961 346.313 240.783 359.401 235.113 372.733 229.888 386.255 225.103 399.972 220.819 413.864 217.044 427.886 213.645 442.094 210.812 456.357 208.359 470.69 206.408 485.147 204.898 499.603 203.891 514.116 203.325 528.635 203.199 543.154 203.577 557.611 204.395 572.067 205.716 586.456 207.478 600.727 209.68 614.928 212.385 629.013 215.47 642.911 219.121 656.677 223.149 670.268 227.684 683.66 232.72 696.869 238.135 709.775 244.059 722.485 250.484 734.818 257.287 746.915 264.566 743.825 269.715 731.775 262.465 731.873 262.521 719.636 255.771 719.732 255.821 707.121 249.446 707.223 249.496 694.424 243.621 694.538 243.67 681.427 238.295 681.509 238.327 668.212 233.327 668.318 233.365 654.833 228.865 654.94 228.898 641.267 224.898 641.347 224.92 627.55 221.295 627.67 221.324 613.686 218.262 613.766 218.278 599.657 215.591 599.76 215.609 585.589 213.421 585.682 213.434 571.385 211.684 571.476 211.694 557.117 210.381 557.22 210.389 542.861 209.577 542.953 209.58 528.531 209.205 528.635 209.206 514.213 209.331 514.304 209.329 499.883 209.892 499.974 209.887 485.615 210.887 485.718 210.878 471.359 212.378 471.452 212.367 457.217 214.304 457.321 214.288 443.149 216.726 443.227 216.711 429.118 219.524 429.238 219.497 415.316 222.872 415.396 222.851 401.598 226.601 401.706 226.57 388.096 230.82 388.202 230.785 374.78 235.535 374.873 235.5 361.638 240.687 361.736 240.647 348.75 246.272 348.858 246.223 336.122 252.348 336.234 252.291 324.592 258.504ZM333.138 267.48 310.1 263.203 318.456 241.289Z"/><text font-family="Calibri,Calibri_MSFontService,sans-serif" font-weight="700" font-size="24" transform="matrix(1 0 0 1.0011 448.659 39)">Reuse <tspan font-size="24" x="64.98" y="0">(built</tspan><tspan font-size="24" x="118.147" y="0">-</tspan><tspan font-size="24" x="125.48" y="0">in)</tspan><tspan font-weight="400" font-size="24" x="-130.507" y="36.9592">Examples:</tspan><tspan font-weight="400" font-size="24" x="-121.173" y="65.9273">-</tspan><tspan font-weight="400" font-size="24" x="-100.507" y="65.9273">Retrieve curated </tspan><tspan font-weight="400" font-size="24" x="65.62" y="65.9273">metadata</tspan><tspan font-weight="400" font-size="24" x="-121.173" y="94.8954">-</tspan><tspan font-weight="400" font-size="24" x="-100.507" y="94.8954">Classify </tspan><tspan font-weight="400" font-size="24" x="-22.72" y="94.8954">(non) duplicates</tspan><tspan font-weight="400" font-size="24" x="-121.173" y="123.863">-</tspan><tspan font-weight="400" font-size="24" x="-100.507" y="123.863">Link curated annotations</tspan><tspan font-weight="400" font-size="24" x="-121.173" y="151.833">-</tspan><tspan font-weight="400" font-size="24" x="-100.507" y="151.833">Retrieve PDFs</tspan><tspan font-size="24" x="-45.0071" y="368.594">U</tspan><tspan font-size="24" x="-29.3405" y="368.594">pdates </tspan>and corrections <tspan font-size="24" x="32.5462" y="397.562">(built</tspan><tspan font-size="24" x="85.7129" y="397.562">-</tspan><tspan font-size="24" x="93.0462" y="397.562">in)</tspan></text><rect x="760.5" y="137.652" width="486" height="278.306" stroke="#000000" stroke-width="2.66667" stroke-miterlimit="8" fill="none"/><text font-family="Calibri,Calibri_MSFontService,sans-serif" font-weight="700" font-size="24" transform="matrix(1 0 0 1.0011 769.486 174)">Community<tspan font-size="24" x="115.667" y="0">-</tspan><tspan font-size="24" x="123" y="0">curated data</tspan><tspan font-weight="400" font-size="24" x="9.33337" y="36.9592">-</tspan><tspan font-weight="400" font-size="24" x="30" y="36.9592">Private, shared, or </tspan><tspan font-weight="400" font-size="24" x="213.353" y="36.9592">public CoLRev </tspan><tspan font-weight="400" font-size="24" x="354.48" y="36.9592">projects</tspan><tspan font-weight="400" font-size="24" x="9.33337" y="73.9185">-</tspan><tspan font-weight="400" font-size="24" x="30" y="73.9185">Examples</tspan><tspan font-weight="400" font-size="24" x="121.733" y="73.9185">:</tspan><tspan font-weight="400" font-size="24" x="48" y="110.878">-</tspan><tspan font-weight="400" font-size="24" x="65.6667" y="110.878">Curated metadata (e.g., per journal)</tspan><tspan font-weight="400" font-size="24" x="48" y="147.837">-</tspan><tspan font-weight="400" font-size="24" x="65.6667" y="147.837">Topic annotations</tspan><tspan font-weight="400" font-size="24" x="48" y="183.797">-</tspan><tspan font-weight="400" font-size="24" x="65.6667" y="183.797">Codified </tspan><tspan font-weight="400" font-size="24" x="152.333" y="183.797">concepts and </tspan><tspan font-weight="400" font-size="24" x="287.527" y="183.797">findings</tspan><tspan font-weight="400" font-size="24" x="48" y="220.757">-</tspan><tspan font-weight="400" font-size="24" x="65.6667" y="220.757">Method classifications </tspan><tspan font-size="24" x="-301.694" y="73.9185">Foundation</tspan><tspan font-weight="400" font-size="24" x="-375.781" y="110.878">A distributed and universal </tspan><tspan font-weight="400" font-size="24" x="-349.881" y="139.846">identification scheme</tspan></text><path d="M490.692 134.612 497.71 146.895 504.315 159.475 510.482 172.313 516.146 185.401 521.365 198.733 526.145 212.256 530.424 225.972 534.195 239.864 537.591 253.886 540.42 268.094 542.87 282.357 544.819 296.69 546.328 311.147 547.333 325.603 547.899 340.116 548.024 354.635 547.647 369.154 546.83 383.611 545.51 398.067 543.751 412.456 541.551 426.727 538.849 440.928 535.767 455.013 532.12 468.911 528.097 482.677 523.567 496.268 518.537 509.66 513.128 522.869 507.21 535.775 500.787 548.494 494.393 559.916 489.157 556.985 495.521 545.619 495.46 545.732 501.828 533.121 501.779 533.223 507.648 520.424 507.599 520.538 512.968 507.427 512.935 507.509 517.93 494.212 517.892 494.318 522.387 480.833 522.354 480.94 526.349 467.267 526.327 467.347 529.948 453.55 529.919 453.67 532.978 439.686 532.962 439.766 535.646 425.657 535.629 425.76 537.814 411.589 537.801 411.682 539.549 397.385 539.539 397.476 540.85 383.117 540.843 383.22 541.654 368.861 541.65 368.953 542.025 354.531 542.024 354.635 541.899 340.213 541.901 340.304 541.34 325.883 541.345 325.974 540.346 311.615 540.355 311.718 538.856 297.359 538.867 297.452 536.932 283.217 536.948 283.321 534.513 269.149 534.528 269.227 531.718 255.118 531.745 255.238 528.373 241.316 528.394 241.396 524.648 227.598 524.679 227.706 520.434 214.096 520.469 214.202 515.725 200.78 515.76 200.873 510.578 187.638 510.618 187.736 504.999 174.75 505.048 174.858 498.93 162.122 498.978 162.217 492.423 149.731 492.474 149.825 485.482 137.588ZM506.219 563.488 484.154 571.37 480.379 548.245Z" transform="matrix(6.12323e-17 1.0011 1 -6.12999e-17 174 -194.214)"/></g></svg>
