<svg width="1323" height="567" xmlns="http://www.w3.org/2000/svg" xmlns:xlink="http://www.w3.org/1999/xlink" overflow="hidden"><defs><clipPath id="clip0"><rect x="0" y="0" width="1323" height="567"/></clipPath></defs><g clip-path="url(#clip0)"><rect x="0" y="0" width="1323" height="566.929" fill="#FFFFFF"/><rect x="440.5" y="18.4976" width="406" height="180.977" stroke="#000000" stroke-width="2.667" stroke-miterlimit="8" fill="#FFFFFF"/><text font-family="Calibri,Calibri_MSFontService,sans-serif" font-weight="700" font-size="24" transform="matrix(1 0 0 0.999874 540.666 45)">Local<tspan font-size="24" x="56.0337" y="0">CoLRev </tspan><tspan font-size="24" x="133.57" y="0">project</tspan></text><path d="M197.544 43.4469 207.304 57.943 215.494 73.1794 222.645 89.506 228.899 106.879 234.138 125.059 238.365 143.983 241.515 163.455 243.721 183.301 244.792 203.528 244.792 223.872 243.721 244.282 241.515 264.574 238.174 284.623 233.632 304.241 227.966 323.252 222.216 321.538 227.855 302.617 227.807 302.797 232.307 283.361 232.27 283.545 235.583 263.671 235.559 263.84 237.747 243.717 237.733 243.884 238.796 223.636 238.791 223.793 238.791 203.607 238.796 203.766 237.733 183.705 237.747 183.878 235.56 164.192 235.58 164.34 232.456 145.029 232.489 145.204 228.302 126.456 228.347 126.632 223.16 108.634 223.22 108.819 217.033 91.6334 217.108 91.8208 210.046 75.6972 210.152 75.9139 202.09 60.9152 202.244 61.1705 192.566 46.7981ZM185.1 56.7381 185.801 33.3169 208.712 38.2291Z" transform="matrix(0.827752 0.561177 0.561248 -0.827648 268.601 337.885)"/><path d="M490.5 97.3626C490.5 102.264 519.602 106.236 555.5 106.236 591.398 106.236 620.5 102.264 620.5 97.3626L620.5 150.606C620.5 155.507 591.398 159.48 555.5 159.48 519.602 159.48 490.5 155.507 490.5 150.606Z" fill="#FFFFFF" fill-rule="evenodd"/><path d="M490.5 97.3626C490.5 92.4618 519.602 88.4888 555.5 88.4888 591.398 88.4888 620.5 92.4618 620.5 97.3626 620.5 102.264 591.398 106.236 555.5 106.236 519.602 106.236 490.5 102.264 490.5 97.3626Z" fill="#FFFFFF" fill-rule="evenodd"/><path d="M620.5 97.3626C620.5 102.264 591.398 106.236 555.5 106.236 519.602 106.236 490.5 102.264 490.5 97.3626 490.5 92.4618 519.602 88.4888 555.5 88.4888 591.398 88.4888 620.5 92.4618 620.5 97.3626L620.5 150.606C620.5 155.507 591.398 159.48 555.5 159.48 519.602 159.48 490.5 155.507 490.5 150.606L490.5 97.3626" stroke="#000000" stroke-width="1.3335" stroke-miterlimit="8" fill="none" fill-rule="evenodd"/><text font-family="Calibri,Calibri_MSFontService,sans-serif" font-weight="400" font-size="21" transform="matrix(1 0 0 0.999874 502.526 135)">project data</text><rect x="664.5" y="112.486" width="23.0001" height="36.9953" stroke="#000000" stroke-width="1.3335" stroke-miterlimit="8" fill="#FFFFFF"/><rect x="684.5" y="112.486" width="24" height="36.9953" stroke="#000000" stroke-width="1.3335" stroke-miterlimit="8" fill="#FFFFFF"/><rect x="705.5" y="112.486" width="22.9999" height="36.9953" stroke="#000000" stroke-width="1.3335" stroke-miterlimit="8" fill="#FFFFFF"/><rect x="725.5" y="112.486" width="24" height="36.9953" stroke="#000000" stroke-width="1.3335" stroke-miterlimit="8" fill="#FFFFFF"/><rect x="746.5" y="112.486" width="22.9999" height="36.9953" stroke="#000000" stroke-width="1.3335" stroke-miterlimit="8" fill="#FFFFFF"/><rect x="767.5" y="112.486" width="22.9999" height="36.9953" stroke="#000000" stroke-width="1.3335" stroke-miterlimit="8" fill="#FFFFFF"/><rect x="787.5" y="112.486" width="24" height="36.9953" stroke="#000000" stroke-width="1.3335" stroke-miterlimit="8" fill="#FFFFFF"/><text font-family="Calibri,Calibri_MSFontService,sans-serif" font-weight="400" font-size="21" transform="matrix(1 0 0 0.999874 687.353 102)">record data</text><rect x="33.5" y="361.454" width="407" height="179.977" stroke="#000000" stroke-width="2.667" stroke-miterlimit="8" fill="#FFFFFF"/><text font-family="Calibri,Calibri_MSFontService,sans-serif" font-weight="700" font-size="24" transform="matrix(1 0 0 0.999874 125.127 387)">Shared<tspan font-size="24" x="74.576" y="0">CoLRev </tspan><tspan font-size="24" x="152.113" y="0">project</tspan></text><path d="M84.5 439.32C84.5 444.221 113.378 448.193 149 448.193 184.622 448.193 213.5 444.221 213.5 439.32L213.5 492.563C213.5 497.464 184.622 501.437 149 501.437 113.378 501.437 84.5 497.464 84.5 492.563Z" fill="#FFFFFF" fill-rule="evenodd"/><path d="M84.5 439.32C84.5 434.419 113.378 430.446 149 430.446 184.622 430.446 213.5 434.419 213.5 439.32 213.5 444.221 184.622 448.193 149 448.193 113.378 448.193 84.5 444.221 84.5 439.32Z" fill="#FFFFFF" fill-rule="evenodd"/><path d="M213.5 439.32C213.5 444.221 184.622 448.193 149 448.193 113.378 448.193 84.5 444.221 84.5 439.32 84.5 434.419 113.378 430.446 149 430.446 184.622 430.446 213.5 434.419 213.5 439.32L213.5 492.563C213.5 497.464 184.622 501.437 149 501.437 113.378 501.437 84.5 497.464 84.5 492.563L84.5 439.32" stroke="#000000" stroke-width="1.3335" stroke-miterlimit="8" fill="none" fill-rule="evenodd"/><text font-family="Calibri,Calibri_MSFontService,sans-serif" font-weight="400" font-size="21" transform="matrix(1 0 0 0.999874 96.2582 477)">project data</text><rect x="257.5" y="454.443" width="24" height="36.9954" stroke="#000000" stroke-width="1.3335" stroke-miterlimit="8" fill="#FFFFFF"/><rect x="278.5" y="454.443" width="23.0001" height="36.9954" stroke="#000000" stroke-width="1.3335" stroke-miterlimit="8" fill="#FFFFFF"/><rect x="298.5" y="454.443" width="24.0001" height="36.9954" stroke="#000000" stroke-width="1.3335" stroke-miterlimit="8" fill="#FFFFFF"/><rect x="319.5" y="454.443" width="24" height="36.9954" stroke="#000000" stroke-width="1.3335" stroke-miterlimit="8" fill="#FFFFFF"/><rect x="340.5" y="454.443" width="23" height="36.9954" stroke="#000000" stroke-width="1.3335" stroke-miterlimit="8" fill="#FFFFFF"/><rect x="360.5" y="454.443" width="24" height="36.9954" stroke="#000000" stroke-width="1.3335" stroke-miterlimit="8" fill="#FFFFFF"/><rect x="381.5" y="454.443" width="23" height="36.9954" stroke="#000000" stroke-width="1.3335" stroke-miterlimit="8" fill="#FFFFFF"/><text font-family="Calibri,Calibri_MSFontService,sans-serif" font-weight="400" font-size="21" transform="matrix(1 0 0 0.999874 281.085 444)">record data</text><rect x="872.5" y="348.456" width="406" height="179.977" stroke="#000000" stroke-width="2.667" stroke-miterlimit="8" fill="#FFFFFF"/><rect x="854.5" y="359.455" width="406" height="180.977" stroke="#000000" stroke-width="2.667" stroke-miterlimit="8" fill="#FFFFFF"/><rect x="837.5" y="371.453" width="406" height="179.977" stroke="#000000" stroke-width="2.667" stroke-miterlimit="8" fill="#FFFFFF"/><text font-family="Calibri,Calibri_MSFontService,sans-serif" font-weight="700" font-size="24" transform="matrix(1 0 0 0.999874 937.084 398)">Curated CoLRev data</text><rect x="978.5" y="444.444" width="23.0001" height="36.9954" stroke="#000000" stroke-width="1.3335" stroke-miterlimit="8" fill="#FFFFFF"/><rect x="998.5" y="444.444" width="24.0001" height="36.9954" stroke="#000000" stroke-width="1.3335" stroke-miterlimit="8" fill="#FFFFFF"/><rect x="1019.5" y="444.444" width="23.0001" height="36.9954" stroke="#000000" stroke-width="1.3335" stroke-miterlimit="8" fill="#FFFFFF"/><rect x="1039.5" y="444.444" width="24" height="36.9954" stroke="#000000" stroke-width="1.3335" stroke-miterlimit="8" fill="#FFFFFF"/><rect x="1060.5" y="444.444" width="24" height="36.9954" stroke="#000000" stroke-width="1.3335" stroke-miterlimit="8" fill="#FFFFFF"/><rect x="1081.5" y="444.444" width="23" height="36.9954" stroke="#000000" stroke-width="1.3335" stroke-miterlimit="8" fill="#FFFFFF"/><rect x="1101.5" y="444.444" width="24" height="36.9954" stroke="#000000" stroke-width="1.3335" stroke-miterlimit="8" fill="#FFFFFF"/><text font-family="Calibri,Calibri_MSFontService,sans-serif" font-weight="400" font-size="21" transform="matrix(1 0 0 0.999874 1001.48 434)">record data</text><path d="M201.982 49.5206 209.471 61.7057 216.254 74.8283 222.329 88.7483 227.699 103.344 232.371 118.557 236.345 134.328 239.561 150.474 242.02 167.052 243.72 183.933 244.728 201.003 244.917 218.201 244.35 235.462 242.964 252.666 240.757 269.754 237.327 288.365 231.426 287.277 234.842 268.745 234.817 268.905 237.004 251.969 236.989 252.112 238.364 235.051 238.356 235.194 238.918 218.07 238.917 218.202 238.729 201.141 238.734 201.284 237.734 184.348 237.744 184.472 236.057 167.724 236.074 167.863 233.637 151.427 233.662 151.573 230.475 135.574 230.508 135.721 226.571 120.098 226.612 120.245 221.988 105.184 222.04 105.34 216.728 90.9033 216.794 91.0671 210.794 77.3183 210.879 77.496 204.192 64.5597 204.301 64.753 196.87 52.6626ZM243.822 286.934 230.984 302.433 226.287 282.864Z" transform="matrix(0.827752 0.561177 0.561248 -0.827648 243.472 320.239)"/><path d="M963.564 493.069 954.869 491.032 946.534 488.326 938.177 485.073 929.808 481.322 921.276 477.087 912.743 472.397 904.092 467.187 895.452 461.531 886.764 455.461 878.09 448.974 860.839 434.747 843.7 419.002 826.839 401.868 810.411 383.466 794.519 363.949 779.281 343.383 764.824 321.839 751.266 299.607 738.71 276.612 727.339 253.129 721.739 240.272 716.578 227.503 712.011 214.94 707.828 202.489 704.234 190.223 701.183 178.195 698.674 166.395 696.747 154.952 702.665 153.956 704.581 165.335 704.557 165.21 707.04 176.89 707.014 176.776 710.037 188.695 710.008 188.589 713.57 200.746 713.535 200.634 717.688 212.994 717.664 212.925 722.199 225.404 722.161 225.304 727.287 237.986 727.257 237.912 732.817 250.678 732.767 250.568 744.079 273.931 744.012 273.801 756.499 296.669 756.427 296.545 769.913 318.659 769.843 318.55 784.226 339.982 784.145 339.868 799.3 360.323 799.216 360.214 815.021 379.625 814.933 379.521 831.267 397.818 831.167 397.711 847.925 414.74 847.816 414.635 864.84 430.274 864.719 430.169 881.853 444.3 881.741 444.211 890.32 450.627 890.241 450.57 898.852 456.586 898.777 456.536 907.332 462.136 907.237 462.076 915.788 467.227 915.686 467.168 924.112 471.799 924.001 471.741 932.424 475.921 932.317 475.871 940.563 479.568 940.424 479.509 948.631 482.704 948.469 482.646 956.602 485.286 956.36 485.219 964.933 487.227ZM963.872 474.855 979.027 492.727 958.713 504.408Z"/><path d="M981.101 479.321 972.91 477.204 964.531 474.496 956.039 471.264 947.49 467.477 938.865 463.223 930.203 458.461 921.522 453.202 912.775 447.516 895.375 434.88 878.038 420.535 860.863 404.737 844.055 387.569 827.662 369.219 811.857 349.719 796.694 329.262 782.324 307.959 768.905 285.932 756.545 263.337 745.31 240.274 735.362 216.868 729.418 200.807 724.294 184.941 720.088 169.187 725.886 167.639 730.072 183.318 730.028 183.17 735.109 198.903 735.068 198.784 740.965 214.719 740.913 214.586 750.802 237.856 750.739 237.716 761.908 260.646 761.843 260.52 774.136 282.991 774.067 282.87 787.413 304.778 787.338 304.661 801.632 325.851 801.555 325.743 816.639 346.095 816.56 345.992 832.279 365.386 832.185 365.276 848.484 383.521 848.391 383.421 865.096 400.484 864.984 400.375 882.043 416.066 881.924 415.963 899.128 430.197 898.979 430.081 916.238 442.616 916.11 442.528 924.752 448.145 924.672 448.095 933.259 453.297 933.15 453.234 941.698 457.933 941.58 457.872 950.089 462.069 949.977 462.016 958.397 465.746 958.248 465.685 966.594 468.861 966.45 468.81 974.67 471.467 974.498 471.417 982.602 473.512ZM714.906 173.385 719.568 153.808 732.435 169.283Z"/><text font-family="Calibri,Calibri_MSFontService,sans-serif" font-weight="400" font-size="21" transform="matrix(0.821383 -0.570233 0.570449 0.82128 472.063 336)">colrev pull<tspan font-size="21" x="0.623371" y="86.8833">colrev push</tspan></text><text font-family="Calibri,Calibri_MSFontService,sans-serif" font-weight="400" font-size="21" transform="matrix(0.665376 0.746321 -0.746603 0.665292 785.487 254)">colrev pull<tspan font-size="21" x="11.5555" y="107.285">colrev push</tspan></text><rect x="978.5" y="482.439" width="23.0001" height="37.9952" stroke="#000000" stroke-width="1.3335" stroke-miterlimit="8" fill="#FFFFFF"/><rect x="998.5" y="482.439" width="24.0001" height="37.9952" stroke="#000000" stroke-width="1.3335" stroke-miterlimit="8" fill="#FFFFFF"/><rect x="1019.5" y="482.439" width="23.0001" height="37.9952" stroke="#000000" stroke-width="1.3335" stroke-miterlimit="8" fill="#FFFFFF"/><rect x="1039.5" y="482.439" width="24" height="37.9952" stroke="#000000" stroke-width="1.3335" stroke-miterlimit="8" fill="#FFFFFF"/><rect x="1060.5" y="482.439" width="24" height="37.9952" stroke="#000000" stroke-width="1.3335" stroke-miterlimit="8" fill="#FFFFFF"/><rect x="1081.5" y="482.439" width="23" height="37.9952" stroke="#000000" stroke-width="1.3335" stroke-miterlimit="8" fill="#FFFFFF"/><rect x="1101.5" y="482.439" width="24" height="37.9952" stroke="#000000" stroke-width="1.3335" stroke-miterlimit="8" fill="#FFFFFF"/></g></svg>
