<svg width="1323" height="680" xmlns="http://www.w3.org/2000/svg" xmlns:xlink="http://www.w3.org/1999/xlink" overflow="hidden"><defs><clipPath id="clip0"><rect x="0" y="0" width="1323" height="680"/></clipPath><clipPath id="clip1"><rect x="226" y="9" width="66" height="67"/></clipPath><clipPath id="clip2"><rect x="226" y="9" width="66" height="67"/></clipPath><clipPath id="clip3"><rect x="226" y="9" width="66" height="67"/></clipPath><clipPath id="clip4"><rect x="226" y="563" width="67" height="67"/></clipPath><clipPath id="clip5"><rect x="226" y="563" width="67" height="67"/></clipPath><clipPath id="clip6"><rect x="226" y="563" width="67" height="67"/></clipPath><clipPath id="clip7"><rect x="1068" y="537" width="97" height="97"/></clipPath><clipPath id="clip8"><rect x="1068" y="537" width="97" height="97"/></clipPath><clipPath id="clip9"><rect x="1068" y="537" width="97" height="97"/></clipPath><clipPath id="clip10"><rect x="284" y="563" width="68" height="67"/></clipPath><clipPath id="clip11"><rect x="284" y="563" width="68" height="67"/></clipPath><clipPath id="clip12"><rect x="284" y="563" width="68" height="67"/></clipPath><clipPath id="clip13"><rect x="169" y="564" width="68" height="67"/></clipPath><clipPath id="clip14"><rect x="169" y="564" width="68" height="67"/></clipPath><clipPath id="clip15"><rect x="169" y="564" width="68" height="67"/></clipPath></defs><g clip-path="url(#clip0)"><rect x="0" y="0" width="1323" height="679.581" fill="#FFFFFF"/><rect x="55.5" y="137.415" width="407" height="153.905" stroke="#000000" stroke-width="2.667" stroke-miterlimit="8" fill="#FFFFFF"/><text font-family="Calibri,Calibri_MSFontService,sans-serif" font-weight="700" font-size="24" transform="matrix(1 0 0 0.999384 156.614 164)">Local<tspan font-size="24" x="56.0337" y="0">CoLRev </tspan>project</text><path d="M106.5 202.375C106.5 207.343 135.602 211.37 171.5 211.37 207.399 211.37 236.5 207.343 236.5 202.375L236.5 256.342C236.5 261.31 207.399 265.336 171.5 265.336 135.602 265.336 106.5 261.31 106.5 256.342Z" fill="#FFFFFF" fill-rule="evenodd"/><path d="M106.5 202.375C106.5 197.408 135.602 193.381 171.5 193.381 207.399 193.381 236.5 197.408 236.5 202.375 236.5 207.343 207.399 211.37 171.5 211.37 135.602 211.37 106.5 207.343 106.5 202.375Z" fill="#FFFFFF" fill-rule="evenodd"/><path d="M236.5 202.375C236.5 207.343 207.399 211.37 171.5 211.37 135.602 211.37 106.5 207.343 106.5 202.375 106.5 197.408 135.602 193.381 171.5 193.381 207.399 193.381 236.5 197.408 236.5 202.375L236.5 256.342C236.5 261.31 207.399 265.336 171.5 265.336 135.602 265.336 106.5 261.31 106.5 256.342L106.5 202.375" stroke="#000000" stroke-width="1.3335" stroke-miterlimit="8" fill="none" fill-rule="evenodd"/><text font-family="Calibri,Calibri_MSFontService,sans-serif" font-weight="400" font-size="21" transform="matrix(1 0 0 0.999384 118.475 240)">project data</text><rect x="280.5" y="217.366" width="23" height="37.9765" stroke="#000000" stroke-width="1.3335" stroke-miterlimit="8" fill="#FFFFFF"/><rect x="300.5" y="217.366" width="24" height="37.9765" stroke="#000000" stroke-width="1.3335" stroke-miterlimit="8" fill="#FFFFFF"/><rect x="321.5" y="217.366" width="23" height="37.9765" stroke="#000000" stroke-width="1.3335" stroke-miterlimit="8" fill="#FFFFFF"/><rect x="341.5" y="217.366" width="24" height="37.9765" stroke="#000000" stroke-width="1.3335" stroke-miterlimit="8" fill="#FFFFFF"/><rect x="362.5" y="217.366" width="23" height="37.9765" stroke="#000000" stroke-width="1.3335" stroke-miterlimit="8" fill="#FFFFFF"/><rect x="382.5" y="217.366" width="24" height="37.9765" stroke="#000000" stroke-width="1.3335" stroke-miterlimit="8" fill="#FFFFFF"/><rect x="403.5" y="217.366" width="24.0001" height="37.9765" stroke="#000000" stroke-width="1.3335" stroke-miterlimit="8" fill="#FFFFFF"/><text font-family="Calibri,Calibri_MSFontService,sans-serif" font-weight="400" font-size="21" transform="matrix(1 0 0 0.999384 303.302 207)">record data</text><rect x="55.5" y="351.284" width="407" height="152.906" stroke="#000000" stroke-width="2.667" stroke-miterlimit="8" fill="#FFFFFF"/><text font-family="Calibri,Calibri_MSFontService,sans-serif" font-weight="700" font-size="24" transform="matrix(1 0 0 0.999384 147.343 377)">Shared<tspan font-size="24" x="74.5761" y="0">CoLRev </tspan>project</text><path d="M106.5 415.244C106.5 420.212 135.602 424.239 171.5 424.239 207.399 424.239 236.5 420.212 236.5 415.244L236.5 469.211C236.5 474.178 207.399 478.205 171.5 478.205 135.602 478.205 106.5 474.178 106.5 469.211Z" fill="#FFFFFF" fill-rule="evenodd"/><path d="M106.5 415.244C106.5 410.277 135.602 406.25 171.5 406.25 207.399 406.25 236.5 410.277 236.5 415.244 236.5 420.212 207.399 424.239 171.5 424.239 135.602 424.239 106.5 420.212 106.5 415.244Z" fill="#FFFFFF" fill-rule="evenodd"/><path d="M236.5 415.244C236.5 420.212 207.399 424.239 171.5 424.239 135.602 424.239 106.5 420.212 106.5 415.244 106.5 410.277 135.602 406.25 171.5 406.25 207.399 406.25 236.5 410.277 236.5 415.244L236.5 469.211C236.5 474.178 207.399 478.205 171.5 478.205 135.602 478.205 106.5 474.178 106.5 469.211L106.5 415.244" stroke="#000000" stroke-width="1.3335" stroke-miterlimit="8" fill="none" fill-rule="evenodd"/><text font-family="Calibri,Calibri_MSFontService,sans-serif" font-weight="400" font-size="21" transform="matrix(1 0 0 0.999384 118.475 453)">project data</text><rect x="280.5" y="430.235" width="23" height="37.9766" stroke="#000000" stroke-width="1.3335" stroke-miterlimit="8" fill="#FFFFFF"/><rect x="300.5" y="430.235" width="24" height="37.9766" stroke="#000000" stroke-width="1.3335" stroke-miterlimit="8" fill="#FFFFFF"/><rect x="321.5" y="430.235" width="23" height="37.9766" stroke="#000000" stroke-width="1.3335" stroke-miterlimit="8" fill="#FFFFFF"/><rect x="341.5" y="430.235" width="24" height="37.9766" stroke="#000000" stroke-width="1.3335" stroke-miterlimit="8" fill="#FFFFFF"/><rect x="362.5" y="430.235" width="23" height="37.9766" stroke="#000000" stroke-width="1.3335" stroke-miterlimit="8" fill="#FFFFFF"/><rect x="382.5" y="430.235" width="24" height="37.9766" stroke="#000000" stroke-width="1.3335" stroke-miterlimit="8" fill="#FFFFFF"/><rect x="403.5" y="430.235" width="24.0001" height="37.9766" stroke="#000000" stroke-width="1.3335" stroke-miterlimit="8" fill="#FFFFFF"/><text font-family="Calibri,Calibri_MSFontService,sans-serif" font-weight="400" font-size="21" transform="matrix(1 0 0 0.999384 303.302 420)">record data<tspan font-size="21" x="-180.577" y="-91.0561">colrev pull</tspan><tspan font-size="21" x="-3.086" y="-91.0561">colrev push</tspan></text><path d="M277 290.821 277 335.892 271 335.892 271 290.821ZM283.001 332.893 274 350.884 264.999 332.893Z"/><path d="M2.99853-5.23866e-06 2.99861 45.0708-2.99845 45.0708-2.99853 5.23866e-06ZM8.99566 42.0723 0.000104935 60.0635-8.99552 42.0723Z" transform="matrix(1.00062 0 0 -1 236 350.884)"/><rect x="1005.5" y="177.391" width="237" height="126.922" stroke="#000000" stroke-width="2.667" stroke-miterlimit="8" fill="#FFFFFF"/><rect x="1056.5" y="215.367" width="24" height="37.9765" stroke="#000000" stroke-width="1.3335" stroke-miterlimit="8" fill="#FFFFFF"/><rect x="1077.5" y="215.367" width="23" height="37.9765" stroke="#000000" stroke-width="1.3335" stroke-miterlimit="8" fill="#FFFFFF"/><rect x="1097.5" y="215.367" width="24" height="37.9765" stroke="#000000" stroke-width="1.3335" stroke-miterlimit="8" fill="#FFFFFF"/><rect x="1118.5" y="215.367" width="23.0001" height="37.9765" stroke="#000000" stroke-width="1.3335" stroke-miterlimit="8" fill="#FFFFFF"/><rect x="1139.5" y="215.367" width="23.0001" height="37.9765" stroke="#000000" stroke-width="1.3335" stroke-miterlimit="8" fill="#FFFFFF"/><rect x="1159.5" y="215.367" width="24" height="37.9765" stroke="#000000" stroke-width="1.3335" stroke-miterlimit="8" fill="#FFFFFF"/><rect x="1180.5" y="215.367" width="23" height="37.9765" stroke="#000000" stroke-width="1.3335" stroke-miterlimit="8" fill="#FFFFFF"/><text font-family="Calibri,Calibri_MSFontService,sans-serif" font-weight="400" font-size="21" transform="matrix(1 0 0 0.999384 1080.02 205)">record data</text><rect x="1056.5" y="254.343" width="24" height="36.9772" stroke="#000000" stroke-width="1.3335" stroke-miterlimit="8" fill="#FFFFFF"/><rect x="1077.5" y="254.343" width="23" height="36.9772" stroke="#000000" stroke-width="1.3335" stroke-miterlimit="8" fill="#FFFFFF"/><rect x="1097.5" y="254.343" width="24" height="36.9772" stroke="#000000" stroke-width="1.3335" stroke-miterlimit="8" fill="#FFFFFF"/><rect x="1118.5" y="254.343" width="23.0001" height="36.9772" stroke="#000000" stroke-width="1.3335" stroke-miterlimit="8" fill="#FFFFFF"/><rect x="1139.5" y="254.343" width="23.0001" height="36.9772" stroke="#000000" stroke-width="1.3335" stroke-miterlimit="8" fill="#FFFFFF"/><rect x="1159.5" y="254.343" width="24" height="36.9772" stroke="#000000" stroke-width="1.3335" stroke-miterlimit="8" fill="#FFFFFF"/><rect x="1180.5" y="254.343" width="23" height="36.9772" stroke="#000000" stroke-width="1.3335" stroke-miterlimit="8" fill="#FFFFFF"/><text font-family="Calibri,Calibri_MSFontService,sans-serif" font-weight="700" font-size="27" transform="matrix(1 0 0 0.999384 1003.08 149)">Curated CoLRev data</text><rect x="1004.5" y="315.306" width="238" height="126.922" stroke="#000000" stroke-width="2.667" stroke-miterlimit="8" fill="#FFFFFF"/><rect x="1056.5" y="354.282" width="23" height="36.9773" stroke="#000000" stroke-width="1.3335" stroke-miterlimit="8" fill="#FFFFFF"/><rect x="1076.5" y="354.282" width="24" height="36.9773" stroke="#000000" stroke-width="1.3335" stroke-miterlimit="8" fill="#FFFFFF"/><rect x="1097.5" y="354.282" width="23" height="36.9773" stroke="#000000" stroke-width="1.3335" stroke-miterlimit="8" fill="#FFFFFF"/><rect x="1117.5" y="354.282" width="24" height="36.9773" stroke="#000000" stroke-width="1.3335" stroke-miterlimit="8" fill="#FFFFFF"/><rect x="1138.5" y="354.282" width="24.0001" height="36.9773" stroke="#000000" stroke-width="1.3335" stroke-miterlimit="8" fill="#FFFFFF"/><rect x="1159.5" y="354.282" width="23.0001" height="36.9773" stroke="#000000" stroke-width="1.3335" stroke-miterlimit="8" fill="#FFFFFF"/><rect x="1179.5" y="354.282" width="24" height="36.9773" stroke="#000000" stroke-width="1.3335" stroke-miterlimit="8" fill="#FFFFFF"/><text font-family="Calibri,Calibri_MSFontService,sans-serif" font-weight="400" font-size="21" transform="matrix(1 0 0 0.999384 1079.49 343)">record data</text><rect x="1056.5" y="392.258" width="23" height="36.9771" stroke="#000000" stroke-width="1.3335" stroke-miterlimit="8" fill="#FFFFFF"/><rect x="1076.5" y="392.258" width="24" height="36.9771" stroke="#000000" stroke-width="1.3335" stroke-miterlimit="8" fill="#FFFFFF"/><rect x="1097.5" y="392.258" width="23" height="36.9771" stroke="#000000" stroke-width="1.3335" stroke-miterlimit="8" fill="#FFFFFF"/><rect x="1117.5" y="392.258" width="24" height="36.9771" stroke="#000000" stroke-width="1.3335" stroke-miterlimit="8" fill="#FFFFFF"/><rect x="1138.5" y="392.258" width="24.0001" height="36.9771" stroke="#000000" stroke-width="1.3335" stroke-miterlimit="8" fill="#FFFFFF"/><rect x="1159.5" y="392.258" width="23.0001" height="36.9771" stroke="#000000" stroke-width="1.3335" stroke-miterlimit="8" fill="#FFFFFF"/><rect x="1179.5" y="392.258" width="24" height="36.9771" stroke="#000000" stroke-width="1.3335" stroke-miterlimit="8" fill="#FFFFFF"/><path d="M964.5 128.04C964.5 112.244 977.313 99.4387 993.119 99.4387L1242.88 99.4387C1258.69 99.4387 1271.5 112.244 1271.5 128.04L1271.5 469.592C1271.5 485.388 1258.69 498.193 1242.88 498.193L993.119 498.193C977.313 498.193 964.5 485.388 964.5 469.592Z" stroke="#000000" stroke-width="1.3335" stroke-miterlimit="8" stroke-dasharray="5.33401 4.0005" fill="none" fill-rule="evenodd"/><g clip-path="url(#clip1)"><g clip-path="url(#clip2)"><g clip-path="url(#clip3)"><path d="M43.3333 20.3125C43.3333 26.2956 38.4831 31.1458 32.5 31.1458 26.5169 31.1458 21.6667 26.2956 21.6667 20.3125 21.6667 14.3294 26.5169 9.47917 32.5 9.47917 38.4831 9.47917 43.3333 14.3294 43.3333 20.3125Z" transform="matrix(1 0 0 1.01476 226 9.99384)"/><path d="M52.1354 39.2099C51.9507 37.7995 51.2515 36.507 50.1719 35.5807 47.2792 33.5999 44.041 32.1784 40.625 31.3896 40.2391 31.3016 39.8328 31.2271 39.4266 31.1526 35.2277 33.8431 29.8468 33.8431 25.6479 31.1526L24.4292 31.376C21.01 32.2125 17.7616 33.6351 14.8281 35.5807 13.6229 36.3526 13.1219 37.788 12.8646 39.2099L10.8333 50.849C10.7118 51.8313 11.1187 52.8046 11.9031 53.4083L16.5411 56.4688 16.5411 41.8099C16.5411 40.1122 17.9173 38.7359 19.615 38.7359 19.6218 38.7359 19.6286 38.7359 19.6354 38.7359L45.3646 38.7359C47.0623 38.7359 48.4385 40.1122 48.4385 41.8099L48.4385 56.0964 53.3271 53.0292C53.9059 52.6384 54.2273 51.9645 54.1667 51.2687Z" transform="matrix(1 0 0 1.01476 226 9.99384)"/><path d="M47.1047 58.6828 47.1047 41.8099C47.1048 40.8601 46.3348 40.09 45.385 40.09 45.3782 40.09 45.3714 40.09 45.3646 40.0901L19.6354 40.0901C18.6856 40.0901 17.9156 40.8601 17.9156 41.8099L17.9156 58.6828 12.7359 58.6828 12.7359 59.5427C12.7397 60.491 13.5075 61.2588 14.4557 61.2625L50.5443 61.2625C51.4925 61.2588 52.2603 60.491 52.2641 59.5427L52.2641 58.6828ZM28.9927 53.0292 28.038 53.9839 24.2396 50.1854 28.038 46.387 28.9927 47.3417 26.1557 50.1854ZM31.5182 54.4578 30.2656 53.9365 33.4411 46.2719 34.687 46.7932ZM36.9349 53.9839 35.9802 53.0292 38.8172 50.1854 35.9802 47.3417 36.9349 46.387 40.7333 50.1854Z" transform="matrix(1 0 0 1.01476 226 9.99384)"/></g></g></g><path d="M259.5 110.432 259.5 137.642" stroke="#000000" stroke-width="0.666751" stroke-miterlimit="8" fill="none" fill-rule="evenodd"/><text font-family="Calibri,Calibri_MSFontService,sans-serif" font-weight="400" font-size="21" transform="matrix(1 0 0 0.999384 212.298 99)">researcher</text><g clip-path="url(#clip4)"><g clip-path="url(#clip5)"><g clip-path="url(#clip6)"><path d="M43.9729 20.6123C43.9729 26.6837 39.0511 31.6055 32.9797 31.6055 26.9083 31.6055 21.9865 26.6837 21.9865 20.6123 21.9865 14.5409 26.9083 9.61908 32.9797 9.61908 39.0511 9.61908 43.9729 14.5409 43.9729 20.6123Z" transform="matrix(1.00062 0 0 1 226 563.653)"/><path d="M52.9049 39.7886C52.7175 38.3574 52.0079 37.0458 50.9124 36.1059 47.977 34.0958 44.691 32.6533 41.2246 31.8529 40.833 31.7636 40.4207 31.688 40.0085 31.6124 35.7476 34.3426 30.2873 34.3426 26.0265 31.6124L24.7897 31.8391C21.3201 32.688 18.0237 34.1315 15.047 36.1059 13.824 36.8892 13.3155 38.3458 13.0545 39.7886L10.9932 51.5995C10.8699 52.5963 11.2828 53.584 12.0788 54.1966L16.7853 57.3022 16.7853 42.427C16.7852 40.7042 18.1818 39.3077 19.9045 39.3076 19.9114 39.3076 19.9184 39.3076 19.9252 39.3077L46.0341 39.3077C47.7569 39.3077 49.1535 40.7042 49.1535 42.427L49.1535 56.9243 54.1142 53.8119C54.7015 53.4153 55.0276 52.7314 54.9661 52.0255Z" transform="matrix(1.00062 0 0 1 226 563.653)"/><path d="M47.7999 59.5489 47.7999 42.427C47.8 41.4632 47.0187 40.6817 46.0549 40.6817 46.048 40.6817 46.0411 40.6817 46.0341 40.6818L19.9252 40.6818C18.9614 40.6818 18.1801 41.4632 18.1801 42.427L18.1801 59.5489 12.9239 59.5489 12.9239 60.4215C12.9277 61.3838 13.7068 62.1629 14.6691 62.1667L51.2903 62.1667C52.2525 62.1629 53.0317 61.3838 53.0355 60.4215L53.0355 59.5489ZM29.4206 53.8119 28.4519 54.7806 24.5973 50.9261 28.4519 47.0716 29.4206 48.0404 26.5418 50.9261ZM31.9834 55.2616 30.7123 54.7325 33.9347 46.9548 35.1989 47.4839ZM37.48 54.7806 36.5113 53.8119 39.3901 50.9261 36.5113 48.0404 37.48 47.0716 41.3345 50.9261Z" transform="matrix(1.00062 0 0 1 226 563.653)"/></g></g></g><path d="M259.561 557.941 259.216 510.855 259.882 510.85 260.228 557.936ZM263.885 556.577 259.944 564.602 255.885 556.635ZM255.558 512.214 259.5 504.189 263.559 512.156Z"/><text font-family="Calibri,Calibri_MSFontService,sans-serif" font-weight="400" font-size="21" transform="matrix(1 0 0 0.999384 186.141 654)">team member(s)</text><g clip-path="url(#clip7)"><g clip-path="url(#clip8)"><g clip-path="url(#clip9)"><path d="M73.4548 66.4591C73.4548 67.8389 72.3362 68.9575 70.9563 68.9575 69.5764 68.9575 68.4578 67.8389 68.4578 66.4591 68.4578 65.0792 69.5764 63.9606 70.9563 63.9606 72.3362 63.9606 73.4548 65.0792 73.4548 66.4591Z" transform="matrix(1.00062 0 0 1 1069 537.669)"/><path d="M84.448 66.4591C84.448 67.8389 83.3294 68.9575 81.9495 68.9575 80.5696 68.9575 79.4511 67.8389 79.4511 66.4591 79.4511 65.0792 80.5696 63.9606 81.9495 63.9606 83.3294 63.9606 84.448 65.0792 84.448 66.4591Z" transform="matrix(1.00062 0 0 1 1069 537.669)"/><path d="M51.4683 66.4591C51.4683 67.8389 50.3497 68.9575 48.9698 68.9575 47.59 68.9575 46.4714 67.8389 46.4714 66.4591 46.4714 65.0792 47.59 63.9606 48.9698 63.9606 50.3497 63.9606 51.4683 65.0792 51.4683 66.4591Z" transform="matrix(1.00062 0 0 1 1069 537.669)"/><path d="M62.4615 66.4591C62.4615 67.8389 61.3429 68.9575 59.9631 68.9575 58.5832 68.9575 57.4646 67.8389 57.4646 66.4591 57.4646 65.0792 58.5832 63.9606 59.9631 63.9606 61.3429 63.9606 62.4615 65.0792 62.4615 66.4591Z" transform="matrix(1.00062 0 0 1 1069 537.669)"/><path d="M29.4818 66.4591C29.4818 67.8389 28.3632 68.9575 26.9834 68.9575 25.6035 68.9575 24.4849 67.8389 24.4849 66.4591 24.4849 65.0792 25.6035 63.9606 26.9834 63.9606 28.3632 63.9606 29.4818 65.0792 29.4818 66.4591Z" transform="matrix(1.00062 0 0 1 1069 537.669)"/><path d="M40.4751 66.4591C40.4751 67.8389 39.3565 68.9575 37.9766 68.9575 36.5967 68.9575 35.4781 67.8389 35.4781 66.4591 35.4781 65.0792 36.5967 63.9606 37.9766 63.9606 39.3565 63.9606 40.4751 65.0792 40.4751 66.4591Z" transform="matrix(1.00062 0 0 1 1069 537.669)"/><path d="M18.4886 66.4591C18.4886 67.8389 17.37 68.9575 15.9901 68.9575 14.6103 68.9575 13.4917 67.8389 13.4917 66.4591 13.4917 65.0792 14.6103 63.9606 15.9901 63.9606 17.37 63.9606 18.4886 65.0792 18.4886 66.4591Z" transform="matrix(1.00062 0 0 1 1069 537.669)"/><path d="M88.4155 79.611 86.4867 72.3354C86.4276 72.1298 86.3254 71.939 86.1869 71.7758 85.5294 71.0906 84.7172 70.573 83.8184 70.2667 83.2216 70.0423 82.5867 69.937 81.9495 69.9569 81.3169 69.9557 80.6886 70.0604 80.0907 70.2667 79.1847 70.5693 78.3677 71.0912 77.7121 71.7858 77.5876 71.955 77.4929 72.1443 77.4323 72.3454L76.4329 76.0631 75.4335 72.3754C75.3801 72.1695 75.281 71.9783 75.1437 71.8158 74.4819 71.131 73.6666 70.6137 72.7652 70.3067 72.1904 70.0745 71.5762 69.9558 70.9563 69.9569 70.3239 69.9574 69.6959 70.062 69.0974 70.2667 68.1933 70.567 67.379 71.0893 66.7289 71.7858 66.5974 71.9521 66.499 72.1421 66.4391 72.3454L65.4597 75.9532 64.4603 72.3354C64.4011 72.1298 64.299 71.939 64.1605 71.7758 63.503 71.0906 62.6908 70.573 61.7919 70.2667 61.2077 70.0473 60.5869 69.9422 59.9631 69.9569 59.3305 69.9557 58.7021 70.0604 58.1042 70.2667 57.1983 70.5693 56.3813 71.0912 55.7257 71.7858 55.6011 71.955 55.5064 72.1443 55.4458 72.3454L54.4465 76.0631 53.4471 72.3754C53.3936 72.1695 53.2946 71.9783 53.1573 71.8158 52.4955 71.131 51.6802 70.6137 50.7787 70.3067 50.204 70.0745 49.5898 69.9558 48.9698 69.9569 48.3374 69.9574 47.7094 70.062 47.111 70.2667 46.2068 70.567 45.3925 71.0893 44.7424 71.7858 44.6109 71.9521 44.5126 72.1421 44.4526 72.3454L43.4732 75.9532 42.4738 72.3354C42.4147 72.1298 42.3125 71.939 42.174 71.7758 41.5165 71.0906 40.7043 70.573 39.8055 70.2667 39.2213 70.0473 38.6004 69.9422 37.9766 69.9569 37.344 69.9557 36.7157 70.0604 36.1177 70.2667 35.2119 70.5693 34.3948 71.0912 33.7392 71.7858 33.6147 71.955 33.5201 72.1443 33.4594 72.3454L32.46 76.0631 31.4606 72.3754C31.4072 72.1695 31.3081 71.9783 31.1708 71.8158 30.509 71.131 29.6937 70.6137 28.7923 70.3067 28.2175 70.0745 27.6033 69.9558 26.9834 69.9569 26.351 69.9574 25.723 70.062 25.1245 70.2667 24.2204 70.567 23.4061 71.0893 22.756 71.7858 22.6245 71.9521 22.5261 72.1421 22.4662 72.3454L21.4868 75.9532 20.4874 72.3354C20.4282 72.1298 20.3261 71.939 20.1876 71.7758 19.5301 71.0906 18.7179 70.573 17.819 70.2667 17.2348 70.0473 16.614 69.9422 15.9901 69.9569 15.3575 69.9557 14.7293 70.0604 14.1313 70.2667 13.2255 70.5693 12.4084 71.0912 11.7528 71.7858 11.6282 71.955 11.5336 72.1443 11.4729 72.3454L9.54412 79.611C9.43606 80.1522 9.78722 80.6786 10.3285 80.7866 10.8234 80.8855 11.3143 80.5997 11.4729 80.1206L12.992 74.3942 12.992 77.5322 11.2731 83.9483 12.992 83.9483 12.992 91.9434 14.9908 91.9434 14.9908 83.9483 16.9895 83.9483 16.9895 91.9434 18.9883 91.9434 18.9883 83.9483 20.7072 83.9483 18.9883 77.5322 18.9883 74.3242 20.5174 80.1206C20.6516 80.656 21.1943 80.9813 21.7297 80.8471 22.0873 80.7574 22.3665 80.4782 22.4562 80.1206L23.9852 74.3242 23.9852 91.9434 25.984 91.9434 25.984 80.9501 27.9828 80.9501 27.9828 91.9434 29.9815 91.9434 29.9815 74.3842 31.5006 80.1206C31.5006 80.6726 31.948 81.12 32.5 81.12 33.0519 81.12 33.4994 80.6726 33.4994 80.1206L34.9785 74.3842 34.9785 77.5322 33.2595 83.9483 34.9785 83.9483 34.9785 91.9434 36.9772 91.9434 36.9772 83.9483 38.976 83.9483 38.976 91.9434 40.9748 91.9434 40.9748 83.9483 42.6937 83.9483 40.9748 77.5322 40.9748 74.3242 42.5038 80.1206C42.638 80.656 43.1808 80.9813 43.7162 80.8471 44.0737 80.7574 44.353 80.4782 44.4426 80.1206L45.9717 74.3242 45.9717 91.9434 47.9704 91.9434 47.9704 80.9501 49.9692 80.9501 49.9692 91.9434 51.968 91.9434 51.968 74.3842 53.487 80.1206C53.487 80.6726 53.9345 81.12 54.4864 81.12 55.0384 81.12 55.4858 80.6726 55.4858 80.1206L56.9649 74.3842 56.9649 77.5322 55.246 83.9483 56.9649 83.9483 56.9649 91.9434 58.9637 91.9434 58.9637 83.9483 60.9624 83.9483 60.9624 91.9434 62.9612 91.9434 62.9612 83.9483 64.6802 83.9483 62.9612 77.5322 62.9612 74.3242 64.4903 80.1206C64.6245 80.656 65.1673 80.9813 65.7026 80.8471 66.0602 80.7574 66.3394 80.4782 66.4291 80.1206L67.9581 74.3242 67.9581 91.9434 69.9569 91.9434 69.9569 80.9501 71.9557 80.9501 71.9557 91.9434 73.9544 91.9434 73.9544 74.3842 75.4735 80.1206C75.4735 80.6726 75.9209 81.12 76.4729 81.12 77.0249 81.12 77.4723 80.6726 77.4723 80.1206L78.9514 74.3842 78.9514 77.5322 77.2324 83.9483 78.9514 83.9483 78.9514 91.9434 80.9501 91.9434 80.9501 83.9483 82.9489 83.9483 82.9489 91.9434 84.9477 91.9434 84.9477 83.9483 86.6666 83.9483 84.9477 77.5322 84.9477 74.3242 86.4767 80.1206C86.5974 80.5696 87.0115 80.8761 87.4761 80.8602 88.0279 80.8447 88.4625 80.3848 88.447 79.833 88.4448 79.7581 88.4343 79.6836 88.4155 79.611Z" transform="matrix(1.00062 0 0 1 1069 537.669)"/><path d="M70.9563 38.976C72.3361 38.976 73.4548 37.8574 73.4548 36.4775 73.4548 35.0977 72.3361 33.9791 70.9563 33.9791 69.5764 33.9791 68.4578 35.0977 68.4578 36.4775 68.4578 37.8574 69.5764 38.976 70.9563 38.976Z" transform="matrix(1.00062 0 0 1 1069 537.669)"/><path d="M48.9698 38.976C50.3497 38.976 51.4683 37.8574 51.4683 36.4775 51.4683 35.0977 50.3497 33.9791 48.9698 33.9791 47.59 33.9791 46.4714 35.0977 46.4714 36.4775 46.4714 37.8574 47.59 38.976 48.9698 38.976Z" transform="matrix(1.00062 0 0 1 1069 537.669)"/><path d="M59.9631 38.976C61.3429 38.976 62.4615 37.8574 62.4615 36.4775 62.4615 35.0977 61.3429 33.9791 59.9631 33.9791 58.5832 33.9791 57.4646 35.0977 57.4646 36.4775 57.4646 37.8574 58.5832 38.976 59.9631 38.976Z" transform="matrix(1.00062 0 0 1 1069 537.669)"/><path d="M26.9834 38.976C28.3632 38.976 29.4818 37.8574 29.4818 36.4775 29.4818 35.0977 28.3632 33.9791 26.9834 33.9791 25.6035 33.9791 24.4849 35.0977 24.4849 36.4775 24.4849 37.8574 25.6035 38.976 26.9834 38.976Z" transform="matrix(1.00062 0 0 1 1069 537.669)"/><path d="M37.9766 38.976C39.3565 38.976 40.4751 37.8574 40.4751 36.4775 40.4751 35.0977 39.3565 33.9791 37.9766 33.9791 36.5968 33.9791 35.4781 35.0977 35.4781 36.4775 35.4781 37.8574 36.5968 38.976 37.9766 38.976Z" transform="matrix(1.00062 0 0 1 1069 537.669)"/><path d="M77.4023 49.6294 75.4735 42.3539C75.42 42.148 75.321 41.9568 75.1837 41.7943 74.5219 41.1095 73.7066 40.5922 72.8051 40.2852 72.2152 40.0616 71.5869 39.9563 70.9563 39.9754 70.3239 39.9759 69.6959 40.0805 69.0974 40.2852 68.1933 40.5855 67.379 41.1078 66.7289 41.8042 66.5974 41.9705 66.499 42.1605 66.4391 42.3639L65.4597 45.9717 64.4603 42.3539C64.4011 42.1482 64.299 41.9575 64.1605 41.7943 63.503 41.109 62.6908 40.5915 61.7919 40.2852 61.2077 40.0658 60.5869 39.9607 59.9631 39.9754 59.3305 39.9742 58.7021 40.0789 58.1042 40.2852 57.1983 40.5878 56.3813 41.1097 55.7257 41.8042 55.6011 41.9734 55.5064 42.1627 55.4458 42.3639L54.4465 46.0816 53.4471 42.3939C53.3936 42.188 53.2946 41.9967 53.1573 41.8342 52.4955 41.1495 51.6802 40.6322 50.7787 40.3252 50.204 40.093 49.5898 39.9743 48.9698 39.9754 48.3374 39.9759 47.7094 40.0805 47.111 40.2852 46.2068 40.5855 45.3925 41.1078 44.7424 41.8042 44.6109 41.9705 44.5126 42.1605 44.4526 42.3639L43.4732 45.9717 42.4738 42.3539C42.4147 42.1482 42.3125 41.9575 42.174 41.7943 41.5165 41.109 40.7043 40.5915 39.8055 40.2852 39.2213 40.0658 38.6004 39.9607 37.9766 39.9754 37.344 39.9742 36.7157 40.0789 36.1177 40.2852 35.2119 40.5878 34.3948 41.1097 33.7392 41.8042 33.6147 41.9734 33.5201 42.1627 33.4594 42.3639L32.46 46.0816 31.4606 42.3939C31.4072 42.188 31.3081 41.9967 31.1708 41.8342 30.509 41.1495 29.6937 40.6322 28.7923 40.3252 28.2175 40.093 27.6033 39.9743 26.9834 39.9754 26.351 39.9759 25.723 40.0805 25.1245 40.2852 24.2204 40.5855 23.4061 41.1078 22.756 41.8042 22.6245 41.9705 22.5261 42.1605 22.4662 42.3639L20.5274 49.6694C20.3877 50.2019 20.7049 50.747 21.2369 50.8886L21.4968 50.8886C21.9614 50.9045 22.3755 50.598 22.4961 50.1491L23.9852 44.3427 23.9852 61.9618 25.984 61.9618 25.984 50.9686 27.9828 50.9686 27.9828 61.9618 29.9815 61.9618 29.9815 44.4026 31.5006 50.1391C31.5006 50.6911 31.948 51.1385 32.5 51.1385 33.0519 51.1385 33.4994 50.6911 33.4994 50.1391L34.9785 44.4026 34.9785 47.5507 33.2595 53.9668 34.9785 53.9668 34.9785 61.9618 36.9772 61.9618 36.9772 53.9668 38.976 53.9668 38.976 61.9618 40.9748 61.9618 40.9748 53.9668 42.6937 53.9668 40.9748 47.5507 40.9748 44.3427 42.5038 50.1391C42.638 50.6745 43.1808 50.9998 43.7162 50.8656 44.0737 50.7759 44.353 50.4967 44.4426 50.1391L45.9717 44.3427 45.9717 61.9618 47.9704 61.9618 47.9704 50.9686 49.9692 50.9686 49.9692 61.9618 51.968 61.9618 51.968 44.4026 53.487 50.1391C53.487 50.6911 53.9345 51.1385 54.4864 51.1385 55.0384 51.1385 55.4858 50.6911 55.4858 50.1391L56.9649 44.4026 56.9649 47.5507 55.246 53.9668 56.9649 53.9668 56.9649 61.9618 58.9637 61.9618 58.9637 53.9668 60.9624 53.9668 60.9624 61.9618 62.9612 61.9618 62.9612 53.9668 64.6802 53.9668 62.9612 47.5507 62.9612 44.3427 64.4903 50.1391C64.6245 50.6745 65.1673 50.9998 65.7026 50.8656 66.0602 50.7759 66.3394 50.4967 66.4291 50.1391L67.9581 44.3427 67.9581 61.9618 69.9569 61.9618 69.9569 50.9686 71.9557 50.9686 71.9557 61.9618 73.9544 61.9618 73.9544 44.4026 75.4735 50.1391C75.5941 50.588 76.0083 50.8945 76.4729 50.8787 76.5592 50.8885 76.6464 50.8885 76.7327 50.8787 77.2615 50.7206 77.562 50.1637 77.4039 49.6349 77.4034 49.633 77.4029 49.6312 77.4023 49.6294Z" transform="matrix(1.00062 0 0 1 1069 537.669)"/><path d="M48.9698 8.99446C50.3497 8.99446 51.4683 7.87586 51.4683 6.496 51.4683 5.11614 50.3497 3.99754 48.9698 3.99754 47.59 3.99754 46.4714 5.11614 46.4714 6.496 46.4714 7.87586 47.59 8.99446 48.9698 8.99446Z" transform="matrix(1.00062 0 0 1 1069 537.669)"/><path d="M59.9631 8.99446C61.3429 8.99446 62.4615 7.87586 62.4615 6.496 62.4615 5.11614 61.3429 3.99754 59.9631 3.99754 58.5832 3.99754 57.4646 5.11614 57.4646 6.496 57.4646 7.87586 58.5832 8.99446 59.9631 8.99446Z" transform="matrix(1.00062 0 0 1 1069 537.669)"/><path d="M37.9766 8.99446C39.3565 8.99446 40.4751 7.87586 40.4751 6.496 40.4751 5.11614 39.3565 3.99754 37.9766 3.99754 36.5968 3.99754 35.4781 5.11614 35.4781 6.496 35.4781 7.87586 36.5968 8.99446 37.9766 8.99446Z" transform="matrix(1.00062 0 0 1 1069 537.669)"/><path d="M66.4291 19.6479 64.5003 12.3724C64.4411 12.1667 64.339 11.9759 64.2004 11.8127 63.543 11.1275 62.7308 10.61 61.8319 10.3037 61.2352 10.0792 60.6003 9.97398 59.9631 9.99384 59.3305 9.99263 58.7021 10.0974 58.1042 10.3037 57.1984 10.6063 56.3813 11.1281 55.7257 11.8227 55.6011 11.9919 55.5065 12.1812 55.4458 12.3824L54.4465 16.1001 53.4471 12.4124C53.3936 12.2065 53.2946 12.0152 53.1573 11.8527 52.4955 11.1679 51.6802 10.6506 50.7787 10.3436 50.204 10.1115 49.5898 9.99271 48.9698 9.99384 48.3374 9.99434 47.7094 10.099 47.111 10.3037 46.2068 10.604 45.3925 11.1262 44.7424 11.8227 44.6109 11.989 44.5126 12.179 44.4526 12.3824L43.4732 15.9901 42.4738 12.3724C42.4147 12.1667 42.3125 11.9759 42.174 11.8127 41.5165 11.1275 40.7043 10.61 39.8055 10.3037 39.2213 10.0843 38.6004 9.97916 37.9766 9.99384 37.344 9.99263 36.7157 10.0974 36.1177 10.3037 35.2119 10.6063 34.3948 11.1281 33.7392 11.8227 33.6147 11.9919 33.5201 12.1812 33.4594 12.3824L31.5206 19.6879C31.381 20.2203 31.6982 20.7655 32.2301 20.9071 32.3165 20.9169 32.4036 20.9169 32.49 20.9071 32.9546 20.923 33.3687 20.6165 33.4894 20.1676L34.9785 14.4211 34.9785 17.5692 33.2595 23.9852 34.9785 23.9852 34.9785 31.9803 36.9772 31.9803 36.9772 23.9852 38.976 23.9852 38.976 31.9803 40.9748 31.9803 40.9748 23.9852 42.6937 23.9852 40.9748 17.5692 40.9748 14.3612 42.5038 20.1576C42.638 20.693 43.1808 21.0183 43.7162 20.884 44.0737 20.7944 44.353 20.5152 44.4426 20.1576L45.9717 14.3612 45.9717 31.9803 47.9704 31.9803 47.9704 20.9871 49.9692 20.9871 49.9692 31.9803 51.968 31.9803 51.968 14.4211 53.487 20.1576C53.487 20.7095 53.9345 21.157 54.4864 21.157 55.0384 21.157 55.4858 20.7095 55.4858 20.1576L56.9649 14.4211 56.9649 17.5692 55.246 23.9852 56.9649 23.9852 56.9649 31.9803 58.9637 31.9803 58.9637 23.9852 60.9624 23.9852 60.9624 31.9803 62.9612 31.9803 62.9612 23.9852 64.6802 23.9852 62.9612 17.5692 62.9612 14.3612 64.4903 20.1576C64.6109 20.6065 65.025 20.913 65.4897 20.8971L65.7495 20.8971C66.2798 20.7441 66.5857 20.1902 66.4326 19.6598 66.4315 19.6559 66.4303 19.6519 66.4291 19.6479Z" transform="matrix(1.00062 0 0 1 1069 537.669)"/></g></g></g><text font-family="Calibri,Calibri_MSFontService,sans-serif" font-weight="400" font-size="21" transform="matrix(1 0 0 0.999384 1110.16 476)">…</text><path d="M0.333187 6.6634 0.333258 33.6384-0.333082 33.6384-0.333153 6.6634ZM-3.99802 7.99609 0 0 3.99806 7.99607ZM3.99812 32.3057 0.000104935 40.3018-3.99796 32.3057Z" transform="matrix(1.00062 0 0 -1 1117.5 538.495)"/><text font-family="Calibri,Calibri_MSFontService,sans-serif" font-weight="400" font-size="21" transform="matrix(1 0 0 0.999384 1028.79 663)">research community<tspan font-size="21" x="-365.011" y="-453.279">colrev pull</tspan><tspan font-size="21" x="-369.36" y="-389.24">colrev push</tspan></text><path d="M5.0208e-07-2.99853 611.704-2.99843 611.704 2.99863-5.0208e-07 2.99853ZM608.705-8.99549 626.697 0.000104935 608.705 8.99569Z" transform="matrix(-1.00062 0 0 1 1053.08 225.861)"/><path d="M428 240.851 1040.08 240.851 1040.08 246.848 428 246.848ZM1037.08 234.854 1055.08 243.85 1037.08 252.845Z"/><rect x="526.5" y="95.4412" width="365" height="73.9544" stroke="#000000" stroke-width="1.3335" stroke-miterlimit="8" fill="#FFFFFF"/><path d="M708.679 168.794 708.559 185.776" stroke="#000000" stroke-width="1.3335" stroke-miterlimit="8" fill="none" fill-rule="evenodd"/><text font-family="Calibri,Calibri_MSFontService,sans-serif" font-weight="400" font-size="24" transform="matrix(1 0 0 0.999384 539.843 125)">Automatically <tspan font-size="24" x="139.698" y="0">updates </tspan><tspan font-size="24" x="223.561" y="0">(meta) data </tspan><tspan font-size="24" x="79.55" y="29.0179">of curated records</tspan></text><rect x="522.5" y="302.314" width="390" height="72.955" stroke="#000000" stroke-width="1.3335" stroke-miterlimit="8" fill="#FFFFFF"/><path d="M715.609 302.867 715.753 287.819" stroke="#000000" stroke-width="1.3335" stroke-miterlimit="8" fill="none" fill-rule="evenodd"/><text font-family="Calibri,Calibri_MSFontService,sans-serif" font-weight="400" font-size="24" transform="matrix(1 0 0 0.999384 566.081 331)">Automatically <tspan font-size="24" x="139.698" y="0">feeds </tspan><tspan font-size="24" x="197.938" y="0">updates of </tspan><tspan font-size="24" x="-17.9156" y="29.0179">curated records back to the source</tspan></text><g clip-path="url(#clip10)"><g clip-path="url(#clip11)"><g clip-path="url(#clip12)"><path d="M43.9729 20.6123C43.9729 26.6837 39.0511 31.6055 32.9797 31.6055 26.9083 31.6055 21.9865 26.6837 21.9865 20.6123 21.9865 14.5409 26.9083 9.61908 32.9797 9.61908 39.0511 9.61908 43.9729 14.5409 43.9729 20.6123Z" transform="matrix(1.00062 0 0 1 285 563.653)"/><path d="M52.9049 39.7886C52.7175 38.3574 52.0079 37.0458 50.9124 36.1059 47.977 34.0958 44.691 32.6533 41.2246 31.8529 40.833 31.7636 40.4207 31.688 40.0085 31.6124 35.7476 34.3426 30.2873 34.3426 26.0265 31.6124L24.7897 31.8391C21.3201 32.688 18.0237 34.1315 15.047 36.1059 13.824 36.8892 13.3155 38.3458 13.0545 39.7886L10.9932 51.5995C10.8699 52.5963 11.2828 53.584 12.0788 54.1966L16.7853 57.3022 16.7853 42.427C16.7852 40.7042 18.1818 39.3077 19.9045 39.3076 19.9114 39.3076 19.9184 39.3076 19.9252 39.3077L46.0341 39.3077C47.7569 39.3077 49.1535 40.7042 49.1535 42.427L49.1535 56.9243 54.1142 53.8119C54.7015 53.4153 55.0276 52.7314 54.9661 52.0255Z" transform="matrix(1.00062 0 0 1 285 563.653)"/><path d="M47.7999 59.5489 47.7999 42.427C47.8 41.4632 47.0187 40.6817 46.0549 40.6817 46.048 40.6817 46.0411 40.6817 46.0341 40.6818L19.9252 40.6818C18.9614 40.6818 18.1801 41.4632 18.1801 42.427L18.1801 59.5489 12.9239 59.5489 12.9239 60.4215C12.9277 61.3838 13.7068 62.1629 14.6691 62.1667L51.2903 62.1667C52.2525 62.1629 53.0317 61.3838 53.0355 60.4215L53.0355 59.5489ZM29.4206 53.8119 28.4519 54.7806 24.5973 50.9261 28.4519 47.0716 29.4206 48.0404 26.5418 50.9261ZM31.9834 55.2616 30.7123 54.7325 33.9347 46.9548 35.1989 47.4839ZM37.48 54.7806 36.5113 53.8119 39.3901 50.9261 36.5113 48.0404 37.48 47.0716 41.3345 50.9261Z" transform="matrix(1.00062 0 0 1 285 563.653)"/></g></g></g><g clip-path="url(#clip13)"><g clip-path="url(#clip14)"><g clip-path="url(#clip15)"><path d="M43.9729 20.6123C43.9729 26.6837 39.0511 31.6055 32.9797 31.6055 26.9083 31.6055 21.9865 26.6837 21.9865 20.6123 21.9865 14.5409 26.9083 9.61908 32.9797 9.61908 39.0511 9.61908 43.9729 14.5409 43.9729 20.6123Z" transform="matrix(1.00062 0 0 1 170 564.652)"/><path d="M52.9049 39.7886C52.7175 38.3574 52.0079 37.0458 50.9124 36.1059 47.977 34.0958 44.691 32.6533 41.2246 31.8529 40.833 31.7636 40.4207 31.688 40.0085 31.6124 35.7476 34.3426 30.2873 34.3426 26.0265 31.6124L24.7897 31.8391C21.3201 32.688 18.0237 34.1315 15.047 36.1059 13.824 36.8892 13.3155 38.3458 13.0545 39.7886L10.9932 51.5995C10.8699 52.5963 11.2828 53.584 12.0788 54.1966L16.7853 57.3022 16.7853 42.427C16.7852 40.7042 18.1818 39.3077 19.9045 39.3076 19.9114 39.3076 19.9184 39.3076 19.9252 39.3077L46.0341 39.3077C47.7569 39.3077 49.1535 40.7042 49.1535 42.427L49.1535 56.9243 54.1142 53.8119C54.7015 53.4153 55.0276 52.7314 54.9661 52.0255Z" transform="matrix(1.00062 0 0 1 170 564.652)"/><path d="M47.7999 59.5489 47.7999 42.427C47.8 41.4632 47.0187 40.6817 46.0549 40.6817 46.048 40.6817 46.0411 40.6817 46.0341 40.6818L19.9252 40.6818C18.9614 40.6818 18.1801 41.4632 18.1801 42.427L18.1801 59.5489 12.9239 59.5489 12.9239 60.4215C12.9277 61.3838 13.7068 62.1629 14.6691 62.1667L51.2903 62.1667C52.2525 62.1629 53.0317 61.3838 53.0355 60.4215L53.0355 59.5489ZM29.4206 53.8119 28.4519 54.7806 24.5973 50.9261 28.4519 47.0716 29.4206 48.0404 26.5418 50.9261ZM31.9834 55.2616 30.7123 54.7325 33.9347 46.9548 35.1989 47.4839ZM37.48 54.7806 36.5113 53.8119 39.3901 50.9261 36.5113 48.0404 37.48 47.0716 41.3345 50.9261Z" transform="matrix(1.00062 0 0 1 170 564.652)"/></g></g></g></g></svg>
