<svg width="1134" height="302" xmlns="http://www.w3.org/2000/svg" xmlns:xlink="http://www.w3.org/1999/xlink" overflow="hidden"><defs><clipPath id="clip0"><rect x="0" y="0" width="1134" height="302"/></clipPath><clipPath id="clip1"><rect x="509" y="109" width="66" height="66"/></clipPath><clipPath id="clip2"><rect x="509" y="109" width="66" height="66"/></clipPath><clipPath id="clip3"><rect x="509" y="109" width="66" height="66"/></clipPath><clipPath id="clip4"><rect x="961" y="78" width="128" height="128"/></clipPath><clipPath id="clip5"><rect x="961" y="78" width="128" height="128"/></clipPath><clipPath id="clip6"><rect x="961" y="78" width="128" height="128"/></clipPath><clipPath id="clip7"><rect x="63" y="119" width="46" height="46"/></clipPath><clipPath id="clip8"><rect x="63" y="119" width="46" height="46"/></clipPath><clipPath id="clip9"><rect x="63" y="119" width="46" height="46"/></clipPath><clipPath id="clip10"><rect x="63" y="163" width="46" height="46"/></clipPath><clipPath id="clip11"><rect x="63" y="163" width="46" height="46"/></clipPath><clipPath id="clip12"><rect x="63" y="163" width="46" height="46"/></clipPath><clipPath id="clip13"><rect x="63" y="75" width="46" height="46"/></clipPath><clipPath id="clip14"><rect x="63" y="75" width="46" height="46"/></clipPath><clipPath id="clip15"><rect x="63" y="75" width="46" height="46"/></clipPath></defs><g clip-path="url(#clip0)"><rect x="0" y="0" width="1134" height="301.623" fill="#FFFFFF"/><g clip-path="url(#clip1)"><g clip-path="url(#clip2)"><g clip-path="url(#clip3)"><path d="M43.2792 20.2871C43.2792 26.2627 38.435 31.1069 32.4594 31.1069 26.4838 31.1069 21.6396 26.2627 21.6396 20.2871 21.6396 14.3115 26.4838 9.46732 32.4594 9.46732 38.435 9.46732 43.2792 14.3115 43.2792 20.2871Z" transform="matrix(1.00125 0 0 1 510 109.863)"/><path d="M52.0703 39.1609C51.8858 37.7522 51.1875 36.4614 50.1092 35.5363 47.2201 33.5579 43.986 32.1382 40.5742 31.3504 40.1888 31.2625 39.783 31.1881 39.3773 31.1137 35.1837 33.8008 29.8095 33.8008 25.6159 31.1137L24.3986 31.3368C20.9837 32.1723 17.7394 33.593 14.8096 35.5363 13.6059 36.3072 13.1055 37.7408 12.8485 39.1609L10.8198 50.7854C10.6984 51.7665 11.1048 52.7387 11.8883 53.3416L16.5205 56.3982 16.5205 41.7577C16.5204 40.0621 17.8949 38.6875 19.5905 38.6875 19.5973 38.6875 19.6041 38.6875 19.6109 38.6875L45.3079 38.6875C47.0035 38.6875 48.378 40.0621 48.378 41.7577L48.378 56.0263 53.2605 52.9629C53.8385 52.5726 54.1595 51.8995 54.099 51.2047Z" transform="matrix(1.00125 0 0 1 510 109.863)"/><path d="M47.0458 58.6095 47.0458 41.7577C47.0459 40.809 46.277 40.0399 45.3283 40.0399 45.3215 40.0399 45.3147 40.0399 45.3079 40.04L19.6109 40.04C18.6623 40.04 17.8932 40.809 17.8932 41.7577L17.8932 58.6095 12.72 58.6095 12.72 59.4683C12.7237 60.4154 13.4906 61.1822 14.4377 61.186L50.4811 61.186C51.4282 61.1822 52.195 60.4154 52.1988 59.4683L52.1988 58.6095ZM28.9565 52.9629 28.003 53.9164 24.2093 50.1227 28.003 46.329 28.9565 47.2825 26.1231 50.1227ZM31.4789 54.3898 30.2278 53.8691 33.3994 46.2141 34.6436 46.7348ZM36.8887 53.9164 35.9353 52.9629 38.7687 50.1227 35.9353 47.2825 36.8887 46.329 40.6824 50.1227Z" transform="matrix(1.00125 0 0 1 510 109.863)"/></g></g></g><text font-family="Calibri,Calibri_MSFontService,sans-serif" font-weight="400" font-size="21" transform="matrix(1 0 0 0.998751 494.098 194)">Researcher<tspan font-size="21" x="-466.833" y="54.0675">Contributors to the </tspan><tspan font-size="21" x="-446.063" y="80.1001">review project</tspan></text><g clip-path="url(#clip4)"><g clip-path="url(#clip5)"><g clip-path="url(#clip6)"><path d="M97.113 87.8641C97.113 89.6884 95.6341 91.1673 93.8098 91.1673 91.9855 91.1673 90.5066 89.6884 90.5066 87.8641 90.5066 86.0398 91.9855 84.5609 93.8098 84.5609 95.6341 84.5609 97.113 86.0398 97.113 87.8641Z" transform="matrix(1.00913 0 0 1 961 78.9013)"/><path d="M111.647 87.8641C111.647 89.6884 110.168 91.1673 108.344 91.1673 106.519 91.1673 105.041 89.6884 105.041 87.8641 105.041 86.0398 106.519 84.5609 108.344 84.5609 110.168 84.5609 111.647 86.0398 111.647 87.8641Z" transform="matrix(1.00913 0 0 1 961 78.9013)"/><path d="M68.0451 87.8641C68.0451 89.6884 66.5663 91.1673 64.742 91.1673 62.9177 91.1673 61.4388 89.6884 61.4388 87.8641 61.4388 86.0398 62.9177 84.5609 64.742 84.5609 66.5663 84.5609 68.0451 86.0398 68.0451 87.8641Z" transform="matrix(1.00913 0 0 1 961 78.9013)"/><path d="M82.579 87.8641C82.579 89.6884 81.1002 91.1673 79.2759 91.1673 77.4516 91.1673 75.9727 89.6884 75.9727 87.8641 75.9727 86.0398 77.4516 84.5609 79.2759 84.5609 81.1002 84.5609 82.579 86.0398 82.579 87.8641Z" transform="matrix(1.00913 0 0 1 961 78.9013)"/><path d="M38.9773 87.8641C38.9773 89.6884 37.4984 91.1673 35.6741 91.1673 33.8499 91.1673 32.371 89.6884 32.371 87.8641 32.371 86.0398 33.8499 84.5609 35.6741 84.5609 37.4984 84.5609 38.9773 86.0398 38.9773 87.8641Z" transform="matrix(1.00913 0 0 1 961 78.9013)"/><path d="M53.5112 87.8641C53.5112 89.6884 52.0323 91.1673 50.2081 91.1673 48.3838 91.1673 46.9049 89.6884 46.9049 87.8641 46.9049 86.0398 48.3838 84.5609 50.2081 84.5609 52.0323 84.5609 53.5112 86.0398 53.5112 87.8641Z" transform="matrix(1.00913 0 0 1 961 78.9013)"/><path d="M24.4434 87.8641C24.4434 89.6884 22.9645 91.1673 21.1402 91.1673 19.316 91.1673 17.8371 89.6884 17.8371 87.8641 17.8371 86.0398 19.316 84.5609 21.1402 84.5609 22.9645 84.5609 24.4434 86.0398 24.4434 87.8641Z" transform="matrix(1.00913 0 0 1 961 78.9013)"/><path d="M116.892 105.252 114.342 95.6331C114.264 95.3612 114.129 95.109 113.946 94.8932 113.077 93.9874 112.003 93.3031 110.814 92.8981 110.026 92.6014 109.186 92.4622 108.344 92.4885 107.507 92.4869 106.677 92.6254 105.886 92.8981 104.688 93.2982 103.608 93.9882 102.742 94.9064 102.577 95.1301 102.452 95.3804 102.372 95.6464L101.05 100.561 99.7291 95.686C99.6584 95.4138 99.5274 95.1609 99.3459 94.9461 98.471 94.0407 97.3931 93.3569 96.2013 92.951 95.4414 92.644 94.6294 92.4871 93.8098 92.4885 92.9737 92.4892 92.1434 92.6275 91.3522 92.8981 90.1569 93.2952 89.0803 93.9857 88.2208 94.9064 88.047 95.1263 87.917 95.3775 87.8377 95.6464L86.5428 100.416 85.2216 95.6331C85.1434 95.3612 85.0083 95.109 84.8252 94.8932 83.9559 93.9874 82.8821 93.3031 81.6938 92.8981 80.9214 92.6081 80.1006 92.4691 79.2759 92.4885 78.4395 92.4869 77.6088 92.6254 76.8183 92.8981 75.6206 93.2982 74.5405 93.9882 73.6737 94.9064 73.5091 95.1301 73.3838 95.3804 73.3038 95.6464L71.9825 100.561 70.6612 95.686C70.5905 95.4138 70.4596 95.1609 70.2781 94.9461 69.4031 94.0407 68.3252 93.3569 67.1335 92.951 66.3736 92.644 65.5616 92.4871 64.742 92.4885 63.9059 92.4892 63.0756 92.6275 62.2844 92.8981 61.0891 93.2952 60.0125 93.9857 59.153 94.9064 58.9791 95.1263 58.8491 95.3775 58.7699 95.6464L57.475 100.416 56.1538 95.6331C56.0755 95.3612 55.9405 95.109 55.7574 94.8932 54.8881 93.9874 53.8143 93.3031 52.626 92.8981 51.8537 92.6081 51.0328 92.4691 50.2081 92.4885 49.3717 92.4869 48.541 92.6254 47.7505 92.8981 46.5529 93.2982 45.4726 93.9882 44.6059 94.9064 44.4413 95.1301 44.3161 95.3804 44.2359 95.6464L42.9147 100.561 41.5934 95.686C41.5227 95.4138 41.3918 95.1609 41.2102 94.9461 40.3353 94.0407 39.2574 93.3569 38.0656 92.951 37.3058 92.644 36.4937 92.4871 35.6741 92.4885 34.8381 92.4892 34.0078 92.6275 33.2166 92.8981 32.0212 93.2952 30.9447 93.9857 30.0852 94.9064 29.9113 95.1263 29.7813 95.3775 29.702 95.6464L28.4072 100.416 27.0859 95.6331C27.0077 95.3612 26.8727 95.109 26.6895 94.8932 25.8203 93.9874 24.7465 93.3031 23.5581 92.8981 22.7857 92.6081 21.965 92.4691 21.1402 92.4885 20.3039 92.4869 19.4733 92.6254 18.6827 92.8981 17.4851 93.2982 16.4048 93.9882 15.5381 94.9064 15.3734 95.1301 15.2483 95.3804 15.1681 95.6464L12.6181 105.252C12.4752 105.968 12.9395 106.663 13.6551 106.806 14.3094 106.937 14.9584 106.559 15.1681 105.926L17.1764 98.3549 17.1764 102.504 14.9039 110.986 17.1764 110.986 17.1764 121.556 19.819 121.556 19.819 110.986 22.4615 110.986 22.4615 121.556 25.104 121.556 25.104 110.986 27.3766 110.986 25.104 102.504 25.104 98.2625 27.1256 105.926C27.303 106.634 28.0206 107.064 28.7284 106.886 29.2011 106.768 29.5703 106.399 29.6888 105.926L31.7104 98.2625 31.7104 121.556 34.3529 121.556 34.3529 107.022 36.9954 107.022 36.9954 121.556 39.6379 121.556 39.6379 98.3417 41.6463 105.926C41.6463 106.656 42.2378 107.247 42.9675 107.247 43.6973 107.247 44.2888 106.656 44.2888 105.926L46.2443 98.3417 46.2443 102.504 43.9717 110.986 46.2443 110.986 46.2443 121.556 48.8868 121.556 48.8868 110.986 51.5293 110.986 51.5293 121.556 54.1719 121.556 54.1719 110.986 56.4444 110.986 54.1719 102.504 54.1719 98.2625 56.1934 105.926C56.3708 106.634 57.0884 107.064 57.7962 106.886 58.269 106.768 58.6381 106.399 58.7566 105.926L60.7782 98.2625 60.7782 121.556 63.4207 121.556 63.4207 107.022 66.0632 107.022 66.0632 121.556 68.7058 121.556 68.7058 98.3417 70.7141 105.926C70.7141 106.656 71.3056 107.247 72.0354 107.247 72.7651 107.247 73.3566 106.656 73.3566 105.926L75.3121 98.3417 75.3121 102.504 73.0395 110.986 75.3121 110.986 75.3121 121.556 77.9546 121.556 77.9546 110.986 80.5972 110.986 80.5972 121.556 83.2397 121.556 83.2397 110.986 85.5123 110.986 83.2397 102.504 83.2397 98.2625 85.2612 105.926C85.4387 106.634 86.1562 107.064 86.864 106.886 87.3368 106.768 87.706 106.399 87.8245 105.926L89.846 98.2625 89.846 121.556 92.4885 121.556 92.4885 107.022 95.1311 107.022 95.1311 121.556 97.7736 121.556 97.7736 98.3417 99.7819 105.926C99.7819 106.656 100.373 107.247 101.103 107.247 101.833 107.247 102.424 106.656 102.424 105.926L104.38 98.3417 104.38 102.504 102.107 110.986 104.38 110.986 104.38 121.556 107.022 121.556 107.022 110.986 109.665 110.986 109.665 121.556 112.308 121.556 112.308 110.986 114.58 110.986 112.308 102.504 112.308 98.2625 114.329 105.926C114.489 106.519 115.036 106.925 115.65 106.904 116.38 106.883 116.954 106.275 116.934 105.546 116.931 105.446 116.917 105.348 116.892 105.252Z" transform="matrix(1.00913 0 0 1 961 78.9013)"/><path d="M93.8098 51.5293C95.6341 51.5293 97.113 50.0504 97.113 48.2262 97.113 46.4019 95.6341 44.923 93.8098 44.923 91.9855 44.923 90.5066 46.4019 90.5066 48.2262 90.5066 50.0504 91.9855 51.5293 93.8098 51.5293Z" transform="matrix(1.00913 0 0 1 961 78.9013)"/><path d="M64.742 51.5293C66.5662 51.5293 68.0451 50.0504 68.0451 48.2262 68.0451 46.4019 66.5662 44.923 64.742 44.923 62.9177 44.923 61.4388 46.4019 61.4388 48.2262 61.4388 50.0504 62.9177 51.5293 64.742 51.5293Z" transform="matrix(1.00913 0 0 1 961 78.9013)"/><path d="M79.2759 51.5293C81.1002 51.5293 82.579 50.0504 82.579 48.2262 82.579 46.4019 81.1002 44.923 79.2759 44.923 77.4516 44.923 75.9727 46.4019 75.9727 48.2262 75.9727 50.0504 77.4516 51.5293 79.2759 51.5293Z" transform="matrix(1.00913 0 0 1 961 78.9013)"/><path d="M35.6741 51.5293C37.4984 51.5293 38.9773 50.0504 38.9773 48.2262 38.9773 46.4019 37.4984 44.923 35.6741 44.923 33.8499 44.923 32.371 46.4019 32.371 48.2262 32.371 50.0504 33.8499 51.5293 35.6741 51.5293Z" transform="matrix(1.00913 0 0 1 961 78.9013)"/><path d="M50.2081 51.5293C52.0323 51.5293 53.5112 50.0504 53.5112 48.2262 53.5112 46.4019 52.0323 44.923 50.2081 44.923 48.3838 44.923 46.9049 46.4019 46.9049 48.2262 46.9049 50.0504 48.3838 51.5293 50.2081 51.5293Z" transform="matrix(1.00913 0 0 1 961 78.9013)"/><path d="M102.332 65.614 99.7819 55.9952C99.7112 55.723 99.5803 55.4701 99.3988 55.2553 98.5238 54.35 97.4459 53.6661 96.2541 53.2602 95.4742 52.9646 94.6435 52.8254 93.8098 52.8506 92.9737 52.8512 92.1434 52.9896 91.3522 53.2602 90.1569 53.6572 89.0803 54.3477 88.2208 55.2685 88.047 55.4884 87.917 55.7395 87.8377 56.0084L86.5428 60.7782 85.2216 55.9952C85.1434 55.7233 85.0083 55.4711 84.8252 55.2553 83.9559 54.3493 82.8821 53.6651 81.6938 53.2602 80.9214 52.9702 80.1006 52.8312 79.2759 52.8506 78.4395 52.849 77.6088 52.9875 76.8183 53.2602 75.6206 53.6603 74.5405 54.3502 73.6737 55.2685 73.5091 55.4922 73.3838 55.7424 73.3038 56.0084L71.9825 60.9235 70.6612 56.048C70.5905 55.7759 70.4596 55.523 70.2781 55.3081 69.4031 54.4028 68.3252 53.7189 67.1335 53.313 66.3736 53.0061 65.5616 52.8491 64.742 52.8506 63.9059 52.8512 63.0756 52.9896 62.2844 53.2602 61.0891 53.6572 60.0125 54.3477 59.153 55.2685 58.9791 55.4884 58.8491 55.7395 58.7699 56.0084L57.475 60.7782 56.1538 55.9952C56.0755 55.7233 55.9405 55.4711 55.7574 55.2553 54.8881 54.3493 53.8143 53.6651 52.626 53.2602 51.8537 52.9702 51.0328 52.8312 50.2081 52.8506 49.3717 52.849 48.541 52.9875 47.7505 53.2602 46.5529 53.6603 45.4726 54.3502 44.6059 55.2685 44.4413 55.4922 44.3161 55.7424 44.2359 56.0084L42.9147 60.9235 41.5934 56.048C41.5227 55.7759 41.3918 55.523 41.2102 55.3081 40.3353 54.4028 39.2574 53.7189 38.0656 53.313 37.3058 53.0061 36.4937 52.8491 35.6741 52.8506 34.8381 52.8512 34.0078 52.9896 33.2166 53.2602 32.0212 53.6572 30.9447 54.3477 30.0852 55.2685 29.9113 55.4884 29.7813 55.7395 29.702 56.0084L27.1388 65.6669C26.9542 66.3708 27.3736 67.0916 28.0769 67.2788L28.4204 67.2788C29.0347 67.2998 29.5822 66.8946 29.7417 66.3011L31.7104 58.6245 31.7104 81.9184 34.3529 81.9184 34.3529 67.3845 36.9954 67.3845 36.9954 81.9184 39.6379 81.9184 39.6379 58.7038 41.6463 66.2878C41.6463 67.0176 42.2378 67.6091 42.9675 67.6091 43.6973 67.6091 44.2888 67.0176 44.2888 66.2878L46.2443 58.7038 46.2443 62.8658 43.9717 71.3483 46.2443 71.3483 46.2443 81.9184 48.8868 81.9184 48.8868 71.3483 51.5293 71.3483 51.5293 81.9184 54.1719 81.9184 54.1719 71.3483 56.4444 71.3483 54.1719 62.8658 54.1719 58.6245 56.1934 66.2878C56.3708 66.9957 57.0884 67.4257 57.7962 67.2483 58.269 67.1298 58.6381 66.7606 58.7566 66.2878L60.7782 58.6245 60.7782 81.9184 63.4207 81.9184 63.4207 67.3845 66.0632 67.3845 66.0632 81.9184 68.7058 81.9184 68.7058 58.7038 70.7141 66.2878C70.7141 67.0176 71.3056 67.6091 72.0354 67.6091 72.7651 67.6091 73.3566 67.0176 73.3566 66.2878L75.3121 58.7038 75.3121 62.8658 73.0395 71.3483 75.3121 71.3483 75.3121 81.9184 77.9546 81.9184 77.9546 71.3483 80.5972 71.3483 80.5972 81.9184 83.2397 81.9184 83.2397 71.3483 85.5123 71.3483 83.2397 62.8658 83.2397 58.6245 85.2612 66.2878C85.4387 66.9957 86.1562 67.4257 86.864 67.2483 87.3368 67.1298 87.706 66.7606 87.8245 66.2878L89.846 58.6245 89.846 81.9184 92.4885 81.9184 92.4885 67.3845 95.1311 67.3845 95.1311 81.9184 97.7736 81.9184 97.7736 58.7038 99.7819 66.2878C99.9414 66.8814 100.489 67.2866 101.103 67.2656 101.217 67.2785 101.333 67.2785 101.447 67.2656 102.146 67.0566 102.543 66.3204 102.334 65.6213 102.333 65.6188 102.333 65.6164 102.332 65.614Z" transform="matrix(1.00913 0 0 1 961 78.9013)"/><path d="M64.742 11.8914C66.5662 11.8914 68.0451 10.4125 68.0451 8.58822 68.0451 6.76394 66.5662 5.28506 64.742 5.28506 62.9177 5.28506 61.4388 6.76394 61.4388 8.58822 61.4388 10.4125 62.9177 11.8914 64.742 11.8914Z" transform="matrix(1.00913 0 0 1 961 78.9013)"/><path d="M79.2759 11.8914C81.1002 11.8914 82.579 10.4125 82.579 8.58822 82.579 6.76394 81.1002 5.28506 79.2759 5.28506 77.4516 5.28506 75.9727 6.76394 75.9727 8.58822 75.9727 10.4125 77.4516 11.8914 79.2759 11.8914Z" transform="matrix(1.00913 0 0 1 961 78.9013)"/><path d="M50.2081 11.8914C52.0323 11.8914 53.5112 10.4125 53.5112 8.58822 53.5112 6.76394 52.0323 5.28506 50.2081 5.28506 48.3838 5.28506 46.9049 6.76394 46.9049 8.58822 46.9049 10.4125 48.3838 11.8914 50.2081 11.8914Z" transform="matrix(1.00913 0 0 1 961 78.9013)"/><path d="M87.8245 25.9761 85.2744 16.3573C85.1962 16.0853 85.0612 15.8331 84.878 15.6173 84.0088 14.7115 82.935 14.0272 81.7467 13.6222 80.9577 13.3255 80.1183 13.1864 79.2759 13.2126 78.4395 13.211 77.6088 13.3495 76.8183 13.6222 75.6207 14.0223 74.5405 14.7123 73.6737 15.6306 73.5091 15.8543 73.384 16.1045 73.3038 16.3705L71.9825 21.2856 70.6612 16.4101C70.5905 16.1379 70.4596 15.885 70.2781 15.6702 69.4031 14.7649 68.3252 14.081 67.1335 13.6751 66.3736 13.3682 65.5616 13.2112 64.742 13.2126 63.9059 13.2133 63.0756 13.3516 62.2844 13.6222 61.0891 14.0193 60.0125 14.7098 59.153 15.6306 58.9791 15.8504 58.8491 16.1016 58.7699 16.3705L57.475 21.1402 56.1538 16.3573C56.0755 16.0853 55.9405 15.8331 55.7574 15.6173 54.8881 14.7115 53.8143 14.0272 52.626 13.6222 51.8537 13.3322 51.0328 13.1932 50.2081 13.2126 49.3717 13.211 48.541 13.3495 47.7505 13.6222 46.5529 14.0223 45.4726 14.7123 44.6059 15.6306 44.4413 15.8543 44.3161 16.1045 44.2359 16.3705L41.6727 26.0289C41.4881 26.7329 41.9075 27.4536 42.6108 27.6409 42.7249 27.6538 42.8402 27.6538 42.9543 27.6409 43.5686 27.6619 44.1161 27.2566 44.2756 26.6631L46.2443 19.0659 46.2443 23.2278 43.9717 31.7104 46.2443 31.7104 46.2443 42.2805 48.8868 42.2805 48.8868 31.7104 51.5293 31.7104 51.5293 42.2805 54.1719 42.2805 54.1719 31.7104 56.4444 31.7104 54.1719 23.2278 54.1719 18.9866 56.1934 26.6499C56.3708 27.3577 57.0884 27.7878 57.7962 27.6103 58.269 27.4918 58.6381 27.1227 58.7566 26.6499L60.7782 18.9866 60.7782 42.2805 63.4207 42.2805 63.4207 27.7466 66.0632 27.7466 66.0632 42.2805 68.7058 42.2805 68.7058 19.0659 70.7141 26.6499C70.7141 27.3796 71.3056 27.9712 72.0354 27.9712 72.7651 27.9712 73.3566 27.3796 73.3566 26.6499L75.3121 19.0659 75.3121 23.2278 73.0395 31.7104 75.3121 31.7104 75.3121 42.2805 77.9546 42.2805 77.9546 31.7104 80.5972 31.7104 80.5972 42.2805 83.2397 42.2805 83.2397 31.7104 85.5123 31.7104 83.2397 23.2278 83.2397 18.9866 85.2612 26.6499C85.4207 27.2434 85.9682 27.6487 86.5825 27.6276L86.926 27.6276C87.6271 27.4254 88.0315 26.693 87.8291 25.9918 87.8276 25.9866 87.826 25.9813 87.8245 25.9761Z" transform="matrix(1.00913 0 0 1 961 78.9013)"/></g></g></g><text font-family="Calibri,Calibri_MSFontService,sans-serif" font-weight="400" font-size="21" transform="matrix(1 0 0 0.998751 926.86 244)">Research community</text><g clip-path="url(#clip7)"><g clip-path="url(#clip8)"><g clip-path="url(#clip9)"><path d="M29.9625 14.0449C29.9625 18.1819 26.6088 21.5356 22.4719 21.5356 18.3349 21.5356 14.9813 18.1819 14.9813 14.0449 14.9813 9.90797 18.3349 6.5543 22.4719 6.5543 26.6088 6.5543 29.9625 9.90797 29.9625 14.0449Z" transform="matrix(1.00125 0 0 1 63 119.85)"/><path d="M36.0487 27.1114C35.9209 26.1362 35.4375 25.2425 34.691 24.602 32.6908 23.2324 30.4518 22.2495 28.0899 21.7041 27.823 21.6432 27.5421 21.5917 27.2612 21.5402 24.3579 23.4005 20.6373 23.4005 17.7341 21.5402L16.8914 21.6947C14.5272 22.2731 12.2811 23.2567 10.2528 24.602 9.41947 25.1357 9.07302 26.1283 8.89512 27.1114L7.49063 35.1591C7.40659 35.8384 7.68796 36.5114 8.23033 36.9288L11.4373 39.0449 11.4373 28.9091C11.4372 27.7353 12.3888 26.7837 13.5627 26.7836 13.5674 26.7836 13.5721 26.7836 13.5768 26.7837L31.367 26.7837C32.5409 26.7837 33.4925 27.7353 33.4925 28.9091L33.4925 38.7874 36.8726 36.6666C37.2728 36.3964 37.495 35.9304 37.4531 35.4494Z" transform="matrix(1.00125 0 0 1 63 119.85)"/><path d="M32.5702 40.5758 32.5702 28.9091C32.5702 28.2524 32.0379 27.72 31.3811 27.7199 31.3764 27.7199 31.3717 27.72 31.367 27.72L13.5768 27.72C12.92 27.72 12.3876 28.2524 12.3876 28.9091L12.3876 40.5758 8.80617 40.5758 8.80617 41.1704C8.80875 41.826 9.33964 42.3569 9.99531 42.3595L34.9485 42.3595C35.6041 42.3569 36.135 41.826 36.1376 41.1704L36.1376 40.5758ZM20.0468 36.6666 19.3867 37.3267 16.7603 34.7003 19.3867 32.0739 20.0468 32.7341 18.0852 34.7003ZM21.7931 37.6545 20.9269 37.294 23.1226 31.9944 23.9841 32.3548ZM25.5384 37.3267 24.8783 36.6666 26.8399 34.7003 24.8783 32.7341 25.5384 32.0739 28.1648 34.7003Z" transform="matrix(1.00125 0 0 1 63 119.85)"/></g></g></g><g clip-path="url(#clip10)"><g clip-path="url(#clip11)"><g clip-path="url(#clip12)"><path d="M29.9625 14.0449C29.9625 18.1819 26.6088 21.5356 22.4719 21.5356 18.3349 21.5356 14.9813 18.1819 14.9813 14.0449 14.9813 9.90797 18.3349 6.5543 22.4719 6.5543 26.6088 6.5543 29.9625 9.90797 29.9625 14.0449Z" transform="matrix(1.00125 0 0 1 63 163.795)"/><path d="M36.0487 27.1114C35.9209 26.1362 35.4375 25.2425 34.691 24.602 32.6908 23.2324 30.4518 22.2495 28.0899 21.7041 27.823 21.6432 27.5421 21.5917 27.2612 21.5402 24.3579 23.4005 20.6373 23.4005 17.7341 21.5402L16.8914 21.6947C14.5272 22.2731 12.2811 23.2567 10.2528 24.602 9.41947 25.1357 9.07302 26.1283 8.89512 27.1114L7.49063 35.1591C7.40659 35.8384 7.68796 36.5114 8.23033 36.9288L11.4373 39.0449 11.4373 28.9091C11.4372 27.7353 12.3888 26.7837 13.5627 26.7836 13.5674 26.7836 13.5721 26.7836 13.5768 26.7837L31.367 26.7837C32.5409 26.7837 33.4925 27.7353 33.4925 28.9091L33.4925 38.7874 36.8726 36.6666C37.2728 36.3964 37.495 35.9304 37.4531 35.4494Z" transform="matrix(1.00125 0 0 1 63 163.795)"/><path d="M32.5702 40.5758 32.5702 28.9091C32.5702 28.2524 32.0379 27.72 31.3811 27.7199 31.3764 27.7199 31.3717 27.72 31.367 27.72L13.5768 27.72C12.92 27.72 12.3876 28.2524 12.3876 28.9091L12.3876 40.5758 8.80617 40.5758 8.80617 41.1704C8.80875 41.826 9.33964 42.3569 9.99531 42.3595L34.9485 42.3595C35.6041 42.3569 36.135 41.826 36.1376 41.1704L36.1376 40.5758ZM20.0468 36.6666 19.3867 37.3267 16.7603 34.7003 19.3867 32.0739 20.0468 32.7341 18.0852 34.7003ZM21.7931 37.6545 20.9269 37.294 23.1226 31.9944 23.9841 32.3548ZM25.5384 37.3267 24.8783 36.6666 26.8399 34.7003 24.8783 32.7341 25.5384 32.0739 28.1648 34.7003Z" transform="matrix(1.00125 0 0 1 63 163.795)"/></g></g></g><g clip-path="url(#clip13)"><g clip-path="url(#clip14)"><g clip-path="url(#clip15)"><path d="M29.9625 14.0449C29.9625 18.1819 26.6088 21.5356 22.4719 21.5356 18.3349 21.5356 14.9813 18.1819 14.9813 14.0449 14.9813 9.90797 18.3349 6.5543 22.4719 6.5543 26.6088 6.5543 29.9625 9.90797 29.9625 14.0449Z" transform="matrix(1.00125 0 0 1 63 75.9051)"/><path d="M36.0487 27.1114C35.9209 26.1362 35.4375 25.2425 34.691 24.602 32.6908 23.2324 30.4518 22.2495 28.0899 21.7041 27.823 21.6432 27.5421 21.5917 27.2612 21.5402 24.3579 23.4005 20.6373 23.4005 17.7341 21.5402L16.8914 21.6947C14.5272 22.2731 12.2811 23.2567 10.2528 24.602 9.41947 25.1357 9.07302 26.1283 8.89512 27.1114L7.49063 35.1591C7.40659 35.8384 7.68796 36.5114 8.23033 36.9288L11.4373 39.0449 11.4373 28.9091C11.4372 27.7353 12.3888 26.7837 13.5627 26.7836 13.5674 26.7836 13.5721 26.7836 13.5768 26.7837L31.367 26.7837C32.5409 26.7837 33.4925 27.7353 33.4925 28.9091L33.4925 38.7874 36.8726 36.6666C37.2728 36.3964 37.495 35.9304 37.4531 35.4494Z" transform="matrix(1.00125 0 0 1 63 75.9051)"/><path d="M32.5702 40.5758 32.5702 28.9091C32.5702 28.2524 32.0379 27.72 31.3811 27.7199 31.3764 27.7199 31.3717 27.72 31.367 27.72L13.5768 27.72C12.92 27.72 12.3876 28.2524 12.3876 28.9091L12.3876 40.5758 8.80617 40.5758 8.80617 41.1704C8.80875 41.826 9.33964 42.3569 9.99531 42.3595L34.9485 42.3595C35.6041 42.3569 36.135 41.826 36.1376 41.1704L36.1376 40.5758ZM20.0468 36.6666 19.3867 37.3267 16.7603 34.7003 19.3867 32.0739 20.0468 32.7341 18.0852 34.7003ZM21.7931 37.6545 20.9269 37.294 23.1226 31.9944 23.9841 32.3548ZM25.5384 37.3267 24.8783 36.6666 26.8399 34.7003 24.8783 32.7341 25.5384 32.0739 28.1648 34.7003Z" transform="matrix(1.00125 0 0 1 63 75.9051)"/></g></g></g><path d="M430.2 206.075 424.963 208.07 409.346 212.85 393.054 216.871 376.085 220.135 358.556 222.707 340.716 224.464 322.632 225.468 304.427 225.718 286.219 225.279 268.196 224.025 250.483 222.08 233.14 219.319 216.419 215.866 200.311 211.655 185.067 206.685 170.77 200.961 164.056 197.861 157.851 194.636 152.026 191.285 146.637 187.865 141.671 184.368 137.145 180.739 133.051 177.097 129.385 173.308 126.167 169.45 123.385 165.574 121.048 161.618 119.089 157.575 117.643 153.504 116.658 149.441 116.065 145.289 115.998 141.198 116.327 137.059 117.122 132.96 118.435 128.894 120.131 124.854 122.281 120.885 124.873 116.937 127.904 113.072 131.315 109.281 135.224 105.568 139.509 101.927 144.284 98.43 149.421 94.9459 155.01 91.584 161.024 88.3597 167.469 85.2044 174.367 82.1706 188.977 76.6358 204.592 71.8566 220.883 67.8359 237.853 64.5717 255.381 61.9991 273.221 60.2424 291.306 59.239 309.51 58.9882 327.719 59.4271 345.741 60.6815 363.454 62.6263 380.798 65.3877 397.519 68.8407 413.627 73.0512 428.871 78.0214 443.179 83.7501 453.104 88.4855 462.077 93.4516 460.138 96.9465 451.218 92.0096 451.325 92.0648 441.513 87.3832 441.631 87.4349 427.443 81.7545 427.567 81.7993 412.442 76.868 412.556 76.9015 396.556 72.7192 396.657 72.743 380.032 69.3098 380.123 69.3262 362.873 66.5797 362.969 66.5926 345.344 64.6575 345.423 64.6647 327.486 63.4162 327.577 63.4205 309.452 62.9835 309.528 62.9839 291.403 63.2336 291.486 63.2307 273.486 64.2295 273.571 64.2229 255.821 65.9707 255.916 65.9591 238.478 68.5184 238.566 68.5036 221.691 71.7495 221.792 71.7273 205.605 75.7223 205.711 75.6929 190.211 80.437 190.334 80.3948 175.834 85.8879 175.931 85.8484 169.119 88.8446 169.193 88.8101 162.818 91.9312 162.884 91.8975 156.946 95.081 157.032 95.0322 151.532 98.3406 151.624 98.282 146.561 101.715 146.62 101.673 141.933 105.107 142.046 105.017 137.859 108.575 137.941 108.501 134.128 112.122 134.238 112.009 130.926 115.692 131.012 115.589 128.075 119.334 128.173 119.198 125.673 123.006 125.759 122.861 123.697 126.668 123.782 126.49 122.157 130.361 122.216 130.201 120.966 134.071 121.026 133.838 120.276 137.708 120.307 137.486 119.994 141.419 120 141.229 120.063 145.099 120.043 144.849 120.605 148.781 120.569 148.594 121.507 152.464 121.448 152.266 122.823 156.136 122.738 155.934 124.613 159.804 124.535 159.659 126.785 163.466 126.688 163.318 129.376 167.063 129.287 166.948 132.412 170.693 132.314 170.584 135.876 174.267 135.768 174.163 139.768 177.722 139.69 177.656 144.127 181.214 144.028 181.139 148.903 184.572 148.823 184.518 154.135 187.889 154.061 187.844 159.811 191.153 159.736 191.112 165.861 194.295 165.777 194.254 172.402 197.313 172.307 197.272 186.494 202.952 186.371 202.907 201.496 207.839 201.382 207.805 217.382 211.987 217.28 211.964 233.905 215.397 233.815 215.38 251.065 218.127 250.969 218.114 268.594 220.049 268.514 220.042 286.452 221.29 286.361 221.286 304.486 221.723 304.41 221.723 322.535 221.473 322.452 221.476 340.452 220.477 340.366 220.484 358.116 218.736 358.022 218.747 375.459 216.188 375.372 216.203 392.247 212.957 392.145 212.979 408.333 208.984 408.226 209.014 423.726 204.27 423.6 204.313 428.774 202.342ZM425.479 199.321 438.832 200.649 429.756 210.521Z"/><text font-family="Calibri,Calibri_MSFontService,sans-serif" font-weight="700" font-size="21" transform="matrix(1 0 0 0.998751 180.698 41)">Project collaboration loop</text><path d="M145.151 65.7182 147.146 70.9486 151.926 86.5459 155.947 102.817 159.211 119.765 161.784 137.272 163.54 155.09 164.544 173.152 164.794 191.333 164.356 209.519 163.101 227.519 161.156 245.21 158.395 262.532 154.942 279.232 150.731 295.32 145.761 310.545 140.037 324.824 136.937 331.53 133.712 337.726 130.361 343.544 126.941 348.927 123.444 353.886 119.815 358.406 116.173 362.495 112.384 366.157 108.526 369.371 104.65 372.15 100.695 374.484 96.6515 376.44 92.5804 377.885 88.5168 378.868 84.3652 379.461 80.2739 379.527 76.1347 379.198 72.036 378.405 67.9699 377.093 63.9302 375.399 59.9613 373.252 56.0127 370.663 52.1482 367.636 48.3567 364.23 44.6439 360.325 41.0034 356.046 37.5061 351.277 34.022 346.146 30.6601 340.564 27.4358 334.558 24.2805 328.121 21.2467 321.231 15.7119 306.64 10.9327 291.044 6.91199 274.773 3.64785 257.825 1.07519 240.318-0.681488 222.5-1.68492 204.439-1.93571 186.257-1.49674 168.071-0.242376 150.071 1.70237 132.38 4.46378 115.058 7.91679 98.3584 12.1273 82.2705 17.0975 67.0454 22.8263 52.7549 27.5616 42.8422 32.5278 33.8805 36.0226 35.8172 31.0857 44.7261 31.141 44.6189 26.4593 54.4191 26.511 54.3014 20.8306 68.4711 20.8754 68.3477 15.9441 83.4538 15.9776 83.3397 11.7954 99.3197 11.8191 99.2184 8.38587 115.823 8.40234 115.733 5.65578 132.961 5.66873 132.865 3.73365 150.468 3.74078 150.388 2.49234 168.304 2.49659 168.213 2.05963 186.315 2.06003 186.239 2.30971 204.342 2.30683 204.259 3.30558 222.236 3.29902 222.151 5.04683 239.879 5.03524 239.784 7.59454 257.2 7.57972 257.113 10.8257 273.966 10.8034 273.865 14.7984 290.032 14.769 289.926 19.5131 305.407 19.4709 305.284 24.964 319.766 24.9245 319.669 27.9207 326.473 27.8862 326.399 31.0073 332.766 30.9736 332.7 34.1572 338.63 34.1083 338.544 37.4167 344.038 37.3581 343.946 40.7913 349.002 40.7496 348.943 44.1828 353.625 44.0934 353.512 47.6514 357.694 47.5776 357.612 51.1981 361.42 51.0853 361.31 54.7682 364.618 54.6651 364.532 58.4104 367.466 58.274 367.368 62.0817 369.865 61.9368 369.778 65.7445 371.838 65.5666 371.753 69.4367 373.376 69.2774 373.317 73.1476 374.565 72.9139 374.505 76.784 375.254 76.5625 375.224 80.4951 375.536 80.3048 375.53 84.1749 375.468 83.9246 375.488 87.8572 374.926 87.67 374.962 91.5401 374.025 91.3418 374.084 95.212 372.711 95.0099 372.796 98.8801 370.923 98.7348 371.001 102.543 368.754 102.394 368.85 106.14 366.166 106.024 366.255 109.77 363.134 109.66 363.232 113.343 359.674 113.24 359.782 116.798 355.787 116.732 355.865 120.29 351.433 120.215 351.533 123.648 346.664 123.595 346.744 126.965 341.438 126.92 341.512 130.229 335.769 130.188 335.844 133.371 329.727 133.33 329.811 136.389 323.194 136.348 323.289 142.028 309.119 141.983 309.242 146.915 294.136 146.881 294.25 151.063 278.27 151.04 278.372 154.473 261.768 154.456 261.858 157.203 244.629 157.19 244.725 159.125 227.122 159.118 227.202 160.366 209.287 160.362 209.377 160.799 191.275 160.799 191.351 160.549 173.248 160.552 173.332 159.553 155.354 159.56 155.439 157.812 137.711 157.824 137.806 155.264 120.39 155.279 120.478 152.033 103.624 152.055 103.725 148.06 87.5578 148.09 87.6639 143.346 72.1833 143.389 72.3099 141.418 67.1421ZM138.397 70.4326 139.725 57.0969 149.597 66.1609Z" transform="matrix(1.83927e-16 1 1.00125 -1.83697e-16 589 60.9239)"/><text font-family="Calibri,Calibri_MSFontService,sans-serif" font-weight="700" font-size="21" transform="matrix(1 0 0 0.998751 711.008 41)">Record curation loop<tspan font-weight="400" font-size="21" x="-512.045" y="93.1163">Synchronize </tspan><tspan font-size="21" x="-403.449" y="93.1163">project </tspan>data <tspan font-weight="400" font-size="21" x="-538.422" y="119.149">through </tspan><tspan font-weight="400" font-size="21" x="-464.424" y="119.149">a shared git repository</tspan><tspan font-weight="400" font-size="21" x="-95.2389" y="95.1188">Retrieve </tspan><tspan font-size="21" x="-18.3609" y="95.1188">record</tspan><tspan font-size="21" x="39.0409" y="95.1188">-</tspan><tspan font-size="21" x="45.5418" y="95.1188">level data </tspan><tspan font-weight="400" font-size="21" x="136.175" y="95.1188">for the </tspan><tspan font-weight="400" font-size="21" x="-80.8701" y="121.151">project and feed updates back</tspan><tspan font-weight="400" font-size="24" x="-220.609" y="199.249">colrev pull</tspan><tspan font-weight="400" font-size="24" x="-226.11" y="38.0475">colrev push</tspan></text></g></svg>
