<svg width="1280" height="529" xmlns="http://www.w3.org/2000/svg" xmlns:xlink="http://www.w3.org/1999/xlink" overflow="hidden"><defs><clipPath id="clip0"><rect x="0" y="0" width="1280" height="529"/></clipPath></defs><g clip-path="url(#clip0)"><rect x="0" y="0" width="1280" height="528.833" fill="#FFFFFF"/><rect x="474.5" y="18.4942" width="391" height="68.9783" stroke="#000000" stroke-width="1.33333" stroke-miterlimit="8" fill="#FFFFFF"/><text font-family="Calibri,Calibri_MSFontService,sans-serif" font-weight="400" font-size="24" transform="matrix(1 0 0 0.999685 596.595 60)">CoLRev <tspan font-size="24" x="76.46" y="0">project</tspan></text><rect x="505.5" y="376.381" width="243" height="45.9855" stroke="#000000" stroke-width="1.33333" stroke-miterlimit="8" stroke-dasharray="5.33333 4" fill="#FFFFFF"/><text font-family="Calibri,Calibri_MSFontService,sans-serif" font-weight="400" font-size="24" transform="matrix(1 0 0 0.999685 556.914 406)">Journal A, B, C</text><rect x="505.5" y="432.364" width="243" height="46.9852" stroke="#000000" stroke-width="1.33333" stroke-miterlimit="8" stroke-dasharray="5.33333 4" fill="#FFFFFF"/><text font-family="Calibri,Calibri_MSFontService,sans-serif" font-weight="400" font-size="24" transform="matrix(1 0 0 0.999685 548.334 463)">Conference C, D</text><rect x="765.5" y="376.381" width="242" height="45.9855" stroke="#000000" stroke-width="1.33333" stroke-miterlimit="8" stroke-dasharray="5.33333 4" fill="#FFFFFF"/><text font-family="Calibri,Calibri_MSFontService,sans-serif" font-weight="400" font-size="24" transform="matrix(1 0 0 0.999685 850.446 406)">Topic D</text><rect x="765.5" y="432.364" width="242" height="46.9852" stroke="#000000" stroke-width="1.33333" stroke-miterlimit="8" stroke-dasharray="5.33333 4" fill="#FFFFFF"/><text font-family="Calibri,Calibri_MSFontService,sans-serif" font-weight="400" font-size="24" transform="matrix(1 0 0 0.999685 813.84 463)">Classification E</text><path d="M585.989 350.909 577.155 335.563 569.616 319.863 563.395 303.782 558.557 287.513 554.975 271.053 552.775 254.404 551.833 237.757 552.21 221.108 553.907 204.459 556.923 187.998 561.259 171.728 566.85 155.713 573.698 139.948 581.866 124.623 591.351 109.678 598.076 100.674 599.946 102.07 593.247 111.038 593.298 110.965 583.86 125.835 583.905 125.759 575.78 141.004 575.82 140.92 569.008 156.603 569.039 156.523 563.477 172.455 563.502 172.371 559.19 188.553 559.21 188.463 556.21 204.833 556.223 204.741 554.536 221.299 554.541 221.207 554.166 237.764 554.165 237.672 555.102 254.229 555.094 254.142 557.282 270.699 557.265 270.604 560.828 286.974 560.806 286.89 565.618 303.072 565.588 302.984 571.776 318.979 571.739 318.895 579.239 334.515 579.199 334.438 588.011 349.745ZM595.008 100.048 603 96.0323 601.418 104.833Z"/><text font-family="Calibri,Calibri_MSFontService,sans-serif" font-weight="700" font-size="24" transform="matrix(1 0 0 0.999685 241.701 115)">reuse (built<tspan font-size="24" x="113.233" y="0">-</tspan><tspan font-size="24" x="120.567" y="0">in)</tspan><tspan font-weight="400" font-size="24" x="-187.38" y="37.0117">Based on metadata fingerprints</tspan><tspan font-weight="400" font-size="24" x="-187.38" y="66.0208">-</tspan><tspan font-weight="400" font-size="24" x="-157.38" y="66.0208">Identify, retrieve, and verify curated metadata</tspan><tspan font-weight="400" font-size="24" x="-187.38" y="95.0299">-</tspan><tspan font-weight="400" font-size="24" x="-157.38" y="95.0299">Classify duplicates/non</tspan><tspan font-weight="400" font-size="24" x="67.06" y="95.0299">-</tspan><tspan font-weight="400" font-size="24" x="74.3933" y="95.0299">duplicates</tspan><tspan font-weight="400" font-size="24" x="-187.38" y="124.039">-</tspan><tspan font-weight="400" font-size="24" x="-157.38" y="124.039">Link curated annotations</tspan><tspan font-weight="400" font-size="24" x="-187.38" y="181.057">Based on PDF fingerprints</tspan><tspan font-weight="400" font-size="24" x="-187.38" y="210.066">-</tspan><tspan font-weight="400" font-size="24" x="-157.38" y="210.066">Identify, retrieve, and verify PDFs</tspan><tspan font-size="24" x="592.91" y="68.0214">Updates and corrections </tspan><tspan font-size="24" x="670.463" y="97.0306">(built</tspan>-in)<tspan font-size="24" x="19.6141" y="295.093">Curated resources</tspan><tspan font-size="24" x="-0.525894" y="332.105">(local and distributed)</tspan></text><path d="M515.003 128.517 520.556 138.099 528.092 153.862 534.373 169.941 539.273 186.274 542.854 202.735 545.053 219.384 545.995 236.093 545.618 252.805 543.922 269.392 540.906 285.915 536.572 302.249 530.919 318.266 524.01 334.03 515.783 349.417 506.301 364.299 495.528 378.704 493.66 377.307 504.407 362.937 504.357 363.009 513.792 348.201 513.747 348.278 521.932 332.97 521.892 333.052 528.765 317.369 528.733 317.449 534.357 301.517 534.329 301.606 538.64 285.361 538.62 285.451 541.619 269.018 541.606 269.109 543.293 252.614 543.287 252.707 543.662 236.087 543.664 236.179 542.727 219.559 542.735 219.646 540.548 203.089 540.565 203.184 537.003 186.814 537.026 186.901 532.152 170.656 532.183 170.746 525.935 154.751 525.969 154.829 518.472 139.147 518.515 139.229 512.984 129.687ZM511.202 132.261 510.652 123.336 518.122 128.25Z" transform="matrix(1.00032 -1.22465e-16 -1.22503e-16 -1 270 475.85)"/><rect x="208.5" y="357.387" width="842" height="141.955" stroke="#000000" stroke-width="1.33333" stroke-miterlimit="8" fill="none"/></g></svg>
