<svg width="1134" height="302" xmlns="http://www.w3.org/2000/svg" xmlns:xlink="http://www.w3.org/1999/xlink" overflow="hidden"><defs><clipPath id="clip0"><rect x="0" y="0" width="1134" height="302"/></clipPath><clipPath id="clip1"><rect x="518" y="105" width="66" height="66"/></clipPath><clipPath id="clip2"><rect x="518" y="105" width="66" height="66"/></clipPath><clipPath id="clip3"><rect x="518" y="105" width="66" height="66"/></clipPath><clipPath id="clip4"><rect x="941" y="74" width="128" height="129"/></clipPath><clipPath id="clip5"><rect x="941" y="74" width="128" height="129"/></clipPath><clipPath id="clip6"><rect x="941" y="74" width="128" height="129"/></clipPath><clipPath id="clip7"><rect x="96" y="115" width="48" height="46"/></clipPath><clipPath id="clip8"><rect x="96" y="115" width="48" height="46"/></clipPath><clipPath id="clip9"><rect x="96" y="115" width="48" height="46"/></clipPath><clipPath id="clip10"><rect x="96" y="159" width="48" height="47"/></clipPath><clipPath id="clip11"><rect x="96" y="159" width="48" height="47"/></clipPath><clipPath id="clip12"><rect x="96" y="159" width="48" height="47"/></clipPath><clipPath id="clip13"><rect x="96" y="71" width="48" height="46"/></clipPath><clipPath id="clip14"><rect x="96" y="71" width="48" height="46"/></clipPath><clipPath id="clip15"><rect x="96" y="71" width="48" height="46"/></clipPath></defs><g clip-path="url(#clip0)"><rect x="0" y="0" width="1134" height="301.623" fill="#FFFFFF"/><g clip-path="url(#clip1)"><g clip-path="url(#clip2)"><g clip-path="url(#clip3)"><path d="M43.2792 20.2871C43.2792 26.2627 38.435 31.1069 32.4594 31.1069 26.4838 31.1069 21.6396 26.2627 21.6396 20.2871 21.6396 14.3115 26.4838 9.46732 32.4594 9.46732 38.435 9.46732 43.2792 14.3115 43.2792 20.2871Z" transform="matrix(1.00125 0 0 1 518 105.868)"/><path d="M52.0703 39.1609C51.8858 37.7522 51.1875 36.4614 50.1092 35.5363 47.2201 33.5579 43.986 32.1382 40.5742 31.3504 40.1888 31.2625 39.783 31.1881 39.3773 31.1137 35.1837 33.8008 29.8095 33.8008 25.6159 31.1137L24.3986 31.3368C20.9837 32.1723 17.7394 33.593 14.8096 35.5363 13.6059 36.3072 13.1055 37.7408 12.8485 39.1609L10.8198 50.7854C10.6984 51.7665 11.1048 52.7387 11.8883 53.3416L16.5205 56.3982 16.5205 41.7577C16.5204 40.0621 17.8949 38.6875 19.5905 38.6875 19.5973 38.6875 19.6041 38.6875 19.6109 38.6875L45.3079 38.6875C47.0035 38.6875 48.378 40.0621 48.378 41.7577L48.378 56.0263 53.2605 52.9629C53.8385 52.5726 54.1595 51.8995 54.099 51.2047Z" transform="matrix(1.00125 0 0 1 518 105.868)"/><path d="M47.0458 58.6095 47.0458 41.7577C47.0459 40.809 46.277 40.0399 45.3283 40.0399 45.3215 40.0399 45.3147 40.0399 45.3079 40.04L19.6109 40.04C18.6623 40.04 17.8932 40.809 17.8932 41.7577L17.8932 58.6095 12.72 58.6095 12.72 59.4683C12.7237 60.4154 13.4906 61.1822 14.4377 61.186L50.4811 61.186C51.4282 61.1822 52.195 60.4154 52.1988 59.4683L52.1988 58.6095ZM28.9565 52.9629 28.003 53.9164 24.2093 50.1227 28.003 46.329 28.9565 47.2825 26.1231 50.1227ZM31.4789 54.3898 30.2278 53.8691 33.3994 46.2141 34.6436 46.7348ZM36.8887 53.9164 35.9353 52.9629 38.7687 50.1227 35.9353 47.2825 36.8887 46.329 40.6824 50.1227Z" transform="matrix(1.00125 0 0 1 518 105.868)"/></g></g></g><text font-family="Calibri,Calibri_MSFontService,sans-serif" font-weight="400" font-size="21" transform="matrix(1 0 0 0.998751 502.285 190)">Researcher</text><text font-family="Calibri,Calibri_MSFontService,sans-serif" font-weight="400" font-size="21" transform="matrix(1 0 0 0.998751 38.4289 244)">Contributors to the</text><text font-family="Calibri,Calibri_MSFontService,sans-serif" font-weight="400" font-size="21" transform="matrix(1 0 0 0.998751 59.1986 270)">review project</text><g clip-path="url(#clip4)"><g clip-path="url(#clip5)"><g clip-path="url(#clip6)"><path d="M97.2344 87.9739C97.2344 89.8005 95.7536 91.2812 93.9271 91.2812 92.1005 91.2812 90.6198 89.8005 90.6198 87.9739 90.6198 86.1474 92.1005 84.6666 93.9271 84.6666 95.7536 84.6666 97.2344 86.1474 97.2344 87.9739Z" transform="matrix(1 0 0 1.00662 941 74.9063)"/><path d="M111.786 87.9739C111.786 89.8005 110.306 91.2812 108.479 91.2812 106.653 91.2812 105.172 89.8005 105.172 87.9739 105.172 86.1474 106.653 84.6666 108.479 84.6666 110.306 84.6666 111.786 86.1474 111.786 87.9739Z" transform="matrix(1 0 0 1.00662 941 74.9063)"/><path d="M68.1302 87.9739C68.1302 89.8005 66.6495 91.2812 64.8229 91.2812 62.9963 91.2812 61.5156 89.8005 61.5156 87.9739 61.5156 86.1474 62.9963 84.6666 64.8229 84.6666 66.6495 84.6666 68.1302 86.1474 68.1302 87.9739Z" transform="matrix(1 0 0 1.00662 941 74.9063)"/><path d="M82.6823 87.9739C82.6823 89.8005 81.2015 91.2812 79.375 91.2812 77.5484 91.2812 76.0677 89.8005 76.0677 87.9739 76.0677 86.1474 77.5484 84.6666 79.375 84.6666 81.2015 84.6666 82.6823 86.1474 82.6823 87.9739Z" transform="matrix(1 0 0 1.00662 941 74.9063)"/><path d="M39.026 87.9739C39.026 89.8005 37.5453 91.2812 35.7187 91.2812 33.8922 91.2812 32.4115 89.8005 32.4115 87.9739 32.4115 86.1474 33.8922 84.6666 35.7187 84.6666 37.5453 84.6666 39.026 86.1474 39.026 87.9739Z" transform="matrix(1 0 0 1.00662 941 74.9063)"/><path d="M53.5781 87.9739C53.5781 89.8005 52.0974 91.2812 50.2708 91.2812 48.4443 91.2812 46.9635 89.8005 46.9635 87.9739 46.9635 86.1474 48.4443 84.6666 50.2708 84.6666 52.0974 84.6666 53.5781 86.1474 53.5781 87.9739Z" transform="matrix(1 0 0 1.00662 941 74.9063)"/><path d="M24.474 87.9739C24.474 89.8005 22.9932 91.2812 21.1667 91.2812 19.3401 91.2812 17.8594 89.8005 17.8594 87.9739 17.8594 86.1474 19.3401 84.6666 21.1667 84.6666 22.9932 84.6666 24.474 86.1474 24.474 87.9739Z" transform="matrix(1 0 0 1.00662 941 74.9063)"/><path d="M117.038 105.384 114.485 95.7527C114.407 95.4804 114.272 95.2279 114.088 95.0119 113.218 94.1049 112.143 93.4197 110.953 93.0143 110.163 92.7171 109.323 92.5778 108.479 92.6041 107.642 92.6026 106.81 92.7412 106.019 93.0143 104.819 93.4148 103.738 94.1057 102.87 95.0251 102.705 95.2491 102.58 95.4996 102.5 95.7659L101.177 100.687 99.8537 95.8056C99.783 95.5331 99.6519 95.2799 99.4701 95.0648 98.594 94.1583 97.5148 93.4736 96.3215 93.0672 95.5607 92.7598 94.7477 92.6027 93.9271 92.6041 93.0899 92.6048 92.2586 92.7433 91.4664 93.0143 90.2696 93.4118 89.1917 94.1031 88.3311 95.0251 88.157 95.2452 88.0269 95.4967 87.9475 95.7659L86.651 100.542 85.3281 95.7527C85.2498 95.4804 85.1146 95.2279 84.9312 95.0119 84.0609 94.1049 82.9858 93.4197 81.7959 93.0143 81.0225 92.7239 80.2007 92.5847 79.375 92.6041 78.5376 92.6026 77.7059 92.7412 76.9144 93.0143 75.7151 93.4148 74.6337 94.1057 73.7658 95.0251 73.601 95.2491 73.4756 95.4996 73.3954 95.7659L72.0725 100.687 70.7496 95.8056C70.6788 95.5331 70.5477 95.2799 70.3659 95.0648 69.4899 94.1583 68.4107 93.4736 67.2174 93.0672 66.4566 92.7598 65.6435 92.6027 64.8229 92.6041 63.9858 92.6048 63.1544 92.7433 62.3623 93.0143 61.1654 93.4118 60.0875 94.1031 59.227 95.0251 59.0529 95.2452 58.9227 95.4967 58.8433 95.7659L57.5469 100.542 56.2239 95.7527C56.1456 95.4804 56.0104 95.2279 55.8271 95.0119 54.9567 94.1049 53.8816 93.4197 52.6918 93.0143 51.9185 92.7239 51.0966 92.5847 50.2708 92.6041 49.4334 92.6026 48.6017 92.7412 47.8102 93.0143 46.6111 93.4148 45.5295 94.1057 44.6617 95.0251 44.4968 95.2491 44.3715 95.4996 44.2912 95.7659L42.9683 100.687 41.6454 95.8056C41.5746 95.5331 41.4435 95.2799 41.2618 95.0648 40.3857 94.1583 39.3065 93.4736 38.1132 93.0672 37.3524 92.7598 36.5393 92.6027 35.7187 92.6041 34.8816 92.6048 34.0503 92.7433 33.2581 93.0143 32.0613 93.4118 30.9834 94.1031 30.1228 95.0251 29.9487 95.2452 29.8185 95.4967 29.7392 95.7659L28.4427 100.542 27.1198 95.7527C27.0415 95.4804 26.9063 95.2279 26.7229 95.0119 25.8526 94.1049 24.7774 93.4197 23.5876 93.0143 22.8142 92.7239 21.9924 92.5847 21.1667 92.6041 20.3293 92.6026 19.4977 92.7412 18.706 93.0143 17.5069 93.4148 16.4253 94.1057 15.5575 95.0251 15.3927 95.2491 15.2674 95.4996 15.1871 95.7659L12.6339 105.384C12.4908 106.1 12.9557 106.797 13.6722 106.94 14.3273 107.071 14.9771 106.692 15.1871 106.058L17.1979 98.4779 17.1979 102.632 14.9225 111.125 17.1979 111.125 17.1979 121.708 19.8437 121.708 19.8437 111.125 22.4896 111.125 22.4896 121.708 25.1354 121.708 25.1354 111.125 27.4108 111.125 25.1354 102.632 25.1354 98.3853 27.1595 106.058C27.3371 106.767 28.0556 107.197 28.7643 107.02 29.2376 106.901 29.6073 106.532 29.7259 106.058L31.75 98.3853 31.75 121.708 34.3958 121.708 34.3958 107.156 37.0417 107.156 37.0417 121.708 39.6875 121.708 39.6875 98.4647 41.6983 106.058C41.6983 106.789 42.2906 107.381 43.0212 107.381 43.7519 107.381 44.3442 106.789 44.3442 106.058L46.3021 98.4647 46.3021 102.632 44.0267 111.125 46.3021 111.125 46.3021 121.708 48.9479 121.708 48.9479 111.125 51.5937 111.125 51.5937 121.708 54.2396 121.708 54.2396 111.125 56.515 111.125 54.2396 102.632 54.2396 98.3853 56.2636 106.058C56.4413 106.767 57.1598 107.197 57.8685 107.02 58.3418 106.901 58.7114 106.532 58.8301 106.058L60.8542 98.3853 60.8542 121.708 63.5 121.708 63.5 107.156 66.1458 107.156 66.1458 121.708 68.7916 121.708 68.7916 98.4647 70.8025 106.058C70.8025 106.789 71.3948 107.381 72.1254 107.381 72.856 107.381 73.4483 106.789 73.4483 106.058L75.4062 98.4647 75.4062 102.632 73.1308 111.125 75.4062 111.125 75.4062 121.708 78.0521 121.708 78.0521 111.125 80.6979 111.125 80.6979 121.708 83.3437 121.708 83.3437 111.125 85.6191 111.125 83.3437 102.632 83.3437 98.3853 85.3678 106.058C85.5455 106.767 86.2639 107.197 86.9726 107.02 87.446 106.901 87.8156 106.532 87.9343 106.058L89.9583 98.3853 89.9583 121.708 92.6041 121.708 92.6041 107.156 95.25 107.156 95.25 121.708 97.8958 121.708 97.8958 98.4647 99.9066 106.058C99.9066 106.789 100.499 107.381 101.23 107.381 101.96 107.381 102.552 106.789 102.552 106.058L104.51 98.4647 104.51 102.632 102.235 111.125 104.51 111.125 104.51 121.708 107.156 121.708 107.156 111.125 109.802 111.125 109.802 121.708 112.448 121.708 112.448 111.125 114.723 111.125 112.448 102.632 112.448 98.3853 114.472 106.058C114.632 106.652 115.18 107.058 115.795 107.037 116.525 107.017 117.101 106.408 117.08 105.677 117.077 105.578 117.063 105.48 117.038 105.384Z" transform="matrix(1 0 0 1.00662 941 74.9063)"/><path d="M93.9271 51.5937C95.7536 51.5937 97.2344 50.113 97.2344 48.2864 97.2344 46.4599 95.7536 44.9792 93.9271 44.9792 92.1005 44.9792 90.6198 46.4599 90.6198 48.2864 90.6198 50.113 92.1005 51.5937 93.9271 51.5937Z" transform="matrix(1 0 0 1.00662 941 74.9063)"/><path d="M64.8229 51.5937C66.6495 51.5937 68.1302 50.113 68.1302 48.2864 68.1302 46.4599 66.6495 44.9792 64.8229 44.9792 62.9964 44.9792 61.5156 46.4599 61.5156 48.2864 61.5156 50.113 62.9964 51.5937 64.8229 51.5937Z" transform="matrix(1 0 0 1.00662 941 74.9063)"/><path d="M79.375 51.5937C81.2015 51.5937 82.6823 50.113 82.6823 48.2864 82.6823 46.4599 81.2015 44.9792 79.375 44.9792 77.5484 44.9792 76.0677 46.4599 76.0677 48.2864 76.0677 50.113 77.5484 51.5937 79.375 51.5937Z" transform="matrix(1 0 0 1.00662 941 74.9063)"/><path d="M35.7187 51.5937C37.5453 51.5937 39.026 50.113 39.026 48.2864 39.026 46.4599 37.5453 44.9792 35.7187 44.9792 33.8922 44.9792 32.4115 46.4599 32.4115 48.2864 32.4115 50.113 33.8922 51.5937 35.7187 51.5937Z" transform="matrix(1 0 0 1.00662 941 74.9063)"/><path d="M50.2708 51.5937C52.0974 51.5937 53.5781 50.113 53.5781 48.2864 53.5781 46.4599 52.0974 44.9792 50.2708 44.9792 48.4443 44.9792 46.9635 46.4599 46.9635 48.2864 46.9635 50.113 48.4443 51.5937 50.2708 51.5937Z" transform="matrix(1 0 0 1.00662 941 74.9063)"/><path d="M102.46 65.696 99.9066 56.0652C99.8359 55.7927 99.7048 55.5395 99.523 55.3244 98.647 54.4179 97.5677 53.7332 96.3745 53.3268 95.5935 53.0308 94.7618 52.8914 93.9271 52.9167 93.0899 52.9173 92.2586 53.0558 91.4664 53.3268 90.2696 53.7243 89.1917 54.4156 88.3311 55.3376 88.157 55.5577 88.0269 55.8092 87.9475 56.0784L86.651 60.8542 85.3281 56.0652C85.2498 55.7929 85.1146 55.5404 84.9312 55.3244 84.0609 54.4172 82.9858 53.7322 81.7959 53.3268 81.0225 53.0364 80.2007 52.8972 79.375 52.9167 78.5376 52.9151 77.7059 53.0537 76.9144 53.3268 75.7151 53.7273 74.6337 54.4182 73.7658 55.3376 73.601 55.5616 73.4756 55.8121 73.3954 56.0784L72.0725 60.9997 70.7496 56.1181C70.6788 55.8456 70.5477 55.5924 70.3659 55.3773 69.4899 54.4708 68.4107 53.7861 67.2174 53.3797 66.4566 53.0724 65.6435 52.9152 64.8229 52.9167 63.9858 52.9173 63.1544 53.0558 62.3623 53.3268 61.1654 53.7243 60.0875 54.4156 59.227 55.3376 59.0529 55.5577 58.9227 55.8092 58.8433 56.0784L57.5469 60.8542 56.2239 56.0652C56.1456 55.7929 56.0104 55.5404 55.8271 55.3244 54.9567 54.4172 53.8816 53.7322 52.6918 53.3268 51.9185 53.0364 51.0966 52.8972 50.2708 52.9167 49.4334 52.9151 48.6017 53.0537 47.8102 53.3268 46.6111 53.7273 45.5295 54.4182 44.6617 55.3376 44.4968 55.5616 44.3715 55.8121 44.2912 56.0784L42.9683 60.9997 41.6454 56.1181C41.5746 55.8456 41.4435 55.5924 41.2618 55.3773 40.3857 54.4708 39.3065 53.7861 38.1132 53.3797 37.3524 53.0724 36.5393 52.9152 35.7187 52.9167 34.8816 52.9173 34.0503 53.0558 33.2581 53.3268 32.0613 53.7243 30.9834 54.4156 30.1228 55.3376 29.9487 55.5577 29.8185 55.8092 29.7392 56.0784L27.1727 65.7489C26.9879 66.4538 27.4078 67.1754 28.112 67.3629L28.4559 67.3629C29.071 67.3839 29.6192 66.9782 29.7788 66.3839L31.75 58.6978 31.75 82.0208 34.3958 82.0208 34.3958 67.4687 37.0417 67.4687 37.0417 82.0208 39.6875 82.0208 39.6875 58.7772 41.6983 66.3707C41.6983 67.1014 42.2906 67.6936 43.0212 67.6936 43.7519 67.6936 44.3442 67.1014 44.3442 66.3707L46.3021 58.7772 46.3021 62.9444 44.0267 71.4375 46.3021 71.4375 46.3021 82.0208 48.9479 82.0208 48.9479 71.4375 51.5937 71.4375 51.5937 82.0208 54.2396 82.0208 54.2396 71.4375 56.515 71.4375 54.2396 62.9444 54.2396 58.6978 56.2636 66.3707C56.4413 67.0794 57.1598 67.51 57.8685 67.3323 58.3418 67.2137 58.7114 66.8441 58.8301 66.3707L60.8542 58.6978 60.8542 82.0208 63.5 82.0208 63.5 67.4687 66.1458 67.4687 66.1458 82.0208 68.7916 82.0208 68.7916 58.7772 70.8025 66.3707C70.8025 67.1014 71.3948 67.6936 72.1254 67.6936 72.856 67.6936 73.4483 67.1014 73.4483 66.3707L75.4062 58.7772 75.4062 62.9444 73.1308 71.4375 75.4062 71.4375 75.4062 82.0208 78.0521 82.0208 78.0521 71.4375 80.6979 71.4375 80.6979 82.0208 83.3437 82.0208 83.3437 71.4375 85.6191 71.4375 83.3437 62.9444 83.3437 58.6978 85.3678 66.3707C85.5455 67.0794 86.2639 67.51 86.9726 67.3323 87.446 67.2137 87.8156 66.8441 87.9343 66.3707L89.9583 58.6978 89.9583 82.0208 92.6041 82.0208 92.6041 67.4687 95.25 67.4687 95.25 82.0208 97.8958 82.0208 97.8958 58.7772 99.9066 66.3707C100.066 66.965 100.615 67.3707 101.23 67.3497 101.344 67.3626 101.459 67.3626 101.574 67.3497 102.273 67.1404 102.671 66.4033 102.462 65.7033 102.461 65.7008 102.461 65.6984 102.46 65.696Z" transform="matrix(1 0 0 1.00662 941 74.9063)"/><path d="M64.8229 11.9062C66.6495 11.9062 68.1302 10.4255 68.1302 8.59896 68.1302 6.77239 66.6495 5.29167 64.8229 5.29167 62.9964 5.29167 61.5156 6.77239 61.5156 8.59896 61.5156 10.4255 62.9964 11.9062 64.8229 11.9062Z" transform="matrix(1 0 0 1.00662 941 74.9063)"/><path d="M79.375 11.9062C81.2015 11.9062 82.6823 10.4255 82.6823 8.59896 82.6823 6.77239 81.2015 5.29167 79.375 5.29167 77.5484 5.29167 76.0677 6.77239 76.0677 8.59896 76.0677 10.4255 77.5484 11.9062 79.375 11.9062Z" transform="matrix(1 0 0 1.00662 941 74.9063)"/><path d="M50.2708 11.9062C52.0974 11.9062 53.5781 10.4255 53.5781 8.59896 53.5781 6.77239 52.0974 5.29167 50.2708 5.29167 48.4443 5.29167 46.9635 6.77239 46.9635 8.59896 46.9635 10.4255 48.4443 11.9062 50.2708 11.9062Z" transform="matrix(1 0 0 1.00662 941 74.9063)"/><path d="M87.9343 26.0085 85.381 16.3777C85.3027 16.1054 85.1675 15.8529 84.9841 15.6369 84.1138 14.7299 83.0387 14.0447 81.8488 13.6393 81.0589 13.3421 80.2185 13.2029 79.375 13.2292 78.5376 13.2276 77.7059 13.3662 76.9144 13.6393 75.7153 14.0398 74.6337 14.7307 73.7658 15.6501 73.601 15.8741 73.4757 16.1246 73.3954 16.3909L72.0725 21.3122 70.7496 16.4306C70.6788 16.1581 70.5477 15.9049 70.3659 15.6898 69.4899 14.7833 68.4107 14.0986 67.2174 13.6922 66.4566 13.3849 65.6435 13.2277 64.8229 13.2292 63.9858 13.2298 63.1544 13.3683 62.3623 13.6393 61.1654 14.0368 60.0875 14.7282 59.227 15.6501 59.0529 15.8702 58.9227 16.1217 58.8433 16.3909L57.5469 21.1667 56.2239 16.3777C56.1456 16.1054 56.0104 15.8529 55.8271 15.6369 54.9567 14.7299 53.8816 14.0447 52.6918 13.6393 51.9185 13.3489 51.0966 13.2097 50.2708 13.2292 49.4334 13.2276 48.6017 13.3662 47.8102 13.6393 46.6111 14.0398 45.5295 14.7307 44.6617 15.6501 44.4968 15.8741 44.3715 16.1246 44.2912 16.3909L41.7248 26.0615C41.54 26.7663 41.9599 27.488 42.6641 27.6754 42.7784 27.6884 42.8937 27.6884 43.008 27.6754 43.623 27.6964 44.1713 27.2907 44.3309 26.6965L46.3021 19.0897 46.3021 23.2569 44.0267 31.75 46.3021 31.75 46.3021 42.3333 48.9479 42.3333 48.9479 31.75 51.5937 31.75 51.5937 42.3333 54.2396 42.3333 54.2396 31.75 56.515 31.75 54.2396 23.2569 54.2396 19.0103 56.2636 26.6832C56.4413 27.3919 57.1598 27.8225 57.8685 27.6449 58.3418 27.5262 58.7114 27.1566 58.8301 26.6832L60.8542 19.0103 60.8542 42.3333 63.5 42.3333 63.5 27.7812 66.1458 27.7812 66.1458 42.3333 68.7916 42.3333 68.7916 19.0897 70.8025 26.6832C70.8025 27.4139 71.3948 28.0061 72.1254 28.0061 72.856 28.0061 73.4483 27.4139 73.4483 26.6832L75.4062 19.0897 75.4062 23.2569 73.1308 31.75 75.4062 31.75 75.4062 42.3333 78.0521 42.3333 78.0521 31.75 80.6979 31.75 80.6979 42.3333 83.3437 42.3333 83.3437 31.75 85.6191 31.75 83.3437 23.2569 83.3437 19.0103 85.3678 26.6832C85.5275 27.2775 86.0757 27.6832 86.6907 27.6622L87.0347 27.6622C87.7366 27.4596 88.1416 26.7264 87.9389 26.0243 87.9374 26.0191 87.9358 26.0138 87.9343 26.0085Z" transform="matrix(1 0 0 1.00662 941 74.9063)"/></g></g></g><text font-family="Calibri,Calibri_MSFontService,sans-serif" font-weight="400" font-size="21" transform="matrix(1 0 0 0.998751 906.021 240)">Research community</text><g clip-path="url(#clip7)"><g clip-path="url(#clip8)"><g clip-path="url(#clip9)"><path d="M29.9625 14.0449C29.9625 18.1819 26.6088 21.5356 22.4719 21.5356 18.3349 21.5356 14.9813 18.1819 14.9813 14.0449 14.9813 9.90797 18.3349 6.5543 22.4719 6.5543 26.6088 6.5543 29.9625 9.90797 29.9625 14.0449Z" transform="matrix(1.0235 0 0 1 97 115.855)"/><path d="M36.0487 27.1114C35.9209 26.1362 35.4375 25.2425 34.691 24.602 32.6908 23.2324 30.4518 22.2495 28.0899 21.7041 27.823 21.6432 27.5421 21.5917 27.2612 21.5402 24.3579 23.4005 20.6373 23.4005 17.7341 21.5402L16.8914 21.6947C14.5272 22.2731 12.2811 23.2567 10.2528 24.602 9.41947 25.1357 9.07302 26.1283 8.89512 27.1114L7.49063 35.1591C7.40659 35.8384 7.68796 36.5114 8.23033 36.9288L11.4373 39.0449 11.4373 28.9091C11.4372 27.7353 12.3888 26.7837 13.5627 26.7836 13.5674 26.7836 13.5721 26.7836 13.5768 26.7837L31.367 26.7837C32.5409 26.7837 33.4925 27.7353 33.4925 28.9091L33.4925 38.7874 36.8726 36.6666C37.2728 36.3964 37.495 35.9304 37.4531 35.4494Z" transform="matrix(1.0235 0 0 1 97 115.855)"/><path d="M32.5702 40.5758 32.5702 28.9091C32.5702 28.2524 32.0379 27.72 31.3811 27.7199 31.3764 27.7199 31.3717 27.72 31.367 27.72L13.5768 27.72C12.92 27.72 12.3876 28.2524 12.3876 28.9091L12.3876 40.5758 8.80617 40.5758 8.80617 41.1704C8.80875 41.826 9.33964 42.3569 9.99531 42.3595L34.9485 42.3595C35.6041 42.3569 36.135 41.826 36.1376 41.1704L36.1376 40.5758ZM20.0468 36.6666 19.3867 37.3267 16.7603 34.7003 19.3867 32.0739 20.0468 32.7341 18.0852 34.7003ZM21.7931 37.6545 20.9269 37.294 23.1226 31.9944 23.9841 32.3548ZM25.5384 37.3267 24.8783 36.6666 26.8399 34.7003 24.8783 32.7341 25.5384 32.0739 28.1648 34.7003Z" transform="matrix(1.0235 0 0 1 97 115.855)"/></g></g></g><g clip-path="url(#clip10)"><g clip-path="url(#clip11)"><g clip-path="url(#clip12)"><path d="M30.6284 14.3571C30.6284 18.586 27.2002 22.0141 22.9713 22.0141 18.7424 22.0141 15.3142 18.586 15.3142 14.3571 15.3142 10.1282 18.7424 6.69996 22.9713 6.69996 27.2002 6.69996 30.6284 10.1282 30.6284 14.3571Z" transform="matrix(1.00125 0 0 1 97 159.8)"/><path d="M36.8498 27.7139C36.7192 26.717 36.225 25.8035 35.4619 25.1488 33.4173 23.7487 31.1286 22.744 28.7141 22.1864 28.4413 22.1242 28.1542 22.0716 27.867 22.0189 24.8992 23.9206 21.096 23.9206 18.1282 22.0189L17.2668 22.1769C14.85 22.7681 12.554 23.7736 10.4806 25.1488 9.6288 25.6943 9.27466 26.7089 9.0928 27.7139L7.6571 35.9405C7.57119 36.6348 7.85881 37.3228 8.41323 37.7495L11.6914 39.9126 11.6914 29.5516C11.6914 28.3516 12.6641 27.3789 13.8641 27.3789 13.8689 27.3789 13.8737 27.3789 13.8785 27.3789L32.0641 27.3789C33.264 27.3789 34.2368 28.3516 34.2368 29.5516L34.2368 39.6494 37.6921 37.4815C38.1011 37.2052 38.3283 36.7289 38.2855 36.2372Z" transform="matrix(1.00125 0 0 1 97 159.8)"/><path d="M33.294 41.4775 33.294 29.5516C33.2941 28.8803 32.7499 28.336 32.0785 28.3359 32.0737 28.3359 32.0689 28.336 32.0641 28.336L13.8785 28.336C13.2071 28.336 12.6629 28.8803 12.6629 29.5516L12.6629 41.4775 9.00187 41.4775 9.00187 42.0853C9.00451 42.7555 9.5472 43.2982 10.2174 43.3009L35.7251 43.3009C36.3954 43.2982 36.9381 42.7555 36.9407 42.0853L36.9407 41.4775ZM20.4923 37.4815 19.8175 38.1563 17.1328 35.4715 19.8175 32.7867 20.4923 33.4615 18.4871 35.4715ZM22.2774 38.4913 21.392 38.1228 23.6365 32.7054 24.5171 33.0739ZM26.1059 38.1563 25.4311 37.4815 27.4363 35.4715 25.4311 33.4615 26.1059 32.7867 28.7907 35.4715Z" transform="matrix(1.00125 0 0 1 97 159.8)"/></g></g></g><g clip-path="url(#clip13)"><g clip-path="url(#clip14)"><g clip-path="url(#clip15)"><path d="M29.9625 14.0449C29.9625 18.1819 26.6088 21.5356 22.4719 21.5356 18.3349 21.5356 14.9813 18.1819 14.9813 14.0449 14.9813 9.90797 18.3349 6.5543 22.4719 6.5543 26.6088 6.5543 29.9625 9.90797 29.9625 14.0449Z" transform="matrix(1.0235 0 0 1 97 71.91)"/><path d="M36.0487 27.1114C35.9209 26.1362 35.4375 25.2425 34.691 24.602 32.6908 23.2324 30.4518 22.2495 28.0899 21.7041 27.823 21.6432 27.5421 21.5917 27.2612 21.5402 24.3579 23.4005 20.6373 23.4005 17.7341 21.5402L16.8914 21.6947C14.5272 22.2731 12.2811 23.2567 10.2528 24.602 9.41947 25.1357 9.07302 26.1283 8.89512 27.1114L7.49063 35.1591C7.40659 35.8384 7.68796 36.5114 8.23033 36.9288L11.4373 39.0449 11.4373 28.9091C11.4372 27.7353 12.3888 26.7837 13.5627 26.7836 13.5674 26.7836 13.5721 26.7836 13.5768 26.7837L31.367 26.7837C32.5409 26.7837 33.4925 27.7353 33.4925 28.9091L33.4925 38.7874 36.8726 36.6666C37.2728 36.3964 37.495 35.9304 37.4531 35.4494Z" transform="matrix(1.0235 0 0 1 97 71.91)"/><path d="M32.5702 40.5758 32.5702 28.9091C32.5702 28.2524 32.0379 27.72 31.3811 27.7199 31.3764 27.7199 31.3717 27.72 31.367 27.72L13.5768 27.72C12.92 27.72 12.3876 28.2524 12.3876 28.9091L12.3876 40.5758 8.80617 40.5758 8.80617 41.1704C8.80875 41.826 9.33964 42.3569 9.99531 42.3595L34.9485 42.3595C35.6041 42.3569 36.135 41.826 36.1376 41.1704L36.1376 40.5758ZM20.0468 36.6666 19.3867 37.3267 16.7603 34.7003 19.3867 32.0739 20.0468 32.7341 18.0852 34.7003ZM21.7931 37.6545 20.9269 37.294 23.1226 31.9944 23.9841 32.3548ZM25.5384 37.3267 24.8783 36.6666 26.8399 34.7003 24.8783 32.7341 25.5384 32.0739 28.1648 34.7003Z" transform="matrix(1.0235 0 0 1 97 71.91)"/></g></g></g><path d="M464.2 202.08 458.963 204.075 443.346 208.855 427.054 212.876 410.085 216.14 392.556 218.712 374.716 220.469 356.632 221.472 338.427 221.723 320.219 221.284 302.196 220.03 284.483 218.085 267.14 215.324 250.419 211.871 234.311 207.66 219.067 202.69 204.77 196.966 198.056 193.866 191.851 190.641 186.026 187.29 180.637 183.87 175.671 180.373 171.145 176.744 167.051 173.102 163.385 169.313 160.167 165.455 157.385 161.578 155.048 157.623 153.089 153.58 151.643 149.509 150.658 145.446 150.065 141.294 149.998 137.203 150.327 133.064 151.122 128.965 152.435 124.899 154.131 120.859 156.281 116.89 158.873 112.941 161.904 109.077 165.315 105.285 169.224 101.573 173.509 97.9321 178.284 94.4349 183.421 90.9508 189.01 87.5889 195.024 84.3646 201.469 81.2093 208.367 78.1755 222.977 72.6407 238.592 67.8614 254.883 63.8408 271.853 60.5766 289.381 58.004 307.221 56.2473 325.306 55.2438 343.51 54.9931 361.719 55.432 379.741 56.6864 397.454 58.6311 414.798 61.3925 431.519 64.8456 447.627 69.0561 462.871 74.0262 477.179 79.755 487.104 84.4904 496.077 89.4565 494.138 92.9514 485.218 88.0145 485.325 88.0697 475.513 83.3881 475.631 83.4398 461.443 77.7594 461.567 77.8042 446.442 72.8729 446.556 72.9064 430.556 68.7241 430.657 68.7478 414.032 65.3146 414.123 65.3311 396.873 62.5845 396.969 62.5975 379.344 60.6624 379.423 60.6695 361.486 59.4211 361.577 59.4254 343.452 58.9884 343.528 58.9888 325.403 59.2385 325.486 59.2356 307.486 60.2343 307.571 60.2278 289.821 61.9756 289.916 61.964 272.478 64.5233 272.566 64.5085 255.691 67.7544 255.792 67.7321 239.605 71.7271 239.711 71.6978 224.211 76.4419 224.334 76.3997 209.834 81.8928 209.931 81.8532 203.119 84.8495 203.193 84.815 196.818 87.9361 196.884 87.9024 190.946 91.0859 191.032 91.0371 185.532 94.3455 185.624 94.2869 180.561 97.7201 180.62 97.6783 175.933 101.112 176.046 101.022 171.859 104.58 171.941 104.506 168.128 108.127 168.238 108.014 164.926 111.697 165.012 111.594 162.075 115.339 162.173 115.203 159.673 119.01 159.759 118.866 157.697 122.673 157.782 122.495 156.157 126.365 156.216 126.206 154.966 130.076 155.026 129.843 154.276 133.713 154.307 133.491 153.994 137.424 154 137.234 154.063 141.104 154.043 140.853 154.605 144.786 154.569 144.599 155.507 148.469 155.448 148.271 156.823 152.141 156.738 151.939 158.613 155.809 158.535 155.664 160.785 159.471 160.688 159.323 163.376 163.068 163.287 162.953 166.412 166.698 166.314 166.589 169.876 170.272 169.768 170.168 173.768 173.726 173.69 173.66 178.127 177.218 178.028 177.144 182.903 180.577 182.823 180.523 188.135 183.894 188.061 183.849 193.811 187.158 193.736 187.117 199.861 190.3 199.777 190.259 206.402 193.317 206.307 193.277 220.494 198.957 220.371 198.912 235.496 203.843 235.382 203.81 251.382 207.992 251.28 207.968 267.905 211.402 267.815 211.385 285.065 214.132 284.969 214.119 302.594 216.054 302.514 216.047 320.452 217.295 320.361 217.291 338.486 217.728 338.41 217.728 356.535 217.478 356.452 217.481 374.452 216.482 374.366 216.488 392.116 214.741 392.022 214.752 409.459 212.193 409.372 212.208 426.247 208.962 426.145 208.984 442.333 204.989 442.226 205.018 457.726 200.274 457.6 200.318 462.774 198.347ZM459.479 195.326 472.832 196.654 463.756 206.525Z"/><text font-family="Calibri,Calibri_MSFontService,sans-serif" font-weight="700" font-size="21" transform="matrix(1 0 0 0.998751 214.935 115)">Project collaboration loop</text><path d="M145.151 65.7182 147.146 70.9486 151.926 86.5459 155.947 102.817 159.211 119.765 161.784 137.272 163.54 155.09 164.544 173.152 164.794 191.333 164.356 209.519 163.101 227.519 161.156 245.21 158.395 262.532 154.942 279.232 150.731 295.32 145.761 310.545 140.037 324.824 136.937 331.53 133.712 337.726 130.361 343.544 126.941 348.927 123.444 353.886 119.815 358.406 116.173 362.495 112.384 366.157 108.526 369.371 104.65 372.15 100.695 374.484 96.6515 376.44 92.5804 377.885 88.5168 378.868 84.3652 379.461 80.2739 379.527 76.1347 379.198 72.036 378.405 67.9699 377.093 63.9302 375.399 59.9613 373.252 56.0127 370.663 52.1482 367.636 48.3567 364.23 44.6439 360.325 41.0034 356.046 37.5061 351.277 34.022 346.146 30.6601 340.564 27.4358 334.558 24.2805 328.121 21.2467 321.231 15.7119 306.64 10.9327 291.044 6.91199 274.773 3.64785 257.825 1.07519 240.318-0.681488 222.5-1.68492 204.439-1.93571 186.257-1.49674 168.071-0.242376 150.071 1.70237 132.38 4.46378 115.058 7.91679 98.3584 12.1273 82.2705 17.0975 67.0454 22.8263 52.7549 27.5616 42.8422 32.5278 33.8805 36.0226 35.8172 31.0857 44.7261 31.141 44.6189 26.4593 54.4191 26.511 54.3014 20.8306 68.4711 20.8754 68.3477 15.9441 83.4538 15.9776 83.3397 11.7954 99.3197 11.8191 99.2184 8.38587 115.823 8.40234 115.733 5.65578 132.961 5.66873 132.865 3.73365 150.468 3.74078 150.388 2.49234 168.304 2.49659 168.213 2.05963 186.315 2.06003 186.239 2.30971 204.342 2.30683 204.259 3.30558 222.236 3.29902 222.151 5.04683 239.879 5.03524 239.784 7.59454 257.2 7.57972 257.113 10.8257 273.966 10.8034 273.865 14.7984 290.032 14.769 289.926 19.5131 305.407 19.4709 305.284 24.964 319.766 24.9245 319.669 27.9207 326.473 27.8862 326.399 31.0073 332.766 30.9736 332.7 34.1572 338.63 34.1083 338.544 37.4167 344.038 37.3581 343.946 40.7913 349.002 40.7496 348.943 44.1828 353.625 44.0934 353.512 47.6514 357.694 47.5776 357.612 51.1981 361.42 51.0853 361.31 54.7682 364.618 54.6651 364.532 58.4104 367.466 58.274 367.368 62.0817 369.865 61.9368 369.778 65.7445 371.838 65.5666 371.753 69.4367 373.376 69.2774 373.317 73.1476 374.565 72.9139 374.505 76.784 375.254 76.5625 375.224 80.4951 375.536 80.3048 375.53 84.1749 375.468 83.9246 375.488 87.8572 374.926 87.67 374.962 91.5401 374.025 91.3418 374.084 95.212 372.711 95.0099 372.796 98.8801 370.923 98.7348 371.001 102.543 368.754 102.394 368.85 106.14 366.166 106.024 366.255 109.77 363.134 109.66 363.232 113.343 359.674 113.24 359.782 116.798 355.787 116.732 355.865 120.29 351.433 120.215 351.533 123.648 346.664 123.595 346.744 126.965 341.438 126.92 341.512 130.229 335.769 130.188 335.844 133.371 329.727 133.33 329.811 136.389 323.194 136.348 323.289 142.028 309.119 141.983 309.242 146.915 294.136 146.881 294.25 151.063 278.27 151.04 278.372 154.473 261.768 154.456 261.858 157.203 244.629 157.19 244.725 159.125 227.122 159.118 227.202 160.366 209.287 160.362 209.377 160.799 191.275 160.799 191.351 160.549 173.248 160.552 173.332 159.553 155.354 159.56 155.439 157.812 137.711 157.824 137.806 155.264 120.39 155.279 120.478 152.033 103.624 152.055 103.725 148.06 87.5578 148.09 87.6639 143.346 72.1833 143.389 72.3099 141.418 67.1421ZM138.397 70.4326 139.725 57.0969 149.597 66.161Z" transform="matrix(1.83927e-16 1 1.00125 -1.83697e-16 568 56.9288)"/><text font-family="Calibri,Calibri_MSFontService,sans-serif" font-weight="700" font-size="21" transform="matrix(1 0 0 0.998751 690.168 115)">Record curation loop</text><text font-family="Calibri,Calibri_MSFontService,sans-serif" font-weight="400" font-size="21" transform="matrix(1 0 0 0.998751 222.036 148)">Synchronize</text><text font-family="Calibri,Calibri_MSFontService,sans-serif" font-weight="700" font-size="21" transform="matrix(1 0 0 0.998751 330.632 148)">project data</text><text font-family="Calibri,Calibri_MSFontService,sans-serif" font-weight="400" font-size="21" transform="matrix(1 0 0 0.998751 195.659 174)">through a shared git repository</text><text font-family="Calibri,Calibri_MSFontService,sans-serif" font-weight="400" font-size="21" transform="matrix(1 0 0 0.998751 636.61 149)">Retrieve</text><text font-family="Calibri,Calibri_MSFontService,sans-serif" font-weight="700" font-size="21" transform="matrix(1 0 0 0.998751 713.488 149)">record</text><text font-family="Calibri,Calibri_MSFontService,sans-serif" font-weight="700" font-size="21" transform="matrix(1 0 0 0.998751 770.889 149)">-</text><text font-family="Calibri,Calibri_MSFontService,sans-serif" font-weight="700" font-size="21" transform="matrix(1 0 0 0.998751 777.39 149)">level data</text><text font-family="Calibri,Calibri_MSFontService,sans-serif" font-weight="400" font-size="21" transform="matrix(1 0 0 0.998751 868.024 149)">for the</text><text font-family="Calibri,Calibri_MSFontService,sans-serif" font-weight="400" font-size="21" transform="matrix(1 0 0 0.998751 650.978 174)">project and feed updates back</text><text font-family="Calibri,Calibri_MSFontService,sans-serif" font-weight="400" font-size="24" transform="matrix(1 0 0 0.998751 291.525 246)">colrev pull</text><text font-family="Calibri,Calibri_MSFontService,sans-serif" font-weight="400" font-size="24" transform="matrix(1 0 0 0.998751 286.024 44)">colrev push</text><text font-family="Calibri,Calibri_MSFontService,sans-serif" font-weight="400" font-size="24" transform="matrix(1 0 0 0.998751 690.366 44)">colrev push</text><text font-family="Calibri,Calibri_MSFontService,sans-serif" font-weight="400" font-size="24" transform="matrix(1 0 0 0.998751 807.583 44)">-</text><text font-family="Calibri,Calibri_MSFontService,sans-serif" font-weight="400" font-size="24" transform="matrix(1 0 0 0.998751 814.917 44)">r</text><text font-family="Calibri,Calibri_MSFontService,sans-serif" font-weight="400" font-size="24" transform="matrix(1 0 0 0.998751 692.793 249)">colrev search</text></g></svg>
