<svg width="1323" height="567" xmlns="http://www.w3.org/2000/svg" xmlns:xlink="http://www.w3.org/1999/xlink" overflow="hidden"><defs><clipPath id="clip0"><rect x="0" y="0" width="1323" height="567"/></clipPath></defs><g clip-path="url(#clip0)"><rect x="0" y="0" width="1323" height="566.929" fill="#FFFFFF"/><rect x="35.5" y="50.4936" width="406" height="179.977" stroke="#000000" stroke-width="2.667" stroke-miterlimit="8" fill="#FFFFFF"/><text font-family="Calibri,Calibri_MSFontService,sans-serif" font-weight="700" font-size="24" transform="matrix(1 0 0 0.999874 135.856 77)">Local<tspan font-size="24" x="56.0337" y="0">CoLRev </tspan>project</text><path d="M85.5 128.484C85.5 133.454 114.602 137.483 150.5 137.483 186.398 137.483 215.5 133.454 215.5 128.484L215.5 182.477C215.5 187.447 186.398 191.476 150.5 191.476 114.602 191.476 85.5 187.447 85.5 182.477Z" fill="#FFFFFF" fill-rule="evenodd"/><path d="M85.5 128.484C85.5 123.514 114.602 119.485 150.5 119.485 186.398 119.485 215.5 123.514 215.5 128.484 215.5 133.454 186.398 137.483 150.5 137.483 114.602 137.483 85.5 133.454 85.5 128.484Z" fill="#FFFFFF" fill-rule="evenodd"/><path d="M215.5 128.484C215.5 133.454 186.398 137.483 150.5 137.483 114.602 137.483 85.5 133.454 85.5 128.484 85.5 123.514 114.602 119.485 150.5 119.485 186.398 119.485 215.5 123.514 215.5 128.484L215.5 182.477C215.5 187.447 186.398 191.476 150.5 191.476 114.602 191.476 85.5 187.447 85.5 182.477L85.5 128.484" stroke="#000000" stroke-width="1.3335" stroke-miterlimit="8" fill="none" fill-rule="evenodd"/><text font-family="Calibri,Calibri_MSFontService,sans-serif" font-weight="400" font-size="21" transform="matrix(1 0 0 0.999874 97.7169 167)">project data</text><rect x="259.5" y="143.482" width="23.0001" height="37.9953" stroke="#000000" stroke-width="1.3335" stroke-miterlimit="8" fill="#FFFFFF"/><rect x="279.5" y="143.482" width="24" height="37.9953" stroke="#000000" stroke-width="1.3335" stroke-miterlimit="8" fill="#FFFFFF"/><rect x="300.5" y="143.482" width="23" height="37.9953" stroke="#000000" stroke-width="1.3335" stroke-miterlimit="8" fill="#FFFFFF"/><rect x="321.5" y="143.482" width="23" height="37.9953" stroke="#000000" stroke-width="1.3335" stroke-miterlimit="8" fill="#FFFFFF"/><rect x="341.5" y="143.482" width="24" height="37.9953" stroke="#000000" stroke-width="1.3335" stroke-miterlimit="8" fill="#FFFFFF"/><rect x="362.5" y="143.482" width="23" height="37.9953" stroke="#000000" stroke-width="1.3335" stroke-miterlimit="8" fill="#FFFFFF"/><rect x="382.5" y="143.482" width="24" height="37.9953" stroke="#000000" stroke-width="1.3335" stroke-miterlimit="8" fill="#FFFFFF"/><text font-family="Calibri,Calibri_MSFontService,sans-serif" font-weight="400" font-size="21" transform="matrix(1 0 0 0.999874 282.544 133)">record data</text><rect x="35.5" y="337.458" width="406" height="179.977" stroke="#000000" stroke-width="2.667" stroke-miterlimit="8" fill="#FFFFFF"/><text font-family="Calibri,Calibri_MSFontService,sans-serif" font-weight="700" font-size="24" transform="matrix(1 0 0 0.999874 126.585 363)">Shared<tspan font-size="24" x="74.5761" y="0">CoLRev </tspan>project</text><path d="M85.5 415.448C85.5 420.418 114.602 424.447 150.5 424.447 186.398 424.447 215.5 420.418 215.5 415.448L215.5 469.441C215.5 474.411 186.398 478.44 150.5 478.44 114.602 478.44 85.5 474.411 85.5 469.441Z" fill="#FFFFFF" fill-rule="evenodd"/><path d="M85.5 415.448C85.5 410.478 114.602 406.449 150.5 406.449 186.398 406.449 215.5 410.478 215.5 415.448 215.5 420.418 186.398 424.447 150.5 424.447 114.602 424.447 85.5 420.418 85.5 415.448Z" fill="#FFFFFF" fill-rule="evenodd"/><path d="M215.5 415.448C215.5 420.418 186.398 424.447 150.5 424.447 114.602 424.447 85.5 420.418 85.5 415.448 85.5 410.478 114.602 406.449 150.5 406.449 186.398 406.449 215.5 410.478 215.5 415.448L215.5 469.441C215.5 474.411 186.398 478.44 150.5 478.44 114.602 478.44 85.5 474.411 85.5 469.441L85.5 415.448" stroke="#000000" stroke-width="1.3335" stroke-miterlimit="8" fill="none" fill-rule="evenodd"/><text font-family="Calibri,Calibri_MSFontService,sans-serif" font-weight="400" font-size="21" transform="matrix(1 0 0 0.999874 97.7169 453)">project data</text><rect x="259.5" y="430.446" width="23.0001" height="37.9952" stroke="#000000" stroke-width="1.3335" stroke-miterlimit="8" fill="#FFFFFF"/><rect x="279.5" y="430.446" width="24" height="37.9952" stroke="#000000" stroke-width="1.3335" stroke-miterlimit="8" fill="#FFFFFF"/><rect x="300.5" y="430.446" width="23" height="37.9952" stroke="#000000" stroke-width="1.3335" stroke-miterlimit="8" fill="#FFFFFF"/><rect x="321.5" y="430.446" width="23" height="37.9952" stroke="#000000" stroke-width="1.3335" stroke-miterlimit="8" fill="#FFFFFF"/><rect x="341.5" y="430.446" width="24" height="37.9952" stroke="#000000" stroke-width="1.3335" stroke-miterlimit="8" fill="#FFFFFF"/><rect x="362.5" y="430.446" width="23" height="37.9952" stroke="#000000" stroke-width="1.3335" stroke-miterlimit="8" fill="#FFFFFF"/><rect x="382.5" y="430.446" width="24" height="37.9952" stroke="#000000" stroke-width="1.3335" stroke-miterlimit="8" fill="#FFFFFF"/><text font-family="Calibri,Calibri_MSFontService,sans-serif" font-weight="400" font-size="21" transform="matrix(1 0 0 0.999874 282.544 420)">record data</text><path d="M586.281 265.756 580.706 265.752 569.543 264.629 557.965 262.721 546.066 259.978 533.849 256.491 521.345 252.214 508.57 247.154 495.561 241.438 482.439 235.016 469.123 227.893 455.703 220.069 442.22 211.67 428.707 202.558 415.267 192.826 401.9 182.481 405.572 177.736 418.902 188.051 418.825 187.994 432.186 197.669 432.104 197.612 445.53 206.665 445.439 206.606 458.839 214.953 458.764 214.908 472.098 222.683 472.002 222.629 485.222 229.7 485.126 229.651 498.143 236.022 498.031 235.97 510.934 241.638 510.832 241.596 523.489 246.61 523.355 246.56 535.718 250.789 535.57 250.743 547.638 254.187 547.489 254.148 559.221 256.853 559.034 256.816 570.425 258.693 570.238 258.668 581.158 259.767 580.86 259.752 586.285 259.756ZM582.979 247.82 601.282 262.451 583.587 277.814Z"/><text font-family="Calibri,Calibri_MSFontService,sans-serif" font-weight="400" font-size="21" transform="matrix(1 0 0 0.999874 85.2032 293)">colrev pull<tspan font-size="21" x="177.491" y="0">colrev push</tspan></text><text font-family="Calibri,Calibri_MSFontService,sans-serif" font-weight="400" font-size="21" transform="matrix(0.903183 0.429148 -0.42931 0.903069 486.628 149)">colrev pull</text><text font-family="Calibri,Calibri_MSFontService,sans-serif" font-weight="400" font-size="21" transform="matrix(0.919276 0.393515 -0.393663 0.91916 451.535 246)">colrev push</text><path d="M240 229.971 240.001 321.429 234 321.429 234 229.971ZM246.001 318.429 237 336.429 227.999 318.429Z"/><path d="M3-2.95854e-06 3.00009 91.4583-2.99991 91.4583-3 2.95854e-06ZM9.00009 88.4583 0.000104987 106.458-8.99991 88.4583Z" transform="matrix(1.00013 0 0 -1 199 336.429)"/><path d="M598.5 282.464C598.5 132.814 740.65 11.4986 916 11.4986 1091.35 11.4986 1233.5 132.814 1233.5 282.464 1233.5 432.115 1091.35 553.43 916 553.43 740.65 553.43 598.5 432.115 598.5 282.464Z" stroke="#000000" stroke-width="1.3335" stroke-miterlimit="8" stroke-dasharray="5.33401 4.0005" fill="none" fill-rule="evenodd"/><rect x="671.5" y="129.484" width="238" height="148.981" stroke="#000000" stroke-width="2.667" stroke-miterlimit="8" fill="#FFFFFF"/><text font-family="Calibri,Calibri_MSFontService,sans-serif" font-weight="700" font-size="24" transform="matrix(1 0 0 0.999874 687.186 156)">Curated CoLRev data</text><rect x="723.5" y="190.476" width="23.0001" height="36.9954" stroke="#000000" stroke-width="1.3335" stroke-miterlimit="8" fill="#FFFFFF"/><rect x="743.5" y="190.476" width="24.0001" height="36.9954" stroke="#000000" stroke-width="1.3335" stroke-miterlimit="8" fill="#FFFFFF"/><rect x="764.5" y="190.476" width="23.0001" height="36.9954" stroke="#000000" stroke-width="1.3335" stroke-miterlimit="8" fill="#FFFFFF"/><rect x="784.5" y="190.476" width="24" height="36.9954" stroke="#000000" stroke-width="1.3335" stroke-miterlimit="8" fill="#FFFFFF"/><rect x="805.5" y="190.476" width="22.9999" height="36.9954" stroke="#000000" stroke-width="1.3335" stroke-miterlimit="8" fill="#FFFFFF"/><rect x="825.5" y="190.476" width="24" height="36.9954" stroke="#000000" stroke-width="1.3335" stroke-miterlimit="8" fill="#FFFFFF"/><rect x="846.5" y="190.476" width="24" height="36.9954" stroke="#000000" stroke-width="1.3335" stroke-miterlimit="8" fill="#FFFFFF"/><text font-family="Calibri,Calibri_MSFontService,sans-serif" font-weight="400" font-size="21" transform="matrix(1 0 0 0.999874 746.273 180)">record data</text><rect x="723.5" y="228.471" width="23.0001" height="36.9954" stroke="#000000" stroke-width="1.3335" stroke-miterlimit="8" fill="#FFFFFF"/><rect x="743.5" y="228.471" width="24.0001" height="36.9954" stroke="#000000" stroke-width="1.3335" stroke-miterlimit="8" fill="#FFFFFF"/><rect x="764.5" y="228.471" width="23.0001" height="36.9954" stroke="#000000" stroke-width="1.3335" stroke-miterlimit="8" fill="#FFFFFF"/><rect x="784.5" y="228.471" width="24" height="36.9954" stroke="#000000" stroke-width="1.3335" stroke-miterlimit="8" fill="#FFFFFF"/><rect x="805.5" y="228.471" width="22.9999" height="36.9954" stroke="#000000" stroke-width="1.3335" stroke-miterlimit="8" fill="#FFFFFF"/><rect x="825.5" y="228.471" width="24" height="36.9954" stroke="#000000" stroke-width="1.3335" stroke-miterlimit="8" fill="#FFFFFF"/><rect x="846.5" y="228.471" width="24" height="36.9954" stroke="#000000" stroke-width="1.3335" stroke-miterlimit="8" fill="#FFFFFF"/><path d="M422.36 148.672 427.817 148.814 438.881 150.202 450.314 152.334 462.102 155.346 474.205 159.014 486.584 163.561 499.23 168.717 512.077 174.671 525.102 181.321 538.227 188.586 551.551 196.558 564.797 205.151 578.189 214.402 591.467 224.235 604.695 234.683 600.975 239.391 587.784 228.972 587.858 229.029 574.657 219.253 574.738 219.31 561.422 210.112 561.494 210.161 548.33 201.621 548.422 201.679 535.189 193.761 535.276 193.811 522.24 186.594 522.329 186.641 509.399 180.04 509.502 180.09 496.77 174.191 496.899 174.247 484.367 169.137 484.465 169.175 472.217 164.676 472.382 164.731 460.425 161.107 460.552 161.143 448.924 158.172 449.117 158.215 437.869 156.117 438.045 156.145 427.217 154.786 427.512 154.808 422.203 154.67ZM425.179 166.691 407.28 151.568 425.385 136.692Z"/><rect x="671.5" y="289.464" width="238" height="148.981" stroke="#000000" stroke-width="2.667" stroke-miterlimit="8" fill="#FFFFFF"/><text font-family="Calibri,Calibri_MSFontService,sans-serif" font-weight="700" font-size="24" transform="matrix(1 0 0 0.999874 687.186 316)">Curated CoLRev data</text><rect x="723.5" y="350.456" width="23.0001" height="36.9954" stroke="#000000" stroke-width="1.3335" stroke-miterlimit="8" fill="#FFFFFF"/><rect x="743.5" y="350.456" width="24.0001" height="36.9954" stroke="#000000" stroke-width="1.3335" stroke-miterlimit="8" fill="#FFFFFF"/><rect x="764.5" y="350.456" width="23.0001" height="36.9954" stroke="#000000" stroke-width="1.3335" stroke-miterlimit="8" fill="#FFFFFF"/><rect x="784.5" y="350.456" width="24" height="36.9954" stroke="#000000" stroke-width="1.3335" stroke-miterlimit="8" fill="#FFFFFF"/><rect x="805.5" y="350.456" width="22.9999" height="36.9954" stroke="#000000" stroke-width="1.3335" stroke-miterlimit="8" fill="#FFFFFF"/><rect x="825.5" y="350.456" width="24" height="36.9954" stroke="#000000" stroke-width="1.3335" stroke-miterlimit="8" fill="#FFFFFF"/><rect x="846.5" y="350.456" width="24" height="36.9954" stroke="#000000" stroke-width="1.3335" stroke-miterlimit="8" fill="#FFFFFF"/><text font-family="Calibri,Calibri_MSFontService,sans-serif" font-weight="400" font-size="21" transform="matrix(1 0 0 0.999874 746.273 340)">record data</text><rect x="723.5" y="388.451" width="23.0001" height="37.9953" stroke="#000000" stroke-width="1.3335" stroke-miterlimit="8" fill="#FFFFFF"/><rect x="743.5" y="388.451" width="24.0001" height="37.9953" stroke="#000000" stroke-width="1.3335" stroke-miterlimit="8" fill="#FFFFFF"/><rect x="764.5" y="388.451" width="23.0001" height="37.9953" stroke="#000000" stroke-width="1.3335" stroke-miterlimit="8" fill="#FFFFFF"/><rect x="784.5" y="388.451" width="24" height="37.9953" stroke="#000000" stroke-width="1.3335" stroke-miterlimit="8" fill="#FFFFFF"/><rect x="805.5" y="388.451" width="22.9999" height="37.9953" stroke="#000000" stroke-width="1.3335" stroke-miterlimit="8" fill="#FFFFFF"/><rect x="825.5" y="388.451" width="24" height="37.9953" stroke="#000000" stroke-width="1.3335" stroke-miterlimit="8" fill="#FFFFFF"/><rect x="846.5" y="388.451" width="24" height="37.9953" stroke="#000000" stroke-width="1.3335" stroke-miterlimit="8" fill="#FFFFFF"/><rect x="921.5" y="129.484" width="238" height="148.981" stroke="#000000" stroke-width="2.667" stroke-miterlimit="8" fill="#FFFFFF"/><text font-family="Calibri,Calibri_MSFontService,sans-serif" font-weight="700" font-size="24" transform="matrix(1 0 0 0.999874 937.299 156)">Curated CoLRev data</text><rect x="973.5" y="190.476" width="23.0001" height="36.9954" stroke="#000000" stroke-width="1.3335" stroke-miterlimit="8" fill="#FFFFFF"/><rect x="993.5" y="190.476" width="24.0001" height="36.9954" stroke="#000000" stroke-width="1.3335" stroke-miterlimit="8" fill="#FFFFFF"/><rect x="1014.5" y="190.476" width="23.0001" height="36.9954" stroke="#000000" stroke-width="1.3335" stroke-miterlimit="8" fill="#FFFFFF"/><rect x="1034.5" y="190.476" width="24" height="36.9954" stroke="#000000" stroke-width="1.3335" stroke-miterlimit="8" fill="#FFFFFF"/><rect x="1055.5" y="190.476" width="23" height="36.9954" stroke="#000000" stroke-width="1.3335" stroke-miterlimit="8" fill="#FFFFFF"/><rect x="1076.5" y="190.476" width="23" height="36.9954" stroke="#000000" stroke-width="1.3335" stroke-miterlimit="8" fill="#FFFFFF"/><rect x="1096.5" y="190.476" width="24" height="36.9954" stroke="#000000" stroke-width="1.3335" stroke-miterlimit="8" fill="#FFFFFF"/><text font-family="Calibri,Calibri_MSFontService,sans-serif" font-weight="400" font-size="21" transform="matrix(1 0 0 0.999874 996.386 180)">record data</text><rect x="973.5" y="228.471" width="23.0001" height="36.9954" stroke="#000000" stroke-width="1.3335" stroke-miterlimit="8" fill="#FFFFFF"/><rect x="993.5" y="228.471" width="24.0001" height="36.9954" stroke="#000000" stroke-width="1.3335" stroke-miterlimit="8" fill="#FFFFFF"/><rect x="1014.5" y="228.471" width="23.0001" height="36.9954" stroke="#000000" stroke-width="1.3335" stroke-miterlimit="8" fill="#FFFFFF"/><rect x="1034.5" y="228.471" width="24" height="36.9954" stroke="#000000" stroke-width="1.3335" stroke-miterlimit="8" fill="#FFFFFF"/><rect x="1055.5" y="228.471" width="23" height="36.9954" stroke="#000000" stroke-width="1.3335" stroke-miterlimit="8" fill="#FFFFFF"/><rect x="1076.5" y="228.471" width="23" height="36.9954" stroke="#000000" stroke-width="1.3335" stroke-miterlimit="8" fill="#FFFFFF"/><rect x="1096.5" y="228.471" width="24" height="36.9954" stroke="#000000" stroke-width="1.3335" stroke-miterlimit="8" fill="#FFFFFF"/><rect x="921.5" y="289.464" width="238" height="148.981" stroke="#000000" stroke-width="2.667" stroke-miterlimit="8" fill="#FFFFFF"/><text font-family="Calibri,Calibri_MSFontService,sans-serif" font-weight="700" font-size="24" transform="matrix(1 0 0 0.999874 937.299 316)">Curated CoLRev data</text><rect x="973.5" y="350.456" width="23.0001" height="36.9954" stroke="#000000" stroke-width="1.3335" stroke-miterlimit="8" fill="#FFFFFF"/><rect x="993.5" y="350.456" width="24.0001" height="36.9954" stroke="#000000" stroke-width="1.3335" stroke-miterlimit="8" fill="#FFFFFF"/><rect x="1014.5" y="350.456" width="23.0001" height="36.9954" stroke="#000000" stroke-width="1.3335" stroke-miterlimit="8" fill="#FFFFFF"/><rect x="1034.5" y="350.456" width="24" height="36.9954" stroke="#000000" stroke-width="1.3335" stroke-miterlimit="8" fill="#FFFFFF"/><rect x="1055.5" y="350.456" width="23" height="36.9954" stroke="#000000" stroke-width="1.3335" stroke-miterlimit="8" fill="#FFFFFF"/><rect x="1076.5" y="350.456" width="23" height="36.9954" stroke="#000000" stroke-width="1.3335" stroke-miterlimit="8" fill="#FFFFFF"/><rect x="1096.5" y="350.456" width="24" height="36.9954" stroke="#000000" stroke-width="1.3335" stroke-miterlimit="8" fill="#FFFFFF"/><text font-family="Calibri,Calibri_MSFontService,sans-serif" font-weight="400" font-size="21" transform="matrix(1 0 0 0.999874 996.386 340)">record data</text><rect x="973.5" y="388.451" width="23.0001" height="37.9953" stroke="#000000" stroke-width="1.3335" stroke-miterlimit="8" fill="#FFFFFF"/><rect x="993.5" y="388.451" width="24.0001" height="37.9953" stroke="#000000" stroke-width="1.3335" stroke-miterlimit="8" fill="#FFFFFF"/><rect x="1014.5" y="388.451" width="23.0001" height="37.9953" stroke="#000000" stroke-width="1.3335" stroke-miterlimit="8" fill="#FFFFFF"/><rect x="1034.5" y="388.451" width="24" height="37.9953" stroke="#000000" stroke-width="1.3335" stroke-miterlimit="8" fill="#FFFFFF"/><rect x="1055.5" y="388.451" width="23" height="37.9953" stroke="#000000" stroke-width="1.3335" stroke-miterlimit="8" fill="#FFFFFF"/><rect x="1076.5" y="388.451" width="23" height="37.9953" stroke="#000000" stroke-width="1.3335" stroke-miterlimit="8" fill="#FFFFFF"/><rect x="1096.5" y="388.451" width="24" height="37.9953" stroke="#000000" stroke-width="1.3335" stroke-miterlimit="8" fill="#FFFFFF"/></g></svg>
