<svg width="1280" height="529" xmlns="http://www.w3.org/2000/svg" xmlns:xlink="http://www.w3.org/1999/xlink" overflow="hidden"><defs><clipPath id="clip0"><rect x="0" y="0" width="1280" height="529"/></clipPath></defs><g clip-path="url(#clip0)"><rect x="0" y="0" width="1280" height="528.833" fill="#FFFFFF"/><rect x="474.5" y="5.49832" width="391" height="68.9783" stroke="#000000" stroke-width="1.33333" stroke-miterlimit="8" fill="#FFFFFF"/><text font-family="Calibri,Calibri_MSFontService,sans-serif" font-weight="400" font-size="24" transform="matrix(1 0 0 0.999685 596.595 47)">CoLRev <tspan font-size="24" x="76.46" y="0">project</tspan></text><rect x="437.5" y="350.39" width="242" height="45.9855" stroke="#000000" stroke-width="1.33333" stroke-miterlimit="8" fill="#FFFFFF"/><text font-family="Calibri,Calibri_MSFontService,sans-serif" font-weight="400" font-size="24" transform="matrix(1 0 0 0.999685 512.672 380)">Journal A</text><rect x="437.5" y="406.372" width="242" height="46.9852" stroke="#000000" stroke-width="1.33333" stroke-miterlimit="8" fill="#FFFFFF"/><text font-family="Calibri,Calibri_MSFontService,sans-serif" font-weight="400" font-size="24" transform="matrix(1 0 0 0.999685 513.088 437)">Journal B</text><rect x="437.5" y="463.354" width="242" height="45.9855" stroke="#000000" stroke-width="1.33333" stroke-miterlimit="8" fill="#FFFFFF"/><text font-family="Calibri,Calibri_MSFontService,sans-serif" font-weight="400" font-size="24" transform="matrix(1 0 0 0.999685 492.865 493)">Conference C</text><rect x="696.5" y="350.39" width="243" height="45.9855" stroke="#000000" stroke-width="1.33333" stroke-miterlimit="8" fill="#FFFFFF"/><text font-family="Calibri,Calibri_MSFontService,sans-serif" font-weight="400" font-size="24" transform="matrix(1 0 0 0.999685 781.864 380)">Topic D</text><rect x="696.5" y="406.372" width="243" height="46.9852" stroke="#000000" stroke-width="1.33333" stroke-miterlimit="8" fill="#FFFFFF"/><text font-family="Calibri,Calibri_MSFontService,sans-serif" font-weight="400" font-size="24" transform="matrix(1 0 0 0.999685 745.258 437)">Classification E</text><rect x="696.5" y="463.354" width="243" height="45.9855" stroke="#000000" stroke-width="1.33333" stroke-miterlimit="8" fill="#FFFFFF"/><text font-family="Calibri,Calibri_MSFontService,sans-serif" font-weight="400" font-size="24" transform="matrix(1 0 0 0.999685 809.048 493)">…</text><path d="M703.261 89.9134 716.94 93.8652 729.981 99.0295 742.206 105.266 753.552 112.513 764.014 120.766 773.532 129.777 782.046 139.612 789.488 150.204 795.794 161.362 800.966 173.027 804.94 185.199 807.653 197.688 809.041 210.493 809.104 223.55 807.718 236.717 806.516 243.294 804.875 249.918 802.542 257.609 799.703 265.051 796.424 272.365 792.701 279.365 788.539 286.175 783.936 292.729 779.019 298.969 773.646 304.972 761.872 315.924 748.776 325.617 741.703 329.91 734.393 333.816 726.831 337.28 725.195 337.922 724.344 335.75 725.949 335.121 725.889 335.146 733.389 331.71 733.325 331.742 740.575 327.868 740.52 327.899 747.52 323.651 747.431 323.71 760.431 314.088 760.33 314.172 772.018 303.3 771.943 303.376 777.255 297.441 777.209 297.497 782.084 291.311 782.045 291.363 786.608 284.865 786.567 284.927 790.692 278.179 790.657 278.24 794.345 271.304 794.31 271.375 797.56 264.127 797.535 264.189 800.347 256.816 800.321 256.893 802.634 249.27 802.618 249.329 804.243 242.768 804.227 242.839 805.415 236.341 805.402 236.428 806.777 223.37 806.771 223.498 806.708 210.564 806.715 210.684 805.34 198.001 805.36 198.123 802.672 185.752 802.703 185.866 798.766 173.807 798.808 173.918 793.683 162.359 793.734 162.46 787.484 151.401 787.545 151.498 780.17 141.001 780.243 141.094 771.805 131.347 771.885 131.431 762.448 122.496 762.527 122.565 752.152 114.38 752.247 114.447 740.997 107.262 741.095 107.318 728.97 101.132 729.07 101.178 716.133 96.0544 716.239 96.0905 702.614 92.1543ZM727.471 340.072 718.562 339.268 724.551 332.626Z"/><path d="M654.739 337.952 641.06 334 628.019 328.836 615.794 322.599 604.448 315.353 593.986 307.099 584.468 298.088 575.954 288.253 568.512 277.661 562.206 266.503 557.034 254.838 553.06 242.667 550.347 230.177 548.959 217.372 548.896 204.315 550.282 191.149 551.484 184.572 553.125 177.947 555.458 170.256 558.297 162.814 561.576 155.501 565.299 148.5 569.461 141.69 574.064 135.136 578.981 128.896 584.354 122.894 596.128 111.941 609.224 102.248 616.297 97.9553 623.607 94.0497 631.169 90.5847 632.805 89.9436 633.656 92.1153 632.051 92.7445 632.111 92.7189 624.611 96.1553 624.675 96.1237 617.425 99.9974 617.48 99.9658 610.48 104.214 610.569 104.155 597.569 113.777 597.67 113.693 585.982 124.565 586.057 124.489 580.745 130.424 580.791 130.368 575.916 136.554 575.955 136.502 571.392 143 571.433 142.938 567.308 149.686 567.343 149.625 563.655 156.561 563.69 156.49 560.44 163.738 560.465 163.677 557.653 171.049 557.679 170.972 555.366 178.595 555.382 178.537 553.757 185.097 553.773 185.026 552.585 191.524 552.598 191.437 551.223 204.495 551.229 204.367 551.292 217.301 551.285 217.181 552.66 229.864 552.64 229.743 555.328 242.114 555.297 241.999 559.234 254.058 559.192 253.947 564.317 265.506 564.266 265.405 570.516 276.464 570.455 276.367 577.83 286.864 577.757 286.771 586.195 296.518 586.115 296.435 595.552 305.369 595.473 305.3 605.848 313.485 605.753 313.418 617.003 320.603 616.905 320.547 629.03 326.733 628.93 326.687 641.867 331.811 641.761 331.775 655.386 335.711ZM630.529 87.793 639.438 88.5971 633.449 95.2388Z"/><text font-family="Calibri,Calibri_MSFontService,sans-serif" font-weight="400" font-size="24" transform="matrix(1 0 0 0.999685 243.061 102)">reuse (built<tspan font-size="24" x="111.187" y="0">-</tspan><tspan font-size="24" x="118.52" y="0">in)</tspan><tspan font-size="24" x="-188.74" y="37.0117">Based on metadata fingerprints</tspan><tspan font-size="24" x="-188.74" y="66.0208">-</tspan><tspan font-size="24" x="-158.74" y="66.0208">Identify, retrieve, and verify curated metadata</tspan><tspan font-size="24" x="-188.74" y="95.0299">-</tspan><tspan font-size="24" x="-158.74" y="95.0299">Classify duplicates/non</tspan><tspan font-size="24" x="65.7" y="95.0299">-</tspan><tspan font-size="24" x="73.0333" y="95.0299">duplicates</tspan><tspan font-size="24" x="-188.74" y="124.039">-</tspan><tspan font-size="24" x="-158.74" y="124.039">Link curated annotations</tspan><tspan font-size="24" x="-188.74" y="181.057">Based on PDF fingerprints</tspan><tspan font-size="24" x="-188.74" y="210.066">-</tspan><tspan font-size="24" x="-158.74" y="210.066">Identify, retrieve, and verify PDFs</tspan><tspan font-size="24" x="581.587" y="68.0214">Share corrections (built</tspan>-<tspan font-size="24" x="816.094" y="68.0214">in)</tspan></text><path d="M966.5 341.392C976.441 341.392 984.5 342.735 984.5 344.391L984.5 427.865C984.5 429.522 992.559 430.864 1002.5 430.864 992.559 430.864 984.5 432.207 984.5 433.863L984.5 517.337C984.5 518.993 976.441 520.336 966.5 520.336" stroke="#000000" stroke-width="0.666667" stroke-miterlimit="8" fill="none" fill-rule="evenodd"/><text font-family="Calibri,Calibri_MSFontService,sans-serif" font-weight="400" font-size="24" transform="matrix(1 0 0 0.999685 1021.69 440)">Curated resources<tspan font-size="24" x="-18.8733" y="37.0117">(local and distributed)</tspan></text></g></svg>
