<svg width="1280" height="340" xmlns="http://www.w3.org/2000/svg" xmlns:xlink="http://www.w3.org/1999/xlink" overflow="hidden"><defs><clipPath id="clip0"><rect x="0" y="0" width="1280" height="340"/></clipPath></defs><g clip-path="url(#clip0)"><rect x="0" y="0" width="1280" height="339.833" fill="#FFFFFF"/><rect x="32.5001" y="130.436" width="266" height="67.9667" stroke="#000000" stroke-width="2.66667" stroke-miterlimit="8" fill="#FFFFFF"/><text font-family="Calibri,Calibri_MSFontService,sans-serif" font-weight="700" font-size="24" transform="matrix(1 0 0 0.99951 91.0459 171)">CoLRev project</text><path d="M321.984 140.616 333.648 134.443 346.51 128.267 359.611 122.664 372.894 117.442 386.434 112.721 400.158 108.442 414.008 104.666 428.04 101.333 442.201 98.4395 456.424 96.0491 470.773 94.0992 485.177 92.6532 499.643 91.5845 514.122 91.0182 528.658 90.9553 543.124 91.3325 557.59 92.1498 572 93.4077 586.411 95.1688 600.691 97.3696 614.854 100.012 628.89 103.158 642.796 106.742 656.585 110.77 670.123 115.302 683.53 120.272 696.696 125.687 709.612 131.606 722.273 137.965 734.62 144.765 746.666 151.977 743.583 157.122 731.583 149.938 731.677 149.992 719.427 143.245 719.528 143.298 706.965 136.989 707.062 137.035 694.249 131.163 694.358 131.21 681.296 125.838 681.394 125.876 668.082 120.941 668.172 120.973 654.735 116.475 654.846 116.51 641.158 112.512 641.251 112.537 627.438 108.977 627.531 108.999 613.594 105.875 613.699 105.897 599.637 103.273 599.73 103.289 585.543 101.103 585.636 101.116 571.323 99.3667 571.426 99.3774 557.114 98.1281 557.206 98.1346 542.831 97.3226 542.922 97.3264 528.547 96.9515 528.638 96.9525 514.2 97.015 514.305 97.0127 499.93 97.5749 500.034 97.5691 485.659 98.631 485.737 98.6241 471.425 100.061 471.529 100.049 457.279 101.985 457.372 101.971 443.247 104.345 443.351 104.326 429.288 107.199 429.381 107.179 415.444 110.49 415.539 110.465 401.789 114.213 401.893 114.183 388.268 118.431 388.363 118.4 374.926 123.085 375.036 123.044 361.848 128.229 361.93 128.195 348.93 133.755 349.049 133.701 336.299 139.823 336.404 139.77 324.791 145.916ZM333.354 154.865 310.312 150.614 318.651 128.728Z"/><text font-family="Calibri,Calibri_MSFontService,sans-serif" font-weight="700" font-size="24" transform="matrix(1 0 0 0.99951 448.712 73)">Reuse (built<tspan font-size="24" x="118.147" y="0">-</tspan><tspan font-size="24" x="125.48" y="0">in)</tspan><tspan font-size="24" x="-45.0602" y="221.108">Updates and corrections </tspan><tspan font-size="24" x="32.4931" y="250.123">(built</tspan><tspan font-size="24" x="85.6598" y="250.123">-</tspan><tspan font-size="24" x="92.9931" y="250.123">in)</tspan></text><rect x="765.5" y="3.49834" width="477" height="332.837" stroke="#000000" stroke-width="2.66667" stroke-miterlimit="8" fill="none"/><text font-family="Calibri,Calibri_MSFontService,sans-serif" font-weight="700" font-size="24" transform="matrix(1 0 0 0.99951 879.027 30)">Community<tspan font-size="24" x="115.667" y="0">-</tspan><tspan font-size="24" x="123" y="0">curated data</tspan><tspan font-weight="400" font-size="24" x="-95.4133" y="37.0181">-</tspan><tspan font-weight="400" font-size="24" x="-74.7467" y="37.0181">Private, shared, or public CoLRev projects</tspan><tspan font-weight="400" font-size="24" x="-95.4133" y="74.0363">-</tspan><tspan font-weight="400" font-size="24" x="-74.7467" y="74.0363">Examples:</tspan><tspan font-weight="400" font-size="24" x="-56.7467" y="111.054">-</tspan><tspan font-weight="400" font-size="24" x="-39.08" y="111.054">Curated metadata (e.g., per journal)</tspan><tspan font-weight="400" font-size="24" x="-56.7467" y="148.073">-</tspan><tspan font-weight="400" font-size="24" x="-39.08" y="148.073">Duplicate/non</tspan><tspan font-weight="400" font-size="24" x="100.407" y="148.073">-</tspan><tspan font-weight="400" font-size="24" x="107.74" y="148.073">duplicate associations</tspan><tspan font-weight="400" font-size="24" x="-56.7467" y="184.09">-</tspan><tspan font-weight="400" font-size="24" x="-39.08" y="184.09">PDF </tspan><tspan font-weight="400" font-size="24" x="4.58667" y="184.09">retrieval </tspan><tspan font-weight="400" font-size="24" x="-56.7467" y="221.108">-</tspan><tspan font-weight="400" font-size="24" x="-39.08" y="221.108">Method </tspan><tspan font-weight="400" font-size="24" x="44.7933" y="221.108">classifications</tspan><tspan font-weight="400" font-size="24" x="-56.7467" y="258.126">-</tspan><tspan font-weight="400" font-size="24" x="-39.08" y="258.126">Topic annotations</tspan><tspan font-weight="400" font-size="24" x="-56.7467" y="295.145">-</tspan><tspan font-weight="400" font-size="24" x="-39.08" y="295.145">Codified concepts and findings</tspan><tspan font-size="24" x="-411.235" y="105.051">Foundation</tspan><tspan font-weight="400" font-size="24" x="-485.322" y="142.07">A distributed and universal </tspan><tspan font-weight="400" font-size="24" x="-459.422" y="171.084">identification scheme</tspan></text><path d="M490.423 134.502 497.448 146.733 504.059 159.325 510.231 172.172 515.896 185.329 521.12 198.609 525.841 212.143 530.119 225.856 533.957 239.761 537.291 253.791 540.185 267.944 542.575 282.161 544.525 296.497 546.034 310.963 547.04 325.428 547.606 339.887 547.732 354.415 547.354 368.943 546.537 383.408 545.217 397.868 543.518 412.208 541.254 426.55 538.613 440.699 535.467 454.791 531.881 468.697 527.791 482.477 523.26 496.068 518.287 509.413 512.811 522.568 506.895 535.534 500.531 548.199 494.14 559.652 488.903 556.73 495.263 545.333 495.202 545.448 501.511 532.892 501.462 532.993 507.335 520.125 507.294 520.217 512.729 507.161 512.688 507.266 517.623 494.023 517.588 494.122 522.086 480.628 522.056 480.723 526.116 467.042 526.087 467.147 529.648 453.341 529.625 453.437 532.748 439.444 532.727 439.547 535.351 425.491 535.337 425.573 537.586 411.33 537.57 411.445 539.257 397.202 539.248 397.282 540.56 382.915 540.552 383.018 541.364 368.65 541.361 368.741 541.735 354.311 541.735 354.415 541.61 339.984 541.612 340.076 541.05 325.708 541.055 325.798 540.055 311.431 540.064 311.534 538.565 297.166 538.576 297.258 536.639 283.015 536.653 283.109 534.28 268.991 534.299 269.094 531.425 255.038 531.446 255.131 528.135 241.2 528.162 241.305 524.351 227.499 524.379 227.594 520.131 213.976 520.162 214.071 515.477 200.64 515.518 200.75 510.333 187.569 510.369 187.657 504.747 174.601 504.798 174.713 498.676 161.97 498.724 162.065 492.165 149.571 492.22 149.671 485.223 137.489ZM505.952 563.244 483.888 571.095 480.144 547.977Z" transform="matrix(6.12624e-17 1 1.00049 -6.12323e-17 174 -305.85)"/></g></svg>
