<svg width="1361" height="265" xmlns="http://www.w3.org/2000/svg" xmlns:xlink="http://www.w3.org/1999/xlink" overflow="hidden"><defs><clipPath id="clip0"><rect x="0" y="0" width="1361" height="265"/></clipPath></defs><g clip-path="url(#clip0)"><rect x="0" y="0" width="1361" height="265.436" fill="#FFFFFF"/><rect x="509.5" y="103.67" width="183" height="69.1135" stroke="#000000" stroke-width="2.66732" stroke-miterlimit="8" fill="#FFFFFF"/><text font-family="Calibri,Calibri_MSFontService,sans-serif" font-weight="700" font-size="24" transform="matrix(1 0 0 1.00164 526.428 146)">CoLRev <tspan font-size="24" x="77.5457" y="0">project</tspan></text><path d="M715.131 110.831 724.816 106.857 737.247 102.855 749.966 99.6223 762.863 97.1526 775.947 95.3799 789.223 94.3667 802.498 94.1134 815.704 94.6197 828.911 95.8223 841.94 97.7863 854.777 100.51 867.366 103.932 879.654 108.119 891.566 113.069 902.887 118.676 900.227 124.064 888.995 118.502 889.175 118.584 877.444 113.709 877.628 113.778 865.523 109.653 865.703 109.708 853.286 106.333 853.45 106.373 840.784 103.686 840.959 103.717 828.105 101.78 828.28 101.801 815.239 100.614 815.396 100.624 802.355 100.124 802.527 100.125 789.423 100.375 789.594 100.367 776.491 101.367 776.665 101.349 763.749 103.099 763.91 103.072 751.181 105.51 751.355 105.471 738.813 108.659 738.994 108.607 726.764 112.544 726.983 112.464 717.407 116.394ZM722.682 120.618 702.571 119.745 715.335 104.154Z"/><text font-family="Calibri,Calibri_MSFontService,sans-serif" font-weight="700" font-size="24" transform="matrix(1 0 0 1.00164 748.969 74)">colrev pull<tspan font-size="24" x="-5.33472" y="140.768">colrev push</tspan></text><rect x="916.5" y="3.50572" width="433" height="257.423" stroke="#000000" stroke-width="2.66732" stroke-miterlimit="8" fill="none"/><text font-family="Calibri,Calibri_MSFontService,sans-serif" font-weight="700" font-size="24" transform="matrix(1 0 0 1.00164 1008.35 29)">Community-<tspan font-size="24" x="123.03" y="0">curated data</tspan><tspan font-weight="400" font-size="24" x="-82.3469" y="36.9392">-</tspan><tspan font-weight="400" font-size="24" x="-63.6756" y="36.9392">Examples:</tspan><tspan font-weight="400" font-size="24" x="-54.34" y="73.8785">-</tspan><tspan font-weight="400" font-size="24" x="-35.6688" y="73.8785">Curated metadata (records)</tspan><tspan font-weight="400" font-size="24" x="-54.34" y="110.818">-</tspan><tspan font-weight="400" font-size="24" x="-35.6688" y="110.818">Duplicate/non</tspan><tspan font-weight="400" font-size="24" x="103.852" y="110.818">-</tspan><tspan font-weight="400" font-size="24" x="111.187" y="110.818">duplicate associations</tspan><tspan font-weight="400" font-size="24" x="-54.34" y="147.757">-</tspan><tspan font-weight="400" font-size="24" x="-35.6688" y="147.757">PDF retrieval </tspan><tspan font-weight="400" font-size="24" x="-54.34" y="183.698">-</tspan><tspan font-weight="400" font-size="24" x="-35.6688" y="183.698">Method/topic classifications</tspan><tspan font-weight="400" font-size="24" x="-54.34" y="220.637">-</tspan><tspan font-weight="400" font-size="24" x="-35.6688" y="220.637">Codified concepts and findings</tspan></text><path d="M222.167 69.2951 227.574 80.7999 232.324 92.8345 236.314 105.247 239.541 117.966 242.007 130.863 243.777 143.947 244.788 157.223 245.041 170.498 244.536 183.704 243.335 196.911 241.374 209.94 238.655 222.777 235.239 235.366 231.052 247.673 226.964 257.164 221.452 254.789 225.494 245.407 225.409 245.628 229.527 233.523 229.472 233.703 232.841 221.286 232.802 221.45 235.485 208.784 235.453 208.959 237.387 196.105 237.366 196.28 238.552 183.239 238.542 183.396 239.041 170.355 239.039 170.527 238.79 157.423 238.798 157.594 237.799 144.491 237.818 144.665 236.071 131.749 236.097 131.91 233.663 119.181 233.702 119.355 230.52 106.813 230.572 106.994 226.641 94.7639 226.706 94.9474 222.027 83.0919 222.102 83.2664 216.736 71.8477ZM233.632 257.088 217.829 269.557 217.336 249.433Z" transform="matrix(6.12323e-17 1.00165 1 -6.13331e-17 632 -55.0905)"/><path d="M295.675 116.897 307.246 111.48 319.284 106.784 331.69 102.853 344.404 99.6219 357.364 97.1524 370.446 95.3799 383.66 94.3667 396.998 94.1134 410.203 94.6197 423.409 95.8222 436.494 97.7849 449.331 100.445 461.928 103.869 474.229 108.061 483.759 112.127 481.407 117.658 471.98 113.635 472.189 113.716 460.084 109.591 460.265 109.646 447.848 106.271 448.026 106.313 435.359 103.688 435.523 103.718 422.606 101.78 422.779 101.801 409.738 100.613 409.895 100.624 396.854 100.124 397.026 100.125 383.86 100.375 384.032 100.367 370.991 101.367 371.164 101.349 358.248 103.099 358.406 103.073 345.615 105.51 345.792 105.471 333.25 108.658 333.417 108.611 321.187 112.486 321.371 112.421 309.516 117.046 309.698 116.968 298.216 122.343ZM483.669 105.45 496.181 121.245 476.058 121.794Z"/><text font-family="Calibri,Calibri_MSFontService,sans-serif" font-weight="700" font-size="24" transform="matrix(1 0 0 1.00164 343.669 77)">colrev pull<tspan font-size="24" x="-5.33475" y="140.768">colrev push</tspan></text><path d="M228.444 83.5331 232.385 93.2652 236.316 105.69 239.542 118.404 242.007 131.364 243.777 144.446 244.788 157.66 245.041 170.998 244.536 184.203 243.335 197.409 241.376 210.494 238.72 223.331 235.301 235.928 231.123 248.209 226.245 260.119 220.647 271.505 215.261 268.856 220.814 257.563 220.73 257.749 225.535 246.019 225.471 246.189 229.589 234.084 229.534 234.265 232.904 221.848 232.861 222.026 235.482 209.359 235.453 209.523 237.387 196.606 237.366 196.779 238.552 183.738 238.542 183.895 239.041 170.854 239.039 171.026 238.79 157.86 238.798 158.032 237.799 144.991 237.818 145.164 236.071 132.248 236.096 132.406 233.663 119.615 233.702 119.792 230.52 107.25 230.567 107.417 226.699 95.1874 226.779 95.4087 222.882 85.7858ZM218.652 91.0541 219.576 70.9458 235.108 83.7502Z" transform="matrix(6.12323e-17 1.00165 1 -6.13331e-17 226 -55.0905)"/><rect x="7.5" y="71.6176" width="284" height="141.232" stroke="#000000" stroke-width="2.66732" stroke-miterlimit="8" fill="none"/><text font-family="Calibri,Calibri_MSFontService,sans-serif" font-weight="700" font-size="24" transform="matrix(1 0 0 1.00164 23.0568 98)">Shared project repository<tspan font-weight="400" font-size="24" x="-6.06148" y="36.9392">-</tspan><tspan font-weight="400" font-size="24" x="3.27414" y="36.9392">Typically shared or private</tspan><tspan font-weight="400" font-size="24" x="-6.06148" y="73.8785">-</tspan><tspan font-weight="400" font-size="24" x="3.27414" y="73.8785">Hosted remotely (e.g., </tspan><tspan font-weight="400" font-size="24" x="3.27414" y="102.831">GitHub)</tspan><tspan font-weight="400" font-size="24" x="302.551" y="53.9113">(</tspan><tspan font-weight="400" font-size="24" x="309.886" y="53.9113">--</tspan><tspan font-weight="400" font-size="24" x="324.556" y="53.9113">project_only</tspan><tspan font-weight="400" font-size="24" x="447.366" y="53.9113">)</tspan><tspan font-weight="400" font-size="24" x="702.059" y="49.9179">(</tspan><tspan font-weight="400" font-size="24" x="709.394" y="49.9179">--</tspan><tspan font-weight="400" font-size="24" x="724.064" y="49.9179">records_only</tspan><tspan font-weight="400" font-size="24" x="850.422" y="49.9179">)</tspan></text></g></svg>
