<svg width="1134" height="454" xmlns="http://www.w3.org/2000/svg" xmlns:xlink="http://www.w3.org/1999/xlink" overflow="hidden"><defs><clipPath id="clip0"><rect x="0" y="0" width="1134" height="454"/></clipPath><clipPath id="clip1"><path d="M267.41 124.228 375.076 134.888 364.426 242.656 256.76 231.997Z" fill-rule="evenodd" clip-rule="evenodd"/></clipPath><clipPath id="clip2"><path d="M267.41 124.228 375.076 134.888 364.426 242.657 256.76 231.997Z" fill-rule="evenodd" clip-rule="evenodd"/></clipPath><clipPath id="clip3"><path d="M267.41 124.228 375.076 134.888 364.426 242.657 256.76 231.997Z" fill-rule="evenodd" clip-rule="evenodd"/></clipPath></defs><g clip-path="url(#clip0)"><rect x="0" y="0" width="1134" height="454.434" fill="#FFFFFF"/><text font-family="Calibri,Calibri_MSFontService,sans-serif" font-weight="700" font-size="29" transform="matrix(1 0 0 1.00096 125.945 138)">search<tspan font-size="29" x="0" y="34.9666">load</tspan><tspan font-size="29" x="0" y="69.9332">prep</tspan><tspan font-size="29" x="0" y="104.9">dedupe</tspan><tspan font-size="29" x="0" y="139.866">pdf</tspan><tspan font-size="29" x="40.1726" y="139.866">-</tspan><tspan font-size="29" x="49.0072" y="139.866">get</tspan><tspan font-size="29" x="0" y="173.834">pdf</tspan><tspan font-size="29" x="40.1726" y="173.834">-</tspan><tspan font-size="29" x="49.0072" y="173.834">prep</tspan><tspan font-size="29" x="0" y="208.8">screen</tspan><tspan font-size="29" x="0" y="243.767">data</tspan></text><path d="M110.504 399.882C106.083 399.882 102.5 396.295 102.5 391.87L102.5 117.616C102.5 113.191 106.083 109.605 110.504 109.605M242.496 109.605C246.917 109.605 250.5 113.191 250.5 117.616L250.5 391.87C250.5 396.295 246.917 399.882 242.496 399.882" stroke="#000000" stroke-width="5.33412" stroke-miterlimit="8" fill="none" fill-rule="evenodd"/><text font-family="Calibri,Calibri_MSFontService,sans-serif" font-weight="400" font-size="29" transform="matrix(1 0 0 1.00096 373.312 168)">-<tspan font-size="29" x="26.6706" y="0">All </tspan>operations are <tspan font-weight="700" font-size="29" x="241.129" y="0">configurable</tspan><tspan font-size="29" x="0" y="34.9666">-</tspan><tspan font-size="29" x="26.6706" y="34.9666">Reasonable </tspan><tspan font-size="29" x="169.178" y="34.9666">defaults, adapted to types of reviews </tspan><tspan font-size="29" x="26.6706" y="69.9332">(e.g., narrative review, scoping review, meta</tspan>-<tspan font-size="29" x="551.194" y="69.9332">analysis, </tspan><tspan font-size="29" x="656.777" y="69.9332">…)</tspan></text><g clip-path="url(#clip1)"><g clip-path="url(#clip2)"><g clip-path="url(#clip3)"><path d="M66.8312 42.0372C62.0978 42.0372 58.3787 38.2054 58.3787 33.5847 58.3787 28.964 62.2105 25.1322 66.8312 25.1322 71.5647 25.1322 75.2838 28.964 75.2838 33.5847 75.2838 38.2054 71.452 42.0372 66.8312 42.0372ZM85.8776 28.2878C85.4268 26.71 84.8633 25.2449 84.0744 23.8925L85.8776 18.5955 81.8204 14.5383 76.5235 16.3415C75.1711 15.5526 73.706 14.9891 72.1282 14.5383L69.6488 9.57952 64.0137 9.57952 61.5343 14.5383C59.9565 14.9891 58.4914 15.5526 57.139 16.3415L51.8421 14.5383 47.7849 18.5955 49.5881 23.8925C48.7992 25.2449 48.2357 26.71 47.7849 28.2878L42.8261 30.7672 42.8261 36.4022 47.7849 38.8816C48.2357 40.4594 48.7992 41.9245 49.5881 43.2769L47.7849 48.5738 51.7294 52.5183 57.0263 50.7151C58.3787 51.504 59.8438 52.0675 61.4216 52.5183L63.901 57.4771 69.5361 57.4771 72.0155 52.5183C73.5933 52.0675 75.0584 51.504 76.4108 50.7151L81.7077 52.5183 85.7649 48.5738 83.9617 43.2769C84.7506 41.9245 85.4268 40.3467 85.8776 38.8816L90.8364 36.4022 90.8364 30.7672 85.8776 28.2878Z" transform="matrix(0.995134 0.0985271 -0.0984331 0.996085 267.41 124.228)"/><path d="M41.361 83.0601C36.6276 83.0601 32.9085 79.2283 32.9085 74.6076 32.9085 69.8742 36.7403 66.155 41.361 66.155 46.0944 66.155 49.8135 69.9869 49.8135 74.6076 49.8135 79.2283 46.0944 83.0601 41.361 83.0601L41.361 83.0601ZM58.6041 64.9153 60.4073 59.6184 56.3501 55.5612 51.0532 57.3644C49.7008 56.5755 48.123 56.012 46.6579 55.5612L44.1785 50.6024 38.5435 50.6024 36.0641 55.5612C34.4863 56.012 33.0212 56.5755 31.6688 57.3644L26.3719 55.5612 22.4273 59.5057 24.1179 64.8026C23.329 66.155 22.7655 67.7328 22.3146 69.198L17.3558 71.6774 17.3558 77.3124 22.3146 79.7918C22.7655 81.3696 23.329 82.8347 24.1179 84.1871L22.4273 89.484 26.3719 93.4285 31.6688 91.738C33.0212 92.5269 34.4863 93.0904 36.0641 93.5412L38.5435 98.5 44.1785 98.5 46.6579 93.5412C48.2357 93.0904 49.7008 92.5269 51.0532 91.738L56.3501 93.5412 60.2946 89.484 58.6041 84.2998C59.393 82.9474 59.9565 81.4823 60.4073 79.9045L65.3661 77.4251 65.3661 71.7901 60.4073 69.3107C59.9565 67.7328 59.393 66.2677 58.6041 64.9153Z" transform="matrix(0.995134 0.0985271 -0.0984331 0.996085 267.41 124.228)"/></g></g></g><rect x="280.5" y="273.761" width="68" height="64.0611" stroke="#000000" stroke-width="4.66735" stroke-miterlimit="8" fill="#FFFFFF"/><rect x="269" y="266.254" width="82.0001" height="10.0096" fill="#FFFFFF"/><rect x="290.5" y="282.77" width="50" height="47.0449" stroke="#000000" stroke-width="1.33353" stroke-miterlimit="8"/><text font-family="Calibri,Calibri_MSFontService,sans-serif" font-weight="700" font-size="29" transform="matrix(1 0 0 1.00096 370.799 98)">colrev <tspan font-size="29" x="79.5717" y="0">settings</tspan><tspan font-weight="400" font-size="29" x="2.51352" y="198.81">-</tspan><tspan font-weight="400" font-size="29" x="29.1841" y="198.81">All </tspan><tspan font-weight="400" font-size="29" x="65.8562" y="198.81">operations </tspan><tspan font-weight="400" font-size="29" x="199.016" y="198.81">are </tspan><tspan font-size="29" x="243.642" y="198.81">extensible</tspan><tspan font-weight="400" font-size="29" x="2.51352" y="233.777">-</tspan><tspan font-weight="400" font-size="29" x="29.1841" y="233.777">A reference implementation is available for all </tspan><tspan font-weight="400" font-size="29" x="576.131" y="233.777">operations</tspan><tspan font-weight="400" font-size="29" x="2.51352" y="268.743">-</tspan><tspan font-weight="400" font-size="29" x="29.1841" y="268.743">External packages or custom scripts can be included</tspan></text></g></svg>
