<svg width="1134" height="454" xmlns="http://www.w3.org/2000/svg" xmlns:xlink="http://www.w3.org/1999/xlink" overflow="hidden"><defs><clipPath id="clip0"><rect x="0" y="0" width="1134" height="454"/></clipPath></defs><g clip-path="url(#clip0)"><rect x="0" y="0" width="1134" height="454.434" fill="#FFFFFF"/><text font-family="Calibri,Calibri_MSFontService,sans-serif" font-weight="700" font-size="29" transform="matrix(1 0 0 1.00096 72.589 71)">colrev <tspan font-size="29" x="79.5717" y="0">operations</tspan><tspan font-size="29" x="53.3561" y="51.9504">search</tspan><tspan font-size="29" x="53.3561" y="86.917">load</tspan><tspan font-size="29" x="53.3561" y="121.884">prep</tspan><tspan font-size="29" x="53.3561" y="156.85">dedupe</tspan><tspan font-size="29" x="53.3561" y="191.817">pdf</tspan><tspan font-size="29" x="93.5287" y="191.817">-</tspan><tspan font-size="29" x="102.363" y="191.817">get</tspan><tspan font-size="29" x="53.3561" y="225.784">pdf</tspan><tspan font-size="29" x="93.5287" y="225.784">-</tspan><tspan font-size="29" x="102.363" y="225.784">prep</tspan><tspan font-size="29" x="53.3561" y="260.751">screen</tspan><tspan font-size="29" x="53.3561" y="295.717">data</tspan><tspan font-size="29" x="53.3561" y="330.684">paper</tspan></text><path d="M110.504 414.896C106.083 414.896 102.5 411.309 102.5 406.884L102.5 102.602C102.5 98.1771 106.083 94.5903 110.504 94.5903M242.496 94.5903C246.917 94.5903 250.5 98.1771 250.5 102.602L250.5 406.884C250.5 411.309 246.917 414.896 242.496 414.896" stroke="#000000" stroke-width="5.33412" stroke-miterlimit="8" fill="none" fill-rule="evenodd"/><path d="M10.0015-2.00028 65.806-2.0002 65.806 2.00039 10.0015 2.00031ZM12.0018 6.0009 0 0 12.0018-6.00086ZM63.8057-6.00079 75.8075 0.000105002 63.8057 6.00097Z" transform="matrix(-1 0 0 1.00096 338.807 254.243)"/><text font-family="Calibri,Calibri_MSFontService,sans-serif" font-weight="700" font-size="29" transform="matrix(1 0 0 1.00096 362.381 168)">colrev settings<tspan font-weight="400" font-size="29" x="9.33472" y="34.9666">-</tspan><tspan font-weight="400" font-size="29" x="36.0053" y="34.9666">All operations are configurable</tspan><tspan font-weight="400" font-size="29" x="9.33472" y="69.9332">-</tspan><tspan font-weight="400" font-size="29" x="36.0053" y="69.9332">Reference implementation available for all operations</tspan><tspan font-weight="400" font-size="29" x="9.33472" y="104.9">-</tspan><tspan font-weight="400" font-size="29" x="36.0053" y="104.9">Use external tools </tspan><tspan font-weight="400" font-size="29" x="254.584" y="104.9">or custom </tspan><tspan font-weight="400" font-size="29" x="379.656" y="104.9">scripts </tspan><tspan font-weight="400" font-size="29" x="462.875" y="104.9">(extensible)</tspan><tspan font-weight="400" font-size="29" x="9.33472" y="140.865">-</tspan><tspan font-weight="400" font-size="29" x="36.0053" y="140.865">Reasonable defaults, adapted to types of reviews </tspan><tspan font-weight="400" font-size="29" x="36.0053" y="174.833">(e.g., narrative review, scoping review, meta</tspan><tspan font-weight="400" font-size="29" x="551.694" y="174.833">-</tspan><tspan font-weight="400" font-size="29" x="560.529" y="174.833">analysis, …)</tspan></text></g></svg>
