<svg width="1134" height="454" xmlns="http://www.w3.org/2000/svg" xmlns:xlink="http://www.w3.org/1999/xlink" overflow="hidden"><defs><clipPath id="clip0"><rect x="0" y="0" width="1134" height="454"/></clipPath><clipPath id="clip1"><path d="M264.679 128.173 360.226 137.633 350.775 233.272 255.227 223.812Z" fill-rule="evenodd" clip-rule="evenodd"/></clipPath><clipPath id="clip2"><path d="M264.679 128.173 360.226 137.633 350.775 233.272 255.227 223.812Z" fill-rule="evenodd" clip-rule="evenodd"/></clipPath><clipPath id="clip3"><path d="M264.679 128.173 360.226 137.633 350.775 233.272 255.227 223.812Z" fill-rule="evenodd" clip-rule="evenodd"/></clipPath></defs><g clip-path="url(#clip0)"><rect x="0" y="0" width="1134" height="454.434" fill="#FFFFFF"/><text font-family="Calibri,Calibri_MSFontService,sans-serif" font-weight="700" font-size="29" transform="matrix(1 0 0 1.00096 72.589 71)">colrev <tspan font-size="29" x="79.5717" y="0">operations</tspan><tspan font-size="29" x="53.3561" y="51.9504">search</tspan><tspan font-size="29" x="53.3561" y="86.917">load</tspan><tspan font-size="29" x="53.3561" y="121.884">prep</tspan><tspan font-size="29" x="53.3561" y="156.85">dedupe</tspan><tspan font-size="29" x="53.3561" y="191.817">pdf</tspan><tspan font-size="29" x="93.5287" y="191.817">-</tspan><tspan font-size="29" x="102.363" y="191.817">get</tspan><tspan font-size="29" x="53.3561" y="225.784">pdf</tspan><tspan font-size="29" x="93.5287" y="225.784">-</tspan><tspan font-size="29" x="102.363" y="225.784">prep</tspan><tspan font-size="29" x="53.3561" y="260.751">screen</tspan><tspan font-size="29" x="53.3561" y="295.717">data</tspan><tspan font-size="29" x="53.3561" y="330.684">paper</tspan></text><path d="M110.504 414.896C106.083 414.896 102.5 411.309 102.5 406.884L102.5 102.602C102.5 98.1771 106.083 94.5903 110.504 94.5903M242.496 94.5903C246.917 94.5903 250.5 98.1771 250.5 102.602L250.5 406.884C250.5 411.309 246.917 414.896 242.496 414.896" stroke="#000000" stroke-width="5.33412" stroke-miterlimit="8" fill="none" fill-rule="evenodd"/><text font-family="Calibri,Calibri_MSFontService,sans-serif" font-weight="700" font-size="29" transform="matrix(1 0 0 1.00096 362.381 168)">colrev settings<tspan font-weight="400" font-size="29" x="9.33472" y="34.9666">-</tspan><tspan font-weight="400" font-size="29" x="36.0053" y="34.9666">All operations are configurable</tspan><tspan font-weight="400" font-size="29" x="9.33472" y="69.9332">-</tspan><tspan font-weight="400" font-size="29" x="36.0053" y="69.9332">Reference implementation available for all operations</tspan><tspan font-weight="400" font-size="29" x="9.33472" y="104.9">-</tspan><tspan font-weight="400" font-size="29" x="36.0053" y="104.9">Use external tools or custom scripts </tspan><tspan font-weight="400" font-size="29" x="462.875" y="104.9">(extensible)</tspan><tspan font-weight="400" font-size="29" x="9.33472" y="140.865">-</tspan><tspan font-weight="400" font-size="29" x="36.0053" y="140.865">Reasonable defaults, adapted to types of reviews </tspan><tspan font-weight="400" font-size="29" x="36.0053" y="174.833">(e.g., narrative review, scoping review, meta</tspan><tspan font-weight="400" font-size="29" x="551.694" y="174.833">-</tspan><tspan font-weight="400" font-size="29" x="560.529" y="174.833">analysis, …)</tspan></text><g clip-path="url(#clip1)"><g clip-path="url(#clip2)"><g clip-path="url(#clip3)"><path d="M59.3093 37.3058C55.1086 37.3058 51.8081 33.9053 51.8081 29.8047 51.8081 25.704 55.2086 22.3035 59.3093 22.3035 63.5099 22.3035 66.8104 25.704 66.8104 29.8047 66.8104 33.9053 63.4099 37.3058 59.3093 37.3058ZM76.2119 25.1039C75.8119 23.7037 75.3118 22.4035 74.6117 21.2033L76.2119 16.5026 72.6113 12.902 67.9106 14.5023C66.7104 13.8022 65.4102 13.3021 64.01 12.902L61.8097 8.50133 56.8089 8.50133 54.6085 12.902C53.2083 13.3021 51.9081 13.8022 50.7079 14.5023L46.0072 12.902 42.4066 16.5026 44.0069 21.2033C43.3068 22.4035 42.8067 23.7037 42.4066 25.1039L38.0059 27.3043 38.0059 32.305 42.4066 34.5054C42.8067 35.9056 43.3068 37.2058 44.0069 38.406L42.4066 43.1067 45.9072 46.6073 50.6079 45.007C51.8081 45.7071 53.1083 46.2072 54.5085 46.6073L56.7089 51.008 61.7096 51.008 63.91 46.6073C65.3102 46.2072 66.6104 45.7071 67.8106 45.007L72.5113 46.6073 76.1119 43.1067 74.5116 38.406C75.2117 37.2058 75.8119 35.8056 76.2119 34.5054L80.6126 32.305 80.6126 27.3043 76.2119 25.1039Z" transform="matrix(0.995134 0.0985271 -0.0984331 0.996085 264.679 128.173)"/><path d="M36.7057 73.7115C32.5051 73.7115 29.2046 70.311 29.2046 66.2103 29.2046 62.0097 32.6051 58.7092 36.7057 58.7092 40.9064 58.7092 44.2069 62.1097 44.2069 66.2103 44.2069 70.311 40.9064 73.7115 36.7057 73.7115L36.7057 73.7115ZM52.0081 57.609 53.6084 52.9083 50.0078 49.3077 45.3071 50.908C44.1069 50.2078 42.7067 49.7078 41.4065 49.3077L39.2061 44.907 34.2053 44.907 32.005 49.3077C30.6048 49.7078 29.3046 50.2078 28.1044 50.908L23.4037 49.3077 19.9031 52.8083 21.4033 57.509C20.7032 58.7092 20.2032 60.1094 19.8031 61.4096L15.4024 63.6099 15.4024 68.6107 19.8031 70.8111C20.2032 72.2113 20.7032 73.5115 21.4033 74.7117L19.9031 79.4124 23.4037 82.913 28.1044 81.4127C29.3046 82.1128 30.6048 82.6129 32.005 83.013L34.2053 87.4137 39.2061 87.4137 41.4065 83.013C42.8067 82.6129 44.1069 82.1128 45.3071 81.4127L50.0078 83.013 53.5084 79.4124 52.0081 74.8117C52.7082 73.6115 53.2083 72.3113 53.6084 70.9111L58.0091 68.7107 58.0091 63.71 53.6084 61.5096C53.2083 60.1094 52.7082 58.8092 52.0081 57.609Z" transform="matrix(0.995134 0.0985271 -0.0984331 0.996085 264.679 128.173)"/></g></g></g></g></svg>
