<svg width="1280" height="720" xmlns="http://www.w3.org/2000/svg" xmlns:xlink="http://www.w3.org/1999/xlink" overflow="hidden"><defs><clipPath id="clip0"><rect x="0" y="0" width="1280" height="720"/></clipPath></defs><g clip-path="url(#clip0)"><rect x="0" y="0" width="1280" height="720" fill="#FFFFFF"/><path d="M261.503 132.167 353.298 133.07 353.291 133.737 261.497 132.833ZM352 129.391 359.961 133.469 351.922 137.39Z"/><path d="M359.5 133 375 117.5 390.5 133 375 148.5Z" stroke="#000000" stroke-width="1.33333" stroke-miterlimit="8" fill="#FFFFFF" fill-rule="evenodd"/><path d="M390.505 133.167 423.708 133.699 423.697 134.366 390.495 133.833ZM422.434 130.012 430.368 134.139 422.305 138.011Z"/><path d="M429.5 122.167C429.5 119.037 432.037 116.5 435.167 116.5L558.833 116.5C561.963 116.5 564.5 119.037 564.5 122.167L564.5 144.833C564.5 147.963 561.963 150.5 558.833 150.5L435.167 150.5C432.037 150.5 429.5 147.963 429.5 144.833Z" stroke="#000000" stroke-width="1.33333" stroke-miterlimit="8" fill="#FFFFFF" fill-rule="evenodd"/><text font-family="Calibri,Calibri_MSFontService,sans-serif" font-weight="400" font-size="19" transform="translate(462.079 139)">prepared</text><path d="M672.5 124.167C672.5 121.037 675.037 118.5 678.167 118.5L801.833 118.5C804.963 118.5 807.5 121.037 807.5 124.167L807.5 146.833C807.5 149.963 804.963 152.5 801.833 152.5L678.167 152.5C675.037 152.5 672.5 149.963 672.5 146.833Z" stroke="#000000" stroke-width="1.33333" stroke-miterlimit="8" fill="#FFFFFF" fill-rule="evenodd"/><text font-family="Calibri,Calibri_MSFontService,sans-serif" font-weight="400" font-size="19" transform="translate(701.552 141)">processed</text><path d="M564.505 133.167 665.923 134.565 665.914 135.232 564.495 133.833ZM664.64 130.881 672.584 134.99 664.53 138.88Z"/><rect x="577" y="118" width="75" height="30" fill="#FFFFFF"/><text font-family="Calibri,Calibri_MSFontService,sans-serif" font-weight="400" font-size="16" transform="translate(590.118 138)">dedupe</text><path d="M353.5 418.333C353.5 415.112 356.112 412.5 359.333 412.5L483.667 412.5C486.888 412.5 489.5 415.112 489.5 418.333L489.5 441.667C489.5 444.888 486.888 447.5 483.667 447.5L359.333 447.5C356.112 447.5 353.5 444.888 353.5 441.667Z" stroke="#000000" stroke-width="1.33333" stroke-miterlimit="8" fill="#FFFFFF" fill-rule="evenodd"/><text font-family="Calibri,Calibri_MSFontService,sans-serif" font-weight="400" font-size="19" transform="translate(385.424 435)">imported</text><path d="M0.00271437-0.333322 123.69 0.673912 123.685 1.34056-0.00271437 0.333322ZM122.387-3.00349 130.354 1.06152 122.322 4.99624Z" transform="matrix(1 0 0 -1 489.5 429.562)"/><path d="M186.5 431.5 201.5 416.5 216.5 431.5 201.5 446.5Z" stroke="#000000" stroke-width="1.33333" stroke-miterlimit="8" fill="#FFFFFF" fill-rule="evenodd"/><path d="M0.00327126-0.333317 130.306 0.945511 130.3 1.61214-0.00327126 0.333317ZM129.009-2.73407 136.969 1.34425 128.93 5.26555Z" transform="matrix(1 0 0 -1 216.5 431.844)"/><path d="M150.5 121.667C150.5 118.813 152.813 116.5 155.667 116.5L256.333 116.5C259.187 116.5 261.5 118.813 261.5 121.667L261.5 142.333C261.5 145.187 259.187 147.5 256.333 147.5L155.667 147.5C152.813 147.5 150.5 145.187 150.5 142.333Z" stroke="#000000" stroke-width="1.33333" stroke-miterlimit="8" fill="#FFFFFF" fill-rule="evenodd"/><text font-family="Calibri,Calibri_MSFontService,sans-serif" font-weight="400" font-size="19" transform="translate(170.294 137)">imported</text><path d="M619.5 429 634.5 413.5 649.5 429 634.5 444.5Z" stroke="#000000" stroke-width="1.33333" stroke-miterlimit="8" fill="#FFFFFF" fill-rule="evenodd"/><path d="M679.5 419.167C679.5 416.037 682.037 413.5 685.167 413.5L809.833 413.5C812.963 413.5 815.5 416.037 815.5 419.167L815.5 441.833C815.5 444.963 812.963 447.5 809.833 447.5L685.167 447.5C682.037 447.5 679.5 444.963 679.5 441.833Z" stroke="#000000" stroke-width="1.33333" stroke-miterlimit="8" fill="#FFFFFF" fill-rule="evenodd"/><text font-family="Calibri,Calibri_MSFontService,sans-serif" font-weight="400" font-size="19" transform="translate(712.6 436)">prepared</text><rect x="83.5001" y="32.5001" width="746" height="299" stroke="#000000" stroke-width="3.33333" stroke-miterlimit="8" fill="none"/><rect x="81.5001" y="364.5" width="746" height="325" stroke="#000000" stroke-width="3.33333" stroke-miterlimit="8" fill="none"/><rect x="507" y="414" width="86" height="29" fill="#FFFFFF"/><text font-family="Calibri,Calibri_MSFontService,sans-serif" font-weight="400" font-size="16" transform="translate(520.584 434)">pdf_prep<tspan font-weight="700" font-size="25" x="-362.276" y="-368">Metadata retrieval</tspan><tspan font-weight="700" font-size="25" x="-401.408" y="194">Document retrieval</tspan></text><rect x="148" y="70" width="122" height="29" fill="#FFFFFF"/><text font-family="Calibri,Calibri_MSFontService,sans-serif" font-weight="400" font-size="16" transform="translate(157.317 90)">prefix: md_</text><rect x="141" y="632" width="122" height="29" fill="#FFFFFF"/><text font-family="Calibri,Calibri_MSFontService,sans-serif" font-weight="400" font-size="16" transform="translate(150.936 652)">prefix: pdf_</text><path d="M856.5 338.167C856.5 335.037 859.037 332.5 862.167 332.5L1023.83 332.5C1026.96 332.5 1029.5 335.037 1029.5 338.167L1029.5 360.833C1029.5 363.963 1026.96 366.5 1023.83 366.5L862.167 366.5C859.037 366.5 856.5 363.963 856.5 360.833Z" stroke="#000000" stroke-width="1.33333" stroke-miterlimit="8" fill="#FFFFFF" fill-rule="evenodd"/><text font-family="Calibri,Calibri_MSFontService,sans-serif" font-weight="400" font-size="19" transform="translate(867.946 355)">prescreen_included</text><path d="M998.5 251.167C998.5 248.037 1001.04 245.5 1004.17 245.5L1192.83 245.5C1195.96 245.5 1198.5 248.037 1198.5 251.167L1198.5 273.833C1198.5 276.963 1195.96 279.5 1192.83 279.5L1004.17 279.5C1001.04 279.5 998.5 276.963 998.5 273.833Z" stroke="#000000" stroke-width="1.33333" stroke-miterlimit="8" fill="#FFFFFF" fill-rule="evenodd"/><text font-family="Calibri,Calibri_MSFontService,sans-serif" font-weight="400" font-size="19" transform="translate(1021.44 268)">prescreen_excluded</text><path d="M861.5 545.167C861.5 542.037 864.037 539.5 867.167 539.5L1021.83 539.5C1024.96 539.5 1027.5 542.037 1027.5 545.167L1027.5 567.833C1027.5 570.963 1024.96 573.5 1021.83 573.5L867.167 573.5C864.037 573.5 861.5 570.963 861.5 567.833Z" stroke="#000000" stroke-width="1.33333" stroke-miterlimit="8" fill="#FFFFFF" fill-rule="evenodd"/><text font-family="Calibri,Calibri_MSFontService,sans-serif" font-weight="400" font-size="19" transform="translate(911.268 561)">included</text><path d="M998.5 487.167C998.5 484.037 1001.04 481.5 1004.17 481.5L1192.83 481.5C1195.96 481.5 1198.5 484.037 1198.5 487.167L1198.5 509.833C1198.5 512.963 1195.96 515.5 1192.83 515.5L1004.17 515.5C1001.04 515.5 998.5 512.963 998.5 509.833Z" stroke="#000000" stroke-width="1.33333" stroke-miterlimit="8" fill="#FFFFFF" fill-rule="evenodd"/><text font-family="Calibri,Calibri_MSFontService,sans-serif" font-weight="400" font-size="19" transform="translate(1063.84 504)">excluded</text><path d="M861.5 638.167C861.5 635.037 864.037 632.5 867.167 632.5L1021.83 632.5C1024.96 632.5 1027.5 635.037 1027.5 638.167L1027.5 660.833C1027.5 663.963 1024.96 666.5 1021.83 666.5L867.167 666.5C864.037 666.5 861.5 663.963 861.5 660.833Z" stroke="#000000" stroke-width="1.33333" stroke-miterlimit="8" fill="#FFFFFF" fill-rule="evenodd"/><text font-family="Calibri,Calibri_MSFontService,sans-serif" font-weight="400" font-size="19" transform="translate(899.652 655)">synthesized</text><path d="M928.5 262.5 943.5 247.5 958.5 262.5 943.5 277.5Z" stroke="#000000" stroke-width="1.33333" stroke-miterlimit="8" fill="#FFFFFF" fill-rule="evenodd"/><path d="M0.333325-0.00232836 0.667545 47.8441 0.000894875 47.8488-0.333325 0.00232836ZM4.32481 46.4852 0.380787 54.513-3.675 46.5411Z" transform="matrix(-1 0 0 1 943.881 277.5)"/><path d="M928.5 499 943.5 483.5 958.5 499 943.5 514.5Z" stroke="#000000" stroke-width="1.33333" stroke-miterlimit="8" fill="#FFFFFF" fill-rule="evenodd"/><path d="M943.833 514.492 944.277 532.816 943.611 532.832 943.167 514.508ZM947.91 531.394 944.105 539.489 939.913 531.588Z"/><path d="M944.833 573.5 944.833 626.482 944.167 626.482 944.167 573.5ZM948.5 625.149 944.5 633.149 940.5 625.149Z"/><rect x="910" y="588" width="67" height="29" fill="#FFFFFF"/><text font-family="Calibri,Calibri_MSFontService,sans-serif" font-weight="400" font-size="16" transform="translate(929.224 608)">data</text><path d="M958.5 262.167 991.102 262.167 991.102 262.834 958.5 262.833ZM989.769 258.5 997.769 262.5 989.769 266.5Z"/><path d="M0.00306098-0.333319 32.6067-0.0339091 32.6006 0.632729-0.00306098 0.333319ZM31.3071-3.71267 39.27 0.36063 31.2336 4.287Z" transform="matrix(1 0 0 -1 958.5 498.861)"/><path d="M47.5001 132C47.5001 127.858 50.8579 124.5 55.0001 124.5 59.1422 124.5 62.5001 127.858 62.5001 132 62.5001 136.142 59.1422 139.5 55.0001 139.5 50.8579 139.5 47.5001 136.142 47.5001 132Z" stroke="#000000" stroke-width="1.33333" stroke-miterlimit="8" fill-rule="evenodd"/><rect x="844.5" y="32.5001" width="399" height="657" stroke="#000000" stroke-width="3.33333" stroke-miterlimit="8" fill="none"/><text font-family="Calibri,Calibri_MSFontService,sans-serif" font-weight="400" font-size="16" transform="translate(1036.55 603)">Variation:<tspan font-family="Arial,Arial_MSFontService,sans-serif" font-size="16" x="0" y="19">•</tspan><tspan font-size="16" x="18" y="19">Structured data extraction</tspan><tspan font-family="Arial,Arial_MSFontService,sans-serif" font-size="16" x="0" y="38">•</tspan><tspan font-size="16" x="18" y="38">Qualitative synthesis</tspan><tspan font-family="Arial,Arial_MSFontService,sans-serif" font-size="16" x="0" y="58">•</tspan><tspan font-size="16" x="18" y="58">Formal (meta) analysis</tspan></text><path d="M807.5 135.167 943.602 135.167 943.602 241.133 942.935 241.133 942.935 135.5 943.268 135.833 807.5 135.833ZM947.268 239.8 943.268 247.8 939.268 239.8Z"/><path d="M815.5 430.167 943.669 430.167 943.669 477.128 943.002 477.128 943.002 430.5 943.335 430.833 815.5 430.833ZM947.335 475.795 943.335 483.795 939.335 475.795Z"/><rect x="889" y="184" width="99" height="29" fill="#FFFFFF"/><text font-family="Calibri,Calibri_MSFontService,sans-serif" font-weight="400" font-size="16" transform="translate(906.247 204)">prescreen</text><path d="M0-0.333333 59.0494-0.333333 59.0494 0.380787 58.7161 0.0474541 110.766 0.0474541 110.766 0.714121 58.3828 0.714121 58.3828 0 58.7161 0.333333 0 0.333333ZM109.432-3.61921 117.432 0.380787 109.432 4.38079Z" transform="matrix(1.83697e-16 1 1 -1.83697e-16 943.5 366.5)"/><text font-family="Calibri,Calibri_MSFontService,sans-serif" font-weight="700" font-size="25" transform="translate(1038.33 60)">Review Process</text><rect x="1057" y="64" width="122" height="29" fill="#FFFFFF"/><text font-family="Calibri,Calibri_MSFontService,sans-serif" font-weight="400" font-size="16" transform="translate(1067.04 84)">prefix: rev_</text><path d="M0.333333-3.15678e-07 0.333432 104.192-0.333235 104.192-0.333333 3.15678e-07ZM4.0001 102.859 0.000104987 110.859-3.9999 102.859Z" transform="matrix(-1 0 0 1 375.5 148.5)"/><path d="M97.5001 495.167C97.5001 492.037 100.037 489.5 103.167 489.5L299.833 489.5C302.963 489.5 305.5 492.037 305.5 495.167L305.5 517.833C305.5 520.963 302.963 523.5 299.833 523.5L103.167 523.5C100.037 523.5 97.5001 520.963 97.5001 517.833Z" stroke="#000000" stroke-width="1.33333" stroke-miterlimit="8" fill="#FFFFFF" fill-rule="evenodd"/><text font-family="Calibri,Calibri_MSFontService,sans-serif" font-weight="400" font-size="19" transform="translate(108.645 511)">needs_manual_retrieval</text><path d="M447.5 504 462.5 488.5 477.5 504 462.5 519.5Z" stroke="#000000" stroke-width="1.33333" stroke-miterlimit="8" fill="#FFFFFF" fill-rule="evenodd"/><path d="M0.00512848-0.333294 134.978 1.74356 134.967 2.41015-0.00512848 0.333294ZM133.701-1.94319 141.638 2.17942 133.578 6.05587Z" transform="matrix(1 0 0 -1 305.5 506.679)"/><path d="M462.833 519.485 464.429 554.067 463.763 554.097 462.167 519.515ZM468.03 552.566 464.403 560.742 460.038 552.935Z"/><path d="M395.5 566.167C395.5 563.037 398.037 560.5 401.167 560.5L527.833 560.5C530.963 560.5 533.5 563.037 533.5 566.167L533.5 588.833C533.5 591.963 530.963 594.5 527.833 594.5L401.167 594.5C398.037 594.5 395.5 591.963 395.5 588.833Z" stroke="#000000" stroke-width="1.33333" stroke-miterlimit="8" fill="#FFFFFF" fill-rule="evenodd"/><text font-family="Calibri,Calibri_MSFontService,sans-serif" font-weight="400" font-size="19" transform="translate(412.677 583)">not_available</text><path d="M462.167 489.331 462.167 454.167 462.833 454.167 462.833 489.331ZM458.5 455.5 462.5 447.5 466.5 455.5Z"/><rect x="321" y="492" width="107" height="29" fill="#FFFFFF"/><text font-family="Calibri,Calibri_MSFontService,sans-serif" font-weight="400" font-size="16" transform="translate(331.083 512)">pdf_get_man</text><path d="M0.333333-2.93394e-07 0.333432 112.612-0.333234 112.612-0.333333 2.93394e-07ZM4.0001 111.279 0.000104987 119.279-3.9999 111.279Z" transform="matrix(-1 0 0 1 634.5 444.5)"/><path d="M201.833 446.499 201.941 482.498 201.274 482.5 201.167 446.501ZM205.603 481.154 201.627 489.166 197.603 481.178Z"/><rect x="283" y="117" width="51" height="29" fill="#FFFFFF"/><text font-family="Calibri,Calibri_MSFontService,sans-serif" font-weight="400" font-size="16" transform="translate(293.496 137)">prep</text><path d="M62.5015 131.167 144.302 131.525 144.299 132.192 62.4986 131.833ZM142.985 127.853 150.968 131.888 142.95 135.853Z"/><rect x="78" y="117" width="53" height="29" fill="#FFFFFF"/><text font-family="Calibri,Calibri_MSFontService,sans-serif" font-weight="400" font-size="16" transform="translate(90.5186 137)">load</text><path d="M499.167 261.359 499.167 157.167 499.833 157.167 499.833 261.359ZM495.5 158.5 499.5 150.5 503.5 158.5Z"/><path d="M320.5 264.667C320.5 261.813 322.813 259.5 325.667 259.5L550.333 259.5C553.187 259.5 555.5 261.813 555.5 264.667L555.5 285.333C555.5 288.187 553.187 290.5 550.333 290.5L325.667 290.5C322.813 290.5 320.5 288.187 320.5 285.333Z" stroke="#000000" stroke-width="1.33333" stroke-miterlimit="8" fill="#FFFFFF" fill-rule="evenodd"/><text font-family="Calibri,Calibri_MSFontService,sans-serif" font-weight="400" font-size="19" transform="translate(332.208 280)">needs_manual_preparation</text><rect x="452" y="190" width="100" height="29" fill="#FFFFFF"/><text font-family="Calibri,Calibri_MSFontService,sans-serif" font-weight="400" font-size="16" transform="translate(468.147 210)">man_prep</text><path d="M574.5 569.167C574.5 566.037 577.037 563.5 580.167 563.5L805.833 563.5C808.963 563.5 811.5 566.037 811.5 569.167L811.5 591.833C811.5 594.963 808.963 597.5 805.833 597.5L580.167 597.5C577.037 597.5 574.5 594.963 574.5 591.833Z" stroke="#000000" stroke-width="1.33333" stroke-miterlimit="8" fill="#FFFFFF" fill-rule="evenodd"/><text font-family="Calibri,Calibri_MSFontService,sans-serif" font-weight="400" font-size="19" transform="translate(587.024 586)">needs_manual_preparation</text><path d="M748.167 560.359 748.167 456.167 748.833 456.167 748.833 560.359ZM744.5 457.5 748.5 449.5 752.5 457.5Z"/><rect x="687" y="493" width="119" height="29" fill="#FFFFFF"/><text font-family="Calibri,Calibri_MSFontService,sans-serif" font-weight="400" font-size="16" transform="translate(698.576 513)">pdf_prep_man</text><path d="M649.517 428.167 673.015 429.349 672.982 430.014 649.483 428.833ZM671.867 425.62 679.656 430.016 671.466 433.61Z"/><path d="M47.5001 431C47.5001 426.858 50.8579 423.5 55.0001 423.5 59.1422 423.5 62.5001 426.858 62.5001 431 62.5001 435.142 59.1422 438.5 55.0001 438.5 50.8579 438.5 47.5001 435.142 47.5001 431Z" stroke="#000000" stroke-width="1.33333" stroke-miterlimit="8" fill-rule="evenodd"/><path d="M62.5001 431.167 179.896 431.167 179.896 431.833 62.5001 431.833ZM178.563 427.5 186.563 431.5 178.563 435.5Z"/><rect x="78" y="414" width="78" height="29" fill="#FFFFFF"/><text font-family="Calibri,Calibri_MSFontService,sans-serif" font-weight="400" font-size="16" transform="translate(91.6186 434)">pdf_get</text><rect x="910" y="442" width="67" height="29" fill="#FFFFFF"/><text font-family="Calibri,Calibri_MSFontService,sans-serif" font-weight="400" font-size="16" transform="translate(922.16 462)">screen</text></g></svg>
