<svg width="1280" height="720" xmlns="http://www.w3.org/2000/svg" xmlns:xlink="http://www.w3.org/1999/xlink" overflow="hidden"><defs><clipPath id="clip0"><rect x="0" y="0" width="1280" height="720"/></clipPath></defs><g clip-path="url(#clip0)"><rect x="0" y="0" width="1280" height="720" fill="#FFFFFF"/><path d="M279.5 256.167 300.42 256.183 300.419 256.85 279.5 256.833ZM299.089 252.516 307.086 256.522 299.083 260.516Z"/><path d="M307.5 245.167C307.5 242.037 310.037 239.5 313.167 239.5L429.833 239.5C432.963 239.5 435.5 242.037 435.5 245.167L435.5 267.833C435.5 270.963 432.963 273.5 429.833 273.5L313.167 273.5C310.037 273.5 307.5 270.963 307.5 267.833Z" stroke="#000000" stroke-width="1.33333" stroke-miterlimit="8" fill="#FFFFFF" fill-rule="evenodd"/><text font-family="Calibri,Calibri_MSFontService,sans-serif" font-weight="400" font-size="19" transform="translate(318.941 262)">md_imported</text><path d="M619.5 245.167C619.5 242.037 622.037 239.5 625.167 239.5L754.833 239.5C757.963 239.5 760.5 242.037 760.5 245.167L760.5 267.833C760.5 270.963 757.963 273.5 754.833 273.5L625.167 273.5C622.037 273.5 619.5 270.963 619.5 267.833Z" stroke="#000000" stroke-width="1.33333" stroke-miterlimit="8" fill="#FFFFFF" fill-rule="evenodd"/><text font-family="Calibri,Calibri_MSFontService,sans-serif" font-weight="400" font-size="19" transform="translate(634.323 262)">md_processed</text><path d="M591.5 256.167 612.956 256.167 612.956 256.833 591.5 256.833ZM611.622 252.5 619.622 256.5 611.622 260.5Z"/><rect x="570" y="281" width="68" height="29" fill="#FFFFFF"/><text font-family="Calibri,Calibri_MSFontService,sans-serif" font-style="italic" font-weight="400" font-size="16" transform="translate(579.997 301)">dedupe</text><path d="M141.5 424.167C141.5 421.037 144.037 418.5 147.167 418.5L263.833 418.5C266.963 418.5 269.5 421.037 269.5 424.167L269.5 446.833C269.5 449.963 266.963 452.5 263.833 452.5L147.167 452.5C144.037 452.5 141.5 449.963 141.5 446.833Z" stroke="#000000" stroke-width="1.33333" stroke-miterlimit="8" fill="#FFFFFF" fill-rule="evenodd"/><text font-family="Calibri,Calibri_MSFontService,sans-serif" font-weight="400" font-size="19" transform="translate(152.537 441)">pdf_imported</text><path d="M0.000948711-0.333332 186.403 0.197195 186.401 0.863859-0.000948711 0.333332ZM185.08-3.47325 193.069 0.549501 185.057 4.52672Z" transform="matrix(1 0 0 -1 269.5 435.05)"/><path d="M141.5 245.167C141.5 242.037 144.037 239.5 147.167 239.5L273.833 239.5C276.963 239.5 279.5 242.037 279.5 245.167L279.5 267.833C279.5 270.963 276.963 273.5 273.833 273.5L147.167 273.5C144.037 273.5 141.5 270.963 141.5 267.833Z" stroke="#000000" stroke-width="1.33333" stroke-miterlimit="8" fill="#FFFFFF" fill-rule="evenodd"/><text font-family="Calibri,Calibri_MSFontService,sans-serif" font-weight="400" font-size="19" transform="translate(158.496 262)">md_retrieved</text><path d="M463.5 423.167C463.5 420.037 466.037 417.5 469.167 417.5L584.833 417.5C587.963 417.5 590.5 420.037 590.5 423.167L590.5 445.833C590.5 448.963 587.963 451.5 584.833 451.5L469.167 451.5C466.037 451.5 463.5 448.963 463.5 445.833Z" stroke="#000000" stroke-width="1.33333" stroke-miterlimit="8" fill="#FFFFFF" fill-rule="evenodd"/><text font-family="Calibri,Calibri_MSFontService,sans-serif" font-weight="400" font-size="19" transform="translate(474.108 440)">pdf_prepared</text><path d="M56.5001 174.5 778.062 174.5 808.5 260 778.062 345.5 56.5001 345.5Z" stroke="#000000" stroke-width="3.33333" stroke-miterlimit="8" fill="none" fill-rule="evenodd"/><path d="M54.5001 354.5 781 354.5 807.5 440 781 525.5 54.5001 525.5Z" stroke="#000000" stroke-width="3.33333" stroke-miterlimit="8" fill="none" fill-rule="evenodd"/><rect x="363" y="418" width="78" height="29" fill="#FFFFFF"/><text font-family="Calibri,Calibri_MSFontService,sans-serif" font-style="italic" font-weight="400" font-size="16" transform="translate(373.065 438)">pdf_prep</text><text font-family="Calibri,Calibri_MSFontService,sans-serif" font-weight="700" font-size="25" transform="translate(89.233 211)">2. Metadata retrieval</text><text font-family="Calibri,Calibri_MSFontService,sans-serif" font-weight="700" font-size="25" transform="translate(89.233 390)">4. PDF retrieval</text><path d="M862.5 299.167C862.5 296.037 865.037 293.5 868.167 293.5L1066.83 293.5C1069.96 293.5 1072.5 296.037 1072.5 299.167L1072.5 321.833C1072.5 324.963 1069.96 327.5 1066.83 327.5L868.167 327.5C865.037 327.5 862.5 324.963 862.5 321.833Z" stroke="#000000" stroke-width="1.33333" stroke-miterlimit="8" fill="#FFFFFF" fill-rule="evenodd"/><text font-family="Calibri,Calibri_MSFontService,sans-serif" font-weight="400" font-size="19" transform="translate(875.282 316)">rev_prescreen</text><text font-family="Calibri,Calibri_MSFontService,sans-serif" font-weight="400" font-size="19" transform="translate(983.949 316)">_included</text><path d="M1018.5 245.167C1018.5 242.037 1021.04 239.5 1024.17 239.5L1221.83 239.5C1224.96 239.5 1227.5 242.037 1227.5 245.167L1227.5 267.833C1227.5 270.963 1224.96 273.5 1221.83 273.5L1024.17 273.5C1021.04 273.5 1018.5 270.963 1018.5 267.833Z" stroke="#000000" stroke-width="1.33333" stroke-miterlimit="8" fill="#FFFFFF" fill-rule="evenodd"/><text font-family="Calibri,Calibri_MSFontService,sans-serif" font-weight="400" font-size="19" transform="translate(1029.17 262)">rev_prescreen</text><text font-family="Calibri,Calibri_MSFontService,sans-serif" font-weight="400" font-size="19" transform="translate(1137.83 262)">_excluded</text><path d="M885.5 518.167C885.5 515.037 888.037 512.5 891.167 512.5L1045.83 512.5C1048.96 512.5 1051.5 515.037 1051.5 518.167L1051.5 540.833C1051.5 543.963 1048.96 546.5 1045.83 546.5L891.167 546.5C888.037 546.5 885.5 543.963 885.5 540.833Z" stroke="#000000" stroke-width="1.33333" stroke-miterlimit="8" fill="#FFFFFF" fill-rule="evenodd"/><text font-family="Calibri,Calibri_MSFontService,sans-serif" font-weight="400" font-size="19" transform="translate(918.605 535)">rev_included</text><path d="M1022.5 469.167C1022.5 466.037 1025.04 463.5 1028.17 463.5L1216.83 463.5C1219.96 463.5 1222.5 466.037 1222.5 469.167L1222.5 491.833C1222.5 494.963 1219.96 497.5 1216.83 497.5L1028.17 497.5C1025.04 497.5 1022.5 494.963 1022.5 491.833Z" stroke="#000000" stroke-width="1.33333" stroke-miterlimit="8" fill="#FFFFFF" fill-rule="evenodd"/><text font-family="Calibri,Calibri_MSFontService,sans-serif" font-weight="400" font-size="19" transform="translate(1071.17 486)">rev_excluded</text><path d="M885.5 640.167C885.5 637.037 888.037 634.5 891.167 634.5L1045.83 634.5C1048.96 634.5 1051.5 637.037 1051.5 640.167L1051.5 662.833C1051.5 665.963 1048.96 668.5 1045.83 668.5L891.167 668.5C888.037 668.5 885.5 665.963 885.5 662.833Z" stroke="#000000" stroke-width="1.33333" stroke-miterlimit="8" fill="#FFFFFF" fill-rule="evenodd"/><text font-family="Calibri,Calibri_MSFontService,sans-serif" font-weight="400" font-size="19" transform="translate(906.988 657)">r</text><text font-family="Calibri,Calibri_MSFontService,sans-serif" font-weight="400" font-size="19" transform="translate(913.241 657)">ev_synthesized</text><path d="M952.5 256.5 967.5 241.5 982.5 256.5 967.5 271.5Z" stroke="#000000" stroke-width="1.33333" stroke-miterlimit="8" fill="#FFFFFF" fill-rule="evenodd"/><path d="M0.333284-0.00572715 0.599634 15.4942-0.0669346 15.5056-0.333284 0.00572715ZM4.24285 14.098 0.380892 22.1656-3.75597 14.2355Z" transform="matrix(-1 0 0 1 967.881 271.5)"/><path d="M952.5 481.5 967.5 466.5 982.5 481.5 967.5 496.5Z" stroke="#000000" stroke-width="1.33333" stroke-miterlimit="8" fill="#FFFFFF" fill-rule="evenodd"/><path d="M967.833 496.488 968.196 506.467 967.53 506.491 967.167 496.512ZM971.812 505.001 968.105 513.141 963.817 505.292Z"/><path d="M968.833 546.5 968.833 627.656 968.167 627.656 968.167 546.5ZM972.5 626.322 968.5 634.322 964.5 626.322Z"/><rect x="934" y="586" width="67" height="29" fill="#FFFFFF"/><text font-family="Calibri,Calibri_MSFontService,sans-serif" font-style="italic" font-weight="400" font-size="16" transform="translate(952.747 606)">data</text><path d="M982.505 256.167 1011.01 256.631 1010.99 257.297 982.495 256.833ZM1009.73 252.943 1017.67 257.073 1009.6 260.942Z"/><path d="M0.00306098-0.333319 32.6067-0.0339091 32.6006 0.632729-0.00306098 0.333319ZM31.3071-3.71267 39.27 0.36063 31.2336 4.287Z" transform="matrix(1 0 0 -1 982.5 480.861)"/><path d="M27.5001 253C27.5001 248.858 30.8579 245.5 35.0001 245.5 39.1422 245.5 42.5001 248.858 42.5001 253 42.5001 257.142 39.1422 260.5 35.0001 260.5 30.8579 260.5 27.5001 257.142 27.5001 253Z" stroke="#000000" stroke-width="1.33333" stroke-miterlimit="8" fill-rule="evenodd"/><rect x="844.5" y="174.5" width="399" height="171" stroke="#000000" stroke-width="3.33333" stroke-miterlimit="8" fill="none"/><path d="M0-0.333333 96.1813-0.333333 96.1813 0.572703 95.848 0.23937 185.029 0.23937 185.029 0.906037 95.5146 0.906037 95.5146 0 95.848 0.333333 0 0.333333ZM183.696-3.4273 191.696 0.572703 183.696 4.5727Z" transform="matrix(1 0 0 -1 760.5 257.073)"/><path d="M590.5 434.167 968.049 434.167 968.049 459.216 967.382 459.216 967.382 434.5 967.716 434.833 590.5 434.833ZM971.716 457.882 967.716 465.882 963.716 457.882Z"/><rect x="852" y="240" width="85" height="29" fill="#FFFFFF"/><text font-family="Calibri,Calibri_MSFontService,sans-serif" font-style="italic" font-weight="400" font-size="16" transform="translate(862.892 260)">prescreen</text><path d="M0-0.333333 69.4844-0.333333 69.4844 0.380892 69.1511 0.0475591 131.635 0.0475591 131.635 0.714226 68.8177 0.714226 68.8177 0 69.1511 0.333333 0 0.333333ZM130.302-3.61911 138.302 0.380892 130.302 4.38089Z" transform="matrix(1.83697e-16 1 1 -1.83697e-16 967.5 327.5)"/><text font-family="Calibri,Calibri_MSFontService,sans-serif" font-weight="700" font-size="25" transform="translate(989.001 214)">3. Metadata prescreen</text><rect x="268" y="281" width="47" height="29" fill="#FFFFFF"/><text font-family="Calibri,Calibri_MSFontService,sans-serif" font-style="italic" font-weight="400" font-size="16" transform="translate(277.38 301)">load</text><path d="M42.514 252.167 134.702 256.039 134.674 256.705 42.4861 252.833ZM133.523 252.32 141.349 256.652 133.188 260.313Z"/><rect x="52" y="238" width="65" height="29" fill="#FFFFFF"/><text font-family="Calibri,Calibri_MSFontService,sans-serif" font-style="italic" font-weight="400" font-size="16" transform="translate(63.6094 258)">search</text><path d="M27.5001 435.5C27.5001 431.082 30.8579 427.5 35.0001 427.5 39.1422 427.5 42.5001 431.082 42.5001 435.5 42.5001 439.918 39.1422 443.5 35.0001 443.5 30.8579 443.5 27.5001 439.918 27.5001 435.5Z" stroke="#000000" stroke-width="1.33333" stroke-miterlimit="8" fill-rule="evenodd"/><path d="M0.00114557-0.333331 92.2812-0.01619 92.2789 0.650473-0.00114557 0.333331ZM90.9604-3.68742 98.9466 0.340052 90.9329 4.31253Z" transform="matrix(1 0 0 -1 42.5001 435.84)"/><rect x="51" y="421" width="70" height="29" fill="#FFFFFF"/><text font-family="Calibri,Calibri_MSFontService,sans-serif" font-style="italic" font-weight="400" font-size="16" transform="translate(61.2915 441)">pdf_get</text><rect x="934" y="420" width="67" height="29" fill="#FFFFFF"/><text font-family="Calibri,Calibri_MSFontService,sans-serif" font-style="italic" font-weight="400" font-size="16" transform="translate(946.637 440)">screen</text><path d="M435.5 256.167 455.883 256.167 455.883 256.833 435.5 256.833ZM454.55 252.5 462.55 256.5 454.55 260.5Z"/><path d="M463.5 245.167C463.5 242.037 466.037 239.5 469.167 239.5L585.833 239.5C588.963 239.5 591.5 242.037 591.5 245.167L591.5 267.833C591.5 270.963 588.963 273.5 585.833 273.5L469.167 273.5C466.037 273.5 463.5 270.963 463.5 267.833Z" stroke="#000000" stroke-width="1.33333" stroke-miterlimit="8" fill="#FFFFFF" fill-rule="evenodd"/><text font-family="Calibri,Calibri_MSFontService,sans-serif" font-weight="400" font-size="19" transform="translate(474.905 262)">m</text><text font-family="Calibri,Calibri_MSFontService,sans-serif" font-weight="400" font-size="19" transform="translate(489.738 262)">d</text><text font-family="Calibri,Calibri_MSFontService,sans-serif" font-weight="400" font-size="19" transform="translate(499.571 262)">_prepared</text><rect x="420" y="281" width="52" height="29" fill="#FFFFFF"/><text font-family="Calibri,Calibri_MSFontService,sans-serif" font-style="italic" font-weight="400" font-size="16" transform="translate(430.951 301)">prep</text><rect x="846.5" y="366.5" width="399" height="197" stroke="#000000" stroke-width="3.33333" stroke-miterlimit="8" fill="none"/><rect x="846.5" y="574.5" width="399" height="130" stroke="#000000" stroke-width="3.33333" stroke-miterlimit="8" fill="none"/><text font-family="Calibri,Calibri_MSFontService,sans-serif" font-weight="700" font-size="25" transform="translate(1083.68 402)">5. PDF screen</text><text font-family="Calibri,Calibri_MSFontService,sans-serif" font-weight="700" font-size="25" transform="translate(1049.59 605)">6. Data extraction</text><text font-family="Calibri,Calibri_MSFontService,sans-serif" font-weight="700" font-size="25" transform="translate(1093.62 632)">and synthesis</text><rect x="846.5" y="20.5001" width="397" height="133" stroke="#000000" stroke-width="3.33333" stroke-miterlimit="8" fill="none"/><text font-family="Calibri,Calibri_MSFontService,sans-serif" font-weight="700" font-size="25" transform="translate(974.602 58)">1. Problem formulation</text><rect x="885" y="78" width="65" height="29" fill="#FFFFFF"/><text font-family="Calibri,Calibri_MSFontService,sans-serif" font-style="italic" font-weight="400" font-size="16" transform="translate(907.078 98)">init</text><text font-family="Calibri,Calibri_MSFontService,sans-serif" font-weight="700" font-size="25" transform="translate(120.425 95)">Steps &gt;&gt;</text><text font-family="Calibri,Calibri_MSFontService,sans-serif" font-style="italic" font-weight="400" font-size="25" transform="translate(212.005 95)">operations</text><path d="M122.5 119.167C122.5 116.037 125.037 113.5 128.167 113.5L248.833 113.5C251.963 113.5 254.5 116.037 254.5 119.167L254.5 141.833C254.5 144.963 251.963 147.5 248.833 147.5L128.167 147.5C125.037 147.5 122.5 144.963 122.5 141.833Z" stroke="#000000" stroke-width="1.33333" stroke-miterlimit="8" fill="#FFFFFF" fill-rule="evenodd"/><text font-family="Calibri,Calibri_MSFontService,sans-serif" font-weight="400" font-size="19" transform="translate(137.831 136)">colrev_status</text><path d="M0 0 0.0370604 21.3277" stroke="#000000" stroke-width="0.666667" stroke-miterlimit="8" fill="none" fill-rule="evenodd" transform="matrix(-1 0 0 1 291.537 260.5)"/><path d="M0 0 0.0370604 21.3277" stroke="#000000" stroke-width="0.666667" stroke-miterlimit="8" fill="none" fill-rule="evenodd" transform="matrix(-1 0 0 1 447.537 260.5)"/><path d="M0 0 0.0370604 21.3277" stroke="#000000" stroke-width="0.666667" stroke-miterlimit="8" fill="none" fill-rule="evenodd" transform="matrix(-1 0 0 1 602.537 260.5)"/></g></svg>
