<svg width="1280" height="720" xmlns="http://www.w3.org/2000/svg" xmlns:xlink="http://www.w3.org/1999/xlink" overflow="hidden"><defs><clipPath id="clip0"><rect x="0" y="0" width="1280" height="720"/></clipPath></defs><g clip-path="url(#clip0)"><rect x="0" y="0" width="1280" height="720" fill="#FFFFFF"/><path d="M298.5 243.167 319.42 243.183 319.419 243.85 298.5 243.833ZM318.089 239.516 326.086 243.522 318.083 247.516Z"/><path d="M326.5 232.334C326.5 229.112 329.112 226.5 332.334 226.5L449.667 226.5C452.888 226.5 455.5 229.112 455.5 232.334L455.5 255.667C455.5 258.888 452.888 261.5 449.667 261.5L332.334 261.5C329.112 261.5 326.5 258.888 326.5 255.667Z" stroke="#000000" stroke-width="1.33333" stroke-miterlimit="8" fill="#FFFFFF" fill-rule="evenodd"/><text font-family="Calibri,Calibri_MSFontService,sans-serif" font-weight="400" font-size="19" transform="translate(337.968 249)">md_imported</text><path d="M638.5 232.333C638.5 229.112 641.112 226.5 644.333 226.5L773.667 226.5C776.888 226.5 779.5 229.112 779.5 232.333L779.5 255.667C779.5 258.888 776.888 261.5 773.667 261.5L644.333 261.5C641.112 261.5 638.5 258.888 638.5 255.667Z" stroke="#000000" stroke-width="1.33333" stroke-miterlimit="8" fill="#FFFFFF" fill-rule="evenodd"/><text font-family="Calibri,Calibri_MSFontService,sans-serif" font-weight="400" font-size="19" transform="translate(653.35 249)">md_processed</text><path d="M610.5 243.167 631.956 243.167 631.956 243.833 610.5 243.833ZM630.622 239.5 638.622 243.5 630.622 247.5Z"/><rect x="589" y="268" width="68" height="29" fill="#FFFFFF"/><text font-family="Calibri,Calibri_MSFontService,sans-serif" font-style="italic" font-weight="400" font-size="16" transform="translate(599.024 288)">dedupe</text><path d="M160.5 426.167C160.5 423.037 163.037 420.5 166.167 420.5L282.833 420.5C285.963 420.5 288.5 423.037 288.5 426.167L288.5 448.833C288.5 451.963 285.963 454.5 282.833 454.5L166.167 454.5C163.037 454.5 160.5 451.963 160.5 448.833Z" stroke="#000000" stroke-width="1.33333" stroke-miterlimit="8" fill="#FFFFFF" fill-rule="evenodd"/><text font-family="Calibri,Calibri_MSFontService,sans-serif" font-weight="400" font-size="19" transform="translate(171.564 443)">pdf_imported</text><path d="M0.000948711-0.333332 186.403 0.197195 186.401 0.863859-0.000948711 0.333332ZM185.08-3.47325 193.069 0.549501 185.057 4.52672Z" transform="matrix(1 0 0 -1 288.5 438.05)"/><path d="M160.5 232.167C160.5 229.037 163.037 226.5 166.167 226.5L292.833 226.5C295.963 226.5 298.5 229.037 298.5 232.167L298.5 254.833C298.5 257.963 295.963 260.5 292.833 260.5L166.167 260.5C163.037 260.5 160.5 257.963 160.5 254.833Z" stroke="#000000" stroke-width="1.33333" stroke-miterlimit="8" fill="#FFFFFF" fill-rule="evenodd"/><text font-family="Calibri,Calibri_MSFontService,sans-serif" font-weight="400" font-size="19" transform="translate(177.524 249)">md_retrieved</text><path d="M482.5 426.167C482.5 423.037 485.037 420.5 488.167 420.5L603.833 420.5C606.963 420.5 609.5 423.037 609.5 426.167L609.5 448.833C609.5 451.963 606.963 454.5 603.833 454.5L488.167 454.5C485.037 454.5 482.5 451.963 482.5 448.833Z" stroke="#000000" stroke-width="1.33333" stroke-miterlimit="8" fill="#FFFFFF" fill-rule="evenodd"/><text font-family="Calibri,Calibri_MSFontService,sans-serif" font-weight="400" font-size="19" transform="translate(493.135 443)">pdf_prepared</text><rect x="382" y="421" width="78" height="29" fill="#FFFFFF"/><text font-family="Calibri,Calibri_MSFontService,sans-serif" font-style="italic" font-weight="400" font-size="16" transform="translate(392.092 441)">pdf_prep</text><text font-family="Calibri,Calibri_MSFontService,sans-serif" font-weight="700" font-size="25" transform="translate(108.26 198)">2. Metadata retrieval</text><text font-family="Calibri,Calibri_MSFontService,sans-serif" font-weight="700" font-size="25" transform="translate(108.26 393)">4. PDF retrieval</text><path d="M862.5 286.167C862.5 283.037 865.037 280.5 868.167 280.5L1066.83 280.5C1069.96 280.5 1072.5 283.037 1072.5 286.167L1072.5 308.833C1072.5 311.963 1069.96 314.5 1066.83 314.5L868.167 314.5C865.037 314.5 862.5 311.963 862.5 308.833Z" stroke="#000000" stroke-width="1.33333" stroke-miterlimit="8" fill="#FFFFFF" fill-rule="evenodd"/><text font-family="Calibri,Calibri_MSFontService,sans-serif" font-weight="400" font-size="19" transform="translate(875.282 303)">rev_prescreen_included</text><path d="M1018.5 232.333C1018.5 229.112 1021.11 226.5 1024.33 226.5L1221.67 226.5C1224.89 226.5 1227.5 229.112 1227.5 232.333L1227.5 255.667C1227.5 258.888 1224.89 261.5 1221.67 261.5L1024.33 261.5C1021.11 261.5 1018.5 258.888 1018.5 255.667Z" stroke="#000000" stroke-width="1.33333" stroke-miterlimit="8" fill="#FFFFFF" fill-rule="evenodd"/><text font-family="Calibri,Calibri_MSFontService,sans-serif" font-weight="400" font-size="19" transform="translate(1029.17 249)">rev_prescreen_excluded</text><path d="M885.5 474.167C885.5 471.037 888.037 468.5 891.167 468.5L1045.83 468.5C1048.96 468.5 1051.5 471.037 1051.5 474.167L1051.5 496.833C1051.5 499.963 1048.96 502.5 1045.83 502.5L891.167 502.5C888.037 502.5 885.5 499.963 885.5 496.833Z" stroke="#000000" stroke-width="1.33333" stroke-miterlimit="8" fill="#FFFFFF" fill-rule="evenodd"/><text font-family="Calibri,Calibri_MSFontService,sans-serif" font-weight="400" font-size="19" transform="translate(918.605 491)">rev_included</text><path d="M1022.5 425.167C1022.5 422.037 1025.04 419.5 1028.17 419.5L1216.83 419.5C1219.96 419.5 1222.5 422.037 1222.5 425.167L1222.5 447.833C1222.5 450.963 1219.96 453.5 1216.83 453.5L1028.17 453.5C1025.04 453.5 1022.5 450.963 1022.5 447.833Z" stroke="#000000" stroke-width="1.33333" stroke-miterlimit="8" fill="#FFFFFF" fill-rule="evenodd"/><text font-family="Calibri,Calibri_MSFontService,sans-serif" font-weight="400" font-size="19" transform="translate(1071.17 442)">rev_excluded</text><path d="M885.5 627.167C885.5 624.037 888.037 621.5 891.167 621.5L1045.83 621.5C1048.96 621.5 1051.5 624.037 1051.5 627.167L1051.5 649.833C1051.5 652.963 1048.96 655.5 1045.83 655.5L891.167 655.5C888.037 655.5 885.5 652.963 885.5 649.833Z" stroke="#000000" stroke-width="1.33333" stroke-miterlimit="8" fill="#FFFFFF" fill-rule="evenodd"/><text font-family="Calibri,Calibri_MSFontService,sans-serif" font-weight="400" font-size="19" transform="translate(906.988 644)">rev_synthesized</text><path d="M952.5 243.5 967.5 228.5 982.5 243.5 967.5 258.5Z" stroke="#000000" stroke-width="1.33333" stroke-miterlimit="8" fill="#FFFFFF" fill-rule="evenodd"/><path d="M0.333284-0.00572715 0.599634 15.4942-0.0669346 15.5056-0.333284 0.00572715ZM4.24285 14.098 0.380892 22.1656-3.75597 14.2355Z" transform="matrix(-1 0 0 1 967.881 258.5)"/><path d="M952.5 437 967.5 421.5 982.5 437 967.5 452.5Z" stroke="#000000" stroke-width="1.33333" stroke-miterlimit="8" fill="#FFFFFF" fill-rule="evenodd"/><path d="M967.833 452.488 968.196 462.467 967.53 462.491 967.167 452.512ZM971.812 461.001 968.105 469.141 963.817 461.292Z"/><path d="M968.833 502.5 968.833 614.791 968.167 614.791 968.167 502.5ZM972.5 613.458 968.5 621.458 964.5 613.458Z"/><rect x="934" y="573" width="67" height="29" fill="#FFFFFF"/><text font-family="Calibri,Calibri_MSFontService,sans-serif" font-style="italic" font-weight="400" font-size="16" transform="translate(952.747 593)">data</text><path d="M982.505 243.167 1011.01 243.631 1010.99 244.297 982.495 243.833ZM1009.73 239.943 1017.67 244.073 1009.6 247.942Z"/><path d="M0.00306098-0.333319 32.6067-0.0339091 32.6006 0.632729-0.00306098 0.333319ZM31.3071-3.71267 39.27 0.36063 31.2336 4.287Z" transform="matrix(1 0 0 -1 982.5 436.861)"/><path d="M46.5001 240C46.5001 235.858 49.8579 232.5 54.0001 232.5 58.1422 232.5 61.5001 235.858 61.5001 240 61.5001 244.142 58.1422 247.5 54.0001 247.5 49.8579 247.5 46.5001 244.142 46.5001 240Z" stroke="#000000" stroke-width="1.33333" stroke-miterlimit="8" fill-rule="evenodd"/><rect x="844.5" y="161.5" width="399" height="172" stroke="#000000" stroke-width="3.33333" stroke-miterlimit="8" fill="none"/><path d="M0-0.333333 86.6676-0.333333 86.6676 0.572703 86.3343 0.23937 166.002 0.23937 166.002 0.906037 86.0009 0.906037 86.0009 0 86.3343 0.333333 0 0.333333ZM164.669-3.4273 172.669 0.572703 164.669 4.5727Z" transform="matrix(1 0 0 -1 779.5 244.073)"/><rect x="853" y="227" width="83" height="29" fill="#FFFFFF"/><text font-family="Calibri,Calibri_MSFontService,sans-serif" font-style="italic" font-weight="400" font-size="16" transform="translate(862.892 247)">prescreen</text><rect x="91.5001" y="161.5" width="720" height="172" stroke="#000000" stroke-width="3.33333" stroke-miterlimit="8" fill="none"/><rect x="90.5001" y="353.5" width="720" height="171" stroke="#000000" stroke-width="3.33333" stroke-miterlimit="8" fill="none"/><path d="M0-0.333333 53.9167-0.333333 53.9167 0.380892 53.5834 0.0475591 100.5 0.0475591 100.5 0.714226 53.2501 0.714226 53.2501 0 53.5834 0.333333 0 0.333333ZM99.1668-3.61911 107.167 0.380892 99.1668 4.38089Z" transform="matrix(1.83697e-16 1 1 -1.83697e-16 967.5 314.5)"/><text font-family="Calibri,Calibri_MSFontService,sans-serif" font-weight="700" font-size="25" transform="translate(989.001 201)">3. Metadata prescreen</text><rect x="287" y="268" width="47" height="29" fill="#FFFFFF"/><text font-family="Calibri,Calibri_MSFontService,sans-serif" font-style="italic" font-weight="400" font-size="16" transform="translate(296.407 288)">load</text><path d="M61.514 239.167 153.702 243.039 153.674 243.705 61.4861 239.833ZM152.523 239.32 160.349 243.652 152.188 247.313Z"/><rect x="71" y="225" width="65" height="29" fill="#FFFFFF"/><text font-family="Calibri,Calibri_MSFontService,sans-serif" font-style="italic" font-weight="400" font-size="16" transform="translate(82.6368 245)">search</text><path d="M46.5001 438C46.5001 433.858 49.8579 430.5 54.0001 430.5 58.1422 430.5 61.5001 433.858 61.5001 438 61.5001 442.142 58.1422 445.5 54.0001 445.5 49.8579 445.5 46.5001 442.142 46.5001 438Z" stroke="#000000" stroke-width="1.33333" stroke-miterlimit="8" fill-rule="evenodd"/><path d="M0.00114557-0.333331 92.2812-0.01619 92.2789 0.650473-0.00114557 0.333331ZM90.9604-3.68742 98.9466 0.340052 90.9329 4.31253Z" transform="matrix(1 0 0 -1 61.5001 437.84)"/><rect x="70" y="424" width="70" height="29" fill="#FFFFFF"/><text font-family="Calibri,Calibri_MSFontService,sans-serif" font-style="italic" font-weight="400" font-size="16" transform="translate(80.3189 444)">pdf_get</text><path d="M455.5 243.167 475.883 243.167 475.883 243.833 455.5 243.833ZM474.55 239.5 482.55 243.5 474.55 247.5Z"/><path d="M482.5 232.334C482.5 229.112 485.112 226.5 488.334 226.5L604.667 226.5C607.888 226.5 610.5 229.112 610.5 232.334L610.5 255.667C610.5 258.888 607.888 261.5 604.667 261.5L488.334 261.5C485.112 261.5 482.5 258.888 482.5 255.667Z" stroke="#000000" stroke-width="1.33333" stroke-miterlimit="8" fill="#FFFFFF" fill-rule="evenodd"/><text font-family="Calibri,Calibri_MSFontService,sans-serif" font-weight="400" font-size="19" transform="translate(493.932 249)">md_prepared</text><rect x="439" y="268" width="52" height="29" fill="#FFFFFF"/><text font-family="Calibri,Calibri_MSFontService,sans-serif" font-style="italic" font-weight="400" font-size="16" transform="translate(449.978 288)">prep</text><rect x="846.5" y="353.5" width="399" height="172" stroke="#000000" stroke-width="3.33333" stroke-miterlimit="8" fill="none"/><rect x="846.5" y="544.5" width="399" height="136" stroke="#000000" stroke-width="3.33333" stroke-miterlimit="8" fill="none"/><text font-family="Calibri,Calibri_MSFontService,sans-serif" font-weight="700" font-size="25" transform="translate(1083.68 389)">5. PDF screen</text><text font-family="Calibri,Calibri_MSFontService,sans-serif" font-weight="700" font-size="25" transform="translate(1049.59 592)">6. Data extraction</text><text font-family="Calibri,Calibri_MSFontService,sans-serif" font-weight="700" font-size="25" transform="translate(1093.62 619)">and synthesis</text><rect x="8.50005" y="20.5001" width="1255" height="692" stroke="#000000" stroke-width="3.33333" stroke-miterlimit="8" fill="none"/><text font-family="Calibri,Calibri_MSFontService,sans-serif" font-weight="700" font-size="25" transform="translate(28.5509 58)">1. Problem formulation</text><text font-family="Calibri,Calibri_MSFontService,sans-serif" font-weight="700" font-size="25" transform="translate(984.577 60)">Steps &gt;&gt;</text><text font-family="Calibri,Calibri_MSFontService,sans-serif" font-style="italic" font-weight="400" font-size="25" transform="translate(1076.16 60)">operations</text><path d="M986.5 84.1668C986.5 81.0371 989.037 78.5001 992.167 78.5001L1112.83 78.5001C1115.96 78.5001 1118.5 81.0371 1118.5 84.1668L1118.5 106.833C1118.5 109.963 1115.96 112.5 1112.83 112.5L992.167 112.5C989.037 112.5 986.5 109.963 986.5 106.833Z" stroke="#000000" stroke-width="1.33333" stroke-miterlimit="8" fill="#FFFFFF" fill-rule="evenodd"/><text font-family="Calibri,Calibri_MSFontService,sans-serif" font-weight="400" font-size="19" transform="translate(1001.98 101)">colrev_status</text><path d="M0 0 0.0370604 21.3277" stroke="#000000" stroke-width="0.666667" stroke-miterlimit="8" fill="none" fill-rule="evenodd" transform="matrix(-1 0 0 1 310.537 247.5)"/><path d="M0 0 0.0370604 21.3277" stroke="#000000" stroke-width="0.666667" stroke-miterlimit="8" fill="none" fill-rule="evenodd" transform="matrix(-1 0 0 1 466.537 247.5)"/><path d="M0 0 0.0370604 21.3277" stroke="#000000" stroke-width="0.666667" stroke-miterlimit="8" fill="none" fill-rule="evenodd" transform="matrix(-1 0 0 1 621.537 247.5)"/><path d="M0-0.333333 171.868-0.333333 171.868 0.202835 171.535-0.130499 336.404-0.130499 336.404 0.536168 171.202 0.536168 171.202 0 171.535 0.333333 0 0.333333ZM335.07-3.79717 343.07 0.202835 335.07 4.20283Z" transform="matrix(1 0 0 -1 609.5 437.703)"/><rect x="863" y="424" width="67" height="29" fill="#FFFFFF"/><text font-family="Calibri,Calibri_MSFontService,sans-serif" font-style="italic" font-weight="400" font-size="16" transform="translate(875.377 444)">screen</text></g></svg>
