<svg width="1280" height="720" xmlns="http://www.w3.org/2000/svg" xmlns:xlink="http://www.w3.org/1999/xlink" overflow="hidden"><defs><clipPath id="clip0"><rect x="0" y="0" width="1280" height="720"/></clipPath></defs><g clip-path="url(#clip0)"><rect x="0" y="0" width="1280" height="720" fill="#FFFFFF"/><path d="M261.507 253.167 331.669 254.636 331.655 255.302 261.493 253.833ZM330.413 250.942 338.327 255.109 330.245 258.94Z"/><path d="M338.5 243.167C338.5 240.037 341.037 237.5 344.167 237.5L433.833 237.5C436.963 237.5 439.5 240.037 439.5 243.167L439.5 265.833C439.5 268.963 436.963 271.5 433.833 271.5L344.167 271.5C341.037 271.5 338.5 268.963 338.5 265.833Z" stroke="#000000" stroke-width="1.33333" stroke-miterlimit="8" fill="#FFFFFF" fill-rule="evenodd"/><text font-family="Calibri,Calibri_MSFontService,sans-serif" font-weight="400" font-size="19" transform="translate(353.077 260)">imported</text><path d="M716.5 245.167C716.5 242.037 719.037 239.5 722.167 239.5L812.833 239.5C815.963 239.5 818.5 242.037 818.5 245.167L818.5 267.833C818.5 270.963 815.963 273.5 812.833 273.5L722.167 273.5C719.037 273.5 716.5 270.963 716.5 267.833Z" stroke="#000000" stroke-width="1.33333" stroke-miterlimit="8" fill="#FFFFFF" fill-rule="evenodd"/><text font-family="Calibri,Calibri_MSFontService,sans-serif" font-weight="400" font-size="19" transform="translate(728.682 262)">processed</text><path d="M618.505 254.167 710.232 255.556 710.222 256.223 618.495 254.833ZM708.955 251.87 716.893 255.99 708.833 259.869Z"/><rect x="628" y="240" width="69" height="29" fill="#FFFFFF"/><text font-family="Calibri,Calibri_MSFontService,sans-serif" font-style="italic" font-weight="400" font-size="16" transform="translate(638.785 259)">dedupe</text><path d="M282.5 424.167C282.5 421.037 285.037 418.5 288.167 418.5L412.833 418.5C415.963 418.5 418.5 421.037 418.5 424.167L418.5 446.833C418.5 449.963 415.963 452.5 412.833 452.5L288.167 452.5C285.037 452.5 282.5 449.963 282.5 446.833Z" stroke="#000000" stroke-width="1.33333" stroke-miterlimit="8" fill="#FFFFFF" fill-rule="evenodd"/><text font-family="Calibri,Calibri_MSFontService,sans-serif" font-weight="400" font-size="19" transform="translate(314.251 441)">imported</text><path d="M0.000793306-0.333332 224.224 0.200303 224.223 0.866968-0.000793306 0.333332ZM222.9-3.46953 230.89 0.549501 222.881 4.53045Z" transform="matrix(1 0 0 -1 418.5 435.05)"/><path d="M150.5 242.667C150.5 239.813 152.813 237.5 155.667 237.5L256.333 237.5C259.187 237.5 261.5 239.813 261.5 242.667L261.5 263.333C261.5 266.187 259.187 268.5 256.333 268.5L155.667 268.5C152.813 268.5 150.5 266.187 150.5 263.333Z" stroke="#000000" stroke-width="1.33333" stroke-miterlimit="8" fill="#FFFFFF" fill-rule="evenodd"/><text font-family="Calibri,Calibri_MSFontService,sans-serif" font-weight="400" font-size="19" transform="translate(170.92 258)">retrieved</text><path d="M648.5 423.167C648.5 420.037 651.037 417.5 654.167 417.5L778.833 417.5C781.963 417.5 784.5 420.037 784.5 423.167L784.5 445.833C784.5 448.963 781.963 451.5 778.833 451.5L654.167 451.5C651.037 451.5 648.5 448.963 648.5 445.833Z" stroke="#000000" stroke-width="1.33333" stroke-miterlimit="8" fill="#FFFFFF" fill-rule="evenodd"/><text font-family="Calibri,Calibri_MSFontService,sans-serif" font-weight="400" font-size="19" transform="translate(681.571 440)">prepared</text><path d="M83.5001 174.5 799.062 174.5 829.5 260 799.062 345.5 83.5001 345.5Z" stroke="#000000" stroke-width="3.33333" stroke-miterlimit="8" fill="none" fill-rule="evenodd"/><path d="M81.5001 354.5 801 354.5 827.5 440 801 525.5 81.5001 525.5Z" stroke="#000000" stroke-width="3.33333" stroke-miterlimit="8" fill="none" fill-rule="evenodd"/><rect x="483" y="418" width="86" height="29" fill="#FFFFFF"/><text font-family="Calibri,Calibri_MSFontService,sans-serif" font-style="italic" font-weight="400" font-size="16" transform="translate(496.978 438)">pdf_prep</text><text font-family="Calibri,Calibri_MSFontService,sans-serif" font-weight="700" font-size="25" transform="translate(102.798 211)">2. Metadata retrieval</text><text font-family="Calibri,Calibri_MSFontService,sans-serif" font-weight="700" font-size="25" transform="translate(102.798 390)">4. PDF retrieval</text><path d="M880.5 299.167C880.5 296.037 883.037 293.5 886.167 293.5L1047.83 293.5C1050.96 293.5 1053.5 296.037 1053.5 299.167L1053.5 321.833C1053.5 324.963 1050.96 327.5 1047.83 327.5L886.167 327.5C883.037 327.5 880.5 324.963 880.5 321.833Z" stroke="#000000" stroke-width="1.33333" stroke-miterlimit="8" fill="#FFFFFF" fill-rule="evenodd"/><text font-family="Calibri,Calibri_MSFontService,sans-serif" font-weight="400" font-size="19" transform="translate(891.945 316)">prescreen_included</text><path d="M1022.5 245.167C1022.5 242.037 1025.04 239.5 1028.17 239.5L1216.83 239.5C1219.96 239.5 1222.5 242.037 1222.5 245.167L1222.5 267.833C1222.5 270.963 1219.96 273.5 1216.83 273.5L1028.17 273.5C1025.04 273.5 1022.5 270.963 1022.5 267.833Z" stroke="#000000" stroke-width="1.33333" stroke-miterlimit="8" fill="#FFFFFF" fill-rule="evenodd"/><text font-family="Calibri,Calibri_MSFontService,sans-serif" font-weight="400" font-size="19" transform="translate(1045.44 262)">prescreen_excluded</text><path d="M885.5 518.167C885.5 515.037 888.037 512.5 891.167 512.5L1045.83 512.5C1048.96 512.5 1051.5 515.037 1051.5 518.167L1051.5 540.833C1051.5 543.963 1048.96 546.5 1045.83 546.5L891.167 546.5C888.037 546.5 885.5 543.963 885.5 540.833Z" stroke="#000000" stroke-width="1.33333" stroke-miterlimit="8" fill="#FFFFFF" fill-rule="evenodd"/><text font-family="Calibri,Calibri_MSFontService,sans-serif" font-weight="400" font-size="19" transform="translate(935.268 535)">included</text><path d="M1022.5 469.167C1022.5 466.037 1025.04 463.5 1028.17 463.5L1216.83 463.5C1219.96 463.5 1222.5 466.037 1222.5 469.167L1222.5 491.833C1222.5 494.963 1219.96 497.5 1216.83 497.5L1028.17 497.5C1025.04 497.5 1022.5 494.963 1022.5 491.833Z" stroke="#000000" stroke-width="1.33333" stroke-miterlimit="8" fill="#FFFFFF" fill-rule="evenodd"/><text font-family="Calibri,Calibri_MSFontService,sans-serif" font-weight="400" font-size="19" transform="translate(1087.84 486)">excluded</text><path d="M885.5 640.167C885.5 637.037 888.037 634.5 891.167 634.5L1045.83 634.5C1048.96 634.5 1051.5 637.037 1051.5 640.167L1051.5 662.833C1051.5 665.963 1048.96 668.5 1045.83 668.5L891.167 668.5C888.037 668.5 885.5 665.963 885.5 662.833Z" stroke="#000000" stroke-width="1.33333" stroke-miterlimit="8" fill="#FFFFFF" fill-rule="evenodd"/><text font-family="Calibri,Calibri_MSFontService,sans-serif" font-weight="400" font-size="19" transform="translate(923.651 657)">synthesized</text><path d="M952.5 256.5 967.5 241.5 982.5 256.5 967.5 271.5Z" stroke="#000000" stroke-width="1.33333" stroke-miterlimit="8" fill="#FFFFFF" fill-rule="evenodd"/><path d="M0.333284-0.00572557 0.59956 15.4942-0.0670081 15.5056-0.333284 0.00572557ZM4.24278 14.098 0.380787 22.1656-3.75604 14.2354Z" transform="matrix(-1 0 0 1 967.881 271.5)"/><path d="M952.5 481.5 967.5 466.5 982.5 481.5 967.5 496.5Z" stroke="#000000" stroke-width="1.33333" stroke-miterlimit="8" fill="#FFFFFF" fill-rule="evenodd"/><path d="M967.833 496.488 968.196 506.467 967.53 506.491 967.167 496.512ZM971.812 505.001 968.105 513.141 963.817 505.292Z"/><path d="M968.833 546.5 968.833 627.656 968.167 627.656 968.167 546.5ZM972.5 626.322 968.5 634.322 964.5 626.322Z"/><rect x="934" y="586" width="67" height="29" fill="#FFFFFF"/><text font-family="Calibri,Calibri_MSFontService,sans-serif" font-style="italic" font-weight="400" font-size="16" transform="translate(952.747 606)">data</text><path d="M982.5 256.167 1015.1 256.167 1015.1 256.834 982.5 256.833ZM1013.77 252.5 1021.77 256.5 1013.77 260.5Z"/><path d="M0.00306098-0.333319 32.6067-0.0339091 32.6006 0.632729-0.00306098 0.333319ZM31.3071-3.71267 39.27 0.36063 31.2336 4.287Z" transform="matrix(1 0 0 -1 982.5 480.861)"/><path d="M47.5001 253C47.5001 248.858 50.8579 245.5 55.0001 245.5 59.1422 245.5 62.5001 248.858 62.5001 253 62.5001 257.142 59.1422 260.5 55.0001 260.5 50.8579 260.5 47.5001 257.142 47.5001 253Z" stroke="#000000" stroke-width="1.33333" stroke-miterlimit="8" fill-rule="evenodd"/><rect x="844.5" y="174.5" width="399" height="171" stroke="#000000" stroke-width="3.33333" stroke-miterlimit="8" fill="none"/><path d="M818.5 256.167 885.986 256.167 885.986 256.614 885.652 256.281 946.138 256.281 946.138 256.948 885.319 256.948 885.319 256.5 885.652 256.833 818.5 256.833ZM944.804 252.614 952.804 256.614 944.804 260.614Z"/><path d="M784.5 434.167 967.697 434.167 967.697 459.216 967.031 459.216 967.031 434.5 967.364 434.833 784.5 434.833ZM971.364 457.882 967.364 465.882 963.364 457.882Z"/><rect x="852" y="240" width="85" height="29" fill="#FFFFFF"/><text font-family="Calibri,Calibri_MSFontService,sans-serif" font-style="italic" font-weight="400" font-size="16" transform="translate(862.892 260)">prescreen</text><path d="M0-0.333333 69.4844-0.333333 69.4844 0.380787 69.1511 0.0474541 131.635 0.0474541 131.635 0.714121 68.8177 0.714121 68.8177 0 69.1511 0.333333 0 0.333333ZM130.302-3.61921 138.302 0.380787 130.302 4.38079Z" transform="matrix(1.83697e-16 1 1 -1.83697e-16 967.5 327.5)"/><text font-family="Calibri,Calibri_MSFontService,sans-serif" font-weight="700" font-size="25" transform="translate(989.001 214)">3. Metadata prescreen</text><rect x="271" y="238" width="52" height="29" fill="#FFFFFF"/><text font-family="Calibri,Calibri_MSFontService,sans-serif" font-style="italic" font-weight="400" font-size="16" transform="translate(282.911 258)">load</text><path d="M62.5015 252.167 144.302 252.525 144.299 253.192 62.4986 252.833ZM142.985 248.853 150.968 252.888 142.95 256.853Z"/><rect x="72" y="238" width="65" height="29" fill="#FFFFFF"/><text font-family="Calibri,Calibri_MSFontService,sans-serif" font-style="italic" font-weight="400" font-size="16" transform="translate(83.4353 258)">search</text><path d="M47.5001 435.5C47.5001 431.082 50.8579 427.5 55.0001 427.5 59.1422 427.5 62.5001 431.082 62.5001 435.5 62.5001 439.918 59.1422 443.5 55.0001 443.5 50.8579 443.5 47.5001 439.918 47.5001 435.5Z" stroke="#000000" stroke-width="1.33333" stroke-miterlimit="8" fill-rule="evenodd"/><path d="M0.000515709-0.333333 213.13-0.00359508 213.129 0.663071-0.000515709 0.333333ZM211.802-3.67232 219.796 0.340052 211.79 4.32767Z" transform="matrix(1 0 0 -1 62.5001 435.84)"/><rect x="78" y="421" width="78" height="29" fill="#FFFFFF"/><text font-family="Calibri,Calibri_MSFontService,sans-serif" font-style="italic" font-weight="400" font-size="16" transform="translate(91.5519 441)">pdf_get</text><rect x="934" y="420" width="67" height="29" fill="#FFFFFF"/><text font-family="Calibri,Calibri_MSFontService,sans-serif" font-style="italic" font-weight="400" font-size="16" transform="translate(946.637 440)">screen</text><path d="M440.507 253.167 510.669 254.636 510.655 255.302 440.493 253.833ZM509.413 250.942 517.327 255.109 509.245 258.94Z"/><path d="M517.5 243.167C517.5 240.037 520.037 237.5 523.167 237.5L612.833 237.5C615.963 237.5 618.5 240.037 618.5 243.167L618.5 265.833C618.5 268.963 615.963 271.5 612.833 271.5L523.167 271.5C520.037 271.5 517.5 268.963 517.5 265.833Z" stroke="#000000" stroke-width="1.33333" stroke-miterlimit="8" fill="#FFFFFF" fill-rule="evenodd"/><text font-family="Calibri,Calibri_MSFontService,sans-serif" font-weight="400" font-size="19" transform="translate(532.47 260)">prepared</text><rect x="450" y="238" width="52" height="29" fill="#FFFFFF"/><text font-family="Calibri,Calibri_MSFontService,sans-serif" font-style="italic" font-weight="400" font-size="16" transform="translate(461.157 258)">prep</text><rect x="846.5" y="366.5" width="399" height="197" stroke="#000000" stroke-width="3.33333" stroke-miterlimit="8" fill="none"/><rect x="846.5" y="574.5" width="399" height="130" stroke="#000000" stroke-width="3.33333" stroke-miterlimit="8" fill="none"/><text font-family="Calibri,Calibri_MSFontService,sans-serif" font-weight="700" font-size="25" transform="translate(1083.68 402)">5. PDF screen</text><text font-family="Calibri,Calibri_MSFontService,sans-serif" font-weight="700" font-size="25" transform="translate(1049.59 605)">6.</text><text font-family="Calibri,Calibri_MSFontService,sans-serif" font-weight="700" font-size="25" transform="translate(1074.42 605)">Data extraction</text><text font-family="Calibri,Calibri_MSFontService,sans-serif" font-weight="700" font-size="25" transform="translate(1093.62 632)">and synthesis</text><rect x="846.5" y="20.5001" width="397" height="133" stroke="#000000" stroke-width="3.33333" stroke-miterlimit="8" fill="none"/><text font-family="Calibri,Calibri_MSFontService,sans-serif" font-weight="700" font-size="25" transform="translate(974.602 58)">1. Problem formulation</text><rect x="885" y="78" width="65" height="29" fill="#FFFFFF"/><text font-family="Calibri,Calibri_MSFontService,sans-serif" font-style="italic" font-weight="400" font-size="16" transform="translate(907.078 98)">init</text><text font-family="Calibri,Calibri_MSFontService,sans-serif" font-weight="700" font-size="25" transform="translate(120.425 95)">Steps &gt;&gt;</text><text font-family="Calibri,Calibri_MSFontService,sans-serif" font-style="italic" font-weight="400" font-size="25" transform="translate(212.005 95)">operations</text></g></svg>
