<svg width="1134" height="454" xmlns="http://www.w3.org/2000/svg" xmlns:xlink="http://www.w3.org/1999/xlink" overflow="hidden"><defs><clipPath id="clip0"><rect x="0" y="0" width="1134" height="454"/></clipPath></defs><g clip-path="url(#clip0)"><rect x="0" y="0" width="1134" height="454.434" fill="#FFFFFF"/><path d="M453 50.0478 453.001 86.9538 449 86.9538 449 50.0478ZM457.001 84.9516 451 96.9648 444.999 84.9517Z"/><text font-family="Calibri,Calibri_MSFontService,sans-serif" font-weight="400" font-size="29" transform="matrix(1 0 0 1.00096 423.19 37)">Start<tspan font-size="29" x="-45.9131" y="91.9122">colrev </tspan>status<tspan font-size="29" x="183.172" y="242.768">colrev</tspan><tspan font-size="29" x="-266.941" y="281.731">colrev </tspan>validate</text><path d="M448.388 147.273C515.793 137.574 578.287 184.415 587.972 251.895 588.026 252.272 588.079 252.649 588.129 253.027L601.622 253.943 584.002 277.479 564.544 251.424 578.027 252.34C568.645 190.734 511.411 148.218 449.796 157.084Z" stroke="#000000" stroke-width="1.33355" stroke-miterlimit="8" fill-rule="evenodd"/><path d="M346.517 308.764C327.656 252.757 351.116 191.226 402.465 162.028L398.27 149.159 426.665 156.717 409.798 184.523 405.606 171.663C359.521 198.968 338.797 254.811 355.901 305.598Z" stroke="#000000" stroke-width="1.33471" stroke-miterlimit="8" fill-rule="evenodd"/><path d="M592.14 294.714C584.203 362.421 522.94 410.861 455.306 402.908 421.509 398.934 390.854 381.154 370.598 353.78L358.341 359.5 362.413 330.373 392.023 343.781 379.775 349.497C417.948 399.207 489.144 408.531 538.796 370.322 563.049 351.658 578.74 323.975 582.305 293.558Z" stroke="#000000" stroke-width="1.33371" stroke-miterlimit="8" fill-rule="evenodd"/><text font-family="Calibri,Calibri_MSFontService,sans-serif" font-weight="400" font-size="29" transform="matrix(1 0 0 1.00096 714.836 140)">init<tspan font-size="29" x="0" y="34.9666">search</tspan><tspan font-size="29" x="0" y="69.9332">load</tspan><tspan font-size="29" x="0" y="104.9">prep</tspan><tspan font-size="29" x="0" y="139.866">dedupe</tspan><tspan font-size="29" x="0" y="173.834">pdf</tspan><tspan font-size="29" x="39.5058" y="173.834">-</tspan><tspan font-size="29" x="48.3405" y="173.834">get</tspan><tspan font-size="29" x="0" y="208.8">pdf</tspan><tspan font-size="29" x="39.5058" y="208.8">-</tspan><tspan font-size="29" x="48.3405" y="208.8">prep</tspan><tspan font-size="29" x="0" y="243.767">screen</tspan><tspan font-size="29" x="0" y="278.734">data</tspan><tspan font-weight="700" font-size="29" x="-18.9653" y="-53.9485">operations</tspan><tspan font-weight="700" font-size="29" x="110.48" y="-53.9485">:</tspan></text><path d="M699.45 433.914C695.059 433.914 691.5 430.352 691.5 425.957L691.5 122.567C691.5 118.172 695.059 114.609 699.45 114.609M830.55 114.609C834.941 114.609 838.5 118.172 838.5 122.567L838.5 425.957C838.5 430.352 834.941 433.914 830.55 433.914" stroke="#000000" stroke-width="5.33412" stroke-miterlimit="8" fill="none" fill-rule="evenodd"/><text font-family="Calibri,Calibri_MSFontService,sans-serif" font-weight="700" font-size="29" transform="matrix(1 0 0 1.00096 374.353 283)">The workflow</text></g></svg>
