<svg width="1134" height="454" xmlns="http://www.w3.org/2000/svg" xmlns:xlink="http://www.w3.org/1999/xlink" overflow="hidden"><defs><clipPath id="clip0"><rect x="0" y="0" width="1134" height="454"/></clipPath></defs><g clip-path="url(#clip0)"><rect x="0" y="0" width="1134" height="454.434" fill="#FFFFFF"/><path d="M447 56.0535 447 92.9595 443 92.9595 443 56.0536ZM451.001 90.9573 445 102.971 438.999 90.9573Z"/><text font-family="Calibri,Calibri_MSFontService,sans-serif" font-weight="700" font-size="29" transform="matrix(1 0 0 1.00096 415.625 43)">Start<tspan font-size="29" x="-46.74" y="91.9122">colrev </tspan><tspan font-size="29" x="32.8317" y="91.9122">status</tspan><tspan font-size="29" x="184.039" y="242.768">colrev</tspan><tspan font-size="29" x="-268.465" y="281.731">colrev </tspan><tspan font-size="29" x="-182.392" y="281.731">validate</tspan></text><path d="M441.689 153.232C509.094 143.534 571.588 190.375 581.273 257.855 581.327 258.232 581.38 258.609 581.43 258.986L594.923 259.903 577.303 283.439 557.845 257.384 571.328 258.3C561.946 196.693 504.712 154.177 443.097 163.044Z" stroke="#000000" stroke-width="1.33355" stroke-miterlimit="8" fill-rule="evenodd"/><path d="M339.818 314.724C320.957 258.717 344.417 197.186 395.766 167.988L391.571 155.119 419.967 162.677 403.099 190.482 398.907 177.623C352.822 204.928 332.098 260.77 349.202 311.557Z" stroke="#000000" stroke-width="1.33471" stroke-miterlimit="8" fill-rule="evenodd"/><path d="M585.441 300.674C577.504 368.381 516.242 416.82 448.607 408.867 414.81 404.893 384.155 387.114 363.899 359.739L351.642 365.459 355.714 336.332 385.324 349.74 373.076 355.456C411.249 405.167 482.445 414.491 532.097 376.282 556.35 357.618 572.041 329.935 575.606 299.518Z" stroke="#000000" stroke-width="1.33371" stroke-miterlimit="8" fill-rule="evenodd"/><text font-family="Calibri,Calibri_MSFontService,sans-serif" font-weight="700" font-size="29" transform="matrix(1 0 0 1.00096 708.138 145)">search<tspan font-size="29" x="0" y="34.9666">load</tspan><tspan font-size="29" x="0" y="69.9332">prep</tspan><tspan font-size="29" x="0" y="105.899">dedupe</tspan><tspan font-size="29" x="0" y="140.865">pdf</tspan><tspan font-size="29" x="40.1725" y="140.865">-</tspan><tspan font-size="29" x="49.0072" y="140.865">get</tspan><tspan font-size="29" x="0" y="174.833">pdf</tspan><tspan font-size="29" x="40.1725" y="174.833">-</tspan><tspan font-size="29" x="49.0072" y="174.833">prep</tspan><tspan font-size="29" x="0" y="209.8">screen</tspan><tspan font-size="29" x="0" y="244.766">data</tspan><tspan font-size="29" x="0" y="279.733">paper</tspan><tspan font-size="29" x="-18.9654" y="-41.9599">operations</tspan><tspan font-size="29" x="110.48" y="-41.9599">:</tspan></text><path d="M692.504 439.92C688.083 439.92 684.5 436.333 684.5 431.908L684.5 128.627C684.5 124.202 688.083 120.615 692.504 120.615M824.496 120.615C828.917 120.615 832.5 124.202 832.5 128.627L832.5 431.908C832.5 436.333 828.917 439.92 824.496 439.92" stroke="#000000" stroke-width="5.33412" stroke-miterlimit="8" fill="none" fill-rule="evenodd"/></g></svg>
