<svg width="1058" height="529" xmlns="http://www.w3.org/2000/svg" xmlns:xlink="http://www.w3.org/1999/xlink" overflow="hidden"><defs><clipPath id="clip0"><rect x="0" y="0" width="1058" height="529"/></clipPath></defs><g clip-path="url(#clip0)"><rect x="0" y="0" width="1058" height="529" fill="#FFFFFF"/><path d="M598.866 38.468C718.177 122.065 747.129 286.555 663.532 405.866 579.935 525.177 415.445 554.129 296.134 470.532 188.97 395.446 153.049 253.15 211.734 136.197L197.192 127.118 237.303 123.272 253.521 162.285 238.988 153.212C183.049 268.37 231.054 407.072 346.212 463.012 461.37 518.951 600.071 470.946 656.011 355.788 705.761 253.373 673.768 129.988 580.519 64.6525Z" stroke="#000000" stroke-width="1.33291" stroke-miterlimit="8" fill="#FFFFFF" fill-rule="evenodd"/><rect x="247.5" y="6.5" width="399" height="199" stroke="#000000" stroke-width="1.33291" stroke-miterlimit="8" fill="#FFFFFF"/><text font-family="Calibri,Calibri_MSFontService,sans-serif" font-weight="400" font-size="21" transform="translate(392.347 30)">colrev status<tspan font-size="21" x="-138.73" y="32">-</tspan><tspan font-size="21" x="-127.38" y="32">Displays the current state of the review</tspan><tspan font-size="21" x="-138.73" y="65">-</tspan><tspan font-size="21" x="-127.38" y="65">Provides situational instructions on</tspan><tspan font-size="21" x="-119.736" y="97">-</tspan><tspan font-size="21" x="-108.386" y="97">Error prevention</tspan><tspan font-size="21" x="-119.736" y="130">-</tspan><tspan font-size="21" x="-108.386" y="130">Effective collaboration</tspan><tspan font-size="21" x="-119.736" y="162">-</tspan><tspan font-size="21" x="-108.386" y="162">The next steps</tspan></text><rect x="474.5" y="272.5" width="399" height="199" stroke="#000000" stroke-width="1.33291" stroke-miterlimit="8" fill="#FFFFFF"/><text font-family="Calibri,Calibri_MSFontService,sans-serif" font-weight="400" font-size="21" transform="translate(480.627 296)">Any of the following:<tspan font-size="21" x="0" y="32">-</tspan><tspan font-size="21" x="11.3498" y="32">Colrev interactive or automated process</tspan></text><path d="M491.627 330.074 578.127 330.074 664.627 330.074 751.127 330.074 837.627 330.074 837.627 331.074 751.127 331.074 664.627 331.074 578.127 331.074 491.627 331.074Z" fill-rule="evenodd"/><text font-family="Calibri,Calibri_MSFontService,sans-serif" font-weight="400" font-size="21" transform="translate(480.627 361)">-<tspan font-size="21" x="11.3498" y="0">Synchronization of changes (based on git)</tspan><tspan font-size="21" x="0" y="32">-</tspan><tspan font-size="21" x="11.3498" y="32">Extension or external software</tspan><tspan font-size="21" x="0" y="65">Colrev generates a report for each commit</tspan></text><rect x="20.5" y="273.5" width="399" height="199" stroke="#000000" stroke-width="1.33291" stroke-miterlimit="8" fill="#FFFFFF"/><text font-family="Calibri,Calibri_MSFontService,sans-serif" font-weight="400" font-size="21" transform="translate(180.436 297)">git status<tspan font-size="21" x="-153.825" y="32">Researchers take responsibility for the </tspan><tspan font-size="21" x="-153.825" y="56">changes by:</tspan><tspan font-size="21" x="-153.825" y="88">-</tspan><tspan font-size="21" x="-142.475" y="88">Reviewing the commit report and changes</tspan><tspan font-size="21" x="-153.825" y="121">-</tspan><tspan font-size="21" x="-142.475" y="121">Reverting changes if necessary</tspan></text><rect x="895.5" y="173.5" width="143" height="298" stroke="#000000" stroke-width="1.33291" stroke-miterlimit="8" fill="#FFFFFF"/><path d="M894.583 322.282 849.621 322.312" stroke="#000000" stroke-width="1.33291" stroke-miterlimit="8" fill="none" fill-rule="evenodd"/><text font-family="Calibri,Calibri_MSFontService,sans-serif" font-weight="400" font-size="24" transform="translate(904.805 200)">Init<tspan font-size="24" x="0" y="29">Load</tspan><tspan font-size="24" x="0" y="58">Prep</tspan><tspan font-size="24" x="0" y="87">Dedupe</tspan><tspan font-size="24" x="0" y="116">Prescreen</tspan><tspan font-size="24" x="0" y="144">PDF</tspan><tspan font-size="24" x="38.1547" y="144">-</tspan><tspan font-size="24" x="45.4857" y="144">get</tspan><tspan font-size="24" x="0" y="173">PDF</tspan><tspan font-size="24" x="38.1547" y="173">-</tspan><tspan font-size="24" x="45.4857" y="173">prep</tspan><tspan font-size="24" x="0" y="202">Screen</tspan><tspan font-size="24" x="0" y="231">Data</tspan><tspan font-size="24" x="0" y="260">Paper</tspan></text></g></svg>
