<svg width="869" height="454" xmlns="http://www.w3.org/2000/svg" xmlns:xlink="http://www.w3.org/1999/xlink" overflow="hidden"><defs><clipPath id="clip0"><rect x="0" y="0" width="869" height="454"/></clipPath></defs><g clip-path="url(#clip0)"><rect x="0" y="0" width="869" height="453.673" fill="#FFFFFF"/><path d="M412.999 62.0922 412.999 98.998 409.001 98.998 409.001 62.0922ZM416.998 96.9957 411 109.009 405.002 96.9958Z"/><text font-family="Calibri,Calibri_MSFontService,sans-serif" font-weight="700" font-size="29" transform="matrix(1 0 0 1.00149 351.472 49)">Start here</text><path d="M430.516 169.769C497.351 182.655 541.094 247.369 528.219 314.312 528.147 314.686 528.074 315.059 527.998 315.432L540.444 320.713 516.119 337.192 506.243 306.202 518.68 311.479C529.924 250.186 489.738 191.281 428.644 179.502Z" stroke="#000000" stroke-width="1.33319" stroke-miterlimit="8" fill-rule="evenodd"/><text font-family="Calibri,Calibri_MSFontService,sans-serif" font-weight="700" font-size="29" transform="matrix(1 0 0 1.00149 335.415 141)">colrev <tspan font-size="29" x="79.5295" y="0">status</tspan><tspan font-size="29" x="207.834" y="211.685">colrev </tspan>operation<tspan font-size="29" x="-245.435" y="167.751">gitk</tspan><tspan font-size="29" x="-193.955" y="167.751">/ </tspan>git<tspan font-size="29" x="-137.477" y="167.751">status</tspan></text><path d="M281.587 289.062C282.049 229.961 324.291 179.485 382.323 168.69L382.56 155.155 406.916 171.588 381.908 192.348 382.145 178.823C329.703 189.551 291.903 235.547 291.484 289.14Z" stroke="#000000" stroke-width="1.3348" stroke-miterlimit="8" fill-rule="evenodd"/><path d="M518.181 356.143C488.588 417.534 414.911 443.271 353.621 413.627 322.994 398.814 299.841 371.982 289.641 339.484L276.197 340.88 289.549 314.685 313.142 337.044 299.707 338.439C319.542 397.908 383.749 430.012 443.118 410.146 472.118 400.442 495.974 379.412 509.269 351.832Z" stroke="#000000" stroke-width="1.33283" stroke-miterlimit="8" fill-rule="evenodd"/></g></svg>
