<svg width="1058" height="529" xmlns="http://www.w3.org/2000/svg" xmlns:xlink="http://www.w3.org/1999/xlink" overflow="hidden"><defs><clipPath id="clip0"><rect x="0" y="0" width="1058" height="529"/></clipPath></defs><g clip-path="url(#clip0)"><rect x="0" y="0" width="1058" height="529" fill="#FFFFFF"/><path d="M600.866 27.4681C720.177 111.065 749.129 275.555 665.532 394.866 581.935 514.178 417.445 543.13 298.134 459.533 190.97 384.447 155.049 242.15 213.734 125.197L199.192 116.118 239.303 112.272 255.521 151.285 240.988 142.212C185.049 257.37 233.054 396.072 348.212 452.012 463.37 507.952 602.071 459.946 658.011 344.789 707.761 242.373 675.768 118.988 582.519 53.6526Z" stroke="#000000" stroke-width="1.33291" stroke-miterlimit="8" fill="#FFFFFF" fill-rule="evenodd"/><rect x="250.5" y="28.5" width="399" height="133" stroke="#000000" stroke-width="1.33291" stroke-miterlimit="8" fill="#FFFFFF"/><text font-family="Calibri,Calibri_MSFontService,sans-serif" font-weight="400" font-size="23" transform="translate(391.608 54)">colrev status<tspan font-size="23" x="-134.924" y="34">-</tspan><tspan font-size="23" x="-122.861" y="34">Displays the current state of the review</tspan><tspan font-size="23" x="-134.924" y="69">-</tspan><tspan font-size="23" x="-122.861" y="69">Provides situational </tspan><tspan font-size="23" x="62.8469" y="69">instructions</tspan></text><rect x="477.5" y="269.5" width="399" height="128" stroke="#000000" stroke-width="1.33291" stroke-miterlimit="8" fill="#FFFFFF"/><text font-family="Calibri,Calibri_MSFontService,sans-serif" font-weight="400" font-size="23" transform="translate(601.154 295)">colrev operation<tspan font-size="23" x="-117.463" y="34">-</tspan><tspan font-size="23" x="-105.4" y="34">Or synchronization </tspan>of changes (git)<tspan font-size="23" x="-117.463" y="69">-</tspan><tspan font-size="23" x="-105.4" y="69">Or external extension</tspan></text><rect x="23.5" y="270.5" width="399" height="128" stroke="#000000" stroke-width="1.33291" stroke-miterlimit="8" fill="#FFFFFF"/><text font-family="Calibri,Calibri_MSFontService,sans-serif" font-weight="400" font-size="23" transform="translate(115.126 296)">git <tspan font-size="23" x="28.5777" y="0">status / git diff / </tspan><tspan font-size="23" x="180.796" y="0">gitk</tspan><tspan font-size="23" x="-85.4464" y="34">-</tspan><tspan font-size="23" x="-73.3836" y="34">Review </tspan>the <tspan font-size="23" x="33.4961" y="34">changes</tspan><tspan font-size="23" x="-85.4464" y="69">-</tspan><tspan font-size="23" x="-73.3836" y="69">Revert if </tspan>necessary</text><rect x="890.5" y="134.5" width="157" height="335" stroke="#000000" stroke-width="1.33291" stroke-miterlimit="8" fill="#FFFFFF"/><path d="M889.494 301.755 773.417 289.786" stroke="#000000" stroke-width="1.33291" stroke-miterlimit="8" fill="none" fill-rule="evenodd"/><text font-family="Calibri,Calibri_MSFontService,sans-serif" font-weight="400" font-size="23" transform="translate(899.548 160)">colrev …<tspan font-size="23" x="19.9937" y="27">init</tspan><tspan font-size="23" x="19.9937" y="55">search</tspan><tspan font-size="23" x="19.9937" y="82">load</tspan><tspan font-size="23" x="19.9937" y="109">prep</tspan><tspan font-size="23" x="19.9937" y="136">dedupe</tspan><tspan font-size="23" x="19.9937" y="163">prescreen</tspan><tspan font-size="23" x="19.9937" y="191">pdf</tspan><tspan font-size="23" x="50.6508" y="191">-</tspan><tspan font-size="23" x="57.6485" y="191">get</tspan><tspan font-size="23" x="19.9937" y="218">pdf</tspan><tspan font-size="23" x="50.6508" y="218">-</tspan><tspan font-size="23" x="57.6485" y="218">prep</tspan><tspan font-size="23" x="19.9937" y="245">screen</tspan><tspan font-size="23" x="19.9937" y="272">data</tspan><tspan font-size="23" x="19.9937" y="299">paper</tspan></text><path d="M200.656 26.1763 358.098 44.7758 357.786 47.4232 200.344 28.8237ZM357.087 41.972 364.56 46.8814 356.149 49.9143Z"/><text font-family="Calibri,Calibri_MSFontService,sans-serif" font-weight="700" font-size="24" transform="translate(86.6393 34)">Start here</text><path d="M1.09632-0.758114 36.5163 50.4633 34.3237 51.9795-1.09632 0.758114ZM37.9508 47.8507 39.2105 56.703 31.3729 52.3994Z" transform="matrix(-1 0 0 1 968.711 469.5)"/><text font-family="Calibri,Calibri_MSFontService,sans-serif" font-weight="700" font-size="24" transform="translate(838.566 501)">See below</text></g></svg>
